<svg width="49" height="29" viewBox="0 0 49 29" fill="none" xmlns="http://www.w3.org/2000/svg">
<path d="M36.5 26.5C43.1274 26.5 48.5 21.1274 48.5 14.5C48.5 7.87258 43.1274 2.5 36.5 2.5C29.8726 2.5 24.5 7.87258 24.5 14.5C24.5 21.1274 29.8726 26.5 36.5 26.5Z" fill="white" fill-opacity="0.5"/>
<path d="M36.4987 22.4087L41.3565 15.5674L36.4987 18.4356L31.6438 15.5674L36.4984 22.4087H36.4987Z" fill="#1E1E1E"/>
<path d="M36.4984 17.5165H36.4987L41.3536 14.6469L36.4987 6.59131H36.4984L31.6438 14.6469L36.4984 17.5165Z" fill="#1E1E1E"/>
<path d="M15 28C22.4558 28 28.5 21.9558 28.5 14.5C28.5 7.04416 22.4558 1 15 1C7.54416 1 1.5 7.04416 1.5 14.5C1.5 21.9558 7.54416 28 15 28Z" fill="#8F8F8F" stroke="#1E1E1E" stroke-width="2"/>
<path d="M20.0295 13.0414C20.2631 11.4771 19.0721 10.6362 17.4436 10.0753L17.9719 7.95632L16.6817 7.63487L16.1674 9.69799C15.8287 9.6135 15.4804 9.53378 15.1343 9.45479L15.6523 7.37808L14.3633 7.05664L13.8346 9.17486C13.5539 9.11094 13.2784 9.04775 13.011 8.98126L13.0125 8.97465L11.2337 8.53051L10.8906 9.90812C10.8906 9.90812 11.8475 10.1274 11.8273 10.141C12.0058 10.1624 12.1688 10.253 12.2812 10.3933C12.3936 10.5335 12.4464 10.7123 12.4283 10.8912L11.8266 13.3051C11.8722 13.3165 11.917 13.3309 11.9607 13.3481L11.8248 13.3143L10.9809 16.6959C10.9624 16.7549 10.9323 16.8097 10.8926 16.8571C10.8528 16.9045 10.804 16.9435 10.7491 16.972C10.6942 17.0005 10.6341 17.0178 10.5725 17.023C10.5108 17.0282 10.4488 17.0212 10.3898 17.0023C10.4027 17.021 9.45233 16.7683 9.45233 16.7683L8.81201 18.2451L10.4909 18.6635C10.8031 18.7418 11.1091 18.8237 11.41 18.9008L10.8762 21.0444L12.1646 21.3658L12.6936 19.2454C13.0452 19.3409 13.3868 19.4291 13.7211 19.5121L13.1943 21.6226L14.4841 21.9441L15.0179 19.8049C17.2173 20.2211 18.8715 20.0532 19.567 18.0643C20.1279 16.4626 19.5394 15.5387 18.3822 14.9359C19.2249 14.7408 19.8598 14.1864 20.0291 13.0414L20.0295 13.0414ZM17.0821 17.1739C16.6831 18.7756 13.9867 17.91 13.112 17.6926L13.8203 14.8532C14.6946 15.0714 17.498 15.5035 17.0825 17.1739H17.0821ZM17.4807 13.0182C17.117 14.4752 14.8724 13.7349 14.1439 13.5535L14.7861 10.9783C15.5146 11.1597 17.8598 11.4984 17.4807 13.0182Z" fill="#1E1E1E"/>
</svg>
