<svg width="20" height="17" viewBox="0 0 20 17" fill="none" xmlns="http://www.w3.org/2000/svg">
<path fill-rule="evenodd" clip-rule="evenodd" d="M1.5 1.5V3H14V1.5H1.5ZM0 3V4V4.5V16C0 16.5523 0.447716 17 1 17H19C19.5523 17 20 16.5523 20 16V11V9V4C20 3.44772 19.5523 3 19 3H15.5V1C15.5 0.447715 15.0523 0 14.5 0H1C0.447715 0 0 0.447715 0 1V3ZM18.5 8V4.5H15.5H14H1.5V15.5H18.5V12H16C15.4477 12 15 11.5523 15 11V9C15 8.44771 15.4477 8 16 8H18.5ZM18.5 9.3V10.7H16.3V9.3H18.5Z" fill="white" fill-opacity="0.5"/>
</svg>
