<svg width="26" height="27" viewBox="0 0 26 27" fill="none" xmlns="http://www.w3.org/2000/svg">
<g opacity="0.5">
<g clip-path="url(#clip0_8813_12276)">
<path d="M12.4925 25.4821C19.1158 25.4821 24.485 20.1128 24.485 13.4896C24.485 6.8663 19.1158 1.49707 12.4925 1.49707C5.86923 1.49707 0.5 6.8663 0.5 13.4896C0.5 20.1128 5.86923 25.4821 12.4925 25.4821Z" fill="white"/>
<path fill-rule="evenodd" clip-rule="evenodd" d="M17.4816 8.5H14.6936V11.3151H17.4816V8.5ZM17.5087 12.0933H14.6936V14.9084H17.5087V12.0933ZM14.6938 15.6851H17.509V18.5002H14.6938V15.6851ZM7.50098 8.70117H7.5V18.5207H10.3151V11.3151H13.925V8.5H7.50098V8.70117Z" fill="#1E1E1E"/>
</g>
</g>
<defs>
<clipPath id="clip0_8813_12276">
<rect x="0.25" y="0.5" width="25" height="26" fill="white"/>
</clipPath>
</defs>
</svg>
