<svg width="25" height="25" viewBox="0 0 25 25" fill="none" xmlns="http://www.w3.org/2000/svg">
<g opacity="0.5">
<path d="M12.1481 21.5088H9.62406C9.49581 21.516 9.37215 21.46 9.29306 21.3588C9.21289 21.256 9.18017 21.1241 9.20306 20.9958C9.24306 20.7548 9.29306 20.4368 9.35606 20.0328C9.39106 19.8108 9.42906 19.5698 9.47006 19.3058C9.59506 18.5058 9.68006 17.9688 9.73706 17.6178C9.75972 17.4771 9.78672 17.3104 9.81806 17.1178V17.0978C9.86939 16.7784 9.93206 16.3904 10.0061 15.9338L10.1061 15.3148V15.3098C10.1781 14.8651 10.2347 14.5114 10.2761 14.2488C10.2807 14.1408 10.3299 14.0395 10.412 13.9692C10.494 13.8989 10.6016 13.8658 10.7091 13.8778H12.2291C12.9583 13.8856 13.6862 13.8146 14.4001 13.6658C15.4749 13.4513 16.472 12.9507 17.2861 12.2168C17.9994 11.5315 18.5348 10.6827 18.8461 9.74378C18.998 9.3076 19.1157 8.86025 19.1981 8.40578C19.2051 8.36378 19.2131 8.33978 19.2231 8.33178C19.229 8.32407 19.2383 8.31962 19.2481 8.31977H19.2581C19.28 8.32899 19.3008 8.34074 19.3201 8.35478C19.8447 8.75223 20.1958 9.33685 20.3001 9.98678C20.4184 10.6667 20.4048 11.363 20.2601 12.0378C20.0707 13.3437 19.4102 14.5352 18.4031 15.3878C17.2905 16.1807 15.9425 16.574 14.5781 16.5038H14.1391C13.9756 16.5024 13.8175 16.5615 13.6951 16.6698C13.5681 16.78 13.4836 16.931 13.4561 17.0968L13.4151 17.2908L12.8621 20.7688L12.8411 20.9198C12.8125 21.0873 12.7244 21.2389 12.5931 21.3468C12.4694 21.4531 12.3112 21.5107 12.1481 21.5088ZM8.57006 19.5088H5.60506C5.46357 19.5118 5.32818 19.4512 5.23606 19.3438C5.14004 19.2382 5.09766 19.0945 5.12106 18.9538L7.45206 4.16378C7.48137 3.97402 7.58008 3.80191 7.72906 3.68078C7.87295 3.55669 8.05706 3.48916 8.24706 3.49075H14.2611C14.5908 3.50377 14.9185 3.54763 15.2401 3.62178C15.6233 3.6943 15.9992 3.80141 16.3631 3.94178C17.0254 4.17597 17.5997 4.60817 18.0081 5.17978C18.3953 5.76325 18.5936 6.45173 18.5761 7.15178C18.5591 7.96363 18.4032 8.76658 18.1151 9.52578C17.6557 11.0004 16.5292 12.1729 15.0741 12.6908C14.2573 12.9673 13.4014 13.1108 12.5391 13.1158C12.5291 13.1218 12.0991 13.1228 11.6391 13.1228L10.7391 13.1158C10.1454 13.0552 9.61455 13.4863 9.55206 14.0798C9.53906 14.1338 9.23506 16.0268 8.69706 19.4088C8.69708 19.4409 8.68272 19.4712 8.65792 19.4916C8.63312 19.5119 8.60051 19.5201 8.56906 19.5138L8.57006 19.5088Z" fill="white"/>
</g>
</svg>
