<svg width="64" height="17" viewBox="0 0 64 17" fill="none" xmlns="http://www.w3.org/2000/svg">
<path d="M11.3114 1.34343C10.8331 0.882397 10.2598 0.530041 9.63124 0.310668C9.00264 0.0912951 8.33366 0.0101286 7.67045 0.0727676H2.84796C2.67943 0.0760154 2.51733 0.13768 2.38966 0.247113C2.26199 0.356545 2.17676 0.506874 2.1487 0.672135L0.00268848 13.3308C-0.00412304 13.3913 0.00204429 13.4526 0.0207847 13.5107C0.0395252 13.5687 0.0704137 13.6221 0.111417 13.6674C0.15242 13.7127 0.202607 13.7489 0.258675 13.7735C0.314743 13.7981 0.37542 13.8106 0.436712 13.8103H2.84796C2.99221 13.8041 3.1313 13.7551 3.24733 13.6696C3.36335 13.5842 3.451 13.4662 3.49899 13.3308L4.02947 9.87841C4.04738 9.71312 4.12635 9.56031 4.25107 9.44958C4.3758 9.33886 4.53741 9.27809 4.70462 9.27904H6.27193C6.96521 9.35869 7.66756 9.29567 8.33529 9.0939C9.00303 8.89213 9.62188 8.55592 10.1534 8.10619C10.6848 7.65645 11.1176 7.10281 11.4246 6.47969C11.7317 5.85657 11.9066 5.17729 11.9384 4.48411C12.0742 3.94711 12.0884 3.38682 11.98 2.84369C11.8716 2.30055 11.6432 1.78814 11.3114 1.34343ZM8.24915 4.6759C7.98391 6.45003 6.6095 6.45003 5.30743 6.45003H4.55994L5.06631 3.11755C5.08281 3.01997 5.13254 2.93098 5.20716 2.86551C5.28179 2.80004 5.37678 2.76206 5.47622 2.75793H5.81379C6.70595 2.75793 7.574 2.75793 7.98391 3.2614C8.13402 3.46128 8.23599 3.69275 8.28197 3.93799C8.32796 4.18322 8.31673 4.43567 8.24915 4.6759Z" fill="#003087"/>
<path d="M22.5719 4.60386H20.1606C20.0625 4.60918 19.9684 4.64417 19.8908 4.70415C19.8132 4.76414 19.756 4.84625 19.7266 4.93951V5.63477L19.5578 5.37105C19.193 5.00578 18.7495 4.72754 18.2608 4.55728C17.7722 4.38702 17.2511 4.32917 16.7367 4.38809C15.4176 4.41848 14.1534 4.91957 13.1751 5.79988C12.1968 6.68019 11.5695 7.88098 11.4078 9.18303C11.2859 9.82237 11.3023 10.4802 11.4562 11.1127C11.61 11.7452 11.8977 12.3379 12.3 12.8511C12.6772 13.2663 13.1449 13.5901 13.6673 13.7979C14.1897 14.0056 14.753 14.0918 15.314 14.0499C15.9255 14.0564 16.5318 13.9385 17.0957 13.7035C17.6596 13.4685 18.1693 13.1213 18.5933 12.6833V13.3786C18.5865 13.4893 18.6227 13.5983 18.6945 13.6831C18.7664 13.7679 18.8683 13.822 18.9791 13.8341H21.1251C21.2928 13.8418 21.4573 13.7871 21.5865 13.6807C21.7158 13.5743 21.8006 13.4239 21.8244 13.2587L23.1024 5.08335C23.1295 5.01147 23.1343 4.93315 23.1162 4.85851C23.0981 4.78388 23.0578 4.71637 23.0007 4.66472C22.9436 4.61307 22.8721 4.57966 22.7957 4.56881C22.7192 4.55796 22.6413 4.57017 22.5719 4.60386ZM16.5438 11.5325C16.249 11.5487 15.9542 11.5014 15.6795 11.3938C15.4049 11.2862 15.1568 11.1209 14.9524 10.9092C14.7763 10.6658 14.6513 10.3897 14.585 10.0972C14.5187 9.80471 14.5125 9.50195 14.5666 9.207C14.6428 8.55197 14.9567 7.94708 15.4495 7.50572C15.9422 7.06436 16.5799 6.81683 17.243 6.80953C17.5419 6.79604 17.84 6.84935 18.1154 6.96552C18.3908 7.08169 18.6365 7.25778 18.8345 7.48082C19.0317 7.70822 19.1717 7.97898 19.243 8.27078C19.3143 8.56257 19.3147 8.86704 19.2444 9.15905C19.1724 9.81802 18.8556 10.4266 18.3561 10.8655C17.8566 11.3045 17.2104 11.5424 16.5438 11.5325Z" fill="#003087"/>
<path d="M35.2552 4.60416H32.8439C32.7287 4.6027 32.6151 4.63058 32.5138 4.68513C32.4125 4.73969 32.3269 4.8191 32.2652 4.91583L28.9618 9.71076L27.5633 5.0357C27.5179 4.89209 27.4283 4.76625 27.3072 4.67593C27.1861 4.58561 27.0395 4.53534 26.8881 4.53223H24.4769C24.4104 4.53187 24.3448 4.54759 24.2858 4.57804C24.2268 4.6085 24.1761 4.65277 24.1381 4.70705C24.1001 4.76132 24.076 4.82396 24.0678 4.88957C24.0596 4.95519 24.0676 5.02179 24.0911 5.08365L26.7193 12.8514L24.3081 16.3518C24.2633 16.413 24.2365 16.4854 24.2308 16.5609C24.2251 16.6364 24.2406 16.7119 24.2756 16.7792C24.3107 16.8464 24.3639 16.9025 24.4292 16.9414C24.4946 16.9802 24.5695 17.0002 24.6457 16.9991H27.0569C27.1702 17.0054 27.2832 16.9822 27.3848 16.9318C27.4863 16.8813 27.5727 16.8053 27.6356 16.7114L35.5927 5.17955C35.62 5.12016 35.6325 5.05513 35.6293 4.98993C35.626 4.92472 35.607 4.86124 35.5739 4.80485C35.5409 4.74846 35.4946 4.70079 35.4392 4.66586C35.3837 4.63094 35.3206 4.60978 35.2552 4.60416Z" fill="#003087"/>
<path d="M46.829 1.34348C46.3497 0.883773 45.7763 0.532284 45.148 0.312997C44.5196 0.0937103 43.8511 0.0117883 43.188 0.0728194H38.1967C38.0321 0.0723698 37.8734 0.133947 37.7526 0.245157C37.6318 0.356367 37.5578 0.50895 37.5457 0.672186L35.4961 13.3308C35.4893 13.3914 35.4954 13.4527 35.5142 13.5107C35.5329 13.5687 35.5638 13.6222 35.6048 13.6675C35.6458 13.7128 35.696 13.7489 35.7521 13.7735C35.8082 13.7982 35.8688 13.8107 35.9301 13.8103H38.486C38.6018 13.8051 38.7118 13.7586 38.796 13.6794C38.8801 13.6001 38.9327 13.4934 38.9442 13.3788L39.5229 9.75859C39.5457 9.59533 39.6261 9.44543 39.7498 9.33565C39.8734 9.22587 40.0323 9.16334 40.198 9.15922H41.7894C42.4815 9.23175 43.1811 9.16371 43.8458 8.95921C44.5106 8.75472 45.1266 8.41805 45.6566 7.96964C46.1865 7.52122 46.6192 6.97042 46.9285 6.35065C47.2378 5.73089 47.4172 5.05509 47.4559 4.36429C47.563 3.84482 47.5626 3.30911 47.4548 2.78978C47.3471 2.27045 47.1341 1.77836 46.829 1.34348ZM43.7426 4.74788C43.5014 6.52201 42.127 6.52201 40.8008 6.52201H40.0534L40.5838 3.18953C40.5869 3.13912 40.5999 3.08981 40.6222 3.04443C40.6445 2.99905 40.6756 2.95849 40.7137 2.92507C40.7518 2.89166 40.7961 2.86605 40.8442 2.84972C40.8922 2.83339 40.9431 2.82666 40.9937 2.82991H41.3554C42.2476 2.82991 43.0915 2.82991 43.5255 3.33338C43.6568 3.52844 43.7441 3.74938 43.7816 3.9811C43.819 4.21281 43.8057 4.44983 43.7426 4.67596V4.74788Z" fill="#029CDD"/>
<path d="M58.0652 4.60397H55.654C55.5538 4.60149 55.4558 4.63356 55.3767 4.69474C55.2976 4.75593 55.2422 4.84245 55.22 4.93962V5.63488L55.0512 5.37116C54.6921 5.00487 54.253 4.72569 53.768 4.55523C53.283 4.38477 52.765 4.32762 52.2541 4.3882C50.935 4.41859 49.6709 4.91968 48.6926 5.79999C47.7142 6.6803 47.087 7.88109 46.9253 9.18314C46.7901 9.82203 46.8001 10.4829 46.9544 11.1174C47.1088 11.752 47.4036 12.3444 47.8175 12.8513C48.1887 13.2674 48.6519 13.5922 49.1707 13.8002C49.6895 14.0082 50.2497 14.0937 50.8074 14.05C51.4223 14.0556 52.0319 13.9374 52.5996 13.7025C53.1673 13.4677 53.6814 13.121 54.1108 12.6834V13.3787C54.104 13.4361 54.1095 13.4943 54.127 13.5494C54.1445 13.6046 54.1736 13.6553 54.2124 13.6984C54.2512 13.7415 54.2987 13.7759 54.3519 13.7993C54.405 13.8227 54.4626 13.8346 54.5207 13.8342H56.6667C56.8303 13.8359 56.9889 13.7785 57.113 13.6727C57.2372 13.5668 57.3185 13.4198 57.3419 13.2588L58.5234 5.08346C58.5354 5.01999 58.5322 4.95458 58.5138 4.89262C58.4954 4.83066 58.4625 4.77393 58.4178 4.7271C58.373 4.68026 58.3177 4.64468 58.2564 4.62327C58.1952 4.60186 58.1296 4.59525 58.0652 4.60397ZM52.0612 11.5327C51.7627 11.5508 51.4637 11.5044 51.1849 11.3968C50.906 11.2892 50.6538 11.1229 50.4457 10.9093C50.2685 10.6668 50.1448 10.3898 50.0825 10.0965C50.0201 9.80324 50.0207 9.50018 50.084 9.20711C50.1496 8.55209 50.4571 7.94448 50.9469 7.50169C51.4368 7.05889 52.0744 6.81233 52.7364 6.80964C53.0433 6.78278 53.3523 6.83035 53.6366 6.94828C53.921 7.0662 54.1724 7.25096 54.3692 7.48671C54.566 7.72245 54.7023 8.00215 54.7665 8.30179C54.8307 8.60144 54.8208 8.91209 54.7377 9.20711C54.6655 9.85754 54.3504 10.4573 53.8548 10.888C53.3592 11.3186 52.7192 11.5486 52.0612 11.5327Z" fill="#029CDD"/>
<path d="M63.5872 0.000942606H61.1759C61.0774 -0.00593739 60.9799 0.0250396 60.9036 0.0874876C60.8274 0.149935 60.7781 0.239096 60.766 0.336589L58.837 13.3309C58.8263 13.3901 58.829 13.4509 58.8447 13.509C58.8605 13.5671 58.889 13.621 58.9282 13.6668C58.9673 13.7126 59.0162 13.7493 59.0714 13.7741C59.1265 13.7989 59.1864 13.8113 59.2469 13.8104H61.2965C61.46 13.812 61.6186 13.7546 61.7428 13.6488C61.867 13.543 61.9483 13.3959 61.9716 13.235L63.9971 0.456463C64.0039 0.399055 63.9984 0.340857 63.9809 0.285733C63.9634 0.230608 63.9343 0.179821 63.8955 0.136739C63.8567 0.0936572 63.8092 0.0592685 63.756 0.035856C63.7029 0.0124435 63.6453 0.000540983 63.5872 0.000942606Z" fill="#029CDD"/>
</svg>
