<svg width="111" height="100" viewBox="0 0 111 100" fill="none" xmlns="http://www.w3.org/2000/svg">
<rect x="12" y="42" width="87" height="21" rx="10.5" fill="white" stroke="#1E1E1E" stroke-width="2"/>
<rect x="25" y="16" width="62" height="66" rx="25" fill="white" stroke="#1E1E1E" stroke-width="2"/>
<path d="M66.4593 67.9218C63.9342 63.2441 58.3368 61.8038 56.2877 64.0184C54.2386 61.8038 48.8042 63.2438 46.2791 67.9215C44.9958 70.3017 39.5109 64.0495 38 64.0081C38.4347 65.1051 42.9066 70.9728 44.1175 71.8214C45.2869 72.639 47.8534 72.6804 49.1884 69.8552C51.0719 65.8709 53.5866 65.8605 56.298 65.8605C59.0094 65.8605 61.5242 65.8709 63.4077 69.8552C64.7427 72.6804 67.3092 72.6494 68.4786 71.8214C69.6791 70.9728 74.8212 65.0947 75.2558 64.0081C73.7138 64.0495 67.7426 70.302 66.4593 67.9218Z" fill="#626161"/>
<path d="M87.7371 26.6686C90.5349 54.9726 70.3907 15.2266 56.4021 23.6575C39.0559 15.2266 20.0317 53.1659 23.3883 26.6686C23.3883 15.693 34.5777 8 55.283 8C75.9882 8 87.7371 15.693 87.7371 26.6686Z" fill="#626161"/>
<path d="M69.9419 75.5584C69.9419 81.5488 64.1102 92.6628 56.3943 92.6628C48.6784 92.6628 42 81.5488 42 75.5584C42 69.5679 48.6784 75.9757 56.3943 75.9757C64.1102 75.9757 69.9419 69.5679 69.9419 75.5584Z" fill="#626161"/>
<path d="M33 36H54.5V59H59.5" stroke="#1E1E1E" stroke-width="2" stroke-linecap="round"/>
<path d="M65 36H80" stroke="#1E1E1E" stroke-width="2" stroke-linecap="round"/>
<ellipse cx="41.5" cy="47" rx="3.5" ry="5" fill="#1E1E1E"/>
<circle cx="43" cy="46" r="1" fill="white"/>
<ellipse cx="71.5" cy="47" rx="3.5" ry="5" fill="#1E1E1E"/>
<circle cx="73" cy="46" r="1" fill="white"/>
<path d="M51 71C52.5 72.6667 56.5 75 60.5 71" stroke="#1E1E1E" stroke-width="2" stroke-linecap="round"/>
</svg>
