<svg width="111" height="100" viewBox="0 0 111 100" fill="none" xmlns="http://www.w3.org/2000/svg">
<rect x="12" y="55" width="87" height="21" rx="10.5" fill="white" stroke="#1E1E1E" stroke-width="2"/>
<rect x="25" y="29" width="62" height="66" rx="25" fill="white" stroke="#1E1E1E" stroke-width="2"/>
<path d="M87.717 56.7948C87.717 64.7596 85.5525 31.9298 56.1027 34.4163C27.7207 32.9244 25.0323 66.7488 25.0323 58.784C14.6768 21.4865 46.8278 19 55.5577 19C64.2875 19 99.164 23.4757 87.717 56.7948Z" fill="#626161"/>
<path d="M69.5 16.942C69.5 18.674 69.104 19.5413 68.5485 19.9851C67.9752 20.443 67.0867 20.5732 65.7956 20.463C64.8431 20.3817 63.76 20.1803 62.5429 19.954C62.1218 19.8757 61.6846 19.7944 61.2313 19.714C59.4878 19.4051 57.5463 19.1196 55.5 19.1196C53.4537 19.1196 51.5122 19.4051 49.7687 19.714C49.3154 19.7944 48.8782 19.8757 48.4571 19.954C47.24 20.1803 46.1569 20.3817 45.2044 20.463C43.9133 20.5732 43.0248 20.443 42.4515 19.9851C41.896 19.5413 41.5 18.674 41.5 16.942C41.5 10.1224 47.7131 4.5 55.5 4.5C63.2869 4.5 69.5 10.1224 69.5 16.942Z" fill="#626161" stroke="#1E1E1E"/>
<path d="M33 49H54.5V72H59.5" stroke="#1E1E1E" stroke-width="2" stroke-linecap="round"/>
<path d="M65 49H80" stroke="#1E1E1E" stroke-width="2" stroke-linecap="round"/>
<ellipse cx="41.5" cy="60" rx="3.5" ry="5" fill="#1E1E1E"/>
<circle cx="43" cy="59" r="1" fill="white"/>
<ellipse cx="71.5" cy="60" rx="3.5" ry="5" fill="#1E1E1E"/>
<circle cx="73" cy="59" r="1" fill="white"/>
<path d="M51 84C52.5 85.6667 56.5 88 60.5 84" stroke="#1E1E1E" stroke-width="2" stroke-linecap="round"/>
</svg>
