<svg width="111" height="100" viewBox="0 0 111 100" fill="none" xmlns="http://www.w3.org/2000/svg">
<rect x="12" y="46" width="87" height="21" rx="10.5" fill="white" stroke="#1E1E1E" stroke-width="2"/>
<rect x="25" y="20" width="62" height="66" rx="25" fill="white" stroke="#1E1E1E" stroke-width="2"/>
<path d="M55.9651 13C21.3991 13 23.813 44.6828 24.1691 49H26.4742C26.4742 49 27.325 39.4741 30.5501 33.8648C33.3597 28.9967 36.9607 28.4357 42.5107 30.2387C46.824 31.6411 50.2569 32.9032 56.0146 32.9933C61.7723 32.9032 65.1953 31.6411 69.5185 30.2387C75.0685 28.4357 78.6695 28.9967 81.4692 33.8648C84.7042 39.4741 85.555 49 85.555 49H87.8106C88.1173 44.7329 91.1149 13 55.9651 13Z" fill="#626160"/>
<path d="M33 40H54.5V63H59.5" stroke="#1E1E1E" stroke-width="2" stroke-linecap="round"/>
<path d="M65 40H80" stroke="#1E1E1E" stroke-width="2" stroke-linecap="round"/>
<ellipse cx="41.5" cy="51" rx="3.5" ry="5" fill="#1E1E1E"/>
<circle cx="43" cy="50" r="1" fill="white"/>
<ellipse cx="71.5" cy="51" rx="3.5" ry="5" fill="#1E1E1E"/>
<circle cx="73" cy="50" r="1" fill="white"/>
<path d="M51 75C52.5 76.6667 56.5 79 60.5 75" stroke="#1E1E1E" stroke-width="2" stroke-linecap="round"/>
<path d="M59.6165 54.3209C59.7937 54.5327 60.109 54.5607 60.3208 54.3834C60.5326 54.2062 60.5606 53.8909 60.3833 53.6791L59.6165 54.3209ZM51.6337 53.6595C51.4457 53.8617 51.4572 54.1781 51.6594 54.3661C51.8616 54.5542 52.178 54.5427 52.366 54.3405L51.6337 53.6595ZM29.2696 50.7149C29.4994 50.868 29.8098 50.8059 29.963 50.5762C30.1162 50.3464 30.0541 50.036 29.8243 49.8828L29.2696 50.7149ZM24.416 46.2773C24.1863 46.1241 23.8758 46.1862 23.7226 46.4159C23.5695 46.6457 23.6316 46.9561 23.8613 47.1093L24.416 46.2773ZM82.4159 49.7226C82.1862 49.8758 82.1241 50.1863 82.2772 50.416C82.4304 50.6458 82.7409 50.7079 82.9706 50.5547L82.4159 49.7226ZM88.1386 47.1094C88.3683 46.9562 88.4304 46.6458 88.2772 46.416C88.1241 46.1863 87.8136 46.1242 87.5839 46.2773L88.1386 47.1094ZM60.3833 53.6791C59.6994 52.8619 58.446 51.875 56.8807 51.5841C55.2748 51.2856 53.4226 51.7359 51.6337 53.6595L52.366 54.3405C53.9456 52.6419 55.4618 52.3375 56.698 52.5673C57.9749 52.8046 59.0372 53.6288 59.6165 54.3209L60.3833 53.6791ZM51.7243 52.1173C51.7243 57.9813 46.9729 62.7347 41.1121 62.7347V63.7347C47.5256 63.7347 52.7243 58.5332 52.7243 52.1173H51.7243ZM41.1121 62.7347C35.2514 62.7347 30.4999 57.9813 30.4999 52.1173H29.4999C29.4999 58.5332 34.6986 63.7347 41.1121 63.7347V62.7347ZM30.4999 52.1173C30.4999 46.2533 35.2514 41.5 41.1121 41.5V40.5C34.6986 40.5 29.4999 45.7015 29.4999 52.1173H30.4999ZM41.1121 41.5C46.9729 41.5 51.7243 46.2533 51.7243 52.1173H52.7243C52.7243 45.7015 47.5256 40.5 41.1121 40.5V41.5ZM81.7243 52.1173C81.7243 57.9813 76.9729 62.7347 71.1121 62.7347V63.7347C77.5256 63.7347 82.7243 58.5332 82.7243 52.1173H81.7243ZM71.1121 62.7347C65.2514 62.7347 60.4999 57.9813 60.4999 52.1173H59.4999C59.4999 58.5332 64.6986 63.7347 71.1121 63.7347V62.7347ZM60.4999 52.1173C60.4999 46.2533 65.2514 41.5 71.1121 41.5V40.5C64.6986 40.5 59.4999 45.7015 59.4999 52.1173H60.4999ZM71.1121 41.5C76.9729 41.5 81.7243 46.2533 81.7243 52.1173H82.7243C82.7243 45.7015 77.5256 40.5 71.1121 40.5V41.5ZM29.8243 49.8828L24.416 46.2773L23.8613 47.1093L29.2696 50.7149L29.8243 49.8828ZM82.9706 50.5547L88.1386 47.1094L87.5839 46.2773L82.4159 49.7226L82.9706 50.5547Z" fill="#1E1E1E"/>
</svg>
