<svg width="111" height="100" viewBox="0 0 111 100" fill="none" xmlns="http://www.w3.org/2000/svg">
<rect x="11" y="47" width="87" height="21" rx="10.5" fill="white" stroke="#1E1E1E" stroke-width="2"/>
<rect x="24" y="21" width="62" height="66" rx="25" fill="white" stroke="#1E1E1E" stroke-width="2"/>
<path d="M90.395 23.2447C78.1474 6.45316 62.5779 9.01358 55.662 18.4931C55.4138 18.8384 55.1537 19.3029 54.9054 19.7911C54.7399 19.5172 54.5626 19.2552 54.3971 19.029C47.5167 9.47802 31.888 6.40553 19.5932 23.2566C13.7531 31.2713 9.49722 32.9386 4 32.7838C6.77816 36.7494 9.93463 44.4188 13.6586 48.3011C18.8129 53.6839 27.9986 51.0044 32.1718 40.3578C37.7636 26.079 45.3533 22.5778 55 22.5778C64.6467 22.5778 72.2246 26.079 77.8282 40.3459C82.0014 50.9925 91.1871 53.6839 96.3415 48.2891C100.065 44.3949 103.222 36.7256 106 32.7718C100.491 32.9267 96.2351 31.2594 90.395 23.2447Z" fill="#626161"/>
<path d="M32 41H53.5V64H58.5" stroke="#1E1E1E" stroke-width="2" stroke-linecap="round"/>
<path d="M64 41H79" stroke="#1E1E1E" stroke-width="2" stroke-linecap="round"/>
<ellipse cx="40.5" cy="52" rx="3.5" ry="5" fill="#1E1E1E"/>
<circle cx="42" cy="51" r="1" fill="white"/>
<ellipse cx="70.5" cy="52" rx="3.5" ry="5" fill="#1E1E1E"/>
<circle cx="72" cy="51" r="1" fill="white"/>
<path d="M75.1561 73.8289C69.9729 63.9194 59.1814 64.621 54.9753 69.3127V69.2907V69.3127C50.7692 64.621 39.9778 63.9194 34.7946 73.8289C32.1604 78.8714 29.1015 79.4195 26 79.3318C26.8922 81.6557 27.5082 84.0453 29.9937 85.8431C32.3941 87.575 37.6624 87.6627 40.4027 81.6776C44.2689 73.237 49.4309 73.2151 54.9966 73.2151C60.5622 73.2151 65.7243 73.237 69.5905 81.6776C72.3308 87.6627 77.5991 87.597 79.9995 85.8431C82.4637 84.0453 83.101 81.6337 83.9932 79.3318C80.828 79.4195 77.7902 78.8714 75.1561 73.8289Z" fill="#626161"/>
<path d="M50 76C51.5 77.6667 55.5 80 59.5 76" stroke="#1E1E1E" stroke-width="2" stroke-linecap="round"/>
</svg>
