<svg width="111" height="100" viewBox="0 0 111 100" fill="none" xmlns="http://www.w3.org/2000/svg">
<rect x="12" y="44.4819" width="87" height="21" rx="10.5" fill="white" stroke="#1E1E1E" stroke-width="2"/>
<rect x="25" y="18.4819" width="62" height="66" rx="25" fill="white" stroke="#1E1E1E" stroke-width="2"/>
<path d="M66.9999 14.6569C76.0789 16.0489 66.9531 31.9553 55.8791 31.3719C50.118 31.0649 48.7204 28.4344 44.3676 27.0629C38.9693 25.3639 34.4778 26.8889 30.2744 33.204C26.8604 38.3216 26.3056 47.482 26.3056 47.482H24.1186C23.6598 42.2212 22.0317 7.7277 66.9999 14.6569Z" fill="#626160"/>
<path d="M45.9999 14.6567C36.9998 16.5758 45.0504 31.9553 56.1226 31.3719C61.8989 31.0649 63.2976 28.4344 67.6539 27.0629C73.0566 25.3639 77.5516 26.8889 81.7584 33.204C85.1645 38.3216 85.7303 47.482 85.7303 47.482H87.8658C88.3676 42.2212 91.0468 7.72754 45.9999 14.6567Z" fill="#626160"/>
<path d="M33 38.4819H54.5V61.4819H59.5" stroke="#1E1E1E" stroke-width="2" stroke-linecap="round"/>
<path d="M65 38.4819H80" stroke="#1E1E1E" stroke-width="2" stroke-linecap="round"/>
<ellipse cx="41.5" cy="49.4819" rx="3.5" ry="5" fill="#1E1E1E"/>
<circle cx="43" cy="48.4819" r="1" fill="white"/>
<ellipse cx="71.5" cy="49.4819" rx="3.5" ry="5" fill="#1E1E1E"/>
<circle cx="73" cy="48.4819" r="1" fill="white"/>
<path d="M51 73.4819C52.5 75.1486 56.5 77.4819 60.5 73.4819" stroke="#1E1E1E" stroke-width="2" stroke-linecap="round"/>
</svg>
