<svg width="558" height="519" viewBox="0 0 558 519" fill="none" xmlns="http://www.w3.org/2000/svg">
<g clip-path="url(#clip0_4677_2078)">
<path d="M332.849 469.349C454.57 485.374 534.442 400.632 511.247 280.071C488.053 159.511 370.576 48.787 248.855 32.7621C127.134 16.7373 47.2628 101.48 70.4572 222.04C93.6516 342.601 211.129 453.325 332.849 469.349Z" fill="#282828"/>
<path d="M335.185 457.687C452.719 473.161 529.843 391.333 507.447 274.92C485.05 158.506 371.614 51.5904 254.08 36.1167C136.545 20.643 59.4212 102.471 81.8178 218.884C104.214 335.298 217.651 442.214 335.185 457.687Z" fill="#303132"/>
<path d="M357.557 187.625L316.458 182.214L324.353 223.251L365.452 228.662L357.557 187.625Z" fill="#23C865"/>
<path d="M367.973 240.077L326.542 234.622L334.436 275.658L375.868 281.113L367.973 240.077Z" fill="#23C865"/>
<path d="M378.055 292.485L336.624 287.03L344.519 328.067L385.95 333.521L378.055 292.485Z" fill="#23C865"/>
<path d="M252.47 176.681L211.038 171.227L238.623 314.607L280.054 320.061L252.47 176.681Z" fill="white"/>
<path d="M305.144 180.725L210.467 168.26L218.362 209.297L313.039 221.761L305.144 180.725Z" fill="white"/>
<path d="M172.15 62.661C170.113 59.6622 170.644 56.5194 173.354 55.4305C174.859 54.8255 176.325 54.8579 177.917 55.5494L177.735 57.1318C176.507 56.6488 175.509 56.5174 174.439 56.8585C172.466 57.5625 172.245 59.7821 173.624 61.8912C175.002 64.0003 177.49 65.131 179.432 64.2622C180.335 63.8992 181.008 63.1847 181.119 62.0749L182.878 62.7884C182.831 64.2278 182.054 65.25 180.549 65.855C177.704 67.0868 174.218 65.8247 172.15 62.661Z" fill="white"/>
<path d="M182.379 59.3492L178.805 53.4172L180.342 52.9771L183.916 58.909C185.128 60.9962 186.721 61.6878 188.258 61.2476C189.764 60.6426 190.009 59.3899 188.797 57.3027L185.389 51.3927L186.926 50.9525L190.5 56.8845C192.204 59.8395 191.816 62.0372 189.209 62.8185C186.602 63.5997 184.249 62.3261 182.379 59.3492Z" fill="white"/>
<path d="M201.941 59.0336L198.17 56.2882C198.003 56.2663 197.869 56.4092 197.702 56.3873L195.365 56.8827L197.1 60.0026L195.563 60.4427L189.969 49.9077L193.843 48.9721C196.315 48.3338 198.605 49.2778 199.881 51.6946C200.665 53.2435 200.618 54.683 199.643 55.5184L203.78 58.4724L201.941 59.0336ZM198.177 52.1128C197.425 50.7287 196.165 50.0809 194.461 50.4992L192.29 51.0165L194.612 55.4986L196.783 54.9812C198.487 54.563 198.93 53.497 198.177 52.1128Z" fill="white"/>
<path d="M212.257 57.0186L208.651 54.2951C208.485 54.2732 208.35 54.4161 208.184 54.3942L205.815 54.7248L207.416 57.9876L205.681 58.241L200.522 47.4421L204.594 46.6932C207.098 46.2197 209.419 47.3285 210.529 49.7234C211.345 51.4371 211.1 52.6898 209.959 53.5034L213.96 56.6003L212.257 57.0186ZM208.825 50.1416C208.073 48.7575 206.781 47.9449 205.078 48.3632L202.875 48.7157L205.03 53.1759L207.233 52.8233C209.135 52.5918 209.578 51.5258 208.825 50.1416Z" fill="white"/>
<path d="M223.048 54.1022L223.667 55.6292L216.029 56.3906L211.504 45.5145L218.809 44.7093L219.427 46.2364L213.69 46.7662L214.927 49.8203L220.029 49.3677L220.647 50.8947L215.545 51.3474L216.813 54.5663L223.048 54.1022Z" fill="white"/>
<path d="M230.908 44.3746L234.768 55.1631L233.334 55.2955L224.609 47.8824L227.367 55.4738L225.6 55.5625L221.741 44.774L223.175 44.6416L231.899 52.0547L229.11 44.2985L230.908 44.3746Z" fill="white"/>
<path d="M235.187 49.7567C234.251 46.5816 236.074 44.2514 239.338 44.3599C241.137 44.436 242.698 44.9628 244.053 46.105L243.308 47.292C242.151 46.3365 241.089 45.8755 239.956 45.8869C237.658 45.7451 236.541 47.5256 237.12 49.6899C237.73 52.0191 240.012 53.7652 242.278 53.7423C243.411 53.7308 244.315 53.3678 244.79 52.4666L246.311 53.6307C245.733 54.8396 244.362 55.3017 242.564 55.2255C239.363 55.4466 236.122 52.9318 235.187 49.7567Z" fill="white"/>
<path d="M252.753 52.5515L253.586 56.0343L251.787 55.9581L250.923 52.3105L244.766 44.7535L246.731 44.8515L251.406 50.6072L253.49 45.42L255.288 45.4962L252.753 52.5515Z" fill="white"/>
<path d="M262.49 51.745C262.054 48.6356 264.273 46.6788 267.632 47.2818C270.992 47.8847 273.963 50.6853 274.399 53.7947C274.835 56.9041 272.783 58.8828 269.257 58.258C265.898 57.655 262.926 54.8544 262.49 51.745ZM272.537 53.389C272.26 51.1036 270.279 49.2365 267.918 48.765C265.556 48.2935 264.043 49.7006 264.487 52.0079C264.765 54.2932 266.746 56.1603 269.107 56.6318C271.468 57.1033 272.815 55.6743 272.537 53.389Z" fill="white"/>
<path d="M278.559 50.9689L278.892 54.386L284.311 55.5814L284.43 57.0428L279.011 55.8474L279.304 59.9018L277.442 59.496L276.546 48.937L284.525 50.7906L284.644 52.252L278.559 50.9689Z" fill="white"/>
<path d="M300.753 64.3322L300.706 65.7717L292.434 63.237L292.401 52.9523L300.507 55.4651L300.459 56.9046L294.247 54.9623L294.319 57.8631L299.834 59.5529L299.786 60.9923L294.271 59.3025L294.375 62.3681L300.753 64.3322Z" fill="white"/>
<path d="M313.39 60.0524L312.725 70.0846L311.165 69.5578L305.126 60.0888L304.723 67.2641L302.797 66.5287L303.462 56.4965L305.023 57.0232L310.895 66.4704L311.298 59.2951L313.39 60.0524Z" fill="white"/>
<path d="M324.223 73.365L324.009 74.7825L315.713 71.2809L317.075 61.5011L325.006 64.7941L324.793 66.2117L318.62 63.6321L318.193 66.4672L323.668 68.7943L323.454 70.2118L317.979 67.8847L317.551 70.7197L324.223 73.365Z" fill="white"/>
<path d="M333.462 79.24L331.735 75.318C331.568 75.2961 331.37 75.1094 331.204 75.0875L328.518 73.7701L327.924 76.5832L326.133 75.7049L328.026 66.1557L332.471 68.1866C335.323 69.5259 336.869 71.6569 336.449 73.6898C336.069 75.0855 335.062 75.7561 333.398 75.5371L335.388 79.9753L333.462 79.24ZM334.523 72.9545C334.769 71.7017 333.881 70.4605 332.091 69.5822L329.603 68.4515L328.763 72.5174L331.251 73.6481C333.208 74.5483 334.278 74.2072 334.523 72.9545Z" fill="white"/>
<path d="M346.377 80.619L348.168 81.4973L347.067 85.0468C345.799 85.2012 344.103 84.8173 342.646 83.9829C339.199 82.0834 337.265 78.7769 338.057 76.1504C338.818 73.3592 341.955 72.8085 345.204 74.5212C347.026 75.5643 348.381 76.7065 349.166 78.2554L347.795 78.7175C347.241 77.5201 346.25 76.5865 344.99 75.9388C342.637 74.6652 340.632 75.2044 340.046 77.2154C339.46 79.2265 340.871 81.5004 343.224 82.774C344.119 83.2131 344.983 83.4874 345.648 83.5751L346.377 80.619Z" fill="white"/>
<path d="M355.006 87.5373L353.945 90.4495L352.122 89.4065L353.184 86.4942L351.068 78.0235L352.922 79.2313L354.657 85.7244L359.681 83.1731L361.503 84.2162L355.006 87.5373Z" fill="white"/>
<path d="M378.214 96.0547L375.996 101.385C433.174 142.324 477.581 204.551 490.137 269.814C506.72 356.007 462.727 421.535 387.694 434.466L390.896 440.992C468.4 427.422 513.946 359.85 496.793 270.69C483.761 202.955 437.643 138.575 378.214 96.0547Z" fill="#23C865"/>
<path d="M281.727 421.479C196.081 388.518 121.777 306.613 104.909 218.937C92.322 153.509 114.638 100.066 159.093 72.3469L154.656 66.1406C108.592 94.7724 85.3571 150.183 98.4202 218.083C115.859 308.725 192.468 393.344 281.101 427.501L281.727 421.479Z" fill="#23C865"/>
<path d="M347.418 419.847L345.089 419.541L345.977 424.155L346.421 426.462L349.559 442.778L368.528 445.275L364.945 426.652L348.306 424.462L347.418 419.847ZM348.75 426.769L362.893 428.631L365.588 442.639L351.445 440.777L348.75 426.769Z" fill="white"/>
<path d="M341.152 423.52L324.513 421.329L328.096 439.952L347.064 442.449L343.925 426.134L343.481 423.826L342.594 419.212L340.264 418.905L341.152 423.52ZM344.291 439.835L330.148 437.973L327.453 423.965L341.596 425.827L344.291 439.835Z" fill="white"/>
<path d="M322.182 421.022L303.214 418.525L303.658 420.832L322.626 423.33L322.182 421.022Z" fill="#23C865"/>
<path d="M322.183 421.023L319.853 420.716L323.436 439.339L325.765 439.645L322.183 421.023Z" fill="#23C865"/>
<path d="M305.377 418.81L303.048 418.503L306.631 437.126L308.96 437.433L305.377 418.81Z" fill="#23C865"/>
</g>
<defs>
<clipPath id="clip0_4677_2078">
<rect width="473.635" height="465.134" fill="white" transform="matrix(0.991445 0.130526 0.188924 0.981992 0 0)"/>
</clipPath>
</defs>
</svg>
