<svg width="35" height="34" viewBox="0 0 35 34" fill="none" xmlns="http://www.w3.org/2000/svg">
<mask id="path-1-outside-1_6277_3305" maskUnits="userSpaceOnUse" x="2.18286" y="3.47998" width="31" height="28" fill="black">
<rect fill="white" x="2.18286" y="3.47998" width="31" height="28"/>
<path d="M17.6829 30.96C14.9829 30.96 12.3929 30.48 9.99286 29.54C7.59286 28.6 5.40286 27.25 3.50286 25.54C3.24286 25.33 3.18286 25.08 3.18286 24.91C3.18286 24.76 3.22286 24.62 3.31286 24.49C3.44286 24.28 3.62286 24.2 3.75286 24.17C3.96286 24.12 4.18286 24.17 4.40286 24.31C8.53286 26.71 13.1129 27.93 17.9829 27.93C21.2329 27.93 24.4829 27.32 27.6529 26.1L27.9629 25.97C28.1629 25.89 28.2629 25.84 28.3329 25.81C28.4629 25.76 28.5929 25.73 28.7129 25.72C28.4729 25.72 28.1929 25.74 27.8829 25.77C27.4829 25.82 27.0929 25.87 26.7429 25.92C26.5829 25.93 26.3129 25.92 26.1129 25.72C25.9729 25.58 25.9129 25.39 25.9429 25.2V25.15L26.0229 24.97C26.0829 24.85 26.1629 24.74 26.2729 24.63C26.8129 24.25 27.2729 24.03 27.7229 23.92C28.4029 23.74 29.0729 23.64 29.7229 23.62C29.9029 23.6 30.1229 23.61 30.3329 23.66C31.2129 23.73 31.7329 23.9 31.9829 24.21C32.1329 24.44 32.2029 24.68 32.2029 24.98V25.16C32.2029 25.82 32.0329 26.58 31.6829 27.45C31.3329 28.33 30.8329 29.05 30.1929 29.59C29.8929 29.83 29.5929 29.87 29.3129 29.73C29.0329 29.59 28.8229 29.26 28.9929 28.83C29.7429 27.06 29.9029 26.27 29.9029 25.92C29.9029 25.85 29.8929 25.82 29.8929 25.8C29.8729 25.82 29.6529 25.71 28.8729 25.71C29.1529 25.73 29.3929 25.87 29.5729 26.12C29.8829 26.55 29.7829 27.05 29.3129 27.38C29.0029 27.61 28.6029 27.87 28.1129 28.17C26.6129 29.06 24.9229 29.75 23.0929 30.24C21.2529 30.71 19.4329 30.96 17.6829 30.96ZM6.07286 26.31C7.40286 27.25 8.83286 28.01 10.3629 28.61C14.1329 30.09 18.3829 30.44 22.8329 29.27C24.5729 28.81 26.1829 28.15 27.5929 27.31C27.7529 27.21 27.9029 27.12 28.0529 27.02L28.0329 27.03C24.7429 28.29 21.3729 28.92 18.0029 28.92C13.7729 28.92 9.77286 28.04 6.07286 26.31ZM28.8629 24.72C29.8329 24.72 30.3929 24.87 30.6729 25.2C30.8229 25.39 30.8929 25.62 30.8929 25.93C30.8929 26.3 30.7929 26.8 30.5829 27.44C30.6429 27.32 30.6929 27.2 30.7429 27.08C31.0429 26.34 31.1929 25.69 31.1929 25.16V24.98C31.1929 24.88 31.1829 24.83 31.1729 24.81C31.1529 24.83 30.9229 24.71 30.1729 24.64C30.0029 24.61 29.9029 24.6 29.7829 24.61C29.4429 24.62 29.1029 24.65 28.7629 24.71C28.7929 24.72 28.8229 24.72 28.8629 24.72ZM26.9129 25.42H26.9229H26.9129ZM15.8729 22.63C14.4429 22.63 13.2429 22.18 12.3029 21.28C11.3629 20.38 10.8929 19.11 10.8929 17.49C10.8929 16.22 11.2129 15.11 11.8529 14.2C12.4829 13.29 13.3529 12.6 14.4329 12.14C15.3829 11.73 16.5729 11.44 17.9529 11.26C18.3529 11.22 18.9529 11.16 19.7529 11.09C19.7529 9.81998 19.5729 9.35998 19.4729 9.19998C19.2229 8.84998 18.8129 8.66998 18.2129 8.66998H18.0129C17.5929 8.70998 17.1929 8.84998 16.8629 9.09998C16.5529 9.32998 16.3529 9.64998 16.2629 10.08C16.1229 10.8 15.6329 11 15.3529 11.05L15.2729 11.06L12.2729 10.69C11.7029 10.56 11.4029 10.21 11.4029 9.73998C11.4029 9.64998 11.4129 9.54998 11.4429 9.43998C11.7529 7.81998 12.5429 6.57998 13.7829 5.77998C14.9829 5.00998 16.3929 4.56998 17.9829 4.47998H18.6429C20.7029 4.47998 22.3329 5.02998 23.5129 6.11998C23.7129 6.31998 23.8929 6.51998 24.0429 6.73998C24.2029 6.95998 24.3329 7.14998 24.4229 7.31998C24.5329 7.50998 24.6229 7.76998 24.7029 8.10998C24.7629 8.37998 24.8129 8.56998 24.8429 8.67998C24.8729 8.78998 24.9129 8.97998 24.9429 9.51998C24.9629 9.89998 24.9729 10.12 24.9729 10.19V16.35C24.9729 16.73 25.0229 17.09 25.1329 17.39C25.2729 17.8 25.3829 17.98 25.4329 18.05C25.5529 18.21 25.7429 18.47 26.0129 18.82C26.1829 19.08 26.2629 19.31 26.2629 19.53C26.2629 19.82 26.1229 20.09 25.8629 20.29C24.4829 21.49 23.7129 22.15 23.5929 22.25C23.3829 22.43 23.0729 22.41 22.8829 22.2C22.7029 21.99 22.7229 21.67 22.9329 21.49C23.0529 21.39 23.8129 20.73 25.2229 19.51C25.2529 19.54 25.2429 19.49 25.1829 19.4C24.9229 19.07 24.7329 18.8 24.6129 18.64C24.4629 18.43 24.3229 18.13 24.1729 17.72C24.0229 17.31 23.9529 16.84 23.9529 16.35V10.19C23.9529 10.12 23.9429 9.91998 23.9229 9.55998C23.9029 9.09998 23.8729 8.97998 23.8729 8.96998C23.8329 8.84998 23.7829 8.63998 23.7129 8.33998C23.6429 8.03998 23.5729 7.87998 23.5329 7.80998C23.4529 7.66998 23.3529 7.51998 23.2229 7.33998C23.0929 7.16998 22.9529 6.99998 22.8029 6.84998C21.8329 5.94998 20.4229 5.48998 18.6229 5.48998H17.9829C16.5929 5.56998 15.3429 5.94998 14.2929 6.62998C13.3029 7.29998 12.6829 8.28998 12.4229 9.67998L15.2129 10.07C15.2329 10.04 15.2629 9.99998 15.2829 9.88998C15.4329 9.21998 15.7629 8.68998 16.2629 8.30998C16.7429 7.94998 17.3129 7.73998 17.9729 7.67998H18.2229C19.1529 7.67998 19.8629 8.00998 20.3129 8.65998C20.6229 9.14998 20.7629 9.92998 20.7629 11.14V12.03L20.3029 12.07C19.2729 12.15 18.5329 12.22 18.0729 12.27C16.7929 12.43 15.6929 12.7 14.8229 13.07C13.9129 13.45 13.1929 14.03 12.6729 14.78C12.1529 15.52 11.8929 16.44 11.8929 17.5C11.8929 18.85 12.2529 19.85 13.0029 20.56C13.7529 21.28 14.6929 21.63 15.8729 21.63C16.6729 21.63 17.3429 21.55 17.8729 21.4C18.4429 21.23 19.6629 20.78 19.8929 19.75C20.1329 18.68 19.8029 15.65 19.7729 14.46C19.0729 14.48 18.5329 14.54 18.1429 14.64C16.8729 15 16.2729 15.75 16.2729 16.98C16.2729 17.53 16.3929 17.94 16.6529 18.25C16.8929 18.54 17.1929 18.67 17.6029 18.67C17.8829 18.67 18.1029 18.89 18.1029 19.17C18.1029 19.45 17.8829 19.67 17.6029 19.67C16.8929 19.67 16.3129 19.41 15.8829 18.89C15.4729 18.4 15.2729 17.76 15.2729 16.98C15.2729 15.3 16.1729 14.16 17.8729 13.67C18.4429 13.52 19.2129 13.45 20.2529 13.45H20.7429L20.7529 13.94C20.7629 14.17 20.9329 18.52 20.9129 19C20.9029 19.18 20.8829 19.43 20.8429 19.69C20.7529 20.27 20.5029 20.83 20.0829 21.24C19.4429 21.88 18.6629 22.2 18.1529 22.35C17.5329 22.54 16.7629 22.63 15.8729 22.63Z"/>
</mask>
<path d="M17.6829 30.96C14.9829 30.96 12.3929 30.48 9.99286 29.54C7.59286 28.6 5.40286 27.25 3.50286 25.54C3.24286 25.33 3.18286 25.08 3.18286 24.91C3.18286 24.76 3.22286 24.62 3.31286 24.49C3.44286 24.28 3.62286 24.2 3.75286 24.17C3.96286 24.12 4.18286 24.17 4.40286 24.31C8.53286 26.71 13.1129 27.93 17.9829 27.93C21.2329 27.93 24.4829 27.32 27.6529 26.1L27.9629 25.97C28.1629 25.89 28.2629 25.84 28.3329 25.81C28.4629 25.76 28.5929 25.73 28.7129 25.72C28.4729 25.72 28.1929 25.74 27.8829 25.77C27.4829 25.82 27.0929 25.87 26.7429 25.92C26.5829 25.93 26.3129 25.92 26.1129 25.72C25.9729 25.58 25.9129 25.39 25.9429 25.2V25.15L26.0229 24.97C26.0829 24.85 26.1629 24.74 26.2729 24.63C26.8129 24.25 27.2729 24.03 27.7229 23.92C28.4029 23.74 29.0729 23.64 29.7229 23.62C29.9029 23.6 30.1229 23.61 30.3329 23.66C31.2129 23.73 31.7329 23.9 31.9829 24.21C32.1329 24.44 32.2029 24.68 32.2029 24.98V25.16C32.2029 25.82 32.0329 26.58 31.6829 27.45C31.3329 28.33 30.8329 29.05 30.1929 29.59C29.8929 29.83 29.5929 29.87 29.3129 29.73C29.0329 29.59 28.8229 29.26 28.9929 28.83C29.7429 27.06 29.9029 26.27 29.9029 25.92C29.9029 25.85 29.8929 25.82 29.8929 25.8C29.8729 25.82 29.6529 25.71 28.8729 25.71C29.1529 25.73 29.3929 25.87 29.5729 26.12C29.8829 26.55 29.7829 27.05 29.3129 27.38C29.0029 27.61 28.6029 27.87 28.1129 28.17C26.6129 29.06 24.9229 29.75 23.0929 30.24C21.2529 30.71 19.4329 30.96 17.6829 30.96ZM6.07286 26.31C7.40286 27.25 8.83286 28.01 10.3629 28.61C14.1329 30.09 18.3829 30.44 22.8329 29.27C24.5729 28.81 26.1829 28.15 27.5929 27.31C27.7529 27.21 27.9029 27.12 28.0529 27.02L28.0329 27.03C24.7429 28.29 21.3729 28.92 18.0029 28.92C13.7729 28.92 9.77286 28.04 6.07286 26.31ZM28.8629 24.72C29.8329 24.72 30.3929 24.87 30.6729 25.2C30.8229 25.39 30.8929 25.62 30.8929 25.93C30.8929 26.3 30.7929 26.8 30.5829 27.44C30.6429 27.32 30.6929 27.2 30.7429 27.08C31.0429 26.34 31.1929 25.69 31.1929 25.16V24.98C31.1929 24.88 31.1829 24.83 31.1729 24.81C31.1529 24.83 30.9229 24.71 30.1729 24.64C30.0029 24.61 29.9029 24.6 29.7829 24.61C29.4429 24.62 29.1029 24.65 28.7629 24.71C28.7929 24.72 28.8229 24.72 28.8629 24.72ZM26.9129 25.42H26.9229H26.9129ZM15.8729 22.63C14.4429 22.63 13.2429 22.18 12.3029 21.28C11.3629 20.38 10.8929 19.11 10.8929 17.49C10.8929 16.22 11.2129 15.11 11.8529 14.2C12.4829 13.29 13.3529 12.6 14.4329 12.14C15.3829 11.73 16.5729 11.44 17.9529 11.26C18.3529 11.22 18.9529 11.16 19.7529 11.09C19.7529 9.81998 19.5729 9.35998 19.4729 9.19998C19.2229 8.84998 18.8129 8.66998 18.2129 8.66998H18.0129C17.5929 8.70998 17.1929 8.84998 16.8629 9.09998C16.5529 9.32998 16.3529 9.64998 16.2629 10.08C16.1229 10.8 15.6329 11 15.3529 11.05L15.2729 11.06L12.2729 10.69C11.7029 10.56 11.4029 10.21 11.4029 9.73998C11.4029 9.64998 11.4129 9.54998 11.4429 9.43998C11.7529 7.81998 12.5429 6.57998 13.7829 5.77998C14.9829 5.00998 16.3929 4.56998 17.9829 4.47998H18.6429C20.7029 4.47998 22.3329 5.02998 23.5129 6.11998C23.7129 6.31998 23.8929 6.51998 24.0429 6.73998C24.2029 6.95998 24.3329 7.14998 24.4229 7.31998C24.5329 7.50998 24.6229 7.76998 24.7029 8.10998C24.7629 8.37998 24.8129 8.56998 24.8429 8.67998C24.8729 8.78998 24.9129 8.97998 24.9429 9.51998C24.9629 9.89998 24.9729 10.12 24.9729 10.19V16.35C24.9729 16.73 25.0229 17.09 25.1329 17.39C25.2729 17.8 25.3829 17.98 25.4329 18.05C25.5529 18.21 25.7429 18.47 26.0129 18.82C26.1829 19.08 26.2629 19.31 26.2629 19.53C26.2629 19.82 26.1229 20.09 25.8629 20.29C24.4829 21.49 23.7129 22.15 23.5929 22.25C23.3829 22.43 23.0729 22.41 22.8829 22.2C22.7029 21.99 22.7229 21.67 22.9329 21.49C23.0529 21.39 23.8129 20.73 25.2229 19.51C25.2529 19.54 25.2429 19.49 25.1829 19.4C24.9229 19.07 24.7329 18.8 24.6129 18.64C24.4629 18.43 24.3229 18.13 24.1729 17.72C24.0229 17.31 23.9529 16.84 23.9529 16.35V10.19C23.9529 10.12 23.9429 9.91998 23.9229 9.55998C23.9029 9.09998 23.8729 8.97998 23.8729 8.96998C23.8329 8.84998 23.7829 8.63998 23.7129 8.33998C23.6429 8.03998 23.5729 7.87998 23.5329 7.80998C23.4529 7.66998 23.3529 7.51998 23.2229 7.33998C23.0929 7.16998 22.9529 6.99998 22.8029 6.84998C21.8329 5.94998 20.4229 5.48998 18.6229 5.48998H17.9829C16.5929 5.56998 15.3429 5.94998 14.2929 6.62998C13.3029 7.29998 12.6829 8.28998 12.4229 9.67998L15.2129 10.07C15.2329 10.04 15.2629 9.99998 15.2829 9.88998C15.4329 9.21998 15.7629 8.68998 16.2629 8.30998C16.7429 7.94998 17.3129 7.73998 17.9729 7.67998H18.2229C19.1529 7.67998 19.8629 8.00998 20.3129 8.65998C20.6229 9.14998 20.7629 9.92998 20.7629 11.14V12.03L20.3029 12.07C19.2729 12.15 18.5329 12.22 18.0729 12.27C16.7929 12.43 15.6929 12.7 14.8229 13.07C13.9129 13.45 13.1929 14.03 12.6729 14.78C12.1529 15.52 11.8929 16.44 11.8929 17.5C11.8929 18.85 12.2529 19.85 13.0029 20.56C13.7529 21.28 14.6929 21.63 15.8729 21.63C16.6729 21.63 17.3429 21.55 17.8729 21.4C18.4429 21.23 19.6629 20.78 19.8929 19.75C20.1329 18.68 19.8029 15.65 19.7729 14.46C19.0729 14.48 18.5329 14.54 18.1429 14.64C16.8729 15 16.2729 15.75 16.2729 16.98C16.2729 17.53 16.3929 17.94 16.6529 18.25C16.8929 18.54 17.1929 18.67 17.6029 18.67C17.8829 18.67 18.1029 18.89 18.1029 19.17C18.1029 19.45 17.8829 19.67 17.6029 19.67C16.8929 19.67 16.3129 19.41 15.8829 18.89C15.4729 18.4 15.2729 17.76 15.2729 16.98C15.2729 15.3 16.1729 14.16 17.8729 13.67C18.4429 13.52 19.2129 13.45 20.2529 13.45H20.7429L20.7529 13.94C20.7629 14.17 20.9329 18.52 20.9129 19C20.9029 19.18 20.8829 19.43 20.8429 19.69C20.7529 20.27 20.5029 20.83 20.0829 21.24C19.4429 21.88 18.6629 22.2 18.1529 22.35C17.5329 22.54 16.7629 22.63 15.8729 22.63Z" fill="white"/>
<path d="M17.6829 30.96C14.9829 30.96 12.3929 30.48 9.99286 29.54C7.59286 28.6 5.40286 27.25 3.50286 25.54C3.24286 25.33 3.18286 25.08 3.18286 24.91C3.18286 24.76 3.22286 24.62 3.31286 24.49C3.44286 24.28 3.62286 24.2 3.75286 24.17C3.96286 24.12 4.18286 24.17 4.40286 24.31C8.53286 26.71 13.1129 27.93 17.9829 27.93C21.2329 27.93 24.4829 27.32 27.6529 26.1L27.9629 25.97C28.1629 25.89 28.2629 25.84 28.3329 25.81C28.4629 25.76 28.5929 25.73 28.7129 25.72C28.4729 25.72 28.1929 25.74 27.8829 25.77C27.4829 25.82 27.0929 25.87 26.7429 25.92C26.5829 25.93 26.3129 25.92 26.1129 25.72C25.9729 25.58 25.9129 25.39 25.9429 25.2V25.15L26.0229 24.97C26.0829 24.85 26.1629 24.74 26.2729 24.63C26.8129 24.25 27.2729 24.03 27.7229 23.92C28.4029 23.74 29.0729 23.64 29.7229 23.62C29.9029 23.6 30.1229 23.61 30.3329 23.66C31.2129 23.73 31.7329 23.9 31.9829 24.21C32.1329 24.44 32.2029 24.68 32.2029 24.98V25.16C32.2029 25.82 32.0329 26.58 31.6829 27.45C31.3329 28.33 30.8329 29.05 30.1929 29.59C29.8929 29.83 29.5929 29.87 29.3129 29.73C29.0329 29.59 28.8229 29.26 28.9929 28.83C29.7429 27.06 29.9029 26.27 29.9029 25.92C29.9029 25.85 29.8929 25.82 29.8929 25.8C29.8729 25.82 29.6529 25.71 28.8729 25.71C29.1529 25.73 29.3929 25.87 29.5729 26.12C29.8829 26.55 29.7829 27.05 29.3129 27.38C29.0029 27.61 28.6029 27.87 28.1129 28.17C26.6129 29.06 24.9229 29.75 23.0929 30.24C21.2529 30.71 19.4329 30.96 17.6829 30.96ZM6.07286 26.31C7.40286 27.25 8.83286 28.01 10.3629 28.61C14.1329 30.09 18.3829 30.44 22.8329 29.27C24.5729 28.81 26.1829 28.15 27.5929 27.31C27.7529 27.21 27.9029 27.12 28.0529 27.02L28.0329 27.03C24.7429 28.29 21.3729 28.92 18.0029 28.92C13.7729 28.92 9.77286 28.04 6.07286 26.31ZM28.8629 24.72C29.8329 24.72 30.3929 24.87 30.6729 25.2C30.8229 25.39 30.8929 25.62 30.8929 25.93C30.8929 26.3 30.7929 26.8 30.5829 27.44C30.6429 27.32 30.6929 27.2 30.7429 27.08C31.0429 26.34 31.1929 25.69 31.1929 25.16V24.98C31.1929 24.88 31.1829 24.83 31.1729 24.81C31.1529 24.83 30.9229 24.71 30.1729 24.64C30.0029 24.61 29.9029 24.6 29.7829 24.61C29.4429 24.62 29.1029 24.65 28.7629 24.71C28.7929 24.72 28.8229 24.72 28.8629 24.72ZM26.9129 25.42H26.9229H26.9129ZM15.8729 22.63C14.4429 22.63 13.2429 22.18 12.3029 21.28C11.3629 20.38 10.8929 19.11 10.8929 17.49C10.8929 16.22 11.2129 15.11 11.8529 14.2C12.4829 13.29 13.3529 12.6 14.4329 12.14C15.3829 11.73 16.5729 11.44 17.9529 11.26C18.3529 11.22 18.9529 11.16 19.7529 11.09C19.7529 9.81998 19.5729 9.35998 19.4729 9.19998C19.2229 8.84998 18.8129 8.66998 18.2129 8.66998H18.0129C17.5929 8.70998 17.1929 8.84998 16.8629 9.09998C16.5529 9.32998 16.3529 9.64998 16.2629 10.08C16.1229 10.8 15.6329 11 15.3529 11.05L15.2729 11.06L12.2729 10.69C11.7029 10.56 11.4029 10.21 11.4029 9.73998C11.4029 9.64998 11.4129 9.54998 11.4429 9.43998C11.7529 7.81998 12.5429 6.57998 13.7829 5.77998C14.9829 5.00998 16.3929 4.56998 17.9829 4.47998H18.6429C20.7029 4.47998 22.3329 5.02998 23.5129 6.11998C23.7129 6.31998 23.8929 6.51998 24.0429 6.73998C24.2029 6.95998 24.3329 7.14998 24.4229 7.31998C24.5329 7.50998 24.6229 7.76998 24.7029 8.10998C24.7629 8.37998 24.8129 8.56998 24.8429 8.67998C24.8729 8.78998 24.9129 8.97998 24.9429 9.51998C24.9629 9.89998 24.9729 10.12 24.9729 10.19V16.35C24.9729 16.73 25.0229 17.09 25.1329 17.39C25.2729 17.8 25.3829 17.98 25.4329 18.05C25.5529 18.21 25.7429 18.47 26.0129 18.82C26.1829 19.08 26.2629 19.31 26.2629 19.53C26.2629 19.82 26.1229 20.09 25.8629 20.29C24.4829 21.49 23.7129 22.15 23.5929 22.25C23.3829 22.43 23.0729 22.41 22.8829 22.2C22.7029 21.99 22.7229 21.67 22.9329 21.49C23.0529 21.39 23.8129 20.73 25.2229 19.51C25.2529 19.54 25.2429 19.49 25.1829 19.4C24.9229 19.07 24.7329 18.8 24.6129 18.64C24.4629 18.43 24.3229 18.13 24.1729 17.72C24.0229 17.31 23.9529 16.84 23.9529 16.35V10.19C23.9529 10.12 23.9429 9.91998 23.9229 9.55998C23.9029 9.09998 23.8729 8.97998 23.8729 8.96998C23.8329 8.84998 23.7829 8.63998 23.7129 8.33998C23.6429 8.03998 23.5729 7.87998 23.5329 7.80998C23.4529 7.66998 23.3529 7.51998 23.2229 7.33998C23.0929 7.16998 22.9529 6.99998 22.8029 6.84998C21.8329 5.94998 20.4229 5.48998 18.6229 5.48998H17.9829C16.5929 5.56998 15.3429 5.94998 14.2929 6.62998C13.3029 7.29998 12.6829 8.28998 12.4229 9.67998L15.2129 10.07C15.2329 10.04 15.2629 9.99998 15.2829 9.88998C15.4329 9.21998 15.7629 8.68998 16.2629 8.30998C16.7429 7.94998 17.3129 7.73998 17.9729 7.67998H18.2229C19.1529 7.67998 19.8629 8.00998 20.3129 8.65998C20.6229 9.14998 20.7629 9.92998 20.7629 11.14V12.03L20.3029 12.07C19.2729 12.15 18.5329 12.22 18.0729 12.27C16.7929 12.43 15.6929 12.7 14.8229 13.07C13.9129 13.45 13.1929 14.03 12.6729 14.78C12.1529 15.52 11.8929 16.44 11.8929 17.5C11.8929 18.85 12.2529 19.85 13.0029 20.56C13.7529 21.28 14.6929 21.63 15.8729 21.63C16.6729 21.63 17.3429 21.55 17.8729 21.4C18.4429 21.23 19.6629 20.78 19.8929 19.75C20.1329 18.68 19.8029 15.65 19.7729 14.46C19.0729 14.48 18.5329 14.54 18.1429 14.64C16.8729 15 16.2729 15.75 16.2729 16.98C16.2729 17.53 16.3929 17.94 16.6529 18.25C16.8929 18.54 17.1929 18.67 17.6029 18.67C17.8829 18.67 18.1029 18.89 18.1029 19.17C18.1029 19.45 17.8829 19.67 17.6029 19.67C16.8929 19.67 16.3129 19.41 15.8829 18.89C15.4729 18.4 15.2729 17.76 15.2729 16.98C15.2729 15.3 16.1729 14.16 17.8729 13.67C18.4429 13.52 19.2129 13.45 20.2529 13.45H20.7429L20.7529 13.94C20.7629 14.17 20.9329 18.52 20.9129 19C20.9029 19.18 20.8829 19.43 20.8429 19.69C20.7529 20.27 20.5029 20.83 20.0829 21.24C19.4429 21.88 18.6629 22.2 18.1529 22.35C17.5329 22.54 16.7629 22.63 15.8729 22.63Z" stroke="white" stroke-width="0.2" mask="url(#path-1-outside-1_6277_3305)"/>
</svg>
