<svg width="260" height="505" viewBox="0 0 260 505" fill="none" xmlns="http://www.w3.org/2000/svg">
<path d="M2.00293 502C-0.788614 425.878 0.152692 348.825 0.152692 273.4V272.703C7.41288 262.225 36.4773 262.225 47.6398 260.132C70.6619 256.64 93.7057 256.64 116.033 254.543L116.742 253.845C131.393 253.146 146.467 258.733 159.724 264.321L159.879 265.719C159.877 344.633 159.877 502.569 159.877 502.569" fill="#1E1E1E"/>
<path d="M40.5381 259.894C38.6087 221.739 40.088 183.259 40.088 145.455V145.107C43.7181 139.856 64.8887 139.856 72.5954 138.806C88.4916 137.056 104.263 137.056 119.676 136.006L120.093 135.657C130.209 135.308 140.025 138.108 149.176 140.908L150.802 141.609C150.802 181.161 150.802 260.926 150.802 260.926" fill="#1E1E1E"/>
<path d="M139.913 137.374C139.913 137.374 139.913 86.3591 139.913 60.652L118.991 57.0127C108.972 57.694 98.7863 57.694 88.4569 58.8314C83.4492 59.5146 69.1284 59.5146 67.3133 62.9267V63.1538C67.3133 87.7217 66.6745 112.321 67.9287 137.117" fill="#1E1E1E"/>
<path d="M82.4601 59.5139C81.5562 41.6576 81.8394 23.6414 81.8394 5.9504V5.78506C83.6545 3.32682 93.3922 3.32679 96.9987 2.83623C104.439 2.01681 111.791 2.01685 119.006 1.5263L119.191 1.36278C123.923 1.19745 128.976 2.50923 133.256 3.82102L134.478 4.14805C134.478 22.4077 134.478 59.2487 134.478 59.2487" fill="#1E1E1E"/>
<path d="M120.574 56.7901C127.147 56.5611 133.721 58.3817 139.669 60.2022L120.574 56.7901Z" fill="#1E1E1E"/>
<path d="M3.15942 502.604C0.367844 426.482 1.76178 350.358 1.76178 274.934L3.15942 502.604Z" fill="#1E1E1E"/>
<path d="M5.00183 500.698C1.94924 425.593 3.40922 350.439 3.43165 275.306C3.43165 273.565 0.372939 273.565 0.372939 275.306C0.34847 350.439 -1.11152 425.593 1.94312 500.698C2.01245 502.431 5.07116 502.437 5.00183 500.698Z" fill="white"/>
<path d="M3.31677 274.24C10.2938 263.762 39.596 263.762 50.7585 261.669C73.7824 258.177 96.8045 258.177 119.13 256.081" fill="#1E1E1E"/>
<path d="M4.26367 275.198C13.0993 263.802 34.9579 265.114 47.8629 263.479C71.5784 260.472 95.3192 259.564 119.113 257.438C120.846 257.283 120.862 254.556 119.113 254.713C94.1812 256.94 69.3223 258.306 44.4489 261.166C31.5802 262.643 11.1499 261.906 2.33784 273.272C1.27604 274.642 3.18735 276.586 4.26367 275.198Z" fill="white"/>
<path d="M118.462 256.083C118.462 337.613 118.462 419.144 118.462 500.674C118.462 502.442 121.184 502.442 121.184 500.674C121.184 419.144 121.184 337.613 121.184 256.083C121.184 254.313 118.462 254.313 118.462 256.083Z" fill="white"/>
<path d="M161.003 265.318C161.003 344.234 161.003 423.151 161.003 502.067C161.003 503.826 163.726 503.826 163.726 502.067C163.726 423.151 163.726 344.234 163.726 265.318C163.726 263.561 161.003 263.561 161.003 265.318Z" fill="white"/>
<path d="M119.797 255.377C134.446 254.677 149.099 260.264 162.355 265.853L119.797 255.377Z" fill="#1E1E1E"/>
<path d="M119.795 256.739C134.731 256.473 148.407 261.492 161.991 267.166C163.612 267.842 164.309 265.204 162.714 264.537C148.907 258.77 134.942 253.744 119.795 254.013C118.042 254.046 118.038 256.771 119.795 256.739Z" fill="white"/>
<path d="M39.016 259.562C37.0867 221.407 38.054 183.256 38.054 145.45L39.016 259.562Z" fill="#1E1E1E"/>
<path d="M40.3858 259.563C38.5526 221.547 39.3947 183.496 39.4237 145.452C39.4256 143.693 36.703 143.695 36.7012 145.452C36.6721 183.494 35.8318 221.547 37.6632 259.563C37.7485 261.313 40.4711 261.322 40.3858 259.563Z" fill="white"/>
<path d="M38.0652 145.111C42.8805 139.86 63.1111 139.86 70.8178 138.81C86.7122 137.06 102.607 137.06 118.02 136.01" fill="#1E1E1E"/>
<path d="M39.0294 146.069C46.2061 139.753 60.4251 141.198 69.4241 140.335C85.6016 138.783 101.808 138.398 118.02 137.368C119.765 137.257 119.775 134.53 118.02 134.643C100.677 135.742 83.371 136.474 66.05 137.909C57.1799 138.643 44.2566 137.849 37.1035 144.143C35.784 145.304 37.7153 147.224 39.0294 146.069Z" fill="white"/>
<path d="M117.143 136.004C117.143 175.776 117.143 215.546 117.143 255.317C117.143 257.076 119.866 257.076 119.866 255.317C119.866 215.546 119.866 175.776 119.866 136.004C119.866 134.245 117.143 134.245 117.143 136.004Z" fill="white"/>
<path d="M148.448 141.606C148.448 181.16 148.448 220.712 148.448 260.265C148.448 262.024 151.17 262.024 151.17 260.265C151.17 220.712 151.17 181.16 151.17 141.606C151.17 139.847 148.448 139.847 148.448 141.606Z" fill="white"/>
<path d="M118.496 135.665C128.609 135.316 138.726 138.116 147.878 140.916L118.496 135.665Z" fill="#1E1E1E"/>
<path d="M118.495 137.02C128.505 136.891 138.008 139.338 147.514 142.222C149.198 142.73 149.913 140.101 148.236 139.593C138.5 136.642 128.732 134.164 118.493 134.295C116.74 134.316 116.738 137.042 118.495 137.02Z" fill="white"/>
<path d="M65.8643 137.319C64.6119 112.524 65.238 87.7276 65.238 63.1597L65.8643 137.319Z" fill="#1E1E1E"/>
<path d="M67.2201 137.318C66.0584 112.608 66.5666 87.8819 66.5938 63.1577C66.5956 61.399 63.8731 61.4008 63.8712 63.1577C63.8422 87.8819 63.3359 112.61 64.4975 137.318C64.5792 139.067 67.3035 139.076 67.2201 137.318Z" fill="white"/>
<path d="M65.2423 62.936C68.3732 59.5238 81.5215 59.5238 86.5292 58.8407C96.8587 57.7033 107.19 57.7033 117.205 57.022" fill="#1E1E1E"/>
<path d="M66.1883 63.8925C71.3031 59.8009 80.3312 60.8929 86.5115 60.197C96.6921 59.0506 106.969 59.0015 117.188 58.3783C118.932 58.2711 118.943 55.5458 117.188 55.653C105.281 56.3779 93.4031 57.0139 81.5128 57.9205C75.8553 58.3493 68.8982 58.2602 64.2626 61.9666C62.8904 63.0622 64.8325 64.9772 66.1883 63.8925Z" fill="white"/>
<path d="M116.149 57.0153C116.149 82.8624 116.149 108.708 116.149 134.555C116.149 136.313 118.871 136.313 118.871 134.555C118.871 108.708 118.871 82.8624 118.871 57.0153C118.871 55.2566 116.149 55.2566 116.149 57.0153Z" fill="white"/>
<path d="M136.485 60.6531C136.485 86.3584 136.485 112.064 136.485 137.769C136.485 139.528 139.207 139.528 139.207 137.769C139.207 112.064 139.207 86.3584 139.207 60.6531C139.207 58.8962 136.485 58.8962 136.485 60.6531Z" fill="white"/>
<path d="M117.523 56.7998C124.096 56.5709 130.67 58.3914 136.618 60.2119L117.523 56.7998Z" fill="#1E1E1E"/>
<path d="M117.511 58.1527C123.975 58.0673 130.104 59.6534 136.242 61.5175C137.927 62.0281 138.64 59.3972 136.965 58.8885C130.599 56.9571 124.205 55.3419 117.509 55.4292C115.756 55.4491 115.754 58.1745 117.511 58.1527Z" fill="white"/>
<path d="M80.429 59.3651C79.5251 41.5106 79.9771 23.6543 79.9771 5.96143L80.429 59.3651Z" fill="#1E1E1E"/>
<path d="M81.7723 59.3549C80.9591 41.5603 81.2914 23.7585 81.3204 5.95119C81.324 4.19245 78.6015 4.19426 78.5978 5.95119C78.5688 23.7585 78.2366 41.5603 79.0497 59.3549C79.1296 61.1046 81.8521 61.1118 81.7723 59.3549Z" fill="white"/>
<path d="M79.9474 5.79389C82.2017 3.33567 91.6709 3.33564 95.2755 2.84508C102.715 2.02567 110.153 2.02571 117.366 1.53516" fill="#1E1E1E"/>
<path d="M80.6372 6.96531C84.4996 4.04011 90.6436 4.70874 95.2775 4.20182C102.614 3.40239 110.006 3.33339 117.368 2.89189C119.113 2.78651 119.123 0.061173 117.368 0.166553C109.072 0.66438 100.799 1.0586 92.5168 1.73448C88.2387 2.08333 82.8443 1.89802 79.2614 4.61064C77.8802 5.65716 79.2342 8.02637 80.6372 6.96531Z" fill="white"/>
<path d="M116.249 1.52863C116.249 20.1408 116.249 38.753 116.249 57.3652C116.249 59.1239 118.971 59.1239 118.971 57.3652C118.971 38.753 118.971 20.1408 118.971 1.52863C118.971 -0.228295 116.249 -0.228295 116.249 1.52863Z" fill="white"/>
<path d="M130.884 4.14865C130.884 22.4083 130.884 40.6698 130.884 58.9277C130.884 60.6864 133.607 60.6864 133.607 58.9277C133.607 40.668 133.607 22.4065 133.607 4.14865C133.607 2.3899 130.884 2.3899 130.884 4.14865Z" fill="white"/>
<path d="M117.59 1.3662C122.32 1.20086 127.057 2.51265 131.337 3.82445L117.59 1.3662Z" fill="#1E1E1E"/>
<path d="M117.606 2.72782C122.227 2.66786 126.603 3.80527 130.991 5.13705C132.676 5.6476 133.389 3.0167 131.714 2.50797C127.1 1.10715 122.457 -0.0611117 117.606 0.00247952C115.85 0.0242822 115.849 2.74962 117.606 2.72782Z" fill="white"/>
<path d="M140.563 503.365C138.478 447.306 139.917 391.254 139.917 335.71V335.197C145.436 327.481 166.709 327.481 175.041 325.937C192.227 323.368 209.267 323.368 225.931 321.822L226.38 321.307C237.317 320.793 248.111 324.908 258.003 329.024L257.659 330.052C257.659 388.167 257.659 504.386 257.659 504.386" fill="#1E1E1E"/>
<path d="M169.759 325.667C168.322 297.569 169.352 269.325 169.352 241.484V241.227C173.031 237.359 187.729 237.359 193.482 236.585C205.346 235.297 217.052 235.297 228.556 234.523L228.834 234.265C236.384 234.007 243.903 236.071 250.732 238.131L252.138 238.647C252.138 267.774 252.138 326.328 252.138 326.328" fill="#1E1E1E"/>
<path d="M242.938 235.487C242.938 235.487 242.938 197.967 242.938 179.035L227.646 176.355C220.17 176.856 212.822 176.856 205.112 177.694C201.375 178.195 191.426 178.195 189.586 180.71V180.877C189.586 198.97 188.689 217.06 189.625 235.322" fill="#1E1E1E"/>
<path d="M200.753 177.868C200.078 164.717 200.617 151.778 200.617 138.749V138.629C202.457 136.819 209.051 136.819 211.742 136.458C217.294 135.854 222.687 135.854 228.07 135.493L228.158 135.375C231.692 135.253 235.305 136.22 238.501 137.183L239.252 137.424C239.252 150.871 239.252 177.35 239.252 177.35" fill="#1E1E1E"/>
<path d="M227.948 176.188C232.788 176.021 237.629 177.362 242.009 178.703L227.948 176.188Z" fill="#1E1E1E"/>
<path d="M141.499 504C139.441 448.109 140.47 392.216 140.47 336.838L141.499 504Z" fill="#1E1E1E"/>
<path d="M142.856 502.2C140.869 447.092 141.805 391.95 141.827 336.822C141.827 335.087 139.104 335.087 139.104 336.822C139.083 391.951 138.148 447.092 140.134 502.2C140.195 503.928 142.918 503.933 142.856 502.2Z" fill="white"/>
<path d="M141.587 336.322C146.726 328.608 168.305 328.608 176.527 327.064C193.481 324.493 210.436 324.493 226.875 322.948" fill="#1E1E1E"/>
<path d="M142.55 337.284C149.424 328.868 165.327 329.971 175.121 328.658C192.33 326.348 209.596 325.827 226.875 324.31C228.611 324.157 228.625 321.43 226.875 321.584C208.462 323.201 190.115 324.223 171.751 326.352C161.984 327.484 147.458 326.99 140.626 335.356C139.524 336.706 141.439 338.645 142.55 337.284Z" fill="white"/>
<path d="M226.003 324.319C226.003 383.98 226.003 443.639 226.003 503.3C226.003 505.057 228.726 505.057 228.726 503.3C228.726 443.639 228.726 383.98 228.726 324.319C228.726 322.56 226.003 322.56 226.003 324.319Z" fill="white"/>
<path d="M257.179 331.168C257.179 388.677 257.179 446.187 257.179 503.696C257.179 505.435 259.901 505.435 259.901 503.696C259.901 446.187 259.901 388.677 259.901 331.168C259.901 329.427 257.179 329.427 257.179 331.168Z" fill="white"/>
<path d="M227.405 322.443C238.194 321.93 248.986 326.044 258.747 330.157L227.405 322.443Z" fill="#1E1E1E"/>
<path d="M227.392 323.801C238.356 323.608 248.397 327.304 258.371 331.468C259.992 332.144 260.689 329.506 259.093 328.839C248.895 324.582 238.578 320.879 227.39 321.077C225.638 321.106 225.635 323.832 227.392 323.801Z" fill="white"/>
<path d="M167.913 325.531C166.494 297.432 167.204 269.336 167.204 241.494L167.913 325.531Z" fill="#1E1E1E"/>
<path d="M169.265 325.523C167.939 297.525 168.528 269.505 168.556 241.486C168.558 239.728 165.835 239.729 165.833 241.486C165.804 269.505 165.214 297.525 166.543 325.523C166.626 327.272 169.349 327.28 169.265 325.523Z" fill="white"/>
<path d="M167.204 241.233C170.751 237.364 185.651 237.364 191.325 236.591C203.03 235.302 214.735 235.302 226.086 234.528" fill="#1E1E1E"/>
<path d="M168.16 242.193C173.912 237.491 184.309 238.748 191.318 237.951C202.851 236.635 214.502 236.605 226.08 235.889C227.824 235.78 227.835 233.054 226.08 233.163C212.761 233.986 199.473 234.671 186.169 235.694C179.751 236.188 171.482 235.978 166.236 240.267C164.875 241.379 166.813 243.296 168.16 242.193Z" fill="white"/>
<path d="M225.069 234.528C225.069 263.816 225.069 293.106 225.069 322.394C225.069 324.153 227.792 324.153 227.792 322.394C227.792 293.106 227.792 263.816 227.792 234.528C227.792 232.769 225.069 232.769 225.069 234.528Z" fill="white"/>
<path d="M248.132 238.651C248.132 267.779 248.132 296.908 248.132 326.038C248.132 327.797 250.855 327.797 250.855 326.038C250.855 296.91 250.855 267.781 250.855 238.651C250.855 236.892 248.132 236.892 248.132 238.651Z" fill="white"/>
<path d="M226.423 234.267C233.872 234.009 241.321 236.073 248.06 238.133L226.423 234.267Z" fill="#1E1E1E"/>
<path d="M226.426 235.631C233.766 235.536 240.73 237.335 247.702 239.45C249.386 239.958 250.101 237.329 248.424 236.821C241.224 234.64 233.996 232.809 226.426 232.907C224.671 232.929 224.669 235.654 226.426 235.631Z" fill="white"/>
<path d="M187.664 235.497C186.74 217.235 187.201 198.974 187.201 180.881L187.664 235.497Z" fill="#1E1E1E"/>
<path d="M189.019 235.494C188.182 217.294 188.529 199.089 188.556 180.878C188.558 179.119 185.836 179.121 185.834 180.878C185.807 199.087 185.46 217.294 186.297 235.494C186.375 237.243 189.099 237.252 189.019 235.494Z" fill="white"/>
<path d="M187.224 180.717C189.531 178.203 199.213 178.203 202.901 177.701C210.508 176.864 218.116 176.864 225.493 176.362" fill="#1E1E1E"/>
<path d="M187.905 181.886C191.86 178.89 198.149 179.574 202.893 179.056C210.397 178.238 217.958 178.171 225.485 177.717C227.23 177.611 227.24 174.884 225.485 174.991C217 175.502 208.54 175.905 200.069 176.596C195.699 176.952 190.188 176.763 186.529 179.534C185.148 180.578 186.502 182.947 187.905 181.886Z" fill="white"/>
<path d="M224.331 176.357C224.331 195.392 224.331 214.426 224.331 233.461C224.331 235.22 227.054 235.22 227.054 233.461C227.054 214.426 227.054 195.392 227.054 176.357C227.054 174.598 224.331 174.598 224.331 176.357Z" fill="white"/>
<path d="M239.315 179.035C239.315 197.967 239.315 216.897 239.315 235.829C239.315 237.588 242.037 237.588 242.037 235.829C242.037 216.897 242.037 197.967 242.037 179.035C242.037 177.276 239.315 177.276 239.315 179.035Z" fill="white"/>
<path d="M225.706 176.189C230.547 176.022 235.388 177.363 239.767 178.704L225.706 176.189Z" fill="#1E1E1E"/>
<path d="M225.705 177.55C230.433 177.49 234.913 178.652 239.405 180.015C241.089 180.526 241.803 177.895 240.127 177.386C235.41 175.956 230.666 174.761 225.705 174.824C223.95 174.848 223.948 177.573 225.705 177.55Z" fill="white"/>
<path d="M198.409 178.082C197.743 164.931 198.075 151.78 198.075 138.753L198.409 178.082Z" fill="#1E1E1E"/>
<path d="M199.748 178.079C199.158 164.972 199.393 151.863 199.414 138.751C199.418 136.992 196.695 136.994 196.692 138.751C196.668 151.865 196.434 164.974 197.026 178.079C197.104 179.828 199.828 179.838 199.748 178.079Z" fill="white"/>
<path d="M198.062 138.64C199.723 136.83 206.696 136.83 209.352 136.469C214.829 135.865 220.309 135.865 225.62 135.504" fill="#1E1E1E"/>
<path d="M198.75 139.808C201.538 137.697 206.005 138.187 209.352 137.822C214.756 137.233 220.201 137.183 225.62 136.857C227.365 136.752 227.376 134.025 225.62 134.132C219.511 134.501 213.418 134.79 207.317 135.289C204.105 135.551 200.065 135.418 197.375 137.455C195.995 138.5 197.349 140.869 198.75 139.808Z" fill="white"/>
<path d="M224.417 135.492C224.417 149.199 224.417 162.907 224.417 176.614C224.417 178.373 227.139 178.373 227.139 176.614C227.139 162.907 227.139 149.199 227.139 135.492C227.139 133.734 224.417 133.734 224.417 135.492Z" fill="white"/>
<path d="M235.19 137.423C235.19 150.87 235.19 164.319 235.19 177.765C235.19 179.524 237.912 179.524 237.912 177.765C237.912 164.319 237.912 150.87 237.912 137.423C237.912 135.666 235.19 135.666 235.19 137.423Z" fill="white"/>
<path d="M225.774 135.379C229.259 135.257 232.748 136.224 235.899 137.187L225.774 135.379Z" fill="#1E1E1E"/>
<path d="M225.771 136.735C229.142 136.692 232.331 137.526 235.534 138.496C237.219 139.005 237.934 136.376 236.257 135.867C232.828 134.829 229.376 133.963 225.771 134.012C224.016 134.034 224.014 136.759 225.771 136.735Z" fill="white"/>
<path d="M0.746277 313.612C0.746277 313.612 94.5589 293.021 120.558 305.739" stroke="white" stroke-width="0.549291" stroke-miterlimit="10"/>
<path d="M0.746277 353.584C0.746277 353.584 94.5589 332.993 120.558 345.711" stroke="white" stroke-width="0.549291" stroke-miterlimit="10"/>
<path d="M0.746277 395.374C0.746277 395.374 94.5589 374.783 120.558 387.501" stroke="white" stroke-width="0.549291" stroke-miterlimit="10"/>
<path d="M0.746277 435.343C0.746277 435.343 94.5589 414.752 120.558 427.47" stroke="white" stroke-width="0.549291" stroke-miterlimit="10"/>
<path d="M2.00293 475C2.00293 475 95.1802 454.443 121.003 467.141" stroke="white" stroke-width="0.549291" stroke-miterlimit="10"/>
<path d="M142.329 369.491C142.329 369.491 209.373 354.775 227.954 363.865" stroke="white" stroke-width="0.549291" stroke-miterlimit="10"/>
<path d="M142.329 398.058C142.329 398.058 209.373 383.342 227.954 392.431" stroke="white" stroke-width="0.549291" stroke-miterlimit="10"/>
<path d="M142.329 427.919C142.329 427.919 209.373 413.204 227.954 422.293" stroke="white" stroke-width="0.549291" stroke-miterlimit="10"/>
<path d="M142.329 456.486C142.329 456.486 209.373 441.771 227.954 450.859" stroke="white" stroke-width="0.549291" stroke-miterlimit="10"/>
<path d="M142.329 485.05C142.329 485.05 209.373 470.335 227.954 479.423" stroke="white" stroke-width="0.549291" stroke-miterlimit="10"/>
</svg>
