<svg width="35" height="35" viewBox="0 0 35 35" fill="none" xmlns="http://www.w3.org/2000/svg">
<path fill-rule="evenodd" clip-rule="evenodd" d="M22.4377 3.78013C22.6064 3.93058 22.6946 4.15159 22.6759 4.37688C22.5966 5.32955 22.3384 6.84148 21.8175 8.33479C21.573 9.03586 21.2616 9.75917 20.8675 10.426C22.7987 10.1399 25.2978 10.425 27.4435 12.8409C27.592 13.0082 27.6543 13.2351 27.612 13.4548C27.5697 13.6745 27.4276 13.862 27.2275 13.9622C27.1522 13.9999 26.896 14.2023 26.5625 14.6363C26.2489 15.0443 25.9175 15.5918 25.6624 16.23C25.1524 17.5061 24.9683 19.083 25.7504 20.6485C25.928 21.004 25.7837 21.4361 25.4283 21.6137C25.0728 21.7913 24.6406 21.6471 24.463 21.2916C23.4464 19.2565 23.7119 17.2328 24.3262 15.6959C24.6332 14.9276 25.0325 14.2655 25.4216 13.7593C25.5571 13.583 25.6993 13.4153 25.8435 13.2643C23.3959 11.0329 20.5598 11.8049 19.0836 12.4093C18.7486 12.5465 18.3639 12.4134 18.1852 12.0986C18.0066 11.7838 18.0896 11.3853 18.379 11.168C19.2859 10.4873 19.9758 9.24568 20.4588 7.86088C20.7742 6.95649 20.9845 6.04051 21.1109 5.27879C19.2653 5.87703 18.2555 6.95506 17.7165 8.07282C17.069 9.41547 17.0673 10.8897 17.2661 11.8179C17.3201 12.0704 17.2347 12.3325 17.0422 12.5047C16.8498 12.6769 16.5798 12.7328 16.3348 12.651C16.1295 12.5825 15.9373 12.5152 15.7519 12.4503C14.6971 12.0808 13.8606 11.7879 12.0655 11.7879C11.1118 11.7879 9.82463 12.1768 8.78231 13.1207C7.76088 14.0456 6.93902 15.5357 6.93902 17.8195C6.93902 20.1912 7.47878 22.5698 8.34152 24.5666C9.21032 26.5774 10.3742 28.1281 11.5655 28.923C12.156 29.317 12.6274 29.4622 13.0293 29.4934C13.4381 29.525 13.836 29.4437 14.2963 29.2894C14.4868 29.2255 14.6951 29.1442 14.9204 29.0562C15.7159 28.7456 16.7239 28.3519 17.9116 28.3519C18.5642 28.3519 19.1954 28.4822 19.7676 28.6272C19.9996 28.6859 20.2127 28.7443 20.4164 28.8C20.7476 28.8907 21.0539 28.9746 21.3764 29.0425C22.3503 29.2477 23.0539 29.2079 23.6983 28.5629C25.0504 27.2097 26.4172 24.8384 27.1612 23.349C27.3388 22.9935 27.771 22.8493 28.1264 23.0269C28.4819 23.2045 28.6261 23.6366 28.4485 23.9921C27.6936 25.5032 26.2423 28.0528 24.7163 29.58C23.562 30.7353 22.2419 30.6955 21.0797 30.4506C20.7227 30.3754 20.3359 30.27 19.9709 30.1705C19.7765 30.1175 19.5883 30.0662 19.4142 30.0221C18.8763 29.8858 18.3832 29.791 17.9116 29.791C17.0203 29.791 16.3541 30.0493 15.6056 30.3395C15.3369 30.4436 15.0577 30.5519 14.7536 30.6538C14.2067 30.8371 13.5997 30.9808 12.9182 30.9281C12.2298 30.8748 11.5255 30.6262 10.7668 30.12C9.25995 29.1146 7.9505 27.2898 7.02052 25.1374C6.08448 22.9709 5.5 20.3987 5.5 17.8195C5.5 15.1525 6.47693 13.267 7.8164 12.054C9.13498 10.86 10.7708 10.3488 12.0655 10.3488C13.7851 10.3488 14.7918 10.6059 15.7158 10.915C15.6801 9.87345 15.85 8.63028 16.4203 7.44773C17.2534 5.72037 18.9081 4.19406 21.8176 3.61166C22.0393 3.56729 22.2689 3.62968 22.4377 3.78013Z" fill="white"/>
</svg>
