<svg width="24" height="24" viewBox="0 0 24 24" fill="none" xmlns="http://www.w3.org/2000/svg">
<path d="M23.6385 14.9031C22.0358 21.3317 15.5243 25.2437 9.0949 23.641C2.66853 22.0382 -1.24385 15.5267 0.359278 9.09847C1.96128 2.6691 8.4724 -1.24365 14.8999 0.359098C21.3289 1.96185 25.2409 8.4741 23.6382 14.9031H23.6385Z" fill="#0AC18E"/>
<path fill-rule="evenodd" clip-rule="evenodd" d="M15.6613 8.35638C15.0861 6.89658 13.6457 6.76489 11.9683 7.09074L11.3711 5.0082L10.1032 5.372L10.6847 7.39964C10.3518 7.49506 10.0131 7.59931 9.67656 7.70311L9.09148 5.66197L7.82452 6.02523L8.42104 8.10731C8.1482 8.19162 7.88014 8.274 7.61739 8.34953L7.61537 8.34312L5.86683 8.84386L6.25538 10.1976C6.25538 10.1976 7.18636 9.91137 7.17574 9.93307C7.68924 9.78599 7.94215 10.036 8.0642 10.2794L8.7446 12.6519C8.78009 12.6419 8.82673 12.6301 8.88112 12.6223L8.74758 12.6607L9.69997 15.9845C9.72377 16.1526 9.70266 16.4375 9.34411 16.541C9.36445 16.5507 8.42257 16.8049 8.42257 16.8049L8.60498 18.3914L10.2549 17.9181C10.4413 17.8649 10.6264 17.814 10.8094 17.7636L10.8095 17.7636L10.8099 17.7635C10.9283 17.7309 11.0458 17.6986 11.1623 17.666L11.767 19.7725L13.0333 19.4096L12.436 17.3254C12.7855 17.2331 13.1227 17.1394 13.4511 17.0449L14.0454 19.1194L15.313 18.7558L14.7105 16.6532C16.8066 15.9198 18.1445 14.955 17.7554 12.9013C17.4429 11.2469 16.479 10.7451 15.1857 10.8011C15.813 10.2155 16.0834 9.42436 15.6609 8.35657L15.6613 8.35638ZM15.179 13.3691C15.5936 14.8137 13.3145 15.4328 12.2726 15.7158L12.2725 15.7158C12.1793 15.7411 12.0959 15.7638 12.0253 15.7841L11.2254 12.9933C11.3118 12.9685 11.416 12.936 11.534 12.8991L11.534 12.8991C12.5903 12.5691 14.7551 11.8926 15.1793 13.3689L15.179 13.3691ZM11.0684 11.658C11.9388 11.4238 13.8361 10.9132 13.4601 9.60048C13.0752 8.25766 11.2723 8.82687 10.3918 9.10486C10.2928 9.13612 10.2055 9.16369 10.1331 9.18445L10.8588 11.7155C10.9185 11.6983 10.9892 11.6793 11.0684 11.658Z" fill="white"/>
</svg>
