<svg width="24" height="24" viewBox="0 0 24 24" fill="none" xmlns="http://www.w3.org/2000/svg">
<path d="M23.6385 14.9031C22.0358 21.3317 15.5243 25.2437 9.0949 23.641C2.66853 22.0382 -1.24385 15.5267 0.359278 9.09847C1.96128 2.6691 8.4724 -1.24365 14.8999 0.359098C21.3289 1.96185 25.2409 8.4741 23.6382 14.9031H23.6385Z" fill="#F7931A"/>
<path fill-rule="evenodd" clip-rule="evenodd" d="M17.1284 10.9372C17.3602 9.3854 16.1787 8.55118 14.5631 7.99466L15.0871 5.89253L13.8072 5.57364L13.297 7.62038C12.9609 7.53655 12.6154 7.45747 12.2721 7.37911L12.786 5.31889L11.5072 5L10.9827 7.1014C10.7043 7.03799 10.431 6.9753 10.1656 6.90934L10.1671 6.90278L8.40244 6.46216L8.06204 7.82884C8.06204 7.82884 9.01143 8.04642 8.99138 8.0599C9.50963 8.18928 9.60366 8.53222 9.58762 8.8041L8.99066 11.1989C9.02637 11.208 9.07266 11.2211 9.12368 11.2415L8.98883 11.208L8.1517 14.5627C8.08828 14.7202 7.92756 14.9563 7.5653 14.8667C7.57806 14.8853 6.63523 14.6345 6.63523 14.6345L6 16.0996L7.66552 16.5147C7.85353 16.5618 8.03925 16.6103 8.22294 16.6582L8.22304 16.6582L8.22348 16.6583C8.34228 16.6893 8.46022 16.7201 8.57737 16.7501L8.04783 18.8767L9.32595 19.1956L9.85075 17.092C10.1995 17.1868 10.5385 17.2742 10.8701 17.3566L10.3475 19.4503L11.6271 19.7692L12.1566 17.6471C14.3386 18.06 15.9797 17.8934 16.6696 15.9203C17.2261 14.3313 16.6422 13.4147 15.4942 12.8167C16.3303 12.6231 16.96 12.0732 17.128 10.9372H17.1284ZM14.2044 15.0372C13.8411 16.4956 11.5578 15.8922 10.5141 15.6163L10.514 15.6163C10.4206 15.5916 10.3371 15.5695 10.2658 15.5518L10.9684 12.735C11.0556 12.7567 11.1621 12.7806 11.2827 12.8077L11.2827 12.8077C12.3626 13.05 14.5755 13.5466 14.2047 15.0372H14.2044ZM11.5001 11.5001C12.371 11.7324 14.2694 12.2389 14.6001 10.914C14.9382 9.55868 13.0922 9.15018 12.1906 8.95067C12.0893 8.92824 11.9999 8.90845 11.9268 8.89026L11.2898 11.445C11.3501 11.4601 11.4208 11.4789 11.5001 11.5001Z" fill="white"/>
</svg>
