<svg width="24" height="24" viewBox="0 0 24 24" fill="none" xmlns="http://www.w3.org/2000/svg">
<path d="M12 24C18.6274 24 24 18.6274 24 12C24 5.37258 18.6274 0 12 0C5.37258 0 0 5.37258 0 12C0 18.6274 5.37258 24 12 24Z" fill="url(#paint0_linear_4938_10344)"/>
<mask id="mask0_4938_10344" style="mask-type:alpha" maskUnits="userSpaceOnUse" x="0" y="0" width="24" height="24">
<path d="M12 24C18.6274 24 24 18.6274 24 12C24 5.37258 18.6274 0 12 0C5.37258 0 0 5.37258 0 12C0 18.6274 5.37258 24 12 24Z" fill="white"/>
</mask>
<g mask="url(#mask0_4938_10344)">
<path d="M8 17.9999V7C15.2 7 17 9.40767 17 12.238C17 18.1046 11 17.9999 8 17.9999Z" stroke="white" stroke-width="2"/>
<line x1="5" y1="11.25" x2="19" y2="11.25" stroke="white" stroke-width="1.5"/>
<line x1="5" y1="14.25" x2="19" y2="14.25" stroke="white" stroke-width="1.5"/>
</g>
<defs>
<linearGradient id="paint0_linear_4938_10344" x1="12" y1="0" x2="12" y2="24" gradientUnits="userSpaceOnUse">
<stop stop-color="#F9AB11"/>
<stop offset="1" stop-color="#FBC856"/>
</linearGradient>
</defs>
</svg>
