<svg width="24" height="24" viewBox="0 0 24 24" fill="none" xmlns="http://www.w3.org/2000/svg">
<path opacity="0.2" d="M12 24C18.6274 24 24 18.6274 24 12C24 5.37258 18.6274 0 12 0C5.37258 0 0 5.37258 0 12C0 18.6274 5.37258 24 12 24Z" fill="#32A4BE"/>
<path d="M12 24C18.6274 24 24 18.6274 24 12C24 5.37258 18.6274 0 12 0C5.37258 0 0 5.37258 0 12C0 18.6274 5.37258 24 12 24Z" fill="#C2A633"/>
<mask id="mask0_4938_10333" style="mask-type:alpha" maskUnits="userSpaceOnUse" x="0" y="0" width="24" height="24">
<path d="M12 24C18.6274 24 24 18.6274 24 12C24 5.37258 18.6274 0 12 0C5.37258 0 0 5.37258 0 12C0 18.6274 5.37258 24 12 24Z" fill="white"/>
</mask>
<g mask="url(#mask0_4938_10333)">
<path fill-rule="evenodd" clip-rule="evenodd" d="M11.888 5H7.61011V11H5V13H7.61011V19H11.888C14.146 19 14.6326 18.7503 15.6056 18.2508C15.6812 18.2121 15.7597 18.1718 15.8421 18.13C16.9868 17.55 17.8764 16.7333 18.5109 15.68C19.1454 14.6267 19.4626 13.4 19.4626 12C19.4626 10.6 19.1454 9.37334 18.5109 8.32C17.8764 7.26666 16.9868 6.45 15.8421 5.87C14.6974 5.29 13.3794 5 11.888 5ZM10.7891 13V16.3402H11.731C13.1046 16.3402 14.2003 15.9502 15.0179 15.1702C15.8356 14.3902 16.2444 13.3335 16.2444 12.0002C16.2444 10.6668 15.8356 9.61016 15.0179 8.83016C14.2003 8.05015 13.1046 7.66016 11.731 7.66016H10.7891V11H13.8305V13H10.7891Z" fill="white"/>
</g>
</svg>
