<svg width="24" height="24" viewBox="0 0 24 24" fill="none" xmlns="http://www.w3.org/2000/svg">
<path d="M23.9349 12.0002C23.9349 18.5927 18.5908 23.937 11.9983 23.937C5.40576 23.937 0.0615234 18.5927 0.0615234 12.0002C0.0615234 5.40772 5.40576 0.0634766 11.9983 0.0634766C18.5907 0.0634766 23.9349 5.40772 23.9349 12.0002" fill="#627EEA"/>
<path opacity="0.8" d="M11.6676 4L11.5657 4.34652V14.4016L11.6676 14.5034L16.3351 11.7445L11.6676 4Z" fill="white"/>
<path d="M11.6675 4L7 11.7445L11.6675 14.5034V9.62298V4Z" fill="white"/>
<path opacity="0.8" d="M11.6676 16.0222L11.6101 16.0922V19.6741L11.6676 19.8419L16.3378 13.2646L11.6676 16.0222Z" fill="white"/>
<path d="M11.6675 19.8419V16.0222L7 13.2646L11.6675 19.8419Z" fill="white"/>
<path d="M11.6675 14.5029L16.3349 11.744L11.6675 9.62256V14.5029Z" fill="#8198EE"/>
<path d="M7 11.744L11.6674 14.503V9.62256L7 11.744Z" fill="#C0CCF7"/>
</svg>
