<svg width="35" height="35" viewBox="0 0 35 35" fill="none" xmlns="http://www.w3.org/2000/svg">
<path fill-rule="evenodd" clip-rule="evenodd" d="M15.1091 10.5174C14.9559 11.7388 14.9549 13.0334 14.9549 14.3075C14.9549 14.7049 14.6327 15.027 14.2354 15.027H10.7928V18.3531H14.2354C14.6327 18.3531 14.9549 18.6752 14.9549 19.0726V30.2195C14.9549 30.6169 14.6327 30.939 14.2354 30.939C13.838 30.939 13.5159 30.6169 13.5159 30.2195V19.7921H10.0733C9.6759 19.7921 9.35376 19.47 9.35376 19.0726V14.3075C9.35376 13.9101 9.6759 13.588 10.0733 13.588H13.5169C13.5214 12.5326 13.5461 11.4157 13.6813 10.3383C13.8477 9.01163 14.1876 7.68571 14.9077 6.55951C16.4093 4.21103 19.3322 3.04681 24.573 3.85341C24.9239 3.90743 25.183 4.20943 25.183 4.56455V8.69146C25.183 8.89545 25.0964 9.08985 24.9448 9.2263C24.7932 9.36276 24.5907 9.42843 24.3879 9.40699C22.1591 9.17142 21.3408 9.46298 20.9403 9.98892C20.7168 10.2824 20.5473 10.7386 20.4438 11.4724C20.3627 12.0469 20.3279 12.7429 20.3168 13.588H24.4635C24.6796 13.588 24.8843 13.6851 25.0209 13.8525C25.1576 14.0199 25.2117 14.2399 25.1684 14.4516L24.1943 19.2167C24.1259 19.5516 23.8312 19.7921 23.4894 19.7921H20.3125V30.2195C20.3125 30.6169 19.9903 30.939 19.593 30.939C19.1956 30.939 18.8735 30.6169 18.8735 30.2195V19.0726C18.8735 18.6752 19.1956 18.3531 19.593 18.3531H22.9021L23.582 15.027H19.593C19.1956 15.027 18.8735 14.7049 18.8735 14.3075C18.8735 13.125 18.9005 12.1102 19.0189 11.2713C19.1367 10.4362 19.3547 9.69582 19.7954 9.11711C20.6075 8.05059 21.9477 7.79873 23.744 7.90839V5.18962C19.1858 4.60709 17.1315 5.7528 16.1201 7.33469C15.5616 8.20813 15.2623 9.29667 15.1091 10.5174Z" fill="white"/>
</svg>
