<svg width="35" height="35" viewBox="0 0 35 35" fill="none" xmlns="http://www.w3.org/2000/svg">
<path fill-rule="evenodd" clip-rule="evenodd" d="M20.2864 3.85476C23.4125 4.443 26.0487 5.94833 27.279 7.3132C27.5378 7.60034 27.5234 8.04066 27.2465 8.31037L23.44 12.0177C23.2061 12.2455 22.8481 12.2872 22.568 12.1193C19.6344 10.3604 17.1879 10.2862 15.3395 10.9085C13.4626 11.5405 12.1225 12.917 11.4784 14.1809C10.1589 16.7702 10.3141 21.0129 13.9742 23.3155C16.2675 24.7582 18.64 24.7529 20.565 23.9857C22.5181 23.2074 23.9597 21.6682 24.4105 20.1119C24.521 19.7302 24.9201 19.5104 25.3018 19.6209C25.6835 19.7315 25.9032 20.1305 25.7927 20.5122C25.1971 22.5684 23.3867 24.4103 21.0978 25.3225C18.7808 26.2459 15.9213 26.2406 13.208 24.5335C8.75908 21.7347 8.63111 16.5988 10.1963 13.5275C10.9946 11.9611 12.6133 10.308 14.8803 9.5447C17.0617 8.81028 19.7731 8.9227 22.8256 10.6074L25.7109 7.79725C24.5588 6.81745 22.4971 5.73503 20.0203 5.26896C17.1594 4.73061 13.8335 5.0316 10.8144 7.18481C7.17642 9.77949 5.69692 13.0397 5.44311 16.1587C5.187 19.3062 6.17865 22.3413 7.54133 24.4174C9.18625 26.9235 13.937 31.0746 22.0283 28.8793C24.9325 28.0913 26.9614 26.0782 28.2338 23.565C29.4036 21.2545 29.9163 18.5493 29.8622 16.0885H18.6088V19.8317H22.2168C22.6141 19.8317 22.9363 20.1539 22.9363 20.5512C22.9363 20.9486 22.6141 21.2707 22.2168 21.2707H17.8893C17.4919 21.2707 17.1698 20.9486 17.1698 20.5512V15.369C17.1698 14.9716 17.4919 14.6495 17.8893 14.6495H30.551C30.9301 14.6495 31.2442 14.9437 31.2689 15.322C31.4557 18.1786 30.9255 21.4344 29.5177 24.2151C28.1048 27.0056 25.7871 29.3505 22.4052 30.2681C13.5837 32.6616 8.245 28.112 6.3383 25.2071C4.81946 22.8931 3.72395 19.5429 4.00883 16.042C4.29603 12.5126 5.9857 8.8612 9.97884 6.01324C13.3843 3.58442 17.1305 3.26089 20.2864 3.85476Z" fill="white"/>
</svg>
