<svg width="35" height="35" viewBox="0 0 35 35" fill="none" xmlns="http://www.w3.org/2000/svg">
<path fill-rule="evenodd" clip-rule="evenodd" d="M4.05092 6.84389C4.64939 5.73262 5.92008 5.00343 7.52024 5.03778C9.20646 5.07399 10.3379 6.04291 10.8396 7.32823C11.3259 8.57386 11.222 10.0963 10.5788 11.3791C10.0178 12.4981 8.93824 13.1865 7.93298 13.6003C7.20993 13.898 6.46828 14.0776 5.85581 14.1723V28.061H12.5819V12.882C12.5819 12.4846 12.904 12.1625 13.3014 12.1625H18.6617C19.059 12.1625 19.3812 12.4846 19.3812 12.882V13.807C21.3518 12.3165 23.8704 11.8599 26.0562 12.3729C28.7874 13.0139 31.0367 15.1874 31.0367 18.7115V28.7805C31.0367 29.1779 30.7145 29.5 30.3172 29.5H24.7077C24.3103 29.5 23.9881 29.1779 23.9881 28.7805V20.8902C23.9881 19.1596 23.5906 18.3509 23.2009 18.0189C22.8543 17.7236 22.3115 17.6477 21.5158 17.9662C20.7139 18.2872 20.2159 18.7053 19.8967 19.2887C19.5634 19.8978 19.3812 20.7663 19.3812 22.0678V28.7805C19.3812 29.1779 19.059 29.5 18.6617 29.5C18.2643 29.5 17.9422 29.1779 17.9422 28.7805V22.0678C17.9422 20.6607 18.1339 19.5125 18.6343 18.5979C19.1488 17.6577 19.9442 17.0453 20.981 16.6303C22.024 16.2128 23.2108 16.1369 24.1342 16.9236C25.0145 17.6736 25.4272 19.0289 25.4272 20.8902V28.061H29.5977V18.7115C29.5977 15.935 27.8891 14.2811 25.7275 13.7739C23.5261 13.2572 20.8942 13.9499 19.2108 15.9379C19.0157 16.1682 18.6975 16.2523 18.4141 16.1484C18.1306 16.0445 17.9422 15.7748 17.9422 15.4729V13.6015H14.0209V28.7805C14.0209 29.1779 13.6988 29.5 13.3014 29.5H5.1363C4.73892 29.5 4.41679 29.1779 4.41679 28.7805V13.5297C4.41679 13.1502 4.71156 12.836 5.09031 12.8117C5.63676 12.7767 6.53357 12.6203 7.38514 12.2697C8.2487 11.9141 8.95594 11.4052 9.29243 10.7341C9.77114 9.77939 9.82312 8.68153 9.4991 7.85153C9.19058 7.0612 8.5456 6.49916 7.48935 6.47648C6.34704 6.45195 5.6232 6.95931 5.3179 7.52621C5.01867 8.08185 5.05412 8.80602 5.6582 9.44256C5.93174 9.7308 5.91983 10.1862 5.63159 10.4598C5.34335 10.7333 4.88794 10.7214 4.61439 10.4331C3.59793 9.36206 3.44639 7.96643 4.05092 6.84389Z" fill="white"/>
</svg>
