<svg width="558" height="519" viewBox="0 0 558 519" fill="none" xmlns="http://www.w3.org/2000/svg">
<g opacity="0.2" clip-path="url(#clip0_4677_2148)">
<path d="M332.849 469.349C454.57 485.374 534.442 400.632 511.247 280.071C488.053 159.511 370.576 48.787 248.855 32.7621C127.134 16.7373 47.2628 101.48 70.4572 222.04C93.6516 342.601 211.129 453.325 332.849 469.349Z" fill="#282828"/>
<path d="M335.185 457.687C452.719 473.161 529.843 391.333 507.446 274.92C485.05 158.506 371.613 51.5904 254.079 36.1167C136.545 20.643 59.4207 102.471 81.8174 218.884C104.214 335.298 217.65 442.214 335.185 457.687Z" fill="#303132"/>
<path d="M357.558 187.625L316.459 182.214L324.354 223.251L365.453 228.662L357.558 187.625Z" fill="#23C865"/>
<path d="M367.973 240.077L326.542 234.622L334.437 275.658L375.868 281.113L367.973 240.077Z" fill="#23C865"/>
<path d="M378.056 292.485L336.625 287.03L344.52 328.067L385.951 333.521L378.056 292.485Z" fill="#23C865"/>
<path d="M252.47 176.681L211.038 171.227L238.623 314.607L280.054 320.061L252.47 176.681Z" fill="white"/>
<path d="M305.144 180.725L210.468 168.26L218.363 209.297L313.039 221.761L305.144 180.725Z" fill="white"/>
<path d="M172.15 62.661C170.114 59.6622 170.644 56.5194 173.354 55.4305C174.859 54.8255 176.325 54.8579 177.918 55.5494L177.736 57.1318C176.508 56.6488 175.509 56.5174 174.44 56.8585C172.467 57.5625 172.245 59.7821 173.624 61.8912C175.003 64.0003 177.491 65.131 179.432 64.2622C180.335 63.8992 181.009 63.1847 181.119 62.0749L182.879 62.7884C182.831 64.2278 182.055 65.25 180.549 65.855C177.705 67.0868 174.219 65.8247 172.15 62.661Z" fill="white"/>
<path d="M182.379 59.3492L178.805 53.4172L180.342 52.9771L183.916 58.909C185.128 60.9962 186.721 61.6878 188.258 61.2476C189.764 60.6426 190.009 59.3899 188.797 57.3027L185.389 51.3927L186.926 50.9525L190.5 56.8845C192.204 59.8395 191.816 62.0372 189.209 62.8185C186.602 63.5997 184.249 62.3261 182.379 59.3492Z" fill="white"/>
<path d="M201.941 59.0336L198.17 56.2882C198.003 56.2663 197.869 56.4092 197.702 56.3873L195.365 56.8827L197.1 60.0026L195.563 60.4427L189.969 49.9077L193.843 48.9721C196.315 48.3338 198.605 49.2778 199.881 51.6946C200.665 53.2435 200.618 54.683 199.643 55.5184L203.78 58.4724L201.941 59.0336ZM198.177 52.1128C197.425 50.7287 196.165 50.0809 194.461 50.4992L192.29 51.0165L194.612 55.4986L196.783 54.9812C198.487 54.563 198.93 53.497 198.177 52.1128Z" fill="white"/>
<path d="M212.258 57.0186L208.652 54.2951C208.486 54.2732 208.351 54.4161 208.185 54.3942L205.816 54.7248L207.417 57.9876L205.682 58.241L200.523 47.4421L204.595 46.6932C207.099 46.2197 209.42 47.3285 210.53 49.7234C211.346 51.4371 211.101 52.6898 209.96 53.5034L213.961 56.6003L212.258 57.0186ZM208.826 50.1416C208.074 48.7575 206.782 47.9449 205.079 48.3632L202.876 48.7157L205.031 53.1759L207.234 52.8233C209.136 52.5918 209.579 51.5258 208.826 50.1416Z" fill="white"/>
<path d="M223.049 54.1022L223.667 55.6292L216.029 56.3906L211.504 45.5145L218.809 44.7093L219.427 46.2364L213.691 46.7662L214.927 49.8203L220.03 49.3677L220.648 50.8947L215.545 51.3474L216.813 54.5663L223.049 54.1022Z" fill="white"/>
<path d="M230.908 44.3746L234.768 55.1631L233.334 55.2955L224.609 47.8824L227.367 55.4738L225.6 55.5625L221.741 44.774L223.175 44.6416L231.899 52.0547L229.11 44.2985L230.908 44.3746Z" fill="white"/>
<path d="M235.187 49.7567C234.252 46.5816 236.074 44.2514 239.339 44.3599C241.137 44.436 242.698 44.9628 244.053 46.105L243.308 47.292C242.151 46.3365 241.09 45.8755 239.957 45.8869C237.659 45.7451 236.542 47.5256 237.12 49.6899C237.731 52.0191 240.013 53.7652 242.279 53.7423C243.412 53.7308 244.315 53.3678 244.79 52.4666L246.312 53.6307C245.734 54.8396 244.363 55.3017 242.564 55.2255C239.363 55.4466 236.122 52.9318 235.187 49.7567Z" fill="white"/>
<path d="M252.754 52.5515L253.586 56.0343L251.787 55.9581L250.923 52.3105L244.766 44.7535L246.731 44.8515L251.407 50.6072L253.49 45.42L255.289 45.4962L252.754 52.5515Z" fill="white"/>
<path d="M262.491 51.745C262.055 48.6356 264.273 46.6788 267.633 47.2818C270.992 47.8847 273.964 50.6853 274.4 53.7947C274.836 56.9041 272.784 58.8828 269.258 58.258C265.898 57.655 262.927 54.8544 262.491 51.745ZM272.538 53.389C272.26 51.1036 270.279 49.2365 267.918 48.765C265.557 48.2935 264.044 49.7006 264.488 52.0079C264.765 54.2932 266.746 56.1603 269.107 56.6318C271.468 57.1033 272.815 55.6743 272.538 53.389Z" fill="white"/>
<path d="M278.559 50.9689L278.892 54.386L284.312 55.5814L284.431 57.0428L279.011 55.8474L279.305 59.9018L277.443 59.496L276.547 48.937L284.525 50.7906L284.644 52.252L278.559 50.9689Z" fill="white"/>
<path d="M300.754 64.3322L300.707 65.7717L292.434 63.237L292.402 52.9523L300.508 55.4651L300.46 56.9046L294.248 54.9623L294.32 57.8631L299.835 59.5529L299.787 60.9923L294.272 59.3025L294.376 62.3681L300.754 64.3322Z" fill="white"/>
<path d="M313.391 60.0524L312.726 70.0846L311.166 69.5578L305.127 60.0888L304.724 67.2641L302.798 66.5287L303.463 56.4965L305.024 57.0232L310.896 66.4704L311.299 59.2951L313.391 60.0524Z" fill="white"/>
<path d="M324.224 73.365L324.01 74.7825L315.714 71.2809L317.076 61.5011L325.007 64.7941L324.794 66.2117L318.621 63.6321L318.193 66.4672L323.669 68.7943L323.455 70.2118L317.98 67.8847L317.552 70.7197L324.224 73.365Z" fill="white"/>
<path d="M333.463 79.24L331.735 75.318C331.569 75.2961 331.371 75.1094 331.204 75.0875L328.518 73.7701L327.924 76.5832L326.133 75.7049L328.026 66.1557L332.471 68.1866C335.324 69.5259 336.869 71.6569 336.449 73.6898C336.069 75.0855 335.063 75.7561 333.399 75.5371L335.388 79.9753L333.463 79.24ZM334.524 72.9545C334.769 71.7017 333.882 70.4605 332.091 69.5822L329.603 68.4515L328.764 72.5174L331.252 73.6481C333.209 74.5483 334.278 74.2072 334.524 72.9545Z" fill="white"/>
<path d="M346.377 80.619L348.168 81.4973L347.067 85.0468C345.799 85.2012 344.103 84.8173 342.646 83.9829C339.199 82.0834 337.265 78.7769 338.057 76.1504C338.818 73.3592 341.955 72.8085 345.204 74.5212C347.026 75.5643 348.381 76.7065 349.166 78.2554L347.795 78.7175C347.241 77.5201 346.25 76.5865 344.99 75.9388C342.637 74.6652 340.632 75.2044 340.046 77.2154C339.46 79.2265 340.871 81.5004 343.224 82.774C344.119 83.2131 344.983 83.4874 345.648 83.5751L346.377 80.619Z" fill="white"/>
<path d="M355.007 87.5373L353.945 90.4495L352.123 89.4065L353.184 86.4942L351.068 78.0235L352.922 79.2313L354.658 85.7244L359.681 83.1731L361.504 84.2162L355.007 87.5373Z" fill="white"/>
<path d="M378.214 96.0547L375.996 101.385C433.174 142.324 477.581 204.551 490.137 269.814C506.719 356.007 462.726 421.535 387.694 434.466L390.895 440.992C468.4 427.422 513.946 359.85 496.792 270.69C483.761 202.955 437.642 138.575 378.214 96.0547Z" fill="#23C865"/>
<path d="M281.726 421.479C196.08 388.518 121.777 306.613 104.909 218.937C92.3215 153.509 114.637 100.066 159.093 72.3469L154.655 66.1406C108.591 94.7724 85.3566 150.183 98.4197 218.083C115.858 308.725 192.468 393.344 281.101 427.501L281.726 421.479Z" fill="#23C865"/>
<path d="M347.418 419.847L345.089 419.541L345.977 424.155L346.421 426.462L349.559 442.778L368.528 445.275L364.945 426.652L348.306 424.462L347.418 419.847ZM348.75 426.769L362.893 428.631L365.588 442.639L351.445 440.777L348.75 426.769Z" fill="white"/>
<path d="M341.152 423.52L324.513 421.329L328.096 439.952L347.064 442.45L343.925 426.134L343.481 423.827L342.594 419.212L340.264 418.905L341.152 423.52ZM344.291 439.836L330.148 437.974L327.453 423.965L341.596 425.827L344.291 439.836Z" fill="white"/>
<path d="M322.182 421.023L303.214 418.525L303.658 420.833L322.626 423.33L322.182 421.023Z" fill="#23C865"/>
<path d="M322.183 421.023L319.854 420.716L323.436 439.339L325.766 439.645L322.183 421.023Z" fill="#23C865"/>
<path d="M305.377 418.81L303.048 418.503L306.631 437.126L308.96 437.433L305.377 418.81Z" fill="#23C865"/>
</g>
<defs>
<clipPath id="clip0_4677_2148">
<rect width="473.635" height="465.134" fill="white" transform="matrix(0.991445 0.130526 0.188924 0.981992 0 0)"/>
</clipPath>
</defs>
</svg>
