<svg width="25" height="25" viewBox="0 0 25 25" fill="none" xmlns="http://www.w3.org/2000/svg">
<path d="M12.6152 24.5391C19.2427 24.5391 24.6152 19.1665 24.6152 12.5391C24.6152 5.91165 19.2427 0.539062 12.6152 0.539062C5.98782 0.539062 0.615234 5.91165 0.615234 12.5391C0.615234 19.1665 5.98782 24.5391 12.6152 24.5391Z" fill="#23C865"/>
<path d="M16.754 8.75H14.4365V11.0862H16.754V8.75Z" fill="white"/>
<path d="M16.7727 11.7344H14.4365V14.0706H16.7727V11.7344Z" fill="white"/>
<path d="M16.7727 14.7168H14.4365V17.053H16.7727V14.7168Z" fill="white"/>
<path d="M10.7962 8.91797H8.45996L8.45996 17.0806H10.7962L10.7962 8.91797Z" fill="white"/>
<path d="M13.7975 8.75H8.45898V11.0862H13.7975V8.75Z" fill="white"/>
</svg>
