<svg width="114" height="93" viewBox="0 0 114 93" fill="none" xmlns="http://www.w3.org/2000/svg">
<path d="M92.0488 77.9446C82.2584 77.0213 89.2255 68.6451 90.267 57.6002C91.3085 46.5553 86.0302 37.0242 95.8205 37.9475C105.611 38.8707 112.703 48.5728 111.662 59.6177C110.62 70.6626 101.839 78.8678 92.0488 77.9446Z" fill="#626161"/>
<rect x="1.20721" y="43.4594" width="105.027" height="25.3514" rx="12.6757" fill="white" stroke="#1E1E1E" stroke-width="2.41441"/>
<rect x="16.9008" y="12.0721" width="74.8468" height="79.6757" rx="30.1802" fill="white" stroke="#1E1E1E" stroke-width="2.41441"/>
<path d="M26.5586 36.2162H52.5135V63.982H58.5496" stroke="#1E1E1E" stroke-width="2.41441" stroke-linecap="round"/>
<path d="M65.1892 36.2162H83.2973" stroke="#1E1E1E" stroke-width="2.41441" stroke-linecap="round"/>
<ellipse cx="36.8197" cy="49.4955" rx="4.22523" ry="6.03604" fill="#1E1E1E"/>
<circle cx="38.6305" cy="48.2883" r="1.20721" fill="white"/>
<ellipse cx="73.036" cy="49.4955" rx="4.22523" ry="6.03604" fill="#1E1E1E"/>
<circle cx="74.8469" cy="48.2883" r="1.20721" fill="white"/>
<path d="M95.2909 45.9263C87.0968 50.5771 50.8085 40.6944 34.4202 24.9981C33.2496 40.6944 22.3871 50.0992 13.3498 41.8571C11.5939 5.81345 43.1356 0 54.2738 0C65.4119 0 104.07 7.55749 95.2909 45.9263Z" fill="#626161"/>
<path d="M60.8 77.5C60.8 81.2431 58.4149 83.8 56 83.8C53.5851 83.8 51.2 81.2431 51.2 77.5C51.2 73.7569 53.5851 71.2 56 71.2C58.4149 71.2 60.8 73.7569 60.8 77.5Z" stroke="#1E1E1E" stroke-width="2.4"/>
</svg>
