<svg width="122" height="105" viewBox="0 0 122 105" fill="none" xmlns="http://www.w3.org/2000/svg">
<rect x="14.4956" y="11.406" width="106.923" height="92.7204" fill="#292929"/>
<rect x="29.9627" y="34.5394" width="76.0763" height="46.4537" rx="3.36621" stroke="#EDEDED" stroke-width="2.69297"/>
<g clip-path="url(#clip0_3942_1901)">
<path d="M48.3468 54.3164L47.8918 53.5688C47.5972 53.7481 47.4354 54.0837 47.4785 54.4259C47.5216 54.768 47.7616 55.053 48.0915 55.1536L48.3468 54.3164ZM44.9386 54.3163L45.1938 55.1534C45.5237 55.0529 45.7638 54.768 45.8069 54.4258C45.8501 54.0836 45.6883 53.748 45.3937 53.5687L44.9386 54.3163ZM40.8526 59.1704L41.7211 59.2785H41.7211L40.8526 59.1704ZM52.4322 59.1704L53.3007 59.0623V59.0623L52.4322 59.1704ZM49.0497 51.5108C49.0497 52.3815 48.588 53.1451 47.8918 53.5688L48.8019 55.0641C49.9981 54.336 50.8001 53.0175 50.8001 51.5108H49.0497ZM46.6429 49.104C47.9721 49.104 49.0497 50.1816 49.0497 51.5108H50.8001C50.8001 49.2148 48.9389 47.3535 46.6429 47.3535V49.104ZM44.236 51.5108C44.236 50.1816 45.3136 49.104 46.6429 49.104V47.3535C44.3469 47.3535 42.4856 49.2148 42.4856 51.5108H44.236ZM45.3937 53.5687C44.6977 53.1449 44.236 52.3814 44.236 51.5108H42.4856C42.4856 53.0173 43.2875 54.3357 44.4835 55.0638L45.3937 53.5687ZM44.6834 53.4791C42.1913 54.2388 40.3144 56.4085 39.9841 59.0623L41.7211 59.2785C41.9647 57.3213 43.3517 55.715 45.1938 55.1534L44.6834 53.4791ZM39.9841 59.0623C39.8603 60.0571 40.6841 60.7735 41.537 60.7735V59.0231C41.5737 59.0231 41.6179 59.0381 41.6559 59.0776C41.6985 59.1218 41.7312 59.1978 41.7211 59.2785L39.9841 59.0623ZM41.537 60.7735H51.7478V59.0231H41.537V60.7735ZM51.7478 60.7735C52.6007 60.7735 53.4245 60.0571 53.3007 59.0623L51.5637 59.2785C51.5537 59.1978 51.5864 59.1218 51.6289 59.0776C51.6669 59.0381 51.7111 59.0231 51.7478 59.0231V60.7735ZM53.3007 59.0623C52.9705 56.4088 51.0939 54.2392 48.6021 53.4793L48.0915 55.1536C49.9334 55.7153 51.3202 57.3215 51.5637 59.2785L53.3007 59.0623Z" fill="#EDEDED"/>
</g>
<path d="M64.6343 46.321H94.5935" stroke="#EDEDED" stroke-width="2.01972" stroke-linecap="round"/>
<path d="M64.6343 54.5684H94.5935" stroke="#EDEDED" stroke-width="2.01972" stroke-linecap="round"/>
<path d="M64.6343 62.8154H94.5935" stroke="#EDEDED" stroke-width="2.01972" stroke-linecap="round"/>
<g clip-path="url(#clip1_3942_1901)">
<circle cx="12.9318" cy="13.5839" r="10.0714" fill="#40FF8C"/>
<g filter="url(#filter0_d_3942_1901)">
<path d="M7.2915 15.0851L9.73723 17.4673C10.0501 17.772 10.5487 17.772 10.8615 17.4673L18.5711 9.95801" stroke="white" stroke-width="2.41705" stroke-linecap="round" stroke-linejoin="round"/>
</g>
</g>
<defs>
<filter id="filter0_d_3942_1901" x="5.27733" y="8.74951" width="15.3081" height="11.7661" filterUnits="userSpaceOnUse" color-interpolation-filters="sRGB">
<feFlood flood-opacity="0" result="BackgroundImageFix"/>
<feColorMatrix in="SourceAlpha" type="matrix" values="0 0 0 0 0 0 0 0 0 0 0 0 0 0 0 0 0 0 127 0" result="hardAlpha"/>
<feOffset dy="0.805682"/>
<feGaussianBlur stdDeviation="0.402841"/>
<feColorMatrix type="matrix" values="0 0 0 0 0 0 0 0 0 0 0 0 0 0 0 0 0 0 0.1 0"/>
<feBlend mode="normal" in2="BackgroundImageFix" result="effect1_dropShadow_3942_1901"/>
<feBlend mode="normal" in="SourceGraphic" in2="effect1_dropShadow_3942_1901" result="shape"/>
</filter>
<clipPath id="clip0_3942_1901">
<rect width="17.5043" height="17.5043" fill="white" transform="translate(39.3882 45.3113)"/>
</clipPath>
<clipPath id="clip1_3942_1901">
<rect width="22.5591" height="25.7818" fill="white" transform="translate(0.798828 0.126465)"/>
</clipPath>
</defs>
</svg>
