<svg width="18" height="18" viewBox="0 0 18 18" fill="none" xmlns="http://www.w3.org/2000/svg">
<path fill-rule="evenodd" clip-rule="evenodd" d="M9 16.875C13.3492 16.875 16.875 13.3492 16.875 9C16.875 4.65076 13.3492 1.125 9 1.125C4.65076 1.125 1.125 4.65076 1.125 9C1.125 13.3492 4.65076 16.875 9 16.875ZM9 18C13.9706 18 18 13.9706 18 9C18 4.02944 13.9706 0 9 0C4.02944 0 0 4.02944 0 9C0 13.9706 4.02944 18 9 18Z" fill="#8F8F8F"/>
<path d="M8.34961 12.2812H9.51562V13.5H8.34961V12.2812ZM6.375 7.58789C6.375 6.74414 6.61328 6.06641 7.08984 5.55469C7.56641 5.03906 8.2207 4.78125 9.05273 4.78125C9.82227 4.78125 10.4375 5.00195 10.8984 5.44336C11.3633 5.88086 11.5957 6.44141 11.5957 7.125C11.5957 7.53906 11.5098 7.875 11.3379 8.13281C11.1699 8.39062 10.8281 8.76953 10.3125 9.26953C9.9375 9.63281 9.69336 9.94141 9.58008 10.1953C9.4707 10.4453 9.41602 10.8164 9.41602 11.3086H8.37305C8.37305 10.75 8.43945 10.3008 8.57227 9.96094C8.70508 9.61719 8.99609 9.22461 9.44531 8.7832L9.91406 8.32031C10.0547 8.1875 10.168 8.04883 10.2539 7.9043C10.4102 7.65039 10.4883 7.38672 10.4883 7.11328C10.4883 6.73047 10.373 6.39844 10.1426 6.11719C9.91602 5.83594 9.53906 5.69531 9.01172 5.69531C8.35938 5.69531 7.9082 5.9375 7.6582 6.42188C7.51758 6.69141 7.4375 7.08008 7.41797 7.58789H6.375Z" fill="#8F8F8F"/>
<path fill-rule="evenodd" clip-rule="evenodd" d="M8.19971 12.1313H9.66572V13.6501H8.19971V12.1313ZM6.2251 7.73799V7.58799C6.2251 6.7147 6.47255 5.99774 6.97998 5.45276C7.49017 4.90088 8.1875 4.63135 9.05283 4.63135C9.85233 4.63135 10.5075 4.86151 11.0018 5.33467C11.4988 5.80263 11.7458 6.40365 11.7458 7.1251C11.7458 7.55869 11.6559 7.92607 11.4632 8.21545C11.2851 8.48864 10.9325 8.87747 10.417 9.37731C10.0461 9.73662 9.81884 10.0289 9.71738 10.256C9.62064 10.4775 9.56611 10.8236 9.56611 11.3087V11.4587H8.22314V11.3087C8.22314 10.7404 8.29039 10.2706 8.43256 9.90667C8.57672 9.53375 8.88521 9.12348 9.34015 8.67643L9.81114 8.21133C9.94315 8.08666 10.0472 7.95868 10.1251 7.82773L10.1262 7.82577C10.2693 7.59329 10.3384 7.35657 10.3384 7.11338C10.3384 6.76325 10.2339 6.46531 10.0267 6.21236L10.0259 6.21139C9.83901 5.97944 9.51538 5.84541 9.01182 5.84541C8.40226 5.84541 8.01026 6.0671 7.79159 6.49077C7.66592 6.73164 7.58713 7.09512 7.56796 7.59375L7.56241 7.73799H6.2251ZM9.44541 8.7833C8.99619 9.22471 8.70518 9.61728 8.57236 9.96103C8.45165 10.2699 8.3858 10.6691 8.3748 11.1587C8.3737 11.2078 8.37314 11.2578 8.37314 11.3087H9.41611C9.41611 10.8165 9.4708 10.4454 9.58018 10.1954C9.69346 9.9415 9.9376 9.63291 10.3126 9.26963C10.8282 8.76963 11.17 8.39072 11.338 8.13291C11.5099 7.8751 11.5958 7.53916 11.5958 7.1251C11.5958 6.4415 11.3634 5.88096 10.8985 5.44346C10.4376 5.00205 9.82236 4.78135 9.05283 4.78135C8.2208 4.78135 7.5665 5.03916 7.08994 5.55479C6.64196 6.03582 6.40453 6.66355 6.37767 7.43799C6.37595 7.48739 6.3751 7.53739 6.3751 7.58799H7.41807C7.4376 7.08018 7.51768 6.6915 7.6583 6.42197C7.9083 5.9376 8.35947 5.69541 9.01182 5.69541C9.53916 5.69541 9.91611 5.83604 10.1427 6.11729C10.3731 6.39854 10.4884 6.73057 10.4884 7.11338C10.4884 7.38682 10.4103 7.65049 10.254 7.90439C10.1681 8.04893 10.0548 8.1876 9.91416 8.32041L9.44541 8.7833ZM8.34971 12.2813V13.5001H9.51572V12.2813H8.34971Z" fill="#8F8F8F"/>
</svg>
