<svg width="184" height="236" viewBox="0 0 184 236" fill="none" xmlns="http://www.w3.org/2000/svg">
<rect x="0.5" y="0.5" width="181.855" height="235" stroke="white"/>
<path d="M1.35107 230.595C15.0127 225.041 42.9663 211.86 45.4885 203.573C48.0106 195.286 47.1399 180.003 46.3892 173.397M46.3892 173.397C52.9948 183.906 71.3404 204.924 91.8778 204.924C112.415 204.924 130.761 183.906 137.366 173.397M46.3892 173.397C44.1373 168.143 39.4534 156.282 38.7328 150.878C36.9312 151.028 33.148 150.427 32.4274 146.824C31.5266 142.321 24.7709 115.748 25.2213 112.145C25.6717 108.542 24.3205 104.038 32.4274 104.489C27.7735 77.916 32.9679 24.771 90.977 24.771C163.488 24.771 152.229 97.7328 150.878 104.489C153.28 103.888 158.084 104.579 158.084 112.145C158.084 119.711 153.28 138.417 150.878 146.824C150.728 148.176 149.346 150.878 145.023 150.878C143.619 156.733 140.123 169.434 137.366 173.397M137.366 173.397C136.466 182.104 135.475 200.6 138.717 204.924C142.771 210.328 147.725 218.435 182.855 230.595" stroke="white"/>
<path d="M142.32 106.29C153.85 51.884 112.895 38.2825 90.9768 38.2825C40.8943 38.2825 37.0811 83.6209 41.4348 106.29C28.8242 106.29 40.0837 137.817 41.4348 142.321C42.5158 145.924 45.4883 146.224 46.8394 145.924C49.2415 161.237 61.4318 191.863 90.9768 191.863C120.522 191.863 133.913 161.237 136.916 145.924C142.32 145.924 144.572 134.214 147.725 120.252C150.247 109.082 145.173 106.29 142.32 106.29Z" stroke="white" stroke-dasharray="5 5"/>
</svg>
