<svg width="36" height="35" viewBox="0 0 36 35" fill="none" xmlns="http://www.w3.org/2000/svg">
<path fill-rule="evenodd" clip-rule="evenodd" d="M5.74479 6.47744C6.053 6.45536 6.3409 6.63254 6.46006 6.91765C7.43 9.23835 9.45882 10.924 11.6893 12.0899C13.5578 13.0666 15.5095 13.6472 16.9493 13.9236C17.0947 12.2755 17.5016 10.9918 18.1199 10.021C18.8456 8.8815 19.8341 8.21878 20.9132 7.90518C22.9547 7.31193 25.2503 7.9806 26.7571 8.74033C27.5232 8.80139 28.2815 8.76905 28.9437 8.65563C29.6571 8.53343 30.2028 8.32683 30.5328 8.09094C30.7617 7.92726 31.0651 7.91211 31.3093 8.05216C31.5534 8.19222 31.6934 8.46176 31.6677 8.74204C31.5129 10.4281 31.0111 11.6336 30.3773 12.4881C29.8729 13.1682 29.3029 13.6019 28.805 13.8769C27.3584 22.9343 23.1319 27.2476 18.262 28.7986C13.4117 30.3434 8.11944 29.0814 4.7406 27.4798C4.38152 27.3096 4.22841 26.8805 4.39861 26.5214C4.56882 26.1624 4.99789 26.0092 5.35696 26.1794C8.54633 27.6912 13.4461 28.8222 17.8253 27.4274C22.1187 26.06 26.1105 22.1979 27.4391 13.2929C27.4755 13.049 27.6343 12.8407 27.8599 12.741C28.2438 12.5713 28.7639 12.2479 29.2215 11.6309C29.5287 11.2167 29.8206 10.6529 30.0195 9.88382C29.7513 9.96229 29.4714 10.0252 29.1866 10.074C28.3507 10.2172 27.4141 10.2485 26.4866 10.1612C26.3936 10.1525 26.3031 10.1257 26.2203 10.0823C24.8576 9.36899 22.8966 8.82736 21.3148 9.28704C20.5523 9.50862 19.8612 9.96568 19.3337 10.7939C18.7972 11.6364 18.4031 12.9066 18.338 14.7875C18.331 14.9905 18.2385 15.181 18.0834 15.3121C17.9282 15.4433 17.7249 15.5027 17.5236 15.4757C15.922 15.2615 13.4141 14.6153 11.0226 13.3652C9.20715 12.4162 7.41062 11.0933 6.14856 9.30325C5.96623 10.9336 5.98362 12.9576 6.45348 15.0148C7.13108 17.9816 8.739 20.9828 12.0185 23.0137C12.3503 23.2192 12.4578 23.6518 12.2607 23.9887C11.8382 24.7108 10.5065 25.9512 8.20848 26.2806C7.81513 26.337 7.45054 26.0638 7.39416 25.6705C7.33778 25.2771 7.61095 24.9125 8.00431 24.8561C9.24912 24.6777 10.0808 24.1819 10.5571 23.7722C7.35091 21.5146 5.74408 18.3716 5.05058 15.3352C4.3117 12.1002 4.59901 8.9523 5.09957 7.01511C5.17687 6.71593 5.43657 6.49952 5.74479 6.47744Z" fill="white"/>
</svg>
