<svg width="121" height="102" viewBox="0 0 121 102" fill="none" xmlns="http://www.w3.org/2000/svg">
<rect x="13.5811" y="8.40625" width="106.923" height="92.7204" fill="#292929"/>
<rect x="21.2536" y="21.1781" width="29.527" height="18.0298" rx="1.3065" stroke="#EDEDED" stroke-width="1.0452"/>
<g clip-path="url(#clip0_3942_1919)">
<path d="M28.3889 28.8541L28.2124 28.5639C28.098 28.6334 28.0352 28.7637 28.0519 28.8965C28.0686 29.0293 28.1618 29.1399 28.2898 29.179L28.3889 28.8541ZM27.0661 28.8538L27.1651 29.1788C27.2931 29.1397 27.3863 29.0292 27.4031 28.8964C27.4199 28.7636 27.3571 28.6333 27.2428 28.5637L27.0661 28.8538ZM25.48 30.7379L25.1429 30.696V30.696L25.48 30.7379ZM29.9743 30.7379L29.6372 30.7799V30.7799L29.9743 30.7379ZM28.6619 27.7651C28.6619 28.103 28.4826 28.3994 28.2124 28.5639L28.5655 29.1442C29.0299 28.8617 29.3412 28.3499 29.3412 27.7651H28.6619ZM27.7277 26.8309C28.2436 26.8309 28.6619 27.2491 28.6619 27.7651H29.3412C29.3412 26.8739 28.6188 26.1515 27.7277 26.1515V26.8309ZM26.7936 27.7651C26.7936 27.2491 27.2118 26.8309 27.7277 26.8309V26.1515C26.8366 26.1515 26.1142 26.8739 26.1142 27.7651H26.7936ZM27.2428 28.5637C26.9727 28.3992 26.7936 28.1029 26.7936 27.7651H26.1142C26.1142 28.3497 26.4253 28.8613 26.8894 29.1439L27.2428 28.5637ZM26.9671 28.5289C25.9997 28.8236 25.2711 29.6658 25.1429 30.696L25.817 30.7799C25.9116 30.0201 26.45 29.3966 27.1651 29.1788L26.9671 28.5289ZM25.1429 30.696C25.0948 31.082 25.4145 31.3601 25.7456 31.3601V30.6807C25.7598 30.6807 25.777 30.6865 25.7917 30.7019C25.8082 30.719 25.8209 30.7485 25.817 30.7799L25.1429 30.696ZM25.7456 31.3601H29.7086V30.6807H25.7456V31.3601ZM29.7086 31.3601C30.0397 31.3601 30.3594 31.082 30.3114 30.696L29.6372 30.7799C29.6333 30.7485 29.646 30.719 29.6625 30.7019C29.6772 30.6865 29.6944 30.6807 29.7086 30.6807V31.3601ZM30.3114 30.696C30.1832 29.6662 29.455 28.8242 28.4881 28.5292L28.2898 29.179C29.0045 29.397 29.5427 30.0204 29.6372 30.7799L30.3114 30.696Z" fill="#EDEDED"/>
</g>
<path d="M34.7104 25.751H46.3383" stroke="#EDEDED" stroke-width="0.783903" stroke-linecap="round"/>
<path d="M34.7104 28.9519H46.3383" stroke="#EDEDED" stroke-width="0.783903" stroke-linecap="round"/>
<path d="M34.7104 32.1528H46.3383" stroke="#EDEDED" stroke-width="0.783903" stroke-linecap="round"/>
<circle cx="10.6593" cy="10.5841" r="10.0714" fill="#FF6C6C"/>
<path d="M6.73828 14.8516L14.7141 6.87571" stroke="white" stroke-width="2.41705" stroke-linecap="round" stroke-linejoin="round"/>
<path d="M6.73877 6.79468L14.7146 14.7705" stroke="white" stroke-width="2.41705" stroke-linecap="round" stroke-linejoin="round"/>
<defs>
<clipPath id="clip0_3942_1919">
<rect width="6.79382" height="6.79382" fill="white" transform="translate(24.9116 25.3589)"/>
</clipPath>
</defs>
</svg>
