<svg width="118" height="102" viewBox="0 0 118 102" fill="none" xmlns="http://www.w3.org/2000/svg">
<g clip-path="url(#clip0_3942_1876)">
<rect x="10.9604" y="8.40625" width="106.923" height="92.7204" fill="#292929"/>
<rect x="38.0345" y="44.3961" width="121.546" height="74.2181" rx="5.37812" stroke="#EDEDED" stroke-width="4.3025"/>
<path d="M67.4054 75.9934L66.6783 74.799C66.2077 75.0855 65.9491 75.6216 66.018 76.1683C66.0869 76.715 66.4705 77.1702 66.9975 77.3309L67.4054 75.9934ZM61.9601 75.9933L62.3679 77.3308C62.8949 77.1701 63.2785 76.7149 63.3474 76.1682C63.4164 75.6216 63.1578 75.0854 62.6872 74.7989L61.9601 75.9933ZM55.4322 83.7486L54.0446 83.5759L55.4322 83.7486ZM73.9327 83.7486L75.3203 83.5759L73.9327 83.7486ZM68.5282 71.511C68.5282 72.902 67.7905 74.122 66.6783 74.799L68.1324 77.1879C70.0435 76.0246 71.3248 73.9181 71.3248 71.511H68.5282ZM64.6828 67.6656C66.8066 67.6656 68.5282 69.3873 68.5282 71.511H71.3248C71.3248 67.8427 68.3511 64.869 64.6828 64.869V67.6656ZM60.8375 71.511C60.8375 69.3873 62.5591 67.6656 64.6828 67.6656V64.869C61.0146 64.869 58.0409 67.8427 58.0409 71.511H60.8375ZM62.6872 74.7989C61.5751 74.1219 60.8375 72.9019 60.8375 71.511H58.0409C58.0409 73.918 59.3221 76.0244 61.233 77.1877L62.6872 74.7989ZM61.5523 74.6557C57.5708 75.8696 54.5723 79.3361 54.0446 83.5759L56.8198 83.9213C57.209 80.7944 59.4249 78.228 62.3679 77.3308L61.5523 74.6557ZM54.0446 83.5759C53.8469 85.1652 55.163 86.3099 56.5257 86.3099V83.5132C56.5844 83.5132 56.655 83.5372 56.7156 83.6003C56.7836 83.6709 56.8359 83.7923 56.8198 83.9213L54.0446 83.5759ZM56.5257 86.3099H72.8393V83.5132H56.5257V86.3099ZM72.8393 86.3099C74.202 86.3099 75.5181 85.1652 75.3203 83.5759L72.5451 83.9213C72.5291 83.7923 72.5814 83.6709 72.6493 83.6003C72.71 83.5372 72.7806 83.5132 72.8393 83.5132V86.3099ZM75.3203 83.5759C74.7927 79.3363 71.7944 75.8699 67.8132 74.6559L66.9975 77.3309C69.9403 78.2283 72.156 80.7945 72.5451 83.9213L75.3203 83.5759Z" fill="#EDEDED"/>
<path d="M93.4292 63.2195H141.294" stroke="#EDEDED" stroke-width="3.22687" stroke-linecap="round"/>
<path d="M93.4292 76.396H141.294" stroke="#EDEDED" stroke-width="3.22687" stroke-linecap="round"/>
<path d="M93.4292 89.5723H141.294" stroke="#EDEDED" stroke-width="3.22687" stroke-linecap="round"/>
</g>
<circle cx="10.9611" cy="10.5841" r="10.0714" fill="#FF6C6C"/>
<path d="M6.87842 14.8516L14.8543 6.87571" stroke="white" stroke-width="2.41705" stroke-linecap="round" stroke-linejoin="round"/>
<path d="M6.87891 6.79468L14.8548 14.7705" stroke="white" stroke-width="2.41705" stroke-linecap="round" stroke-linejoin="round"/>
<defs>
<clipPath id="clip0_3942_1876">
<rect width="106.923" height="92.7204" fill="white" transform="translate(10.9604 8.40625)"/>
</clipPath>
</defs>
</svg>
