<svg width="95" height="95" viewBox="0 0 95 95" fill="none" xmlns="http://www.w3.org/2000/svg">
<path d="M31.6667 8.90625H29.5821C26.905 8.90623 24.7455 8.90621 22.9879 9.02613C21.1807 9.14943 19.5827 9.40939 18.0695 10.0362C14.4324 11.5427 11.5427 14.4324 10.0362 18.0695C9.40939 19.5827 9.14943 21.1807 9.02613 22.9879C8.90621 24.7455 8.90623 26.905 8.90625 29.5821V31.6667C8.90625 33.3063 10.2354 34.6354 11.875 34.6354C13.5146 34.6354 14.8438 33.3063 14.8438 31.6667V29.6875C14.8438 26.8804 14.8454 24.9237 14.9499 23.3921C15.0525 21.8872 15.2445 21.0108 15.5217 20.3417C16.4256 18.1594 18.1594 16.4256 20.3417 15.5217C21.0108 15.2445 21.8872 15.0525 23.3921 14.9499C24.9237 14.8454 26.8804 14.8438 29.6875 14.8438H31.6667C33.3063 14.8438 34.6354 13.5146 34.6354 11.875C34.6354 10.2354 33.3063 8.90625 31.6667 8.90625Z" fill="white"/>
<path d="M63.3333 8.90625H65.4179C68.095 8.90623 70.2545 8.90621 72.0121 9.02613C73.8193 9.14943 75.4173 9.40939 76.9305 10.0362C80.5676 11.5427 83.4573 14.4324 84.9638 18.0695C85.5906 19.5827 85.8506 21.1807 85.9739 22.9879C86.0938 24.7455 86.0938 26.905 86.0938 29.5821V31.6667C86.0938 33.3063 84.7646 34.6354 83.125 34.6354C81.4854 34.6354 80.1562 33.3063 80.1562 31.6667V29.6875C80.1562 26.8804 80.1546 24.9237 80.0501 23.3921C79.9475 21.8872 79.7555 21.0108 79.4783 20.3417C78.5744 18.1594 76.8406 16.4256 74.6583 15.5217C73.9892 15.2445 73.1128 15.0525 71.6079 14.9499C70.0763 14.8454 68.1196 14.8438 65.3125 14.8438H63.3333C61.6937 14.8438 60.3646 13.5146 60.3646 11.875C60.3646 10.2354 61.6937 8.90625 63.3333 8.90625Z" fill="white"/>
<path d="M29.5821 86.0938H31.6667C33.3063 86.0938 34.6354 84.7646 34.6354 83.125C34.6354 81.4854 33.3063 80.1562 31.6667 80.1562H29.6875C26.8804 80.1562 24.9237 80.1546 23.3921 80.0501C21.8872 79.9475 21.0108 79.7555 20.3417 79.4783C18.1594 78.5744 16.4256 76.8406 15.5217 74.6583C15.2445 73.9892 15.0525 73.1128 14.9499 71.6079C14.8454 70.0763 14.8438 68.1196 14.8438 65.3125V63.3333C14.8438 61.6937 13.5146 60.3646 11.875 60.3646C10.2354 60.3646 8.90625 61.6937 8.90625 63.3333V65.4179C8.90623 68.095 8.90621 70.2545 9.02613 72.0121C9.14943 73.8193 9.40939 75.4173 10.0362 76.9305C11.5427 80.5676 14.4324 83.4573 18.0695 84.9638C19.5827 85.5906 21.1807 85.8506 22.9879 85.9739C24.7455 86.0938 26.905 86.0938 29.5821 86.0938Z" fill="white"/>
<path d="M59.375 86.0938H65.4179C68.095 86.0938 70.2545 86.0938 72.0121 85.9739C73.8193 85.8506 75.4173 85.5906 76.9305 84.9638C80.5676 83.4573 83.4573 80.5676 84.9638 76.9305C85.5906 75.4173 85.8506 73.8193 85.9739 72.0121C86.0938 70.2545 86.0938 68.095 86.0938 65.4179V59.375C86.0938 57.7354 84.7646 56.4062 83.125 56.4062C81.4854 56.4062 80.1562 57.7354 80.1562 59.375V65.3125C80.1562 68.1196 80.1546 70.0763 80.0501 71.6079C79.9475 73.1128 79.7555 73.9892 79.4783 74.6583C78.5744 76.8406 76.8406 78.5744 74.6583 79.4783C73.9892 79.7555 73.1128 79.9475 71.6079 80.0501C70.0763 80.1546 68.1196 80.1562 65.3125 80.1562H59.375C57.7354 80.1562 56.4062 81.4854 56.4062 83.125C56.4062 84.7646 57.7354 86.0938 59.375 86.0938Z" fill="white"/>
<path fill-rule="evenodd" clip-rule="evenodd" d="M29.6014 20.7813H33.732C34.5801 20.7812 35.3593 20.7812 36.0138 20.8258C36.7169 20.8738 37.4901 20.9831 38.2759 21.3086C39.9732 22.0116 41.3217 23.3601 42.0248 25.0575C42.3503 25.8432 42.4596 26.6164 42.5075 27.3196C42.5522 27.974 42.5521 28.7532 42.5521 29.6014V33.732C42.5521 34.5802 42.5522 35.3593 42.5075 36.0138C42.4596 36.7169 42.3503 37.4901 42.0248 38.2759C41.3217 39.9732 39.9732 41.3217 38.2759 42.0248C37.4901 42.3503 36.7169 42.4596 36.0138 42.5075C35.3593 42.5522 34.5802 42.5521 33.732 42.5521H29.6014C28.7532 42.5521 27.974 42.5522 27.3196 42.5075C26.6164 42.4596 25.8432 42.3503 25.0575 42.0248C23.3601 41.3217 22.0116 39.9732 21.3086 38.2759C20.9831 37.4901 20.8738 36.7169 20.8258 36.0138C20.7812 35.3593 20.7812 34.5801 20.7813 33.732V29.6014C20.7812 28.7532 20.7812 27.974 20.8258 27.3196C20.8738 26.6164 20.9831 25.8432 21.3086 25.0575C22.0116 23.3601 23.3601 22.0116 25.0575 21.3086C25.8432 20.9831 26.6164 20.8738 27.3196 20.8258C27.974 20.7812 28.7532 20.7812 29.6014 20.7813ZM27.3177 26.7991C27.0848 26.8992 26.8992 27.0848 26.7991 27.3177C26.7917 27.3468 26.7676 27.4592 26.7495 27.7238C26.7204 28.1513 26.7188 28.7247 26.7188 29.6875V33.6458C26.7188 34.6086 26.7204 35.1821 26.7495 35.6096C26.7676 35.8741 26.7917 35.9865 26.7991 36.0157C26.8992 36.2485 27.0848 36.4342 27.3177 36.5342C27.3468 36.5416 27.4592 36.5658 27.7238 36.5838C28.1513 36.613 28.7247 36.6146 29.6875 36.6146H33.6458C34.6086 36.6146 35.1821 36.613 35.6096 36.5838C35.8741 36.5658 35.9865 36.5416 36.0157 36.5342C36.2485 36.4342 36.4342 36.2485 36.5342 36.0157C36.5416 35.9865 36.5658 35.8741 36.5838 35.6096C36.613 35.1821 36.6146 34.6086 36.6146 33.6458V29.6875C36.6146 28.7247 36.613 28.1513 36.5838 27.7238C36.5658 27.4592 36.5416 27.3468 36.5342 27.3177C36.4342 27.0848 36.2485 26.8992 36.0157 26.7991C35.9865 26.7917 35.8741 26.7676 35.6096 26.7495C35.1821 26.7204 34.6086 26.7188 33.6458 26.7188H29.6875C28.7247 26.7188 28.1513 26.7204 27.7238 26.7495C27.4592 26.7676 27.3468 26.7917 27.3177 26.7991Z" fill="white"/>
<path fill-rule="evenodd" clip-rule="evenodd" d="M61.2681 20.7813C60.4199 20.7812 59.6407 20.7812 58.9863 20.8258C58.2831 20.8738 57.5099 20.9831 56.7241 21.3086C55.0268 22.0116 53.6783 23.3601 52.9752 25.0575C52.6497 25.8432 52.5404 26.6164 52.4925 27.3196C52.4478 27.974 52.4479 28.7532 52.4479 29.6014V33.732C52.4479 34.5801 52.4478 35.3593 52.4925 36.0138C52.5404 36.7169 52.6497 37.4901 52.9752 38.2759C53.6783 39.9732 55.0268 41.3217 56.7241 42.0248C57.5099 42.3503 58.2831 42.4596 58.9863 42.5075C59.6407 42.5522 60.4199 42.5521 61.268 42.5521H65.3986C66.2468 42.5521 67.026 42.5522 67.6804 42.5075C68.3836 42.4596 69.1568 42.3503 69.9426 42.0248C71.6399 41.3217 72.9884 39.9732 73.6915 38.2759C74.0169 37.4901 74.1262 36.7169 74.1742 36.0138C74.2189 35.3596 74.2188 34.5808 74.2188 33.733V29.6014C74.2188 28.7536 74.2189 27.9737 74.1742 27.3196C74.1262 26.6164 74.0169 25.8432 73.6915 25.0575C72.9884 23.3601 71.6399 22.0116 69.9426 21.3086C69.1568 20.9831 68.3836 20.8738 67.6804 20.8258C67.026 20.7812 66.2468 20.7812 65.3986 20.7813H61.2681ZM58.4658 27.3177C58.5658 27.0848 58.7515 26.8992 58.9844 26.7991C59.0135 26.7917 59.1259 26.7676 59.3904 26.7495C59.818 26.7204 60.3914 26.7188 61.3542 26.7188H65.3125C66.2753 26.7188 66.8487 26.7204 67.2762 26.7495C67.5408 26.7676 67.6532 26.7917 67.6823 26.7991C67.9152 26.8992 68.1008 27.0848 68.2009 27.3177C68.2083 27.3468 68.2324 27.4592 68.2505 27.7238C68.2796 28.1513 68.2813 28.7247 68.2813 29.6875V33.6458C68.2813 34.6086 68.2796 35.1821 68.2505 35.6096C68.2324 35.8741 68.2083 35.9865 68.2009 36.0157C68.1008 36.2485 67.9152 36.4342 67.6823 36.5342C67.6532 36.5416 67.5408 36.5658 67.2762 36.5838C66.8487 36.613 66.2753 36.6146 65.3125 36.6146H61.3542C60.3914 36.6146 59.818 36.613 59.3904 36.5838C59.1259 36.5658 59.0135 36.5416 58.9844 36.5342C58.7515 36.4342 58.5658 36.2485 58.4658 36.0157C58.4584 35.9865 58.4342 35.8741 58.4162 35.6096C58.387 35.1821 58.3854 34.6086 58.3854 33.6458V29.6875C58.3854 28.7247 58.387 28.1513 58.4162 27.7238C58.4342 27.4592 58.4584 27.3468 58.4658 27.3177Z" fill="white"/>
<path fill-rule="evenodd" clip-rule="evenodd" d="M29.6014 52.4479H33.732C34.5801 52.4479 35.3593 52.4478 36.0138 52.4925C36.7169 52.5404 37.4901 52.6497 38.2759 52.9752C39.9732 53.6783 41.3217 55.0268 42.0248 56.7241C42.3503 57.5099 42.4596 58.2831 42.5075 58.9863C42.5522 59.6407 42.5521 60.4199 42.5521 61.268V65.3986C42.5521 66.2468 42.5522 67.026 42.5075 67.6804C42.4596 68.3836 42.3503 69.1568 42.0248 69.9426C41.3217 71.6399 39.9732 72.9884 38.2759 73.6915C37.4901 74.0169 36.7169 74.1262 36.0138 74.1742C35.3596 74.2189 34.5807 74.2188 33.7328 74.2188H29.6014C28.7535 74.2188 27.9738 74.2189 27.3196 74.1742C26.6164 74.1262 25.8432 74.0169 25.0575 73.6915C23.3601 72.9884 22.0116 71.6399 21.3086 69.9426C20.9831 69.1568 20.8738 68.3836 20.8258 67.6804C20.7812 67.026 20.7812 66.2468 20.7813 65.3986V61.2681C20.7812 60.4199 20.7812 59.6407 20.8258 58.9863C20.8738 58.2831 20.9831 57.5099 21.3086 56.7241C22.0116 55.0268 23.3601 53.6783 25.0575 52.9752C25.8432 52.6497 26.6164 52.5404 27.3196 52.4925C27.974 52.4478 28.7532 52.4479 29.6014 52.4479ZM27.3177 58.4658C27.0848 58.5658 26.8992 58.7515 26.7991 58.9844C26.7917 59.0135 26.7676 59.1259 26.7495 59.3904C26.7204 59.818 26.7188 60.3914 26.7188 61.3542V65.3125C26.7188 66.2753 26.7204 66.8487 26.7495 67.2762C26.7676 67.5408 26.7917 67.6532 26.7991 67.6823C26.8992 67.9152 27.0848 68.1008 27.3177 68.2009C27.3468 68.2083 27.4592 68.2324 27.7238 68.2505C28.1513 68.2796 28.7247 68.2813 29.6875 68.2813H33.6458C34.6086 68.2813 35.1821 68.2796 35.6096 68.2505C35.8741 68.2324 35.9865 68.2083 36.0157 68.2009C36.2485 68.1008 36.4342 67.9152 36.5342 67.6823C36.5416 67.6532 36.5658 67.5408 36.5838 67.2762C36.613 66.8487 36.6146 66.2753 36.6146 65.3125V61.3542C36.6146 60.3914 36.613 59.818 36.5838 59.3904C36.5658 59.1259 36.5416 59.0135 36.5342 58.9844C36.4342 58.7515 36.2485 58.5658 36.0157 58.4658C35.9865 58.4584 35.8741 58.4342 35.6096 58.4162C35.1821 58.387 34.6086 58.3854 33.6458 58.3854H29.6875C28.7247 58.3854 28.1513 58.387 27.7238 58.4162C27.4592 58.4342 27.3468 58.4584 27.3177 58.4658Z" fill="white"/>
<path d="M55.4167 52.4479C53.7771 52.4479 52.4479 53.7771 52.4479 55.4167V61.75C52.4479 63.3896 53.7771 64.7188 55.4167 64.7188C57.0563 64.7188 58.3854 63.3896 58.3854 61.75V58.3854H61.75C63.3896 58.3854 64.7188 57.0563 64.7188 55.4167C64.7188 53.7771 63.3896 52.4479 61.75 52.4479H55.4167Z" fill="white"/>
<path d="M52.4479 71.25C52.4479 72.8896 53.7771 74.2188 55.4167 74.2188H59.375C61.0146 74.2188 62.3438 72.8896 62.3438 71.25C62.3438 69.6104 61.0146 68.2812 59.375 68.2812H55.4167C53.7771 68.2812 52.4479 69.6104 52.4479 71.25Z" fill="white"/>
<path d="M74.2188 55.4167C74.2188 53.7771 72.8896 52.4479 71.25 52.4479C69.6104 52.4479 68.2812 53.7771 68.2812 55.4167V68.2812H67.2917C65.6521 68.2812 64.3229 69.6104 64.3229 71.25C64.3229 72.8896 65.6521 74.2188 67.2917 74.2188H71.25C72.8896 74.2188 74.2188 72.8896 74.2188 71.25V55.4167Z" fill="white"/>
</svg>
