<svg width="815" height="51" viewBox="0 0 815 51" fill="none" xmlns="http://www.w3.org/2000/svg">
<path d="M77 8H735" stroke="white" stroke-width="3.5"/>
<circle cx="80.5" cy="7.5" r="7.5" fill="#23C865"/>
<circle cx="508.5" cy="7.5" r="7.5" fill="white"/>
<line x1="86" y1="8" x2="501" y2="8" stroke="#23C865" stroke-width="4"/>
<circle cx="281.5" cy="7.5" r="7.5" fill="#23C865"/>
<circle cx="734.5" cy="7.5" r="7.5" fill="white"/>
<path d="M6.92556 28.6594H8.10956V39.8594H6.92556V28.6594ZM19.1937 27.9874V39.8594H18.1057V38.1954C17.7644 38.7607 17.311 39.1927 16.7457 39.4914C16.191 39.79 15.5617 39.9394 14.8577 39.9394C14.0684 39.9394 13.3537 39.758 12.7137 39.3954C12.0737 39.0327 11.5724 38.526 11.2097 37.8754C10.847 37.2247 10.6657 36.4834 10.6657 35.6514C10.6657 34.8194 10.847 34.078 11.2097 33.4274C11.5724 32.7767 12.0737 32.2754 12.7137 31.9234C13.3537 31.5607 14.0684 31.3794 14.8577 31.3794C15.5404 31.3794 16.1537 31.5234 16.6977 31.8114C17.2524 32.0887 17.7057 32.4994 18.0577 33.0434V27.9874H19.1937ZM14.9537 38.9314C15.5404 38.9314 16.0684 38.798 16.5377 38.5314C17.0177 38.254 17.391 37.8647 17.6577 37.3634C17.935 36.862 18.0737 36.2914 18.0737 35.6514C18.0737 35.0114 17.935 34.4407 17.6577 33.9394C17.391 33.438 17.0177 33.054 16.5377 32.7874C16.0684 32.51 15.5404 32.3714 14.9537 32.3714C14.3564 32.3714 13.8177 32.51 13.3377 32.7874C12.8684 33.054 12.495 33.438 12.2177 33.9394C11.951 34.4407 11.8177 35.0114 11.8177 35.6514C11.8177 36.2914 11.951 36.862 12.2177 37.3634C12.495 37.8647 12.8684 38.254 13.3377 38.5314C13.8177 38.798 14.3564 38.9314 14.9537 38.9314ZM29.6854 36.0034H22.6454C22.7094 36.878 23.0454 37.5874 23.6534 38.1314C24.2614 38.6647 25.0294 38.9314 25.9574 38.9314C26.4801 38.9314 26.9601 38.8407 27.3974 38.6594C27.8348 38.4674 28.2134 38.19 28.5334 37.8274L29.1734 38.5634C28.8001 39.0114 28.3308 39.3527 27.7654 39.5874C27.2108 39.822 26.5974 39.9394 25.9254 39.9394C25.0614 39.9394 24.2934 39.758 23.6214 39.3954C22.9601 39.022 22.4428 38.51 22.0694 37.8594C21.6961 37.2087 21.5094 36.4727 21.5094 35.6514C21.5094 34.83 21.6854 34.094 22.0374 33.4434C22.4001 32.7927 22.8908 32.286 23.5094 31.9234C24.1388 31.5607 24.8428 31.3794 25.6214 31.3794C26.4001 31.3794 27.0988 31.5607 27.7174 31.9234C28.3361 32.286 28.8214 32.7927 29.1734 33.4434C29.5254 34.0834 29.7014 34.8194 29.7014 35.6514L29.6854 36.0034ZM25.6214 32.3554C24.8108 32.3554 24.1281 32.6167 23.5734 33.1394C23.0294 33.6514 22.7201 34.3234 22.6454 35.1554H28.6134C28.5388 34.3234 28.2241 33.6514 27.6694 33.1394C27.1254 32.6167 26.4428 32.3554 25.6214 32.3554ZM36.3017 31.3794C37.3577 31.3794 38.195 31.6887 38.8137 32.3074C39.443 32.9154 39.7577 33.806 39.7577 34.9794V39.8594H38.6217V35.0914C38.6217 34.2167 38.403 33.55 37.9657 33.0914C37.5284 32.6327 36.9044 32.4034 36.0937 32.4034C35.187 32.4034 34.467 32.6754 33.9337 33.2194C33.411 33.7527 33.1497 34.494 33.1497 35.4434V39.8594H32.0137V31.4434H33.1017V32.9954C33.411 32.4834 33.8377 32.0887 34.3817 31.8114C34.9364 31.5234 35.5764 31.3794 36.3017 31.3794ZM47.2738 39.3474C47.0605 39.5394 46.7938 39.6887 46.4738 39.7954C46.1645 39.8914 45.8391 39.9394 45.4978 39.9394C44.7085 39.9394 44.1005 39.726 43.6738 39.2994C43.2471 38.8727 43.0338 38.27 43.0338 37.4914V32.4034H41.5298V31.4434H43.0338V29.6034H44.1698V31.4434H46.7298V32.4034H44.1698V37.4274C44.1698 37.9287 44.2925 38.3127 44.5378 38.5794C44.7938 38.8354 45.1565 38.9634 45.6258 38.9634C45.8605 38.9634 46.0845 38.926 46.2978 38.8514C46.5218 38.7767 46.7138 38.67 46.8738 38.5314L47.2738 39.3474ZM49.3418 31.4434H50.4778V39.8594H49.3418V31.4434ZM49.9178 29.6034C49.6831 29.6034 49.4858 29.5234 49.3258 29.3634C49.1658 29.2034 49.0858 29.0114 49.0858 28.7874C49.0858 28.574 49.1658 28.3874 49.3258 28.2274C49.4858 28.0674 49.6831 27.9874 49.9178 27.9874C50.1525 27.9874 50.3498 28.0674 50.5098 28.2274C50.6698 28.3767 50.7498 28.558 50.7498 28.7714C50.7498 29.006 50.6698 29.2034 50.5098 29.3634C50.3498 29.5234 50.1525 29.6034 49.9178 29.6034ZM58.0707 39.3474C57.8574 39.5394 57.5907 39.6887 57.2707 39.7954C56.9614 39.8914 56.636 39.9394 56.2947 39.9394C55.5054 39.9394 54.8974 39.726 54.4707 39.2994C54.044 38.8727 53.8307 38.27 53.8307 37.4914V32.4034H52.3267V31.4434H53.8307V29.6034H54.9667V31.4434H57.5267V32.4034H54.9667V37.4274C54.9667 37.9287 55.0894 38.3127 55.3347 38.5794C55.5907 38.8354 55.9534 38.9634 56.4227 38.9634C56.6574 38.9634 56.8814 38.926 57.0947 38.8514C57.3187 38.7767 57.5107 38.67 57.6707 38.5314L58.0707 39.3474ZM67.0544 31.4434L62.8464 40.8674C62.5051 41.6567 62.1104 42.2167 61.6624 42.5474C61.2144 42.878 60.6758 43.0434 60.0464 43.0434C59.6411 43.0434 59.2624 42.9794 58.9104 42.8514C58.5584 42.7234 58.2544 42.5314 57.9984 42.2754L58.5264 41.4274C58.9531 41.854 59.4651 42.0674 60.0624 42.0674C60.4464 42.0674 60.7718 41.9607 61.0384 41.7474C61.3158 41.534 61.5718 41.1714 61.8064 40.6594L62.1744 39.8434L58.4144 31.4434H59.5984L62.7664 38.5954L65.9344 31.4434H67.0544ZM80.5218 27.9874V39.8594H79.4338V38.1954C79.0925 38.7607 78.6391 39.1927 78.0738 39.4914C77.5191 39.79 76.8898 39.9394 76.1858 39.9394C75.3965 39.9394 74.6818 39.758 74.0418 39.3954C73.4018 39.0327 72.9005 38.526 72.5378 37.8754C72.1751 37.2247 71.9938 36.4834 71.9938 35.6514C71.9938 34.8194 72.1751 34.078 72.5378 33.4274C72.9005 32.7767 73.4018 32.2754 74.0418 31.9234C74.6818 31.5607 75.3965 31.3794 76.1858 31.3794C76.8685 31.3794 77.4818 31.5234 78.0258 31.8114C78.5805 32.0887 79.0338 32.4994 79.3858 33.0434V27.9874H80.5218ZM76.2818 38.9314C76.8685 38.9314 77.3965 38.798 77.8658 38.5314C78.3458 38.254 78.7191 37.8647 78.9858 37.3634C79.2631 36.862 79.4018 36.2914 79.4018 35.6514C79.4018 35.0114 79.2631 34.4407 78.9858 33.9394C78.7191 33.438 78.3458 33.054 77.8658 32.7874C77.3965 32.51 76.8685 32.3714 76.2818 32.3714C75.6845 32.3714 75.1458 32.51 74.6658 32.7874C74.1965 33.054 73.8231 33.438 73.5458 33.9394C73.2791 34.4407 73.1458 35.0114 73.1458 35.6514C73.1458 36.2914 73.2791 36.862 73.5458 37.3634C73.8231 37.8647 74.1965 38.254 74.6658 38.5314C75.1458 38.798 75.6845 38.9314 76.2818 38.9314ZM87.1256 39.9394C86.3149 39.9394 85.5842 39.758 84.9336 39.3954C84.2829 39.022 83.7709 38.51 83.3976 37.8594C83.0242 37.2087 82.8376 36.4727 82.8376 35.6514C82.8376 34.83 83.0242 34.094 83.3976 33.4434C83.7709 32.7927 84.2829 32.286 84.9336 31.9234C85.5842 31.5607 86.3149 31.3794 87.1256 31.3794C87.9362 31.3794 88.6669 31.5607 89.3176 31.9234C89.9682 32.286 90.4749 32.7927 90.8376 33.4434C91.2109 34.094 91.3976 34.83 91.3976 35.6514C91.3976 36.4727 91.2109 37.2087 90.8376 37.8594C90.4749 38.51 89.9682 39.022 89.3176 39.3954C88.6669 39.758 87.9362 39.9394 87.1256 39.9394ZM87.1256 38.9314C87.7229 38.9314 88.2562 38.798 88.7256 38.5314C89.2056 38.254 89.5789 37.8647 89.8456 37.3634C90.1122 36.862 90.2456 36.2914 90.2456 35.6514C90.2456 35.0114 90.1122 34.4407 89.8456 33.9394C89.5789 33.438 89.2056 33.054 88.7256 32.7874C88.2562 32.51 87.7229 32.3714 87.1256 32.3714C86.5282 32.3714 85.9896 32.51 85.5096 32.7874C85.0402 33.054 84.6669 33.438 84.3896 33.9394C84.1229 34.4407 83.9896 35.0114 83.9896 35.6514C83.9896 36.2914 84.1229 36.862 84.3896 37.3634C84.6669 37.8647 85.0402 38.254 85.5096 38.5314C85.9896 38.798 86.5282 38.9314 87.1256 38.9314ZM97.2048 39.9394C96.3728 39.9394 95.6261 39.758 94.9648 39.3954C94.3141 39.0327 93.8021 38.526 93.4288 37.8754C93.0555 37.214 92.8688 36.4727 92.8688 35.6514C92.8688 34.83 93.0555 34.094 93.4288 33.4434C93.8021 32.7927 94.3141 32.286 94.9648 31.9234C95.6261 31.5607 96.3728 31.3794 97.2048 31.3794C97.9301 31.3794 98.5755 31.5234 99.1408 31.8114C99.7168 32.0887 100.17 32.4994 100.501 33.0434L99.6528 33.6194C99.3755 33.2034 99.0235 32.894 98.5968 32.6914C98.1701 32.478 97.7061 32.3714 97.2048 32.3714C96.5968 32.3714 96.0475 32.51 95.5568 32.7874C95.0768 33.054 94.6981 33.438 94.4208 33.9394C94.1541 34.4407 94.0208 35.0114 94.0208 35.6514C94.0208 36.302 94.1541 36.878 94.4208 37.3794C94.6981 37.87 95.0768 38.254 95.5568 38.5314C96.0475 38.798 96.5968 38.9314 97.2048 38.9314C97.7061 38.9314 98.1701 38.83 98.5968 38.6274C99.0235 38.4247 99.3755 38.1154 99.6528 37.6994L100.501 38.2754C100.17 38.8194 99.7168 39.2354 99.1408 39.5234C98.5648 39.8007 97.9195 39.9394 97.2048 39.9394ZM110.316 31.4434V39.8594H109.228V38.3234C108.93 38.8354 108.519 39.2354 107.996 39.5234C107.474 39.8007 106.876 39.9394 106.204 39.9394C105.106 39.9394 104.236 39.6354 103.596 39.0274C102.967 38.4087 102.652 37.5074 102.652 36.3234V31.4434H103.788V36.2114C103.788 37.0967 104.007 37.7687 104.444 38.2274C104.882 38.686 105.506 38.9154 106.316 38.9154C107.202 38.9154 107.9 38.6487 108.412 38.1154C108.924 37.5714 109.18 36.8194 109.18 35.8594V31.4434H110.316ZM123.994 31.3794C125.05 31.3794 125.877 31.6834 126.474 32.2914C127.082 32.8994 127.386 33.7954 127.386 34.9794V39.8594H126.25V35.0914C126.25 34.2167 126.037 33.55 125.61 33.0914C125.194 32.6327 124.602 32.4034 123.834 32.4034C122.959 32.4034 122.271 32.6754 121.77 33.2194C121.269 33.7527 121.018 34.494 121.018 35.4434V39.8594H119.882V35.0914C119.882 34.2167 119.669 33.55 119.242 33.0914C118.826 32.6327 118.229 32.4034 117.45 32.4034C116.586 32.4034 115.898 32.6754 115.386 33.2194C114.885 33.7527 114.634 34.494 114.634 35.4434V39.8594H113.498V31.4434H114.586V32.9794C114.885 32.4674 115.301 32.0727 115.834 31.7954C116.367 31.518 116.981 31.3794 117.674 31.3794C118.378 31.3794 118.986 31.5287 119.498 31.8274C120.021 32.126 120.41 32.5687 120.666 33.1554C120.975 32.6007 121.418 32.1687 121.994 31.8594C122.581 31.5394 123.247 31.3794 123.994 31.3794ZM137.826 36.0034H130.786C130.85 36.878 131.186 37.5874 131.794 38.1314C132.402 38.6647 133.17 38.9314 134.098 38.9314C134.621 38.9314 135.101 38.8407 135.538 38.6594C135.975 38.4674 136.354 38.19 136.674 37.8274L137.314 38.5634C136.941 39.0114 136.471 39.3527 135.906 39.5874C135.351 39.822 134.738 39.9394 134.066 39.9394C133.202 39.9394 132.434 39.758 131.762 39.3954C131.101 39.022 130.583 38.51 130.21 37.8594C129.837 37.2087 129.65 36.4727 129.65 35.6514C129.65 34.83 129.826 34.094 130.178 33.4434C130.541 32.7927 131.031 32.286 131.65 31.9234C132.279 31.5607 132.983 31.3794 133.762 31.3794C134.541 31.3794 135.239 31.5607 135.858 31.9234C136.477 32.286 136.962 32.7927 137.314 33.4434C137.666 34.0834 137.842 34.8194 137.842 35.6514L137.826 36.0034ZM133.762 32.3554C132.951 32.3554 132.269 32.6167 131.714 33.1394C131.17 33.6514 130.861 34.3234 130.786 35.1554H136.754C136.679 34.3234 136.365 33.6514 135.81 33.1394C135.266 32.6167 134.583 32.3554 133.762 32.3554ZM144.442 31.3794C145.498 31.3794 146.336 31.6887 146.954 32.3074C147.584 32.9154 147.898 33.806 147.898 34.9794V39.8594H146.762V35.0914C146.762 34.2167 146.544 33.55 146.106 33.0914C145.669 32.6327 145.045 32.4034 144.234 32.4034C143.328 32.4034 142.608 32.6754 142.074 33.2194C141.552 33.7527 141.29 34.494 141.29 35.4434V39.8594H140.154V31.4434H141.242V32.9954C141.552 32.4834 141.978 32.0887 142.522 31.8114C143.077 31.5234 143.717 31.3794 144.442 31.3794ZM155.414 39.3474C155.201 39.5394 154.934 39.6887 154.614 39.7954C154.305 39.8914 153.98 39.9394 153.638 39.9394C152.849 39.9394 152.241 39.726 151.814 39.2994C151.388 38.8727 151.174 38.27 151.174 37.4914V32.4034H149.67V31.4434H151.174V29.6034H152.31V31.4434H154.87V32.4034H152.31V37.4274C152.31 37.9287 152.433 38.3127 152.678 38.5794C152.934 38.8354 153.297 38.9634 153.766 38.9634C154.001 38.9634 154.225 38.926 154.438 38.8514C154.662 38.7767 154.854 38.67 155.014 38.5314L155.414 39.3474Z" fill="#929292"/>
<path d="M222.852 28.6594C224.281 28.6594 225.401 29.0007 226.212 29.6834C227.023 30.366 227.428 31.3047 227.428 32.4994C227.428 33.694 227.023 34.6327 226.212 35.3154C225.401 35.9874 224.281 36.3234 222.852 36.3234H219.844V39.8594H218.66V28.6594H222.852ZM222.82 35.2834C223.929 35.2834 224.777 35.0434 225.364 34.5634C225.951 34.0727 226.244 33.3847 226.244 32.4994C226.244 31.5927 225.951 30.8994 225.364 30.4194C224.777 29.9287 223.929 29.6834 222.82 29.6834H219.844V35.2834H222.82ZM230.617 33.0914C230.884 32.526 231.279 32.0994 231.801 31.8114C232.335 31.5234 232.991 31.3794 233.769 31.3794V32.4834L233.497 32.4674C232.612 32.4674 231.919 32.7394 231.417 33.2834C230.916 33.8274 230.665 34.59 230.665 35.5714V39.8594H229.529V31.4434H230.617V33.0914ZM239.188 39.9394C238.377 39.9394 237.647 39.758 236.996 39.3954C236.345 39.022 235.833 38.51 235.46 37.8594C235.087 37.2087 234.9 36.4727 234.9 35.6514C234.9 34.83 235.087 34.094 235.46 33.4434C235.833 32.7927 236.345 32.286 236.996 31.9234C237.647 31.5607 238.377 31.3794 239.188 31.3794C239.999 31.3794 240.729 31.5607 241.38 31.9234C242.031 32.286 242.537 32.7927 242.9 33.4434C243.273 34.094 243.46 34.83 243.46 35.6514C243.46 36.4727 243.273 37.2087 242.9 37.8594C242.537 38.51 242.031 39.022 241.38 39.3954C240.729 39.758 239.999 39.9394 239.188 39.9394ZM239.188 38.9314C239.785 38.9314 240.319 38.798 240.788 38.5314C241.268 38.254 241.641 37.8647 241.908 37.3634C242.175 36.862 242.308 36.2914 242.308 35.6514C242.308 35.0114 242.175 34.4407 241.908 33.9394C241.641 33.438 241.268 33.054 240.788 32.7874C240.319 32.51 239.785 32.3714 239.188 32.3714C238.591 32.3714 238.052 32.51 237.572 32.7874C237.103 33.054 236.729 33.438 236.452 33.9394C236.185 34.4407 236.052 35.0114 236.052 35.6514C236.052 36.2914 236.185 36.862 236.452 37.3634C236.729 37.8647 237.103 38.254 237.572 38.5314C238.052 38.798 238.591 38.9314 239.188 38.9314ZM249.219 39.9394C248.409 39.9394 247.678 39.758 247.027 39.3954C246.377 39.022 245.865 38.51 245.491 37.8594C245.118 37.2087 244.931 36.4727 244.931 35.6514C244.931 34.83 245.118 34.094 245.491 33.4434C245.865 32.7927 246.377 32.286 247.027 31.9234C247.678 31.5607 248.409 31.3794 249.219 31.3794C250.03 31.3794 250.761 31.5607 251.411 31.9234C252.062 32.286 252.569 32.7927 252.931 33.4434C253.305 34.094 253.491 34.83 253.491 35.6514C253.491 36.4727 253.305 37.2087 252.931 37.8594C252.569 38.51 252.062 39.022 251.411 39.3954C250.761 39.758 250.03 39.9394 249.219 39.9394ZM249.219 38.9314C249.817 38.9314 250.35 38.798 250.819 38.5314C251.299 38.254 251.673 37.8647 251.939 37.3634C252.206 36.862 252.339 36.2914 252.339 35.6514C252.339 35.0114 252.206 34.4407 251.939 33.9394C251.673 33.438 251.299 33.054 250.819 32.7874C250.35 32.51 249.817 32.3714 249.219 32.3714C248.622 32.3714 248.083 32.51 247.603 32.7874C247.134 33.054 246.761 33.438 246.483 33.9394C246.217 34.4407 246.083 35.0114 246.083 35.6514C246.083 36.2914 246.217 36.862 246.483 37.3634C246.761 37.8647 247.134 38.254 247.603 38.5314C248.083 38.798 248.622 38.9314 249.219 38.9314ZM258.595 28.8674C258.104 28.8674 257.731 29.0007 257.475 29.2674C257.229 29.534 257.107 29.9287 257.107 30.4514V31.4434H259.699V32.4034H257.139V39.8594H256.003V32.4034H254.499V31.4434H256.003V30.4034C256.003 29.6354 256.221 29.0274 256.659 28.5794C257.107 28.1314 257.736 27.9074 258.547 27.9074C258.867 27.9074 259.176 27.9554 259.475 28.0514C259.773 28.1367 260.024 28.2647 260.227 28.4354L259.843 29.2834C259.512 29.006 259.096 28.8674 258.595 28.8674ZM268.86 39.9394C268.049 39.9394 267.319 39.758 266.668 39.3954C266.017 39.022 265.505 38.51 265.132 37.8594C264.759 37.2087 264.572 36.4727 264.572 35.6514C264.572 34.83 264.759 34.094 265.132 33.4434C265.505 32.7927 266.017 32.286 266.668 31.9234C267.319 31.5607 268.049 31.3794 268.86 31.3794C269.671 31.3794 270.401 31.5607 271.052 31.9234C271.703 32.286 272.209 32.7927 272.572 33.4434C272.945 34.094 273.132 34.83 273.132 35.6514C273.132 36.4727 272.945 37.2087 272.572 37.8594C272.209 38.51 271.703 39.022 271.052 39.3954C270.401 39.758 269.671 39.9394 268.86 39.9394ZM268.86 38.9314C269.457 38.9314 269.991 38.798 270.46 38.5314C270.94 38.254 271.313 37.8647 271.58 37.3634C271.847 36.862 271.98 36.2914 271.98 35.6514C271.98 35.0114 271.847 34.4407 271.58 33.9394C271.313 33.438 270.94 33.054 270.46 32.7874C269.991 32.51 269.457 32.3714 268.86 32.3714C268.263 32.3714 267.724 32.51 267.244 32.7874C266.775 33.054 266.401 33.438 266.124 33.9394C265.857 34.4407 265.724 35.0114 265.724 35.6514C265.724 36.2914 265.857 36.862 266.124 37.3634C266.401 37.8647 266.775 38.254 267.244 38.5314C267.724 38.798 268.263 38.9314 268.86 38.9314ZM278.235 28.8674C277.745 28.8674 277.371 29.0007 277.115 29.2674C276.87 29.534 276.747 29.9287 276.747 30.4514V31.4434H279.339V32.4034H276.779V39.8594H275.643V32.4034H274.139V31.4434H275.643V30.4034C275.643 29.6354 275.862 29.0274 276.299 28.5794C276.747 28.1314 277.377 27.9074 278.187 27.9074C278.507 27.9074 278.817 27.9554 279.115 28.0514C279.414 28.1367 279.665 28.2647 279.867 28.4354L279.483 29.2834C279.153 29.006 278.737 28.8674 278.235 28.8674ZM288.005 31.3794C289.103 31.3794 289.946 31.6567 290.533 32.2114C291.119 32.7554 291.413 33.566 291.413 34.6434V39.8594H290.325V38.5474C290.069 38.9847 289.69 39.326 289.189 39.5714C288.698 39.8167 288.111 39.9394 287.429 39.9394C286.49 39.9394 285.743 39.7154 285.189 39.2674C284.634 38.8194 284.357 38.2274 284.357 37.4914C284.357 36.7767 284.613 36.2007 285.125 35.7634C285.647 35.326 286.474 35.1074 287.605 35.1074H290.277V34.5954C290.277 33.87 290.074 33.3207 289.669 32.9474C289.263 32.5634 288.671 32.3714 287.893 32.3714C287.359 32.3714 286.847 32.462 286.357 32.6434C285.866 32.814 285.445 33.054 285.093 33.3634L284.581 32.5154C285.007 32.1527 285.519 31.8754 286.117 31.6834C286.714 31.4807 287.343 31.3794 288.005 31.3794ZM287.605 39.0434C288.245 39.0434 288.794 38.8994 289.253 38.6114C289.711 38.3127 290.053 37.886 290.277 37.3314V35.9554H287.637C286.197 35.9554 285.477 36.4567 285.477 37.4594C285.477 37.95 285.663 38.3394 286.037 38.6274C286.41 38.9047 286.933 39.0434 287.605 39.0434ZM302.209 27.9874V39.8594H301.121V38.1954C300.78 38.7607 300.327 39.1927 299.761 39.4914C299.207 39.79 298.577 39.9394 297.873 39.9394C297.084 39.9394 296.369 39.758 295.729 39.3954C295.089 39.0327 294.588 38.526 294.225 37.8754C293.863 37.2247 293.681 36.4834 293.681 35.6514C293.681 34.8194 293.863 34.078 294.225 33.4274C294.588 32.7767 295.089 32.2754 295.729 31.9234C296.369 31.5607 297.084 31.3794 297.873 31.3794C298.556 31.3794 299.169 31.5234 299.713 31.8114C300.268 32.0887 300.721 32.4994 301.073 33.0434V27.9874H302.209ZM297.969 38.9314C298.556 38.9314 299.084 38.798 299.553 38.5314C300.033 38.254 300.407 37.8647 300.673 37.3634C300.951 36.862 301.089 36.2914 301.089 35.6514C301.089 35.0114 300.951 34.4407 300.673 33.9394C300.407 33.438 300.033 33.054 299.553 32.7874C299.084 32.51 298.556 32.3714 297.969 32.3714C297.372 32.3714 296.833 32.51 296.353 32.7874C295.884 33.054 295.511 33.438 295.233 33.9394C294.967 34.4407 294.833 35.0114 294.833 35.6514C294.833 36.2914 294.967 36.862 295.233 37.3634C295.511 37.8647 295.884 38.254 296.353 38.5314C296.833 38.798 297.372 38.9314 297.969 38.9314ZM313.053 27.9874V39.8594H311.965V38.1954C311.624 38.7607 311.17 39.1927 310.605 39.4914C310.05 39.79 309.421 39.9394 308.717 39.9394C307.928 39.9394 307.213 39.758 306.573 39.3954C305.933 39.0327 305.432 38.526 305.069 37.8754C304.706 37.2247 304.525 36.4834 304.525 35.6514C304.525 34.8194 304.706 34.078 305.069 33.4274C305.432 32.7767 305.933 32.2754 306.573 31.9234C307.213 31.5607 307.928 31.3794 308.717 31.3794C309.4 31.3794 310.013 31.5234 310.557 31.8114C311.112 32.0887 311.565 32.4994 311.917 33.0434V27.9874H313.053ZM308.813 38.9314C309.4 38.9314 309.928 38.798 310.397 38.5314C310.877 38.254 311.25 37.8647 311.517 37.3634C311.794 36.862 311.933 36.2914 311.933 35.6514C311.933 35.0114 311.794 34.4407 311.517 33.9394C311.25 33.438 310.877 33.054 310.397 32.7874C309.928 32.51 309.4 32.3714 308.813 32.3714C308.216 32.3714 307.677 32.51 307.197 32.7874C306.728 33.054 306.354 33.438 306.077 33.9394C305.81 34.4407 305.677 35.0114 305.677 35.6514C305.677 36.2914 305.81 36.862 306.077 37.3634C306.354 37.8647 306.728 38.254 307.197 38.5314C307.677 38.798 308.216 38.9314 308.813 38.9314ZM317.305 33.0914C317.571 32.526 317.966 32.0994 318.489 31.8114C319.022 31.5234 319.678 31.3794 320.457 31.3794V32.4834L320.185 32.4674C319.299 32.4674 318.606 32.7394 318.105 33.2834C317.603 33.8274 317.353 34.59 317.353 35.5714V39.8594H316.217V31.4434H317.305V33.0914ZM329.764 36.0034H322.724C322.788 36.878 323.124 37.5874 323.732 38.1314C324.34 38.6647 325.108 38.9314 326.036 38.9314C326.558 38.9314 327.038 38.8407 327.476 38.6594C327.913 38.4674 328.292 38.19 328.612 37.8274L329.252 38.5634C328.878 39.0114 328.409 39.3527 327.844 39.5874C327.289 39.822 326.676 39.9394 326.004 39.9394C325.14 39.9394 324.372 39.758 323.7 39.3954C323.038 39.022 322.521 38.51 322.148 37.8594C321.774 37.2087 321.588 36.4727 321.588 35.6514C321.588 34.83 321.764 34.094 322.116 33.4434C322.478 32.7927 322.969 32.286 323.588 31.9234C324.217 31.5607 324.921 31.3794 325.7 31.3794C326.478 31.3794 327.177 31.5607 327.796 31.9234C328.414 32.286 328.9 32.7927 329.252 33.4434C329.604 34.0834 329.78 34.8194 329.78 35.6514L329.764 36.0034ZM325.7 32.3554C324.889 32.3554 324.206 32.6167 323.652 33.1394C323.108 33.6514 322.798 34.3234 322.724 35.1554H328.692C328.617 34.3234 328.302 33.6514 327.748 33.1394C327.204 32.6167 326.521 32.3554 325.7 32.3554ZM334.348 39.9394C333.665 39.9394 333.009 39.8434 332.38 39.6514C331.761 39.4487 331.276 39.198 330.924 38.8994L331.436 38.0034C331.788 38.2807 332.23 38.51 332.764 38.6914C333.297 38.862 333.852 38.9474 334.428 38.9474C335.196 38.9474 335.761 38.83 336.124 38.5954C336.497 38.35 336.684 38.0087 336.684 37.5714C336.684 37.262 336.582 37.022 336.38 36.8514C336.177 36.67 335.921 36.5367 335.612 36.4514C335.302 36.3554 334.892 36.2647 334.38 36.1794C333.697 36.0514 333.148 35.9234 332.732 35.7954C332.316 35.6567 331.958 35.4274 331.66 35.1074C331.372 34.7874 331.228 34.3447 331.228 33.7794C331.228 33.0754 331.521 32.4994 332.108 32.0514C332.694 31.6034 333.51 31.3794 334.556 31.3794C335.1 31.3794 335.644 31.454 336.188 31.6034C336.732 31.742 337.18 31.9287 337.532 32.1634L337.036 33.0754C336.342 32.5954 335.516 32.3554 334.556 32.3554C333.83 32.3554 333.281 32.4834 332.908 32.7394C332.545 32.9954 332.364 33.3314 332.364 33.7474C332.364 34.0674 332.465 34.3234 332.668 34.5154C332.881 34.7074 333.142 34.8514 333.452 34.9474C333.761 35.0327 334.188 35.1234 334.732 35.2194C335.404 35.3474 335.942 35.4754 336.348 35.6034C336.753 35.7314 337.1 35.95 337.388 36.2594C337.676 36.5687 337.82 36.9954 337.82 37.5394C337.82 38.2754 337.51 38.862 336.892 39.2994C336.284 39.726 335.436 39.9394 334.348 39.9394ZM342.176 39.9394C341.493 39.9394 340.837 39.8434 340.208 39.6514C339.589 39.4487 339.104 39.198 338.752 38.8994L339.264 38.0034C339.616 38.2807 340.059 38.51 340.592 38.6914C341.125 38.862 341.68 38.9474 342.256 38.9474C343.024 38.9474 343.589 38.83 343.952 38.5954C344.325 38.35 344.512 38.0087 344.512 37.5714C344.512 37.262 344.411 37.022 344.208 36.8514C344.005 36.67 343.749 36.5367 343.44 36.4514C343.131 36.3554 342.72 36.2647 342.208 36.1794C341.525 36.0514 340.976 35.9234 340.56 35.7954C340.144 35.6567 339.787 35.4274 339.488 35.1074C339.2 34.7874 339.056 34.3447 339.056 33.7794C339.056 33.0754 339.349 32.4994 339.936 32.0514C340.523 31.6034 341.339 31.3794 342.384 31.3794C342.928 31.3794 343.472 31.454 344.016 31.6034C344.56 31.742 345.008 31.9287 345.36 32.1634L344.864 33.0754C344.171 32.5954 343.344 32.3554 342.384 32.3554C341.659 32.3554 341.109 32.4834 340.736 32.7394C340.373 32.9954 340.192 33.3314 340.192 33.7474C340.192 34.0674 340.293 34.3234 340.496 34.5154C340.709 34.7074 340.971 34.8514 341.28 34.9474C341.589 35.0327 342.016 35.1234 342.56 35.2194C343.232 35.3474 343.771 35.4754 344.176 35.6034C344.581 35.7314 344.928 35.95 345.216 36.2594C345.504 36.5687 345.648 36.9954 345.648 37.5394C345.648 38.2754 345.339 38.862 344.72 39.2994C344.112 39.726 343.264 39.9394 342.176 39.9394Z" fill="#929292"/>
<path d="M432.735 39.9554C431.626 39.9554 430.623 39.71 429.727 39.2194C428.842 38.7287 428.143 38.0514 427.631 37.1874C427.13 36.3127 426.879 35.3367 426.879 34.2594C426.879 33.182 427.13 32.2114 427.631 31.3474C428.143 30.4727 428.847 29.79 429.743 29.2994C430.639 28.8087 431.642 28.5634 432.751 28.5634C433.583 28.5634 434.351 28.702 435.055 28.9794C435.759 29.2567 436.356 29.662 436.847 30.1954L436.095 30.9474C435.22 30.062 434.116 29.6194 432.783 29.6194C431.898 29.6194 431.092 29.822 430.367 30.2274C429.642 30.6327 429.071 31.1874 428.655 31.8914C428.25 32.5954 428.047 33.3847 428.047 34.2594C428.047 35.134 428.25 35.9234 428.655 36.6274C429.071 37.3314 429.642 37.886 430.367 38.2914C431.092 38.6967 431.898 38.8994 432.783 38.8994C434.127 38.8994 435.231 38.4514 436.095 37.5554L436.847 38.3074C436.356 38.8407 435.754 39.2514 435.039 39.5394C434.335 39.8167 433.567 39.9554 432.735 39.9554ZM442.571 39.9394C441.76 39.9394 441.03 39.758 440.379 39.3954C439.728 39.022 439.216 38.51 438.843 37.8594C438.47 37.2087 438.283 36.4727 438.283 35.6514C438.283 34.83 438.47 34.094 438.843 33.4434C439.216 32.7927 439.728 32.286 440.379 31.9234C441.03 31.5607 441.76 31.3794 442.571 31.3794C443.382 31.3794 444.112 31.5607 444.763 31.9234C445.414 32.286 445.92 32.7927 446.283 33.4434C446.656 34.094 446.843 34.83 446.843 35.6514C446.843 36.4727 446.656 37.2087 446.283 37.8594C445.92 38.51 445.414 39.022 444.763 39.3954C444.112 39.758 443.382 39.9394 442.571 39.9394ZM442.571 38.9314C443.168 38.9314 443.702 38.798 444.171 38.5314C444.651 38.254 445.024 37.8647 445.291 37.3634C445.558 36.862 445.691 36.2914 445.691 35.6514C445.691 35.0114 445.558 34.4407 445.291 33.9394C445.024 33.438 444.651 33.054 444.171 32.7874C443.702 32.51 443.168 32.3714 442.571 32.3714C441.974 32.3714 441.435 32.51 440.955 32.7874C440.486 33.054 440.112 33.438 439.835 33.9394C439.568 34.4407 439.435 35.0114 439.435 35.6514C439.435 36.2914 439.568 36.862 439.835 37.3634C440.112 37.8647 440.486 38.254 440.955 38.5314C441.435 38.798 441.974 38.9314 442.571 38.9314ZM453.45 31.3794C454.506 31.3794 455.343 31.6887 455.962 32.3074C456.591 32.9154 456.906 33.806 456.906 34.9794V39.8594H455.77V35.0914C455.77 34.2167 455.551 33.55 455.114 33.0914C454.677 32.6327 454.053 32.4034 453.242 32.4034C452.335 32.4034 451.615 32.6754 451.082 33.2194C450.559 33.7527 450.298 34.494 450.298 35.4434V39.8594H449.162V31.4434H450.25V32.9954C450.559 32.4834 450.986 32.0887 451.53 31.8114C452.085 31.5234 452.725 31.3794 453.45 31.3794ZM462.246 39.9394C461.564 39.9394 460.908 39.8434 460.278 39.6514C459.66 39.4487 459.174 39.198 458.822 38.8994L459.334 38.0034C459.686 38.2807 460.129 38.51 460.662 38.6914C461.196 38.862 461.75 38.9474 462.326 38.9474C463.094 38.9474 463.66 38.83 464.022 38.5954C464.396 38.35 464.582 38.0087 464.582 37.5714C464.582 37.262 464.481 37.022 464.278 36.8514C464.076 36.67 463.82 36.5367 463.51 36.4514C463.201 36.3554 462.79 36.2647 462.278 36.1794C461.596 36.0514 461.046 35.9234 460.63 35.7954C460.214 35.6567 459.857 35.4274 459.558 35.1074C459.27 34.7874 459.126 34.3447 459.126 33.7794C459.126 33.0754 459.42 32.4994 460.006 32.0514C460.593 31.6034 461.409 31.3794 462.454 31.3794C462.998 31.3794 463.542 31.454 464.086 31.6034C464.63 31.742 465.078 31.9287 465.43 32.1634L464.934 33.0754C464.241 32.5954 463.414 32.3554 462.454 32.3554C461.729 32.3554 461.18 32.4834 460.806 32.7394C460.444 32.9954 460.262 33.3314 460.262 33.7474C460.262 34.0674 460.364 34.3234 460.566 34.5154C460.78 34.7074 461.041 34.8514 461.35 34.9474C461.66 35.0327 462.086 35.1234 462.63 35.2194C463.302 35.3474 463.841 35.4754 464.246 35.6034C464.652 35.7314 464.998 35.95 465.286 36.2594C465.574 36.5687 465.718 36.9954 465.718 37.5394C465.718 38.2754 465.409 38.862 464.79 39.2994C464.182 39.726 463.334 39.9394 462.246 39.9394ZM475.146 36.0034H468.106C468.17 36.878 468.506 37.5874 469.114 38.1314C469.722 38.6647 470.49 38.9314 471.418 38.9314C471.941 38.9314 472.421 38.8407 472.858 38.6594C473.296 38.4674 473.674 38.19 473.994 37.8274L474.634 38.5634C474.261 39.0114 473.792 39.3527 473.226 39.5874C472.672 39.822 472.058 39.9394 471.386 39.9394C470.522 39.9394 469.754 39.758 469.082 39.3954C468.421 39.022 467.904 38.51 467.53 37.8594C467.157 37.2087 466.97 36.4727 466.97 35.6514C466.97 34.83 467.146 34.094 467.498 33.4434C467.861 32.7927 468.352 32.286 468.97 31.9234C469.6 31.5607 470.304 31.3794 471.082 31.3794C471.861 31.3794 472.56 31.5607 473.178 31.9234C473.797 32.286 474.282 32.7927 474.634 33.4434C474.986 34.0834 475.162 34.8194 475.162 35.6514L475.146 36.0034ZM471.082 32.3554C470.272 32.3554 469.589 32.6167 469.034 33.1394C468.49 33.6514 468.181 34.3234 468.106 35.1554H474.074C474 34.3234 473.685 33.6514 473.13 33.1394C472.586 32.6167 471.904 32.3554 471.082 32.3554ZM481.763 31.3794C482.819 31.3794 483.656 31.6887 484.275 32.3074C484.904 32.9154 485.219 33.806 485.219 34.9794V39.8594H484.083V35.0914C484.083 34.2167 483.864 33.55 483.427 33.0914C482.989 32.6327 482.365 32.4034 481.555 32.4034C480.648 32.4034 479.928 32.6754 479.395 33.2194C478.872 33.7527 478.611 34.494 478.611 35.4434V39.8594H477.475V31.4434H478.563V32.9954C478.872 32.4834 479.299 32.0887 479.843 31.8114C480.397 31.5234 481.037 31.3794 481.763 31.3794ZM492.735 39.3474C492.521 39.5394 492.255 39.6887 491.935 39.7954C491.625 39.8914 491.3 39.9394 490.959 39.9394C490.169 39.9394 489.561 39.726 489.135 39.2994C488.708 38.8727 488.495 38.27 488.495 37.4914V32.4034H486.991V31.4434H488.495V29.6034H489.631V31.4434H492.191V32.4034H489.631V37.4274C489.631 37.9287 489.753 38.3127 489.999 38.5794C490.255 38.8354 490.617 38.9634 491.087 38.9634C491.321 38.9634 491.545 38.926 491.759 38.8514C491.983 38.7767 492.175 38.67 492.335 38.5314L492.735 39.3474ZM508.542 28.6594L503.582 39.8594H502.414L497.454 28.6594H498.734L503.022 38.3874L507.342 28.6594H508.542ZM517.49 36.0034H510.45C510.514 36.878 510.85 37.5874 511.458 38.1314C512.066 38.6647 512.834 38.9314 513.762 38.9314C514.285 38.9314 514.765 38.8407 515.202 38.6594C515.639 38.4674 516.018 38.19 516.338 37.8274L516.978 38.5634C516.605 39.0114 516.135 39.3527 515.57 39.5874C515.015 39.822 514.402 39.9394 513.73 39.9394C512.866 39.9394 512.098 39.758 511.426 39.3954C510.765 39.022 510.247 38.51 509.874 37.8594C509.501 37.2087 509.314 36.4727 509.314 35.6514C509.314 34.83 509.49 34.094 509.842 33.4434C510.205 32.7927 510.695 32.286 511.314 31.9234C511.943 31.5607 512.647 31.3794 513.426 31.3794C514.205 31.3794 514.903 31.5607 515.522 31.9234C516.141 32.286 516.626 32.7927 516.978 33.4434C517.33 34.0834 517.506 34.8194 517.506 35.6514L517.49 36.0034ZM513.426 32.3554C512.615 32.3554 511.933 32.6167 511.378 33.1394C510.834 33.6514 510.525 34.3234 510.45 35.1554H516.418C516.343 34.3234 516.029 33.6514 515.474 33.1394C514.93 32.6167 514.247 32.3554 513.426 32.3554ZM520.906 33.0914C521.173 32.526 521.568 32.0994 522.09 31.8114C522.624 31.5234 523.28 31.3794 524.058 31.3794V32.4834L523.786 32.4674C522.901 32.4674 522.208 32.7394 521.706 33.2834C521.205 33.8274 520.954 34.59 520.954 35.5714V39.8594H519.818V31.4434H520.906V33.0914ZM526.115 31.4434H527.251V39.8594H526.115V31.4434ZM526.691 29.6034C526.457 29.6034 526.259 29.5234 526.099 29.3634C525.939 29.2034 525.859 29.0114 525.859 28.7874C525.859 28.574 525.939 28.3874 526.099 28.2274C526.259 28.0674 526.457 27.9874 526.691 27.9874C526.926 27.9874 527.123 28.0674 527.283 28.2274C527.443 28.3767 527.523 28.558 527.523 28.7714C527.523 29.006 527.443 29.2034 527.283 29.3634C527.123 29.5234 526.926 29.6034 526.691 29.6034ZM533.196 28.8674C532.705 28.8674 532.332 29.0007 532.076 29.2674C531.831 29.534 531.708 29.9287 531.708 30.4514V31.4434H534.3V32.4034H531.74V39.8594H530.604V32.4034H529.1V31.4434H530.604V30.4034C530.604 29.6354 530.823 29.0274 531.26 28.5794C531.708 28.1314 532.337 27.9074 533.148 27.9074C533.468 27.9074 533.777 27.9554 534.076 28.0514C534.375 28.1367 534.625 28.2647 534.828 28.4354L534.444 29.2834C534.113 29.006 533.697 28.8674 533.196 28.8674ZM537.116 31.4434H538.252V39.8594H537.116V31.4434ZM537.692 29.6034C537.457 29.6034 537.26 29.5234 537.1 29.3634C536.94 29.2034 536.86 29.0114 536.86 28.7874C536.86 28.574 536.94 28.3874 537.1 28.2274C537.26 28.0674 537.457 27.9874 537.692 27.9874C537.927 27.9874 538.124 28.0674 538.284 28.2274C538.444 28.3767 538.524 28.558 538.524 28.7714C538.524 29.006 538.444 29.2034 538.284 29.3634C538.124 29.5234 537.927 29.6034 537.692 29.6034ZM544.916 39.9394C544.084 39.9394 543.337 39.758 542.676 39.3954C542.025 39.0327 541.513 38.526 541.14 37.8754C540.766 37.214 540.58 36.4727 540.58 35.6514C540.58 34.83 540.766 34.094 541.14 33.4434C541.513 32.7927 542.025 32.286 542.676 31.9234C543.337 31.5607 544.084 31.3794 544.916 31.3794C545.641 31.3794 546.286 31.5234 546.852 31.8114C547.428 32.0887 547.881 32.4994 548.212 33.0434L547.364 33.6194C547.086 33.2034 546.734 32.894 546.308 32.6914C545.881 32.478 545.417 32.3714 544.916 32.3714C544.308 32.3714 543.758 32.51 543.268 32.7874C542.788 33.054 542.409 33.438 542.132 33.9394C541.865 34.4407 541.732 35.0114 541.732 35.6514C541.732 36.302 541.865 36.878 542.132 37.3794C542.409 37.87 542.788 38.254 543.268 38.5314C543.758 38.798 544.308 38.9314 544.916 38.9314C545.417 38.9314 545.881 38.83 546.308 38.6274C546.734 38.4247 547.086 38.1154 547.364 37.6994L548.212 38.2754C547.881 38.8194 547.428 39.2354 546.852 39.5234C546.276 39.8007 545.63 39.9394 544.916 39.9394ZM553.387 31.3794C554.486 31.3794 555.329 31.6567 555.915 32.2114C556.502 32.7554 556.795 33.566 556.795 34.6434V39.8594H555.707V38.5474C555.451 38.9847 555.073 39.326 554.571 39.5714C554.081 39.8167 553.494 39.9394 552.811 39.9394C551.873 39.9394 551.126 39.7154 550.571 39.2674C550.017 38.8194 549.739 38.2274 549.739 37.4914C549.739 36.7767 549.995 36.2007 550.507 35.7634C551.03 35.326 551.857 35.1074 552.987 35.1074H555.659V34.5954C555.659 33.87 555.457 33.3207 555.051 32.9474C554.646 32.5634 554.054 32.3714 553.275 32.3714C552.742 32.3714 552.23 32.462 551.739 32.6434C551.249 32.814 550.827 33.054 550.475 33.3634L549.963 32.5154C550.39 32.1527 550.902 31.8754 551.499 31.6834C552.097 31.4807 552.726 31.3794 553.387 31.3794ZM552.987 39.0434C553.627 39.0434 554.177 38.8994 554.635 38.6114C555.094 38.3127 555.435 37.886 555.659 37.3314V35.9554H553.019C551.579 35.9554 550.859 36.4567 550.859 37.4594C550.859 37.95 551.046 38.3394 551.419 38.6274C551.793 38.9047 552.315 39.0434 552.987 39.0434ZM564.313 39.3474C564.1 39.5394 563.833 39.6887 563.513 39.7954C563.204 39.8914 562.878 39.9394 562.537 39.9394C561.748 39.9394 561.14 39.726 560.713 39.2994C560.286 38.8727 560.073 38.27 560.073 37.4914V32.4034H558.569V31.4434H560.073V29.6034H561.209V31.4434H563.769V32.4034H561.209V37.4274C561.209 37.9287 561.332 38.3127 561.577 38.5794C561.833 38.8354 562.196 38.9634 562.665 38.9634C562.9 38.9634 563.124 38.926 563.337 38.8514C563.561 38.7767 563.753 38.67 563.913 38.5314L564.313 39.3474ZM566.381 31.4434H567.517V39.8594H566.381V31.4434ZM566.957 29.6034C566.722 29.6034 566.525 29.5234 566.365 29.3634C566.205 29.2034 566.125 29.0114 566.125 28.7874C566.125 28.574 566.205 28.3874 566.365 28.2274C566.525 28.0674 566.722 27.9874 566.957 27.9874C567.192 27.9874 567.389 28.0674 567.549 28.2274C567.709 28.3767 567.789 28.558 567.789 28.7714C567.789 29.006 567.709 29.2034 567.549 29.3634C567.389 29.5234 567.192 29.6034 566.957 29.6034ZM574.118 39.9394C573.307 39.9394 572.576 39.758 571.926 39.3954C571.275 39.022 570.763 38.51 570.39 37.8594C570.016 37.2087 569.83 36.4727 569.83 35.6514C569.83 34.83 570.016 34.094 570.39 33.4434C570.763 32.7927 571.275 32.286 571.926 31.9234C572.576 31.5607 573.307 31.3794 574.118 31.3794C574.928 31.3794 575.659 31.5607 576.31 31.9234C576.96 32.286 577.467 32.7927 577.83 33.4434C578.203 34.094 578.39 34.83 578.39 35.6514C578.39 36.4727 578.203 37.2087 577.83 37.8594C577.467 38.51 576.96 39.022 576.31 39.3954C575.659 39.758 574.928 39.9394 574.118 39.9394ZM574.118 38.9314C574.715 38.9314 575.248 38.798 575.718 38.5314C576.198 38.254 576.571 37.8647 576.838 37.3634C577.104 36.862 577.238 36.2914 577.238 35.6514C577.238 35.0114 577.104 34.4407 576.838 33.9394C576.571 33.438 576.198 33.054 575.718 32.7874C575.248 32.51 574.715 32.3714 574.118 32.3714C573.52 32.3714 572.982 32.51 572.502 32.7874C572.032 33.054 571.659 33.438 571.382 33.9394C571.115 34.4407 570.982 35.0114 570.982 35.6514C570.982 36.2914 571.115 36.862 571.382 37.3634C571.659 37.8647 572.032 38.254 572.502 38.5314C572.982 38.798 573.52 38.9314 574.118 38.9314ZM584.997 31.3794C586.053 31.3794 586.89 31.6887 587.509 32.3074C588.138 32.9154 588.453 33.806 588.453 34.9794V39.8594H587.317V35.0914C587.317 34.2167 587.098 33.55 586.661 33.0914C586.224 32.6327 585.6 32.4034 584.789 32.4034C583.882 32.4034 583.162 32.6754 582.629 33.2194C582.106 33.7527 581.845 34.494 581.845 35.4434V39.8594H580.709V31.4434H581.797V32.9954C582.106 32.4834 582.533 32.0887 583.077 31.8114C583.632 31.5234 584.272 31.3794 584.997 31.3794Z" fill="white"/>
<path d="M670.078 29.6834V34.0834H675.87V35.1074H670.078V39.8594H668.894V28.6594H676.574V29.6834H670.078ZM681.723 31.3794C682.822 31.3794 683.665 31.6567 684.251 32.2114C684.838 32.7554 685.131 33.566 685.131 34.6434V39.8594H684.043V38.5474C683.787 38.9847 683.409 39.326 682.907 39.5714C682.417 39.8167 681.83 39.9394 681.147 39.9394C680.209 39.9394 679.462 39.7154 678.907 39.2674C678.353 38.8194 678.075 38.2274 678.075 37.4914C678.075 36.7767 678.331 36.2007 678.843 35.7634C679.366 35.326 680.193 35.1074 681.323 35.1074H683.995V34.5954C683.995 33.87 683.793 33.3207 683.387 32.9474C682.982 32.5634 682.39 32.3714 681.611 32.3714C681.078 32.3714 680.566 32.462 680.075 32.6434C679.585 32.814 679.163 33.054 678.811 33.3634L678.299 32.5154C678.726 32.1527 679.238 31.8754 679.835 31.6834C680.433 31.4807 681.062 31.3794 681.723 31.3794ZM681.323 39.0434C681.963 39.0434 682.513 38.8994 682.971 38.6114C683.43 38.3127 683.771 37.886 683.995 37.3314V35.9554H681.355C679.915 35.9554 679.195 36.4567 679.195 37.4594C679.195 37.95 679.382 38.3394 679.755 38.6274C680.129 38.9047 680.651 39.0434 681.323 39.0434ZM691.736 39.9394C690.904 39.9394 690.157 39.758 689.496 39.3954C688.845 39.0327 688.333 38.526 687.96 37.8754C687.587 37.214 687.4 36.4727 687.4 35.6514C687.4 34.83 687.587 34.094 687.96 33.4434C688.333 32.7927 688.845 32.286 689.496 31.9234C690.157 31.5607 690.904 31.3794 691.736 31.3794C692.461 31.3794 693.107 31.5234 693.672 31.8114C694.248 32.0887 694.701 32.4994 695.032 33.0434L694.184 33.6194C693.907 33.2034 693.555 32.894 693.128 32.6914C692.701 32.478 692.237 32.3714 691.736 32.3714C691.128 32.3714 690.579 32.51 690.088 32.7874C689.608 33.054 689.229 33.438 688.952 33.9394C688.685 34.4407 688.552 35.0114 688.552 35.6514C688.552 36.302 688.685 36.878 688.952 37.3794C689.229 37.87 689.608 38.254 690.088 38.5314C690.579 38.798 691.128 38.9314 691.736 38.9314C692.237 38.9314 692.701 38.83 693.128 38.6274C693.555 38.4247 693.907 38.1154 694.184 37.6994L695.032 38.2754C694.701 38.8194 694.248 39.2354 693.672 39.5234C693.096 39.8007 692.451 39.9394 691.736 39.9394ZM704.451 36.0034H697.411C697.475 36.878 697.811 37.5874 698.419 38.1314C699.027 38.6647 699.795 38.9314 700.723 38.9314C701.246 38.9314 701.726 38.8407 702.163 38.6594C702.6 38.4674 702.979 38.19 703.299 37.8274L703.939 38.5634C703.566 39.0114 703.096 39.3527 702.531 39.5874C701.976 39.822 701.363 39.9394 700.691 39.9394C699.827 39.9394 699.059 39.758 698.387 39.3954C697.726 39.022 697.208 38.51 696.835 37.8594C696.462 37.2087 696.275 36.4727 696.275 35.6514C696.275 34.83 696.451 34.094 696.803 33.4434C697.166 32.7927 697.656 32.286 698.275 31.9234C698.904 31.5607 699.608 31.3794 700.387 31.3794C701.166 31.3794 701.864 31.5607 702.483 31.9234C703.102 32.286 703.587 32.7927 703.939 33.4434C704.291 34.0834 704.467 34.8194 704.467 35.6514L704.451 36.0034ZM700.387 32.3554C699.576 32.3554 698.894 32.6167 698.339 33.1394C697.795 33.6514 697.486 34.3234 697.411 35.1554H703.379C703.304 34.3234 702.99 33.6514 702.435 33.1394C701.891 32.6167 701.208 32.3554 700.387 32.3554ZM720.519 28.6594L715.559 39.8594H714.391L709.431 28.6594H710.711L714.999 38.3874L719.319 28.6594H720.519ZM729.467 36.0034H722.427C722.491 36.878 722.827 37.5874 723.435 38.1314C724.043 38.6647 724.811 38.9314 725.739 38.9314C726.261 38.9314 726.741 38.8407 727.179 38.6594C727.616 38.4674 727.995 38.19 728.315 37.8274L728.955 38.5634C728.581 39.0114 728.112 39.3527 727.547 39.5874C726.992 39.822 726.379 39.9394 725.707 39.9394C724.843 39.9394 724.075 39.758 723.403 39.3954C722.741 39.022 722.224 38.51 721.851 37.8594C721.477 37.2087 721.291 36.4727 721.291 35.6514C721.291 34.83 721.467 34.094 721.819 33.4434C722.181 32.7927 722.672 32.286 723.291 31.9234C723.92 31.5607 724.624 31.3794 725.403 31.3794C726.181 31.3794 726.88 31.5607 727.499 31.9234C728.117 32.286 728.603 32.7927 728.955 33.4434C729.307 34.0834 729.483 34.8194 729.483 35.6514L729.467 36.0034ZM725.403 32.3554C724.592 32.3554 723.909 32.6167 723.355 33.1394C722.811 33.6514 722.501 34.3234 722.427 35.1554H728.395C728.32 34.3234 728.005 33.6514 727.451 33.1394C726.907 32.6167 726.224 32.3554 725.403 32.3554ZM732.883 33.0914C733.15 32.526 733.544 32.0994 734.067 31.8114C734.6 31.5234 735.256 31.3794 736.035 31.3794V32.4834L735.763 32.4674C734.878 32.4674 734.184 32.7394 733.683 33.2834C733.182 33.8274 732.931 34.59 732.931 35.5714V39.8594H731.795V31.4434H732.883V33.0914ZM738.092 31.4434H739.228V39.8594H738.092V31.4434ZM738.668 29.6034C738.433 29.6034 738.236 29.5234 738.076 29.3634C737.916 29.2034 737.836 29.0114 737.836 28.7874C737.836 28.574 737.916 28.3874 738.076 28.2274C738.236 28.0674 738.433 27.9874 738.668 27.9874C738.902 27.9874 739.1 28.0674 739.26 28.2274C739.42 28.3767 739.5 28.558 739.5 28.7714C739.5 29.006 739.42 29.2034 739.26 29.3634C739.1 29.5234 738.902 29.6034 738.668 29.6034ZM745.173 28.8674C744.682 28.8674 744.309 29.0007 744.053 29.2674C743.807 29.534 743.685 29.9287 743.685 30.4514V31.4434H746.277V32.4034H743.717V39.8594H742.581V32.4034H741.077V31.4434H742.581V30.4034C742.581 29.6354 742.799 29.0274 743.237 28.5794C743.685 28.1314 744.314 27.9074 745.125 27.9074C745.445 27.9074 745.754 27.9554 746.053 28.0514C746.351 28.1367 746.602 28.2647 746.805 28.4354L746.421 29.2834C746.09 29.006 745.674 28.8674 745.173 28.8674ZM749.093 31.4434H750.229V39.8594H749.093V31.4434ZM749.669 29.6034C749.434 29.6034 749.237 29.5234 749.077 29.3634C748.917 29.2034 748.837 29.0114 748.837 28.7874C748.837 28.574 748.917 28.3874 749.077 28.2274C749.237 28.0674 749.434 27.9874 749.669 27.9874C749.903 27.9874 750.101 28.0674 750.261 28.2274C750.421 28.3767 750.501 28.558 750.501 28.7714C750.501 29.006 750.421 29.2034 750.261 29.3634C750.101 29.5234 749.903 29.6034 749.669 29.6034ZM756.892 39.9394C756.06 39.9394 755.314 39.758 754.652 39.3954C754.002 39.0327 753.49 38.526 753.116 37.8754C752.743 37.214 752.556 36.4727 752.556 35.6514C752.556 34.83 752.743 34.094 753.116 33.4434C753.49 32.7927 754.002 32.286 754.652 31.9234C755.314 31.5607 756.06 31.3794 756.892 31.3794C757.618 31.3794 758.263 31.5234 758.828 31.8114C759.404 32.0887 759.858 32.4994 760.188 33.0434L759.34 33.6194C759.063 33.2034 758.711 32.894 758.284 32.6914C757.858 32.478 757.394 32.3714 756.892 32.3714C756.284 32.3714 755.735 32.51 755.244 32.7874C754.764 33.054 754.386 33.438 754.108 33.9394C753.842 34.4407 753.708 35.0114 753.708 35.6514C753.708 36.302 753.842 36.878 754.108 37.3794C754.386 37.87 754.764 38.254 755.244 38.5314C755.735 38.798 756.284 38.9314 756.892 38.9314C757.394 38.9314 757.858 38.83 758.284 38.6274C758.711 38.4247 759.063 38.1154 759.34 37.6994L760.188 38.2754C759.858 38.8194 759.404 39.2354 758.828 39.5234C758.252 39.8007 757.607 39.9394 756.892 39.9394ZM765.364 31.3794C766.463 31.3794 767.305 31.6567 767.892 32.2114C768.479 32.7554 768.772 33.566 768.772 34.6434V39.8594H767.684V38.5474C767.428 38.9847 767.049 39.326 766.548 39.5714C766.057 39.8167 765.471 39.9394 764.788 39.9394C763.849 39.9394 763.103 39.7154 762.548 39.2674C761.993 38.8194 761.716 38.2274 761.716 37.4914C761.716 36.7767 761.972 36.2007 762.484 35.7634C763.007 35.326 763.833 35.1074 764.964 35.1074H767.636V34.5954C767.636 33.87 767.433 33.3207 767.028 32.9474C766.623 32.5634 766.031 32.3714 765.252 32.3714C764.719 32.3714 764.207 32.462 763.716 32.6434C763.225 32.814 762.804 33.054 762.452 33.3634L761.94 32.5154C762.367 32.1527 762.879 31.8754 763.476 31.6834C764.073 31.4807 764.703 31.3794 765.364 31.3794ZM764.964 39.0434C765.604 39.0434 766.153 38.8994 766.612 38.6114C767.071 38.3127 767.412 37.886 767.636 37.3314V35.9554H764.996C763.556 35.9554 762.836 36.4567 762.836 37.4594C762.836 37.95 763.023 38.3394 763.396 38.6274C763.769 38.9047 764.292 39.0434 764.964 39.0434ZM776.289 39.3474C776.076 39.5394 775.809 39.6887 775.489 39.7954C775.18 39.8914 774.855 39.9394 774.513 39.9394C773.724 39.9394 773.116 39.726 772.689 39.2994C772.263 38.8727 772.049 38.27 772.049 37.4914V32.4034H770.545V31.4434H772.049V29.6034H773.185V31.4434H775.745V32.4034H773.185V37.4274C773.185 37.9287 773.308 38.3127 773.553 38.5794C773.809 38.8354 774.172 38.9634 774.641 38.9634C774.876 38.9634 775.1 38.926 775.313 38.8514C775.537 38.7767 775.729 38.67 775.889 38.5314L776.289 39.3474ZM778.357 31.4434H779.493V39.8594H778.357V31.4434ZM778.933 29.6034C778.699 29.6034 778.501 29.5234 778.341 29.3634C778.181 29.2034 778.101 29.0114 778.101 28.7874C778.101 28.574 778.181 28.3874 778.341 28.2274C778.501 28.0674 778.699 27.9874 778.933 27.9874C779.168 27.9874 779.365 28.0674 779.525 28.2274C779.685 28.3767 779.765 28.558 779.765 28.7714C779.765 29.006 779.685 29.2034 779.525 29.3634C779.365 29.5234 779.168 29.6034 778.933 29.6034ZM786.094 39.9394C785.284 39.9394 784.553 39.758 783.902 39.3954C783.252 39.022 782.74 38.51 782.366 37.8594C781.993 37.2087 781.806 36.4727 781.806 35.6514C781.806 34.83 781.993 34.094 782.366 33.4434C782.74 32.7927 783.252 32.286 783.902 31.9234C784.553 31.5607 785.284 31.3794 786.094 31.3794C786.905 31.3794 787.636 31.5607 788.286 31.9234C788.937 32.286 789.444 32.7927 789.806 33.4434C790.18 34.094 790.366 34.83 790.366 35.6514C790.366 36.4727 790.18 37.2087 789.806 37.8594C789.444 38.51 788.937 39.022 788.286 39.3954C787.636 39.758 786.905 39.9394 786.094 39.9394ZM786.094 38.9314C786.692 38.9314 787.225 38.798 787.694 38.5314C788.174 38.254 788.548 37.8647 788.814 37.3634C789.081 36.862 789.214 36.2914 789.214 35.6514C789.214 35.0114 789.081 34.4407 788.814 33.9394C788.548 33.438 788.174 33.054 787.694 32.7874C787.225 32.51 786.692 32.3714 786.094 32.3714C785.497 32.3714 784.958 32.51 784.478 32.7874C784.009 33.054 783.636 33.438 783.358 33.9394C783.092 34.4407 782.958 35.0114 782.958 35.6514C782.958 36.2914 783.092 36.862 783.358 37.3634C783.636 37.8647 784.009 38.254 784.478 38.5314C784.958 38.798 785.497 38.9314 786.094 38.9314ZM796.974 31.3794C798.03 31.3794 798.867 31.6887 799.486 32.3074C800.115 32.9154 800.43 33.806 800.43 34.9794V39.8594H799.294V35.0914C799.294 34.2167 799.075 33.55 798.638 33.0914C798.2 32.6327 797.576 32.4034 796.766 32.4034C795.859 32.4034 795.139 32.6754 794.606 33.2194C794.083 33.7527 793.822 34.494 793.822 35.4434V39.8594H792.686V31.4434H793.774V32.9954C794.083 32.4834 794.51 32.0887 795.054 31.8114C795.608 31.5234 796.248 31.3794 796.974 31.3794Z" fill="#929292"/>
</svg>
