<svg width="48" height="40" viewBox="0 0 48 40" fill="none" xmlns="http://www.w3.org/2000/svg">
<path opacity="0.3" d="M23.8809 0.566673L37.6448 6.26787L43.346 20.0318L37.6448 33.7957L23.8809 39.4969L10.117 33.7957L4.41577 20.0318L10.117 6.26787L23.8809 0.566673Z" fill="#E5E5E5"/>
<path d="M23.8664 20.0775L10.0818 6.29292L18.2617 6.52014L23.8664 0.612438V20.0775Z" fill="#55DFB4"/>
<path d="M23.8822 20.0787L4.3878 20.0787L10.3325 14.4553L10.1183 6.31481L23.8822 20.0787Z" fill="#92DBB1"/>
<path d="M23.8662 20.0775L37.6509 6.29292L29.471 6.52014L23.8662 0.612438V20.0775Z" fill="#5AD0AC"/>
<path d="M23.8505 20.0787L43.3449 20.0787L37.4001 14.4553L37.6144 6.31481L23.8505 20.0787Z" fill="#23C865"/>
<path d="M23.8821 20.0776L37.6667 33.8622L29.4869 33.635L23.8821 39.5427V20.0776Z" fill="#2AC670"/>
<path d="M23.8663 20.0764L43.3607 20.0764L37.416 25.6998L37.6302 33.8403L23.8663 20.0764Z" fill="#7AF5C4"/>
<path d="M23.8823 20.0776L10.0977 33.8622L18.2775 33.635L23.8823 39.5427V20.0776Z" fill="#23C865"/>
<path d="M23.8981 20.0764L4.40367 20.0764L10.3484 25.6998L10.1342 33.8403L23.8981 20.0764Z" fill="#23C865"/>
<path d="M23.8808 10.1858L30.8431 13.0697L33.727 20.032L30.8431 26.9942L23.8808 29.8781L16.9185 26.9942L14.0347 20.032L16.9185 13.0697L23.8808 10.1858Z" fill="#23C865" style="mix-blend-mode:hard-light"/>
<g opacity="0.3">
<path d="M23.8809 10.1859L18.2762 6.47469L16.9128 13.064L10.3235 14.4274L14.0347 20.0321L10.3235 25.7126L16.9128 27.0002L18.2762 33.6653L23.8809 29.8783L29.4856 33.6653L30.849 27.0002L37.5141 25.6368L33.7271 20.0321L37.3626 14.4274L30.849 13.064L29.4856 6.55043L23.8809 10.1859Z" fill="#ABFFFF" style="mix-blend-mode:hard-light"/>
</g>
</svg>
