<svg width="39" height="36" viewBox="0 0 39 36" fill="none" xmlns="http://www.w3.org/2000/svg">
<path d="M19.5022 8.41737L25.1686 12.4542L30.5103 16.4152L28.399 22.8648L26.3056 29.356L19.5022 29.499L12.6989 29.356L10.6411 22.8711L8.49414 16.4152L14.0257 12.4542L19.5022 8.41737Z" fill="#F8D635"/>
<path d="M19.5017 8.41713V0.266022L38.2493 13.8784L30.5057 16.4052L19.5017 8.41713Z" fill="#FADA39"/>
<path d="M19.5019 8.49944V0.348328L0.672852 13.9607L8.49792 16.406L19.5019 8.49944Z" fill="#F8D736"/>
<path d="M26.2673 29.3656L31.0574 35.8731L38.2495 13.8785L30.5059 16.4054L26.2673 29.3656Z" fill="#F2CA2B"/>
<path d="M12.7366 29.3656L7.84595 35.8864H31.0766L26.2675 29.3656H12.7366Z" fill="#D0AB31"/>
<path d="M12.7365 29.3654L7.84586 35.8862L0.754395 13.9598L8.49795 16.4051L12.7365 29.3654Z" fill="#E5B927"/>
<path fill-rule="evenodd" clip-rule="evenodd" d="M19.5001 8.18312L25.28 12.3009L30.7331 16.3445L28.5796 22.9233L28.5793 22.9241L26.4446 29.5433L19.502 29.6892L12.5587 29.5432L10.4607 22.9313L10.4598 22.9288L8.26953 16.3426L13.9139 12.3009L19.5001 8.18312ZM19.5039 8.65216L14.1361 12.6089L8.71828 16.4884L10.8219 22.8139L12.8385 29.1692L19.502 29.3093L26.1661 29.1692L28.2181 22.8068L28.2183 22.806L30.287 16.4865L25.0567 12.6081L19.5039 8.65216Z" fill="#FEE35B"/>
</svg>
