<svg width="41" height="41" viewBox="0 0 41 41" fill="none" xmlns="http://www.w3.org/2000/svg">
<path opacity="0.3" d="M20.3673 0L29.0731 5.05091L37.8002 10.0649L37.7789 20.1298L37.8002 30.1947L29.0731 35.2086L20.3673 40.2595L11.6615 35.2086L2.93443 30.1947L2.95575 20.1298L2.93443 10.0649L11.6615 5.05091L20.3673 0Z" fill="#D2D2D2"/>
<path d="M20.3674 20.2137V0.083889L26.4902 9.56166L37.8132 10.0649L20.3674 20.2137Z" fill="#D5D9DB"/>
<path d="M20.3674 20.1298L37.8132 30.1947L32.613 20.1298L37.8132 10.0649L20.3674 20.1298Z" fill="#B6D0E9"/>
<path d="M20.3674 20.1299V40.2597L26.4902 30.698L37.8132 30.1948L20.3674 20.1299Z" fill="#DDEBFF"/>
<path d="M20.3674 20.2137V0.083889L14.2446 9.56166L2.92163 10.0649L20.3674 20.2137Z" fill="#E7EAEF"/>
<path d="M20.3674 20.1298L2.92163 30.1947L8.12182 20.1298L2.92163 10.0649L20.3674 20.1298Z" fill="#BDC0CA"/>
<path d="M20.3674 20.1299V40.2597L14.2446 30.698L2.92163 30.1948L20.3674 20.1299Z" fill="#CAD3E8"/>
<g opacity="0.6">
<path d="M14.3024 9.56739L20.3888 15.4597L26.4752 9.56739L24.4154 17.7845L32.5615 20.1093L24.4154 22.4341L26.4752 30.6512L20.3888 24.7589L14.3024 30.6512L16.3621 22.4341L8.21603 20.1093L16.3621 17.7845L14.3024 9.56739Z" fill="#5C7FA7" style="mix-blend-mode:hard-light"/>
</g>
</svg>
