<svg width="112" height="101" viewBox="0 0 112 101" fill="none" xmlns="http://www.w3.org/2000/svg">
<rect x="12.0052" y="55.0017" width="87" height="21" rx="10.5" fill="white" stroke="#1E1E1E" stroke-width="2"/>
<rect x="25.0052" y="29.0017" width="62" height="66" rx="25" fill="white" stroke="#1E1E1E" stroke-width="2"/>
<path d="M87.7223 56.7965C87.7223 64.7613 85.5578 31.9315 56.108 34.418C27.726 32.9261 25.0375 66.7505 25.0375 58.7857C14.682 21.4882 46.8331 19.0017 55.5629 19.0017C64.2928 19.0017 99.1692 23.4774 87.7223 56.7965Z" fill="#626161"/>
<path d="M43.9892 36.5339C52.1988 31.6867 56.0837 34.5142 57 36.5339V29.09H53.335C35.1566 27.5666 26.7027 45.7667 24.748 55.0572C14.3394 57.4116 16.6239 65.271 19.0673 68.9064C21.2663 71.6186 26.5072 77.216 29.879 77.9084C33.2508 78.6009 34.3381 75.1963 34.4603 73.4074C32.6278 74.6192 31.8947 74.6192 29.879 72.1956C27.8632 69.772 25.8475 65.9635 29.879 63.5399C33.9105 61.1163 33.7272 57.8271 32.811 56.0959C31.8947 54.3648 30.612 53.6723 31.8947 51.0756C33.1775 48.4789 39.5912 49.1713 38.675 44.4972C37.942 40.7579 41.9124 37.6303 43.9892 36.5339Z" fill="#626161"/>
<path d="M70.0108 36.5339C61.8012 31.6867 57.9163 34.5142 57 36.5339V29.09H60.665C78.8434 27.5666 87.2973 45.7667 89.252 55.0572C99.6606 57.4116 97.3761 65.271 94.9327 68.9064C92.7337 71.6186 87.4928 77.216 84.121 77.9084C80.7492 78.6009 79.6619 75.1963 79.5397 73.4074C81.3722 74.6192 82.1053 74.6192 84.121 72.1956C86.1368 69.772 88.1525 65.9635 84.121 63.5399C80.0895 61.1163 80.2728 57.8271 81.189 56.0959C82.1053 54.3648 83.388 53.6723 82.1053 51.0756C80.8225 48.4789 74.4088 49.1713 75.325 44.4972C76.058 40.7579 72.0876 37.6303 70.0108 36.5339Z" fill="#626161"/>
<path d="M69.5052 16.9437C69.5052 18.6757 69.1093 19.543 68.5537 19.9868C67.9804 20.4447 67.0919 20.5749 65.8008 20.4647C64.8483 20.3834 63.7653 20.182 62.5481 19.9557C62.127 19.8774 61.6899 19.7961 61.2365 19.7158C59.4931 19.4068 57.5516 19.1213 55.5052 19.1213C53.4589 19.1213 51.5174 19.4068 49.774 19.7158C49.3206 19.7961 48.8835 19.8774 48.4624 19.9557C47.2452 20.182 46.1622 20.3834 45.2097 20.4647C43.9186 20.5749 43.0301 20.4447 42.4568 19.9868C41.9012 19.543 41.5052 18.6757 41.5052 16.9437C41.5052 10.1241 47.7183 4.50171 55.5052 4.50171C63.2922 4.50171 69.5052 10.1241 69.5052 16.9437Z" fill="#626161" stroke="#1E1E1E"/>
<path d="M33.0052 49.0017H54.5052V72.0017H59.5052" stroke="#1E1E1E" stroke-width="2" stroke-linecap="round"/>
<path d="M65.0052 49.0017H80.0052" stroke="#1E1E1E" stroke-width="2" stroke-linecap="round"/>
<ellipse cx="41.5052" cy="60.0017" rx="3.5" ry="5" fill="#1E1E1E"/>
<circle cx="43.0052" cy="59.0017" r="1" fill="white"/>
<ellipse cx="71.5052" cy="60.0017" rx="3.5" ry="5" fill="#1E1E1E"/>
<circle cx="73.0052" cy="59.0017" r="1" fill="white"/>
<path d="M51.0052 84.0017C52.5052 85.6684 56.5052 88.0017 60.5052 84.0017" stroke="#1E1E1E" stroke-width="2" stroke-linecap="round"/>
</svg>
