<svg width="111" height="100" viewBox="0 0 111 100" fill="none" xmlns="http://www.w3.org/2000/svg">
<rect x="12" y="53" width="87" height="21" rx="10.5" fill="white" stroke="#1E1E1E" stroke-width="2"/>
<rect x="25" y="27" width="62" height="66" rx="25" fill="white" stroke="#1E1E1E" stroke-width="2"/>
<path fill-rule="evenodd" clip-rule="evenodd" d="M30 51.9082V57.3332L25.4161 54.2773C25.1864 54.1241 24.8759 54.1862 24.7227 54.4159C24.5696 54.6457 24.6317 54.9561 24.8614 55.1093L30 58.535V65.0918C30 66.698 31.302 68 32.9082 68H50.0918C51.698 68 53 66.698 53 65.0918V59.5C53.1452 59.4999 53.2891 59.4369 53.3878 59.3156C54.767 57.6206 56.0613 57.3469 57.0869 57.5648C58.1696 57.7948 59.0877 58.6005 59.5966 59.2954C59.6945 59.429 59.8462 59.4999 60 59.5V65.0918C60 66.698 61.302 68 62.9082 68H80.0918C81.698 68 83 66.698 83 65.0918V58.5352L88.1387 55.1094C88.3684 54.9562 88.4305 54.6458 88.2773 54.416C88.1242 54.1863 87.8137 54.1242 87.584 54.2773L83 57.3333V51.9082C83 50.302 81.698 49 80.0918 49H62.9082C61.302 49 60 50.302 60 51.9082V58.2155C59.3658 57.5267 58.4264 56.827 57.2947 56.5866C55.9534 56.3017 54.4505 56.6836 53 58.2386V51.9082C53 50.302 51.698 49 50.0918 49H32.9082C31.302 49 30 50.302 30 51.9082ZM50.0918 50H32.9082C31.8543 50 31 50.8543 31 51.9082V58.0868C31.0614 58.2184 31.0643 58.374 31 58.5109V65.0918C31 66.1457 31.8543 67 32.9082 67H50.0918C51.1457 67 52 66.1457 52 65.0918V51.9082C52 50.8543 51.1457 50 50.0918 50ZM80.0918 50H62.9082C61.8543 50 61 50.8543 61 51.9082V65.0918C61 66.1457 61.8543 67 62.9082 67H80.0918C81.1457 67 82 66.1457 82 65.0918V51.9082C82 50.8543 81.1457 50 80.0918 50Z" fill="#1E1E1E"/>
<path fill-rule="evenodd" clip-rule="evenodd" d="M71.7248 40.3118C73.4841 40.4395 74.7523 40.5317 75.6215 40.4494C87.6375 47.2706 85.9895 53.2587 85.0025 56.8448C84.39 59.0706 84.0321 60.3711 87.3539 60.3711C96.1599 60.3711 99.9997 49.7406 99.9997 39.9429C99.9997 30.4873 88.7417 19.2547 80.0402 18.4817C78.5271 7.65737 66.8346 5 56.5835 5C45.2158 5 35.561 10.3645 32.093 17.8212C23.4907 17.6864 12.9774 18.7199 15.3367 39.4039C15.3367 49.2016 30.1716 78.6492 27.9825 59.8322C27.9825 46.9484 27.9825 41.0336 36.1882 32.9842C42.5257 37.554 53.2969 39.9362 62.6365 39.9362C66.5545 39.9362 69.5238 40.1519 71.7246 40.3117H71.7246L71.7248 40.3118Z" fill="#626161"/>
<path d="M33 47H54.5V70H59.5" stroke="#1E1E1E" stroke-width="2" stroke-linecap="round"/>
<path d="M65 47H80" stroke="#1E1E1E" stroke-width="2" stroke-linecap="round"/>
<ellipse cx="41.5" cy="58" rx="3.5" ry="5" fill="#1E1E1E"/>
<circle cx="43" cy="57" r="1" fill="white"/>
<ellipse cx="71.5" cy="58" rx="3.5" ry="5" fill="#1E1E1E"/>
<circle cx="73" cy="57" r="1" fill="white"/>
<path d="M51 82C52.5 83.6667 56.5 86 60.5 82" stroke="#1E1E1E" stroke-width="2" stroke-linecap="round"/>
</svg>
