<svg width="34" height="38" viewBox="0 0 34 38" fill="none" xmlns="http://www.w3.org/2000/svg">
<path fill-rule="evenodd" clip-rule="evenodd" d="M18.7999 3.03636C20.0658 3.17689 21.3239 3.54742 22.5001 3.9998C24.2001 4.6998 25.8001 5.7998 27.1001 7.0998C28.4001 8.39981 29.5001 9.9998 30.2001 11.6998C30.9001 13.3998 31.3001 15.2998 31.3001 17.0998V25.8999H33.6V26.6998H33.6001V29.4998H33.6V29.5999H29.8V29.4998H4.3V29.5999H0.5V25.8999H2.9001V17.0998C2.9001 15.1998 3.3001 13.3998 4.0001 11.6998C4.7001 9.9998 5.8001 8.39981 7.1001 7.0998C8.4001 5.7998 10.0001 4.6998 11.7001 3.9998C12.8142 3.57129 14.0018 3.21622 15.2 3.0605V0.799805H15.8001H18.4001H18.7999V3.03636ZM23.0999 32.1001C22.8999 35.3001 20.2999 37.9001 16.9999 37.9001C13.6999 37.9001 11.0999 35.3001 10.8999 32.1001H23.0999Z" fill="white"/>
</svg>
