<svg width="20" height="20" viewBox="0 0 20 20" fill="none" xmlns="http://www.w3.org/2000/svg">
<path d="M8.94659 20H0V0H15V3.72854H13.5134V1.37367H1.48665V18.6263H8.94659V20Z" fill="white"/>
<path d="M13.5 19C9.9135 19 7 16.0865 7 12.5C7 8.9135 9.9135 6 13.5 6C17.0865 6 20 8.9135 20 12.5C20 16.0865 17.0865 19 13.5 19ZM13.5 7.42267C10.6972 7.42267 8.42267 9.69725 8.42267 12.5C8.42267 15.3028 10.6972 17.5773 13.5 17.5773C16.3028 17.5773 18.5773 15.3028 18.5773 12.5C18.5773 9.69725 16.3028 7.42267 13.5 7.42267Z" fill="white"/>
<path d="M15.25 15L13 13.5185L13.1034 9L14.5431 9.03704L14.4569 12.6667L16 13.6852L15.25 15Z" fill="white"/>
</svg>
