<svg width="35" height="36" viewBox="0 0 35 36" fill="none" xmlns="http://www.w3.org/2000/svg">
<path fill-rule="evenodd" clip-rule="evenodd" d="M18.8798 4.14733C19.9784 4.26926 21.0702 4.59081 22.0909 4.9834C23.5661 5.59084 24.9546 6.54539 26.0827 7.67349C27.2108 8.80158 28.1653 10.19 28.7727 11.6652C29.3802 13.1404 29.7273 14.7892 29.7273 16.3512V23.9877H31.7232V27.1985H28.4257V27.1115H6.29752V27.1985H3V23.9877H5.08267V16.3512C5.08267 14.7024 5.42978 13.1404 6.03721 11.6652C6.64465 10.19 7.5992 8.80158 8.7273 7.67349C9.8554 6.54539 11.2438 5.59084 12.719 4.9834C13.6858 4.61157 14.7163 4.30348 15.7559 4.16834V2.20654H16.2769H18.5331H18.8798V4.14733ZM22.6111 29.3681C22.4375 32.145 20.1813 34.4012 17.3177 34.4012C14.4541 34.4012 12.1979 32.145 12.0243 29.3681H22.6111Z" fill="white"/>
<circle cx="25.5456" cy="6.54563" r="5.72727" fill="#E8503A"/>
</svg>
