<svg width="61" height="47" viewBox="0 0 61 47" fill="none" xmlns="http://www.w3.org/2000/svg">
<path fill-rule="evenodd" clip-rule="evenodd" d="M0.833863 1.85673C0.954286 1.1994 1.58477 0.76416 2.2421 0.884583L29.2491 5.8323V28.6948H34.0891C34.7573 28.6948 35.2991 29.2365 35.2991 29.9048C35.2991 30.573 34.7573 31.1148 34.0891 31.1148H26.8291V7.84923L1.80601 3.26497C1.14868 3.14454 0.71344 2.51405 0.833863 1.85673Z" fill="#1E1E1E"/>
<path fill-rule="evenodd" clip-rule="evenodd" d="M60.0863 1.86966C60.1996 2.52825 59.7576 3.15398 59.099 3.26728L40.114 6.5333C39.4554 6.6466 38.8296 6.20455 38.7163 5.54596C38.603 4.88737 39.0451 4.26164 39.7037 4.14834L58.6887 0.882317C59.3473 0.769019 59.973 1.21107 60.0863 1.86966Z" fill="#1E1E1E"/>
<path fill-rule="evenodd" clip-rule="evenodd" d="M18.9935 11.8598C18.9979 12.5253 18.4619 13.0683 17.7964 13.0727L7.42542 13.1408C6.75993 13.1452 6.2169 12.6092 6.21253 11.9437C6.20816 11.2783 6.7441 10.7352 7.40959 10.7309L17.7806 10.6628C18.4461 10.6584 18.9891 11.1943 18.9935 11.8598Z" fill="black"/>
<path fill-rule="evenodd" clip-rule="evenodd" d="M52.9574 11.8598C52.9617 12.5253 52.4258 13.0683 51.7603 13.0727L41.3893 13.1408C40.7238 13.1452 40.1808 12.6092 40.1764 11.9437C40.172 11.2783 40.708 10.7352 41.3735 10.7309L51.7445 10.6628C52.41 10.6584 52.953 11.1943 52.9574 11.8598Z" fill="black"/>
<path fill-rule="evenodd" clip-rule="evenodd" d="M19.2616 16.1043C19.2659 16.7698 18.73 17.3128 18.0645 17.3172L7.69348 17.3853C7.02799 17.3897 6.48497 16.8537 6.4806 16.1883C6.47623 15.5228 7.01217 14.9797 7.67766 14.9754L18.0487 14.9073C18.7142 14.9029 19.2572 15.4388 19.2616 16.1043Z" fill="black"/>
<path fill-rule="evenodd" clip-rule="evenodd" d="M53.2254 16.1043C53.2298 16.7698 52.6938 17.3128 52.0284 17.3172L41.6574 17.3853C40.9919 17.3897 40.4488 16.8537 40.4445 16.1883C40.4401 15.5228 40.976 14.9797 41.6415 14.9754L52.0125 14.9073C52.678 14.9029 53.2211 15.4388 53.2254 16.1043Z" fill="black"/>
<ellipse cx="12.7026" cy="14.0403" rx="2.54358" ry="1.94951" fill="black"/>
<ellipse cx="46.6665" cy="14.0403" rx="2.54358" ry="1.94951" fill="black"/>
<path fill-rule="evenodd" clip-rule="evenodd" d="M40.9234 42.8829C40.5593 43.4433 39.8099 43.6024 39.2496 43.2383C38.2829 42.6103 36.6297 41.9815 34.8969 42.1391C33.2468 42.2891 31.3791 43.1612 29.8534 45.8038C29.5192 46.3826 28.7792 46.5808 28.2005 46.2467C27.6217 45.9126 27.4235 45.1726 27.7576 44.5938C29.6542 41.3087 32.2007 39.9542 34.6778 39.729C37.0723 39.5113 39.2596 40.3589 40.568 41.209C41.1284 41.5731 41.2875 42.3226 40.9234 42.8829Z" fill="#1E1E1E"/>
</svg>
