<svg width="61" height="55" viewBox="0 0 61 55" fill="none" xmlns="http://www.w3.org/2000/svg">
<path fill-rule="evenodd" clip-rule="evenodd" d="M29.2489 1.31429V30.6993H34.0889C34.7572 30.6993 35.2989 31.241 35.2989 31.9093C35.2989 32.5776 34.7572 33.1193 34.0889 33.1193H26.8289V3.87627L2.09285 5.28732C1.42567 5.32538 0.853961 4.81538 0.815903 4.1482C0.777844 3.48102 1.28785 2.90931 1.95503 2.87125L29.2489 1.31429Z" fill="#1E1E1E"/>
<path fill-rule="evenodd" clip-rule="evenodd" d="M60.1001 4.17611C60.0467 4.84223 59.4633 5.33889 58.7972 5.28543L40.3071 3.80144C39.6409 3.74798 39.1443 3.16464 39.1977 2.49852C39.2512 1.8324 39.8345 1.33574 40.5007 1.3892L58.9908 2.87319C59.657 2.92665 60.1536 3.50999 60.1001 4.17611Z" fill="#1E1E1E"/>
<path d="M29.7578 53.5147C22.3624 53.5147 16.4078 48.923 16.4078 43.2258C16.4078 40.8449 17.4643 39.7395 19.6732 39.7395C20.7297 39.7395 21.9783 39.9946 23.4189 40.3347C25.2437 40.6748 27.4527 41.185 29.6617 41.185C31.9667 41.185 34.0797 40.7599 35.9045 40.3347C37.3451 40.0796 38.5937 39.7395 39.6502 39.7395C41.8592 39.7395 42.9156 40.9299 42.9156 43.2258C43.1077 48.923 37.057 53.5147 29.7578 53.5147Z" fill="white"/>
<path d="M39.7462 40.4197C41.2829 40.4197 42.2433 41.015 42.2433 43.2258C42.2433 48.4978 36.6728 52.7494 29.7577 52.7494C22.8426 52.7494 17.2721 48.4978 17.2721 43.2258C17.2721 41.1 18.2326 40.4197 19.7692 40.4197C22.0743 40.4197 25.7239 41.7802 29.8537 41.7802C33.8876 41.7802 37.5372 40.4197 39.7462 40.4197ZM39.7462 38.9742C38.5937 38.9742 37.2491 39.2293 35.8084 39.5694C33.9836 39.9095 31.8707 40.3347 29.7577 40.3347C27.5487 40.3347 25.5318 39.9095 23.707 39.5694C22.1703 39.2293 20.9218 38.9742 19.7692 38.9742C18.2326 38.9742 15.6394 39.4844 15.6394 43.2258C15.6394 49.3481 21.9782 54.28 29.8537 54.28C37.6332 54.28 44.0681 49.3481 44.0681 43.2258C43.876 39.4844 41.2829 38.9742 39.7462 38.9742Z" fill="black"/>
<path d="M16.9838 42.2905C16.9838 42.4605 18.0403 43.3108 18.2324 43.4809C18.8086 43.9911 19.3849 44.4163 20.0572 44.7564C20.5374 45.0115 21.1137 45.2666 21.5939 45.4367C21.882 45.5217 22.3622 45.6918 22.6503 45.8618C20.6334 46.0319 18.5205 45.6918 16.7917 44.8414C16.4076 44.5863 16.9838 42.2905 16.9838 42.2905Z" fill="black"/>
<path d="M42.4355 42.2905C42.4355 42.4605 41.379 43.3108 41.1869 43.4809C40.6107 43.9911 40.0344 44.4163 39.3621 44.7564C38.8819 45.0115 38.3057 45.2666 37.8254 45.4367C37.5373 45.5217 37.0571 45.6918 36.769 45.8618C38.7859 46.0319 40.8988 45.6918 42.6276 44.8414C43.0118 44.5863 42.4355 42.2905 42.4355 42.2905Z" fill="black"/>
<path fill-rule="evenodd" clip-rule="evenodd" d="M48.2975 14.4766C45.6942 14.4766 44.1599 16.0614 44.1599 17.3893C44.1599 18.0741 43.6048 18.6293 42.9199 18.6293C42.2351 18.6293 41.6799 18.0741 41.6799 17.3893C41.6799 14.135 44.9572 11.9966 48.2975 11.9966C51.6378 11.9966 54.9151 14.135 54.9151 17.3893C54.9151 18.0741 54.3599 18.6293 53.6751 18.6293C52.9902 18.6293 52.4351 18.0741 52.4351 17.3893C52.4351 16.0614 50.9008 14.4766 48.2975 14.4766Z" fill="black"/>
<path fill-rule="evenodd" clip-rule="evenodd" d="M13.8627 14.4766C11.6515 14.4766 10.2168 15.9637 10.2168 17.3893C10.2168 18.0741 9.66165 18.6293 8.97682 18.6293C8.29198 18.6293 7.73682 18.0741 7.73682 17.3893C7.73682 14.2326 10.6737 11.9966 13.8627 11.9966C17.0517 11.9966 19.9885 14.2326 19.9885 17.3893C19.9885 18.0741 19.4334 18.6293 18.7485 18.6293C18.0637 18.6293 17.5085 18.0741 17.5085 17.3893C17.5085 15.9637 16.0739 14.4766 13.8627 14.4766Z" fill="black"/>
</svg>
