<svg width="60" height="46" viewBox="0 0 60 46" fill="none" xmlns="http://www.w3.org/2000/svg">
<path fill-rule="evenodd" clip-rule="evenodd" d="M0.53656 5.43786C0.53656 4.76959 1.0783 4.22786 1.74656 4.22786H28.9716V32.0579H33.8116C34.4798 32.0579 35.0216 32.5996 35.0216 33.2679C35.0216 33.9361 34.4798 34.4779 33.8116 34.4779H26.5516V6.64786H1.74656C1.0783 6.64786 0.53656 6.10612 0.53656 5.43786Z" fill="#1E1E1E"/>
<path fill-rule="evenodd" clip-rule="evenodd" d="M37.432 2.01061C37.5387 1.35092 38.16 0.902657 38.8197 1.00938L58.8099 4.24343C59.4696 4.35015 59.9178 4.97145 59.8111 5.63114C59.7044 6.29083 59.0831 6.73909 58.4234 6.63237L38.4332 3.39832C37.7735 3.2916 37.3253 2.6703 37.432 2.01061Z" fill="#1E1E1E"/>
<ellipse cx="13.5441" cy="15.5379" rx="4.235" ry="6.05" fill="#1E1E1E"/>
<circle cx="15.3592" cy="14.3279" r="1.21" fill="white"/>
<ellipse cx="46.4235" cy="15.5379" rx="4.235" ry="6.05" fill="#1E1E1E"/>
<circle cx="48.2386" cy="14.3278" r="1.21" fill="white"/>
<path d="M17.3254 12.7359C17.3254 11.6719 16.9031 10.6515 16.1514 9.89907C15.3997 9.14669 14.3803 8.724 13.3172 8.724C12.2542 8.724 11.2347 9.14668 10.483 9.89907C9.73137 10.6515 9.30908 11.6719 9.30908 12.7359L13.3172 12.7359H17.3254Z" fill="white"/>
<path d="M50.4318 12.7359C50.4318 11.6719 50.0095 10.6515 49.2579 9.89907C48.5062 9.14669 47.4867 8.724 46.4237 8.724C45.3606 8.724 44.3412 9.14668 43.5895 9.89907C42.8378 10.6515 42.4155 11.6719 42.4155 12.7359L46.4237 12.7359H50.4318Z" fill="white"/>
<path fill-rule="evenodd" clip-rule="evenodd" d="M47.5852 41.0025C47.7617 41.6442 47.3845 42.3074 46.7428 42.4839L36.7428 45.2339C36.1012 45.4103 35.4379 45.0332 35.2615 44.3915C35.085 43.7499 35.4621 43.0866 36.1038 42.9102L46.1038 40.1602C46.7455 39.9837 47.4087 40.3608 47.5852 41.0025Z" fill="black"/>
</svg>
