<svg width="60" height="53" viewBox="0 0 60 53" fill="none" xmlns="http://www.w3.org/2000/svg">
<path fill-rule="evenodd" clip-rule="evenodd" d="M29.0366 1.70509V32.1401H33.8766C34.5449 32.1401 35.0866 32.6819 35.0866 33.3501C35.0866 34.0184 34.5449 34.5601 33.8766 34.5601H26.6166V4.36717L1.92666 6.72466C1.26142 6.78818 0.670645 6.30039 0.607125 5.63515C0.543606 4.96991 1.0314 4.37914 1.69663 4.31562L29.0366 1.70509Z" fill="#1E1E1E"/>
<path fill-rule="evenodd" clip-rule="evenodd" d="M37.4995 1.82838C37.6142 1.17004 38.2409 0.729364 38.8993 0.844106L58.8894 4.32818C59.5478 4.44292 59.9884 5.06963 59.8737 5.72797C59.759 6.38631 59.1322 6.82698 58.4739 6.71224L38.4838 3.22817C37.8254 3.11342 37.3847 2.48672 37.4995 1.82838Z" fill="#1E1E1E"/>
<path d="M21.8175 12.8643C22.7353 14.3175 22.5824 16.0767 21.5115 16.6886C20.4407 17.3005 18.911 16.6121 17.9932 15.0824C17.0753 13.6291 17.2283 11.8699 18.2991 11.2581C19.3699 10.6462 20.9761 11.3345 21.8175 12.8643Z" fill="white"/>
<path d="M54.2291 12.8643C55.147 14.3175 54.994 16.0767 53.9232 16.6886C52.8524 17.3005 51.3226 16.6121 50.4048 15.0824C49.487 13.6291 49.6399 11.8699 50.7107 11.2581C51.7815 10.6462 53.3878 11.3345 54.2291 12.8643Z" fill="white"/>
<path d="M16.5396 14.7C16.7691 15.2354 16.6926 15.8473 16.3102 16.0003C15.9277 16.1532 15.4688 15.8473 15.1629 15.3119C14.9334 14.7765 15.0099 14.1646 15.3923 14.0116C15.7748 13.8586 16.3102 14.1646 16.5396 14.7Z" fill="white"/>
<path d="M48.9513 14.7C49.1807 15.2354 49.1042 15.8473 48.7218 16.0003C48.3394 16.1532 47.8805 15.8473 47.5745 15.3119C47.345 14.7765 47.4215 14.1646 47.804 14.0116C48.1864 13.8586 48.7218 14.1646 48.9513 14.7Z" fill="white"/>
<path fill-rule="evenodd" clip-rule="evenodd" d="M20.5556 42.5197C20.995 44.3175 21.9197 45.9777 23.25 47.308C25.1618 49.2198 27.7547 50.2938 30.4583 50.2938C33.1619 50.2938 35.7549 49.2198 37.6666 47.308C38.9969 45.9777 39.9216 44.3175 40.361 42.5197L20.5556 42.5197ZM18.0785 42.5197C18.5564 44.9643 19.7519 47.2323 21.5388 49.0192C23.9044 51.3848 27.1129 52.7138 30.4583 52.7138C33.8038 52.7138 37.0122 51.3848 39.3778 49.0192C41.1648 47.2323 42.3602 44.9644 42.8381 42.5197C42.9929 41.7282 43.0724 40.918 43.0724 40.0997L17.8442 40.0997C17.8442 40.918 17.9238 41.7281 18.0785 42.5197Z" fill="black"/>
<path d="M21.0621 17.9785L14.0386 24.2877L7.14266 18.1646C7.1421 18.1641 7.14154 18.1636 7.14099 18.1631C5.74942 16.9139 5.59552 14.7459 6.84525 13.2891C7.54641 12.5446 8.4673 12.1259 9.40163 12.1259C10.2751 12.1259 11.0402 12.4084 11.734 13.0011L13.3468 14.4278L14.0138 15.0179L14.6769 14.4234L16.4826 12.8045L16.488 12.7996L16.4934 12.7947C17.0986 12.236 17.9066 11.9391 18.8039 11.9391C19.7648 11.9391 20.7324 12.3778 21.3483 13.0884L21.3595 13.1014L21.3712 13.1139C21.9755 13.7647 22.2759 14.6734 22.2262 15.6188C22.1766 16.5601 21.7851 17.398 21.1057 17.9415L21.0834 17.9594L21.0621 17.9785Z" stroke="black" stroke-width="2"/>
<mask id="path-9-inside-1_5580_3860" fill="white">
<path d="M18.7415 11.4995C19.8 11.4995 20.9208 11.9354 21.668 12.8071C23.1001 14.426 22.9756 16.9167 21.3567 18.3488L14.0093 24.9491L6.78635 18.4733C5.16742 17.0412 5.04289 14.5506 6.47502 12.9316C7.22222 12.0599 8.34301 11.624 9.40154 11.624C10.3355 11.624 11.2695 11.9354 12.0167 12.6203L13.947 14.3638L16.064 12.4958C16.8735 11.8108 17.8075 11.4995 18.7415 11.4995ZM18.7415 10.441C17.4962 10.441 16.3754 10.8768 15.4414 11.6863L14.0093 12.9939L12.7639 11.8731C11.8299 11.0636 10.7091 10.6278 9.46381 10.6278C8.03168 10.6278 6.72408 11.2504 5.79009 12.309C3.98436 14.3638 4.17116 17.4771 6.16369 19.2828L13.3866 25.6963C13.5734 25.8831 13.8225 25.9453 14.0715 25.9453C14.3206 25.9453 14.5697 25.8831 14.7565 25.6963L22.1039 19.096C23.1002 18.2243 23.6605 16.979 23.7228 15.6714C23.7851 14.3638 23.3492 13.0562 22.4775 12.1222C21.4812 11.0636 20.1114 10.441 18.7415 10.441Z"/>
</mask>
<path d="M21.668 12.8071L20.1495 14.1087L20.1597 14.1205L20.17 14.1323L21.668 12.8071ZM21.3567 18.3488L20.0315 16.8508L20.0258 16.8559L20.0202 16.861L21.3567 18.3488ZM14.0093 24.9491L12.6742 26.4382L14.0106 27.6363L15.3458 26.4369L14.0093 24.9491ZM6.78635 18.4733L8.12147 16.9842L8.1115 16.9754L6.78635 18.4733ZM6.47502 12.9316L7.97301 14.2568L7.98336 14.2451L7.99353 14.2332L6.47502 12.9316ZM12.0167 12.6203L10.6653 14.0946L10.6707 14.0996L10.6762 14.1045L12.0167 12.6203ZM13.947 14.3638L12.6064 15.848L13.9314 17.0447L15.2702 15.8634L13.947 14.3638ZM16.064 12.4958L14.7722 10.969L14.7563 10.9824L14.7408 10.9961L16.064 12.4958ZM15.4414 11.6863L14.1315 10.1749L14.112 10.1919L14.0928 10.2093L15.4414 11.6863ZM14.0093 12.9939L12.6713 14.4805L14.0189 15.6933L15.3578 14.4709L14.0093 12.9939ZM12.7639 11.8731L14.1019 10.3865L14.0879 10.374L14.0738 10.3617L12.7639 11.8731ZM5.79009 12.309L4.29041 10.9857L4.28776 10.9887L5.79009 12.309ZM6.16369 19.2828L4.82065 20.7648L4.82817 20.7716L4.83576 20.7783L6.16369 19.2828ZM13.3866 25.6963L14.8008 24.282L14.7589 24.2401L14.7145 24.2007L13.3866 25.6963ZM14.7565 25.6963L13.4199 24.2084L13.3801 24.2442L13.3422 24.282L14.7565 25.6963ZM22.1039 19.096L20.7869 17.5909L20.7771 17.5995L20.7674 17.6082L22.1039 19.096ZM22.4775 12.1222L23.9396 10.7575L23.9339 10.7514L22.4775 12.1222ZM18.7415 13.4995C19.2895 13.4995 19.8275 13.733 20.1495 14.1087L23.1865 11.5055C22.0141 10.1377 20.3106 9.49951 18.7415 9.49951V13.4995ZM20.17 14.1323C20.8877 14.9435 20.8036 16.1678 20.0315 16.8508L22.6818 19.8468C25.1476 17.6655 25.3126 13.9085 23.166 11.482L20.17 14.1323ZM20.0202 16.861L12.6727 23.4612L15.3458 26.4369L22.6932 19.8367L20.0202 16.861ZM15.3443 23.4599L8.12144 16.9842L5.45126 19.9625L12.6742 26.4382L15.3443 23.4599ZM8.1115 16.9754C7.33942 16.2924 7.25535 15.0681 7.97301 14.2568L4.97703 11.6065C2.83044 14.0331 2.99543 17.7901 5.4612 19.9713L8.1115 16.9754ZM7.99353 14.2332C8.31551 13.8576 8.85354 13.624 9.40154 13.624V9.62404C7.83248 9.62404 6.12892 10.2622 4.95651 11.6301L7.99353 14.2332ZM9.40154 13.624C9.88779 13.624 10.324 13.7818 10.6653 14.0946L13.3682 11.146C12.2151 10.089 10.7833 9.62404 9.40154 9.62404V13.624ZM10.6762 14.1045L12.6064 15.848L15.2876 12.8796L13.3573 11.1361L10.6762 14.1045ZM15.2702 15.8634L17.3873 13.9954L14.7408 10.9961L12.6237 12.8641L15.2702 15.8634ZM17.3559 14.0225C17.7962 13.65 18.2699 13.4995 18.7415 13.4995V9.49951C17.3451 9.49951 15.9508 9.97168 14.7722 10.969L17.3559 14.0225ZM18.7415 8.44098C16.9971 8.44098 15.4154 9.06226 14.1315 10.1749L16.7512 13.1977C17.3354 12.6914 17.9953 12.441 18.7415 12.441V8.44098ZM14.0928 10.2093L12.6607 11.5169L15.3578 14.4709L16.7899 13.1633L14.0928 10.2093ZM15.3472 11.5073L14.1019 10.3865L11.426 13.3597L12.6713 14.4805L15.3472 11.5073ZM14.0738 10.3617C12.7899 9.24906 11.2082 8.62778 9.46381 8.62778V12.6278C10.21 12.6278 10.8699 12.8782 11.4541 13.3845L14.0738 10.3617ZM9.46381 8.62778C7.43095 8.62778 5.58589 9.51751 4.29041 10.9857L7.28976 13.6322C7.86227 12.9834 8.63241 12.6278 9.46381 12.6278V8.62778ZM4.28776 10.9887C1.76393 13.8607 2.01492 18.2221 4.82065 20.7648L7.50673 17.8008C6.3274 16.7321 6.20479 14.8668 7.29241 13.6292L4.28776 10.9887ZM4.83576 20.7783L12.0587 27.1918L14.7145 24.2007L7.49161 17.7873L4.83576 20.7783ZM11.9724 27.1105C12.6665 27.8046 13.5142 27.9453 14.0715 27.9453V23.9453C14.1307 23.9453 14.4802 23.9615 14.8008 24.282L11.9724 27.1105ZM14.0715 27.9453C14.6288 27.9453 15.4765 27.8046 16.1707 27.1105L13.3422 24.282C13.6628 23.9615 14.0123 23.9453 14.0715 23.9453V27.9453ZM16.093 27.1841L23.4404 20.5839L20.7674 17.6082L13.4199 24.2084L16.093 27.1841ZM23.4209 20.6012C24.8545 19.3468 25.6343 17.5784 25.7205 15.7665L21.7251 15.5762C21.6868 16.3795 21.3458 17.1018 20.7869 17.5909L23.4209 20.6012ZM25.7205 15.7665C25.8059 13.9744 25.2151 12.1241 23.9396 10.7575L21.0154 13.4868C21.4834 13.9882 21.7643 14.7531 21.7251 15.5762L25.7205 15.7665ZM23.9339 10.7514C22.5922 9.32586 20.7085 8.44098 18.7415 8.44098V12.441C19.5142 12.441 20.3703 12.8014 21.0211 13.4929L23.9339 10.7514Z" fill="black" mask="url(#path-9-inside-1_5580_3860)"/>
<path d="M53.3162 17.9785L46.2926 24.2877L39.4019 18.1692C38.6968 17.5113 38.2799 16.6896 38.2334 15.8056C38.185 14.886 38.4681 14.0241 39.0992 13.2891C39.8004 12.5446 40.7213 12.1259 41.6557 12.1259C42.5291 12.1259 43.2942 12.4084 43.9881 13.0011L45.6008 14.4278L46.2678 15.0179L46.9309 14.4234L48.7367 12.8044L48.7421 12.7996L48.7474 12.7947C49.3526 12.236 50.1606 11.9391 51.0579 11.9391C52.0188 11.9391 52.9864 12.3777 53.6023 13.0884L53.6136 13.1014L53.6252 13.1139C54.2295 13.7647 54.53 14.6734 54.4802 15.6188C54.4307 16.5601 54.0391 17.398 53.3597 17.9415L53.3374 17.9594L53.3162 17.9785Z" stroke="black" stroke-width="2"/>
<mask id="path-12-inside-2_5580_3860" fill="white">
<path d="M51.0579 11.4995C52.1165 11.4995 53.2373 11.9354 53.9845 12.8071C55.4166 14.426 55.2921 16.9167 53.6731 18.3488L46.3257 24.949L39.1028 18.5356C37.4839 17.1035 37.3593 14.6128 38.7915 12.9939C39.5386 12.1222 40.6595 11.6863 41.718 11.6863C42.652 11.6863 43.586 11.9976 44.3332 12.6826L46.2634 14.426L48.3805 12.558C49.1899 11.8108 50.1239 11.4995 51.0579 11.4995ZM51.0579 10.441C49.8126 10.441 48.6918 10.8768 47.7578 11.6863L46.3257 12.9939L45.0804 11.8731C44.1464 11.0636 43.0256 10.6278 41.7802 10.6278C40.3481 10.6278 39.0405 11.2504 38.1065 12.309C37.2348 13.3052 36.7989 14.5505 36.8612 15.8581C36.9235 17.1657 37.5461 18.4111 38.4801 19.2828L45.703 25.6962C45.8898 25.883 46.1389 25.9453 46.388 25.9453C46.637 25.9453 46.8861 25.883 47.0729 25.6962L54.4203 19.096C55.4166 18.2243 55.977 16.9789 56.0393 15.6713C56.1015 14.3637 55.6657 13.0562 54.7939 12.1222C53.7977 11.0636 52.4278 10.441 51.0579 10.441Z"/>
</mask>
<path d="M53.9845 12.8071L52.4659 14.1087L52.4761 14.1205L52.4865 14.1322L53.9845 12.8071ZM53.6731 18.3488L52.348 16.8508L52.3423 16.8559L52.3366 16.861L53.6731 18.3488ZM46.3257 24.949L44.9978 26.4446L46.3334 27.6305L47.6622 26.4369L46.3257 24.949ZM39.1028 18.5356L40.4307 17.0401L40.4279 17.0376L39.1028 18.5356ZM38.7915 12.9939L40.2894 14.319L40.2998 14.3073L40.31 14.2955L38.7915 12.9939ZM44.3332 12.6826L42.9817 14.1569L42.9871 14.1618L42.9926 14.1668L44.3332 12.6826ZM46.2634 14.426L44.9228 15.9102L46.2478 17.107L47.5867 15.9257L46.2634 14.426ZM48.3805 12.558L49.7037 14.0577L49.7206 14.0429L49.737 14.0276L48.3805 12.558ZM47.7578 11.6863L46.448 10.1749L46.4284 10.1919L46.4093 10.2093L47.7578 11.6863ZM46.3257 12.9939L44.9878 14.4805L46.3354 15.6933L47.6742 14.4709L46.3257 12.9939ZM45.0804 11.8731L46.4183 10.3865L46.4044 10.374L46.3902 10.3617L45.0804 11.8731ZM38.1065 12.309L36.6068 10.9857L36.6014 10.9919L38.1065 12.309ZM38.4801 19.2828L37.1155 20.7449L37.1336 20.7618L37.1522 20.7783L38.4801 19.2828ZM45.703 25.6962L47.1172 24.282L47.0753 24.2401L47.031 24.2007L45.703 25.6962ZM47.0729 25.6962L45.7364 24.2084L45.6965 24.2442L45.6587 24.282L47.0729 25.6962ZM54.4203 19.096L53.1033 17.5908L53.0935 17.5994L53.0838 17.6082L54.4203 19.096ZM54.7939 12.1222L56.2561 10.7575L56.2503 10.7514L54.7939 12.1222ZM51.0579 13.4995C51.6059 13.4995 52.144 13.733 52.4659 14.1087L55.503 11.5055C54.3306 10.1377 52.627 9.49949 51.0579 9.49949V13.4995ZM52.4865 14.1322C53.2041 14.9435 53.1201 16.1678 52.348 16.8508L54.9983 19.8468C57.4641 17.6655 57.629 13.9085 55.4825 11.4819L52.4865 14.1322ZM52.3366 16.861L44.9892 23.4612L47.6622 26.4369L55.0097 19.8366L52.3366 16.861ZM47.6536 23.4535L40.4307 17.0401L37.7749 20.0311L44.9978 26.4446L47.6536 23.4535ZM40.4279 17.0376C39.6559 16.3546 39.5718 15.1303 40.2894 14.319L37.2935 11.6687C35.1469 14.0953 35.3119 17.8523 37.7776 20.0336L40.4279 17.0376ZM40.31 14.2955C40.6319 13.9198 41.17 13.6863 41.718 13.6863V9.68629C40.1489 9.68629 38.4454 10.3245 37.2729 11.6923L40.31 14.2955ZM41.718 13.6863C42.2042 13.6863 42.6404 13.844 42.9817 14.1569L45.6846 11.2082C44.5315 10.1512 43.0997 9.68629 41.718 9.68629V13.6863ZM42.9926 14.1668L44.9228 15.9102L47.604 12.9418L45.6737 11.1984L42.9926 14.1668ZM47.5867 15.9257L49.7037 14.0577L47.0572 11.0583L44.9402 12.9263L47.5867 15.9257ZM49.737 14.0276C50.156 13.6409 50.5972 13.4995 51.0579 13.4995V9.49949C49.6507 9.49949 48.2239 9.98071 47.0239 11.0884L49.737 14.0276ZM51.0579 8.44096C49.3135 8.44096 47.7318 9.06224 46.448 10.1749L49.0677 13.1977C49.6518 12.6914 50.3117 12.441 51.0579 12.441V8.44096ZM46.4093 10.2093L44.9772 11.5169L47.6742 14.4709L49.1064 13.1633L46.4093 10.2093ZM47.6636 11.5073L46.4183 10.3865L43.7424 13.3597L44.9878 14.4805L47.6636 11.5073ZM46.3902 10.3617C45.1064 9.24904 43.5247 8.62776 41.7802 8.62776V12.6278C42.5265 12.6278 43.1864 12.8782 43.7705 13.3845L46.3902 10.3617ZM41.7802 8.62776C39.7474 8.62776 37.9023 9.5175 36.6069 10.9857L39.6062 13.6322C40.1787 12.9834 40.9489 12.6278 41.7802 12.6278V8.62776ZM36.6014 10.9919C35.3921 12.374 34.7764 14.1243 34.8635 15.9533L38.8589 15.763C38.8215 14.9768 39.0775 14.2365 39.6117 13.626L36.6014 10.9919ZM34.8635 15.9533C34.9524 17.8206 35.8299 19.545 37.1155 20.7449L39.8448 17.8207C39.2624 17.2771 38.8945 16.5109 38.8589 15.763L34.8635 15.9533ZM37.1522 20.7783L44.3751 27.1918L47.031 24.2007L39.808 17.7873L37.1522 20.7783ZM44.2888 27.1105C44.983 27.8046 45.8306 27.9453 46.388 27.9453V23.9453C46.4472 23.9453 46.7967 23.9614 47.1172 24.282L44.2888 27.1105ZM46.388 27.9453C46.9453 27.9453 47.7929 27.8046 48.4871 27.1105L45.6587 24.282C45.9792 23.9615 46.3288 23.9453 46.388 23.9453V27.9453ZM48.4094 27.1841L55.7569 20.5838L53.0838 17.6082L45.7364 24.2084L48.4094 27.1841ZM55.7373 20.6011C57.1709 19.3468 57.9507 17.5784 58.037 15.7665L54.0415 15.5762C54.0033 16.3795 53.6622 17.1018 53.1033 17.5908L55.7373 20.6011ZM58.037 15.7665C58.1223 13.9744 57.5315 12.1241 56.256 10.7575L53.3318 13.4868C53.7998 13.9882 54.0807 14.7531 54.0415 15.5762L58.037 15.7665ZM56.2503 10.7514C54.9086 9.32584 53.0249 8.44096 51.0579 8.44096V12.441C51.8307 12.441 52.6867 12.8014 53.3375 13.4929L56.2503 10.7514Z" fill="black" mask="url(#path-12-inside-2_5580_3860)"/>
</svg>
