<svg width="60" height="49" viewBox="0 0 60 49" fill="none" xmlns="http://www.w3.org/2000/svg">
<path fill-rule="evenodd" clip-rule="evenodd" d="M0.630676 1.9157C0.630676 1.24898 1.17116 0.708496 1.83788 0.708496H29V28.4743H33.8289C34.4956 28.4743 35.0361 29.0147 35.0361 29.6815C35.0361 30.3482 34.4956 30.8887 33.8289 30.8887H26.5856V3.12291H1.83788C1.17116 3.12291 0.630676 2.58243 0.630676 1.9157Z" fill="#1E1E1E"/>
<path fill-rule="evenodd" clip-rule="evenodd" d="M39.2613 1.9157C39.2613 1.24898 39.8018 0.708496 40.4685 0.708496H58.5766C59.2433 0.708496 59.7838 1.24898 59.7838 1.9157C59.7838 2.58243 59.2433 3.12291 58.5766 3.12291H40.4685C39.8018 3.12291 39.2613 2.58243 39.2613 1.9157Z" fill="#1E1E1E"/>
<ellipse cx="12.0991" cy="15.195" rx="4.22523" ry="6.03604" fill="#1E1E1E"/>
<circle cx="13.9099" cy="13.9879" r="1.20721" fill="white"/>
<ellipse cx="48.3153" cy="15.195" rx="4.22523" ry="6.03604" fill="#1E1E1E"/>
<circle cx="50.1261" cy="13.9879" r="1.20721" fill="white"/>
<path fill-rule="evenodd" clip-rule="evenodd" d="M23.7601 43.2707C24.2556 42.8246 25.0189 42.8648 25.4649 43.3604C26.2343 44.2153 27.6652 45.2481 29.3757 45.5437C31.0047 45.8253 33.0297 45.4671 35.1825 43.3143C35.6539 42.8429 36.4183 42.8429 36.8897 43.3143C37.3612 43.7858 37.3612 44.5502 36.8897 45.0216C34.2136 47.6977 31.4099 48.3455 28.9645 47.9229C26.6007 47.5143 24.7117 46.1327 23.6703 44.9756C23.2243 44.48 23.2645 43.7167 23.7601 43.2707Z" fill="#1E1E1E"/>
</svg>
