<svg width="61" height="52" viewBox="0 0 61 52" fill="none" xmlns="http://www.w3.org/2000/svg">
<path fill-rule="evenodd" clip-rule="evenodd" d="M0.882446 1.99999C0.882446 1.33327 1.42293 0.792786 2.08965 0.792786H29.2518V28.5586H34.0806C34.7474 28.5586 35.2878 29.099 35.2878 29.7658C35.2878 30.4325 34.7474 30.973 34.0806 30.973H26.8374V3.2072H2.08965C1.42293 3.2072 0.882446 2.66671 0.882446 1.99999Z" fill="#1E1E1E"/>
<path fill-rule="evenodd" clip-rule="evenodd" d="M39.5131 1.99999C39.5131 1.33327 40.0535 0.792786 40.7203 0.792786H58.8284C59.4951 0.792786 60.0356 1.33327 60.0356 1.99999C60.0356 2.66671 59.4951 3.2072 58.8284 3.2072H40.7203C40.0535 3.2072 39.5131 2.66671 39.5131 1.99999Z" fill="#1E1E1E"/>
<path d="M16.5652 18.229C16.5652 19.213 16.2052 20.059 15.4852 20.767C14.7652 21.463 13.7272 21.895 12.3712 22.063V24.079H10.5712V22.117C9.68323 22.069 8.83723 21.913 8.03323 21.649C7.22923 21.385 6.58123 21.061 6.08923 20.677L7.07923 18.481C7.53523 18.817 8.06923 19.099 8.68123 19.327C9.29323 19.555 9.92323 19.699 10.5712 19.759V16.753C9.71923 16.549 8.99923 16.321 8.41123 16.069C7.82323 15.817 7.33123 15.451 6.93523 14.971C6.53923 14.479 6.34123 13.831 6.34123 13.027C6.34123 12.031 6.70123 11.179 7.42123 10.471C8.15323 9.75095 9.20323 9.31295 10.5712 9.15695V7.15895H12.3712V9.12095C13.8472 9.24095 15.0652 9.60695 16.0252 10.219L15.1252 12.433C14.2252 11.917 13.3072 11.605 12.3712 11.497V14.557C13.2112 14.749 13.9192 14.971 14.4952 15.223C15.0832 15.463 15.5752 15.829 15.9712 16.321C16.3672 16.801 16.5652 17.437 16.5652 18.229ZM9.23923 12.883C9.23923 13.183 9.35323 13.429 9.58123 13.621C9.80923 13.813 10.1392 13.975 10.5712 14.107V11.551C10.1152 11.659 9.77923 11.833 9.56323 12.073C9.34723 12.301 9.23923 12.571 9.23923 12.883ZM12.3712 19.687C12.8032 19.591 13.1272 19.435 13.3432 19.219C13.5592 19.003 13.6672 18.745 13.6672 18.445C13.6672 18.145 13.5532 17.899 13.3252 17.707C13.1092 17.515 12.7912 17.347 12.3712 17.203V19.687Z" fill="#23C865"/>
<path d="M55.0042 18.229C55.0042 19.213 54.6442 20.059 53.9242 20.767C53.2042 21.463 52.1662 21.895 50.8102 22.063V24.079H49.0102V22.117C48.1222 22.069 47.2762 21.913 46.4722 21.649C45.6682 21.385 45.0202 21.061 44.5282 20.677L45.5182 18.481C45.9742 18.817 46.5082 19.099 47.1202 19.327C47.7322 19.555 48.3622 19.699 49.0102 19.759V16.753C48.1582 16.549 47.4382 16.321 46.8502 16.069C46.2622 15.817 45.7702 15.451 45.3742 14.971C44.9782 14.479 44.7802 13.831 44.7802 13.027C44.7802 12.031 45.1402 11.179 45.8602 10.471C46.5922 9.75095 47.6422 9.31295 49.0102 9.15695V7.15895H50.8102V9.12095C52.2862 9.24095 53.5042 9.60695 54.4642 10.219L53.5642 12.433C52.6642 11.917 51.7462 11.605 50.8102 11.497V14.557C51.6502 14.749 52.3582 14.971 52.9342 15.223C53.5222 15.463 54.0142 15.829 54.4102 16.321C54.8062 16.801 55.0042 17.437 55.0042 18.229ZM47.6782 12.883C47.6782 13.183 47.7922 13.429 48.0202 13.621C48.2482 13.813 48.5782 13.975 49.0102 14.107V11.551C48.5542 11.659 48.2182 11.833 48.0022 12.073C47.7862 12.301 47.6782 12.571 47.6782 12.883ZM50.8102 19.687C51.2422 19.591 51.5662 19.435 51.7822 19.219C51.9982 19.003 52.1062 18.745 52.1062 18.445C52.1062 18.145 51.9922 17.899 51.7642 17.707C51.5482 17.515 51.2302 17.347 50.8102 17.203V19.687Z" fill="#23C865"/>
<path d="M30.37 50.6666C22.9747 50.6666 17.02 46.0749 17.02 40.3777C17.02 37.9968 18.0765 36.8914 20.2855 36.8914C21.342 36.8914 22.5905 37.1465 24.0312 37.4866C25.856 37.8268 28.065 38.3369 30.2739 38.3369C32.579 38.3369 34.6919 37.9118 36.5167 37.4866C37.9574 37.2315 39.2059 36.8914 40.2624 36.8914C42.4714 36.8914 43.5279 38.0818 43.5279 40.3777C43.72 46.0749 37.6693 50.6666 30.37 50.6666Z" fill="white"/>
<path d="M40.3585 37.5717C41.8952 37.5717 42.8556 38.1669 42.8556 40.3777C42.8556 45.6497 37.2851 49.9013 30.37 49.9013C23.4549 49.9013 17.8844 45.6497 17.8844 40.3777C17.8844 38.2519 18.8449 37.5717 20.3815 37.5717C22.6866 37.5717 26.3362 38.9322 30.4661 38.9322C34.4999 38.9322 38.1495 37.5717 40.3585 37.5717ZM40.3585 36.1261C39.206 36.1261 37.8614 36.3812 36.4207 36.7213C34.5959 37.0615 32.483 37.4866 30.37 37.4866C28.161 37.4866 26.1441 37.0615 24.3193 36.7213C22.7826 36.3812 21.5341 36.1261 20.3815 36.1261C18.8449 36.1261 16.2517 36.6363 16.2517 40.3777C16.2517 46.5 22.5905 51.4319 30.4661 51.4319C38.2455 51.4319 44.6804 46.5 44.6804 40.3777C44.4883 36.6363 41.8952 36.1261 40.3585 36.1261Z" fill="black"/>
<path d="M17.5961 39.4424C17.5961 39.6124 18.6526 40.4628 18.8447 40.6328C19.4209 41.143 19.9972 41.5682 20.6695 41.9083C21.1497 42.1634 21.726 42.4185 22.2062 42.5886C22.4943 42.6736 22.9745 42.8437 23.2626 43.0137C21.2457 43.1838 19.1328 42.8437 17.404 41.9933C17.0199 41.7383 17.5961 39.4424 17.5961 39.4424Z" fill="black"/>
<path d="M43.0478 39.4424C43.0478 39.6124 41.9913 40.4628 41.7992 40.6328C41.2229 41.143 40.6467 41.5682 39.9744 41.9083C39.4942 42.1634 38.9179 42.4185 38.4377 42.5886C38.1496 42.6736 37.6694 42.8437 37.3812 43.0137C39.3981 43.1838 41.5111 42.8437 43.2398 41.9933C43.624 41.7383 43.0478 39.4424 43.0478 39.4424Z" fill="black"/>
</svg>
