<svg width="61" height="49" viewBox="0 0 61 49" fill="none" xmlns="http://www.w3.org/2000/svg">
<path fill-rule="evenodd" clip-rule="evenodd" d="M29.553 0.252762V30.6878H34.393C35.0613 30.6878 35.603 31.2295 35.603 31.8978C35.603 32.5661 35.0613 33.1078 34.393 33.1078H27.133V2.91484L2.44302 5.27233C1.77778 5.33585 1.187 4.84806 1.12348 4.18282C1.05996 3.51758 1.54775 2.92681 2.21299 2.86329L29.553 0.252762Z" fill="#1E1E1E"/>
<path fill-rule="evenodd" clip-rule="evenodd" d="M60.3984 3.91673C60.4819 4.57976 60.012 5.18491 59.349 5.26836L39.3589 7.78432C38.6959 7.86777 38.0907 7.39793 38.0073 6.7349C37.9238 6.07186 38.3937 5.46672 39.0567 5.38327L59.0468 2.8673C59.7098 2.78385 60.315 3.2537 60.3984 3.91673Z" fill="#1E1E1E"/>
<path fill-rule="evenodd" clip-rule="evenodd" d="M48.6016 14.4652C45.9982 14.4652 44.464 16.0499 44.464 17.3778C44.464 18.0627 43.9088 18.6178 43.224 18.6178C42.5392 18.6178 41.984 18.0627 41.984 17.3778C41.984 14.1235 45.2613 11.9852 48.6016 11.9852C51.9419 11.9852 55.2191 14.1235 55.2191 17.3778C55.2191 18.0627 54.664 18.6178 53.9791 18.6178C53.2943 18.6178 52.7391 18.0627 52.7391 17.3778C52.7391 16.0499 51.2049 14.4652 48.6016 14.4652Z" fill="black"/>
<path fill-rule="evenodd" clip-rule="evenodd" d="M33.2437 46.659C33.4527 46.0243 34.1366 45.6792 34.7714 45.8882C35.8664 46.2487 37.6252 46.4347 39.2604 45.8401C40.8176 45.2739 42.4009 43.954 43.2016 41.0095C43.3769 40.3646 44.0418 39.984 44.6867 40.1594C45.3315 40.3347 45.7121 40.9996 45.5368 41.6445C44.5414 45.3049 42.425 47.2645 40.0874 48.1144C37.8278 48.936 35.4966 48.6748 34.0145 48.1868C33.3798 47.9778 33.0346 47.2938 33.2437 46.659Z" fill="#1E1E1E"/>
<ellipse cx="14.1255" cy="17.9828" rx="4.235" ry="6.05" fill="#1E1E1E"/>
<circle cx="15.9406" cy="16.7727" r="1.21" fill="white"/>
</svg>
