<svg width="46" height="36" viewBox="0 0 46 36" fill="none" xmlns="http://www.w3.org/2000/svg">
<path d="M34.4383 5.94159C31.39 0.294664 24.6327 -1.44409 22.1591 1.22946C19.6854 -1.44409 13.1249 0.294338 10.0766 5.94126C8.52743 8.81469 1.90604 1.26693 0.0820312 1.21696C0.606745 2.54124 6.00536 9.62487 7.46707 10.6493C8.8788 11.6363 11.9771 11.6863 13.5887 8.27561C15.8625 3.46574 18.8983 3.45324 22.1716 3.45324C25.4448 3.45324 28.4806 3.46574 30.7544 8.27561C32.366 11.6863 35.4643 11.6488 36.876 10.6493C38.3252 9.62487 44.5328 2.52874 45.0575 1.21696C43.196 1.26693 35.9875 8.81502 34.4383 5.94159Z" fill="#626161"/>
<path d="M38.6423 15.1605C38.6423 22.3922 31.6023 35.8091 22.2875 35.8091C12.9728 35.8091 4.91064 22.3922 4.91064 15.1605C4.91064 7.9288 12.9728 15.6643 22.2875 15.6643C31.6023 15.6643 38.6423 7.9288 38.6423 15.1605Z" fill="#626161"/>
</svg>
