<svg width="72" height="26" viewBox="0 0 72 26" fill="none" xmlns="http://www.w3.org/2000/svg">
<path d="M60.3969 9.473C54.1251 -2.51747 41.0675 -1.66858 35.9781 4.00832V3.98179V4.00832C30.8888 -1.66858 17.8312 -2.51747 11.5594 9.473C8.37211 15.5743 4.67074 16.2375 0.917969 16.1314C1.99753 18.9434 2.74295 21.8348 5.75031 24.0101C8.65485 26.1058 15.0294 26.2119 18.3452 18.9699C23.0234 8.75676 29.2694 8.73023 36.0038 8.73023C42.7383 8.73023 48.9843 8.75676 53.6624 18.9699C56.9783 26.2119 63.3528 26.1323 66.2574 24.0101C69.239 21.8348 70.0102 18.9168 71.0897 16.1314C67.2598 16.2375 63.5842 15.5743 60.3969 9.473Z" fill="#626161"/>
</svg>
