<svg width="46" height="12" viewBox="0 0 46 12" fill="none" xmlns="http://www.w3.org/2000/svg">
<path d="M34.8973 6.44159C31.849 0.794664 25.0917 -0.944088 22.618 1.72946C20.1444 -0.944088 13.5839 0.794338 10.5356 6.44126C8.98641 9.31469 2.36502 1.76693 0.541016 1.71696C1.06573 3.04124 6.46435 10.1249 7.92605 11.1493C9.33778 12.1363 12.4361 12.1863 14.0477 8.77561C16.3215 3.96574 19.3573 3.95324 22.6305 3.95324C25.9038 3.95324 28.9396 3.96574 31.2134 8.77561C32.825 12.1863 35.9233 12.1488 37.335 11.1493C38.7842 10.1249 44.9918 3.02874 45.5165 1.71696C43.655 1.76693 36.4464 9.31502 34.8973 6.44159Z" fill="#626161"/>
</svg>
