<svg width="119" height="48" viewBox="0 0 119 48" fill="none" xmlns="http://www.w3.org/2000/svg">
<path d="M100.725 15.171C86.445 -4.26201 68.294 -1.29901 60.23 9.67199C59.941 10.072 59.638 10.61 59.348 11.174C59.155 10.857 58.949 10.554 58.755 10.292C50.734 -0.762006 32.514 -4.31701 18.18 15.185C11.371 24.461 6.409 26.391 0 26.211C3.239 30.801 6.919 39.677 11.261 44.17C17.27 50.4 27.979 47.299 32.844 34.977C39.364 18.451 48.212 14.399 59.459 14.399C70.705 14.399 79.541 18.451 86.074 34.963C90.939 47.285 101.648 50.4 107.657 44.156C111.999 39.649 115.679 30.773 118.918 26.197C112.495 26.377 107.533 24.447 100.725 15.171Z" fill="white" stroke="black" stroke-miterlimit="10"/>
</svg>
