<svg width="104" height="75" viewBox="0 0 104 75" fill="none" xmlns="http://www.w3.org/2000/svg">
<path d="M68.9786 43.1286C71.1025 43.2829 72.6335 43.3941 73.6828 43.2948C88.1886 51.5294 86.1991 58.7583 85.0077 63.0875C84.2682 65.7745 83.8361 67.3444 87.8463 67.3444C98.477 67.3444 103.112 54.5112 103.112 42.6833C103.112 31.2685 89.5217 17.7084 79.0171 16.7752C77.1906 3.708 63.0754 0.5 50.7001 0.5C36.9769 0.5 25.3216 6.97606 21.1349 15.9779C10.7502 15.8151 -1.94175 17.0626 0.906469 42.0327C0.906468 53.8605 18.8153 89.4099 16.1725 66.6938C16.1725 51.1404 16.1725 44 26.0786 34.2827C33.7293 39.7994 46.7324 42.6753 58.0073 42.6753C62.7372 42.6753 66.3218 42.9356 68.9786 43.1286Z" fill="#626161"/>
</svg>
