<svg width="78" height="41" viewBox="0 0 78 41" fill="none" xmlns="http://www.w3.org/2000/svg">
<path d="M51.9279 1.10571C62.8881 2.78612 51.8714 21.9885 38.5027 21.2842C31.5479 20.9135 29.8608 17.738 24.606 16.0823C18.0891 14.0313 12.667 15.8723 7.59256 23.4959C3.4712 29.6739 2.80148 40.7325 2.80148 40.7325H0.161234C-0.392574 34.3815 -2.35812 -7.25926 51.9279 1.10571Z" fill="#626160"/>
<path d="M26.5765 1.10552C15.7116 3.42224 25.4303 21.9885 38.7967 21.2842C45.77 20.9135 47.4585 17.738 52.7174 16.0823C59.2395 14.0313 64.666 15.8723 69.7445 23.4959C73.8563 29.6739 74.5394 40.7325 74.5394 40.7325H77.1173C77.7231 34.3815 80.9575 -7.25945 26.5765 1.10552Z" fill="#626160"/>
</svg>
