<svg width="78" height="41" viewBox="0 0 78 41" fill="none" xmlns="http://www.w3.org/2000/svg">
<path d="M52.0099 1.10571C62.9702 2.78612 51.9534 21.9885 38.5848 21.2842C31.63 20.9135 29.9428 17.738 24.6881 16.0823C18.1712 14.0313 12.749 15.8723 7.67459 23.4959C3.55323 29.6739 2.88351 40.7325 2.88351 40.7325H0.243265C-0.310543 34.3815 -2.27609 -7.25926 52.0099 1.10571Z" fill="black"/>
<path d="M26.6586 1.10552C15.7936 3.42224 25.5123 21.9885 38.8787 21.2842C45.852 20.9135 47.5405 17.738 52.7994 16.0823C59.3216 14.0313 64.748 15.8723 69.8265 23.4959C73.9383 29.6739 74.6214 40.7325 74.6214 40.7325H77.1993C77.8051 34.3815 81.0395 -7.25945 26.6586 1.10552Z" fill="black"/>
</svg>
