<svg width="99" height="92" viewBox="0 0 99 92" fill="none" xmlns="http://www.w3.org/2000/svg">
<path d="M86.8076 64.3817C86.8076 74.0192 84.1886 34.2951 48.5543 37.3037C14.2121 35.4985 10.9591 76.4261 10.9591 66.7886C-1.57108 21.6587 37.3317 18.65 47.8948 18.65C58.4579 18.65 100.658 24.0656 86.8076 64.3817Z" fill="#626161"/>
<path d="M33.5618 40.8212C43.6186 34.8897 48.3776 38.3497 49.5 40.8212V31.712H45.0104C22.7418 29.8478 12.3858 52.1195 9.99131 63.4884C-2.75923 66.3694 0.039305 75.9871 3.03239 80.4357C5.72616 83.7546 12.1463 90.6042 16.2768 91.4515C20.4072 92.2989 21.7391 88.1327 21.8888 85.9436C19.644 87.4265 18.746 87.4265 16.2768 84.4607C13.8075 81.495 11.3382 76.8344 16.2768 73.8686C21.2153 70.9028 20.9909 66.8778 19.8685 64.7594C18.746 62.641 17.1747 61.7936 18.746 58.616C20.3174 55.4384 28.1743 56.2857 27.0519 50.566C26.1539 45.9902 31.0177 42.1629 33.5618 40.8212Z" fill="#626161"/>
<path d="M65.4382 40.7193C55.3814 34.7877 50.6224 38.2478 49.5 40.7193V31.6101H53.9896C76.2582 29.7459 86.6142 52.0176 89.0087 63.3864C101.759 66.2675 98.9607 75.8851 95.9676 80.3338C93.2738 83.6527 86.8537 90.5022 82.7232 91.3496C78.5928 92.197 77.2609 88.0307 77.1112 85.8417C79.356 87.3246 80.254 87.3246 82.7232 84.3588C85.1925 81.393 87.6618 76.7325 82.7232 73.7667C77.7847 70.8009 78.0091 66.7759 79.1315 64.6575C80.254 62.5391 81.8253 61.6917 80.254 58.5141C78.6826 55.3364 70.8257 56.1838 71.9481 50.4641C72.8461 45.8883 67.9823 42.061 65.4382 40.7193Z" fill="#626161"/>
<path d="M64.7648 16.1598C64.7648 18.2555 64.2857 19.305 63.6134 19.842C62.9198 20.396 61.8447 20.5536 60.2824 20.4202C59.1299 20.3218 57.8194 20.0781 56.3467 19.8043C55.8371 19.7095 55.3082 19.6112 54.7596 19.514C52.6501 19.1402 50.3009 18.7947 47.8248 18.7947C45.3487 18.7947 42.9995 19.1402 40.8899 19.514C40.3414 19.6112 39.8124 19.7095 39.3029 19.8043C37.8301 20.0781 36.5196 20.3218 35.3671 20.4202C33.8049 20.5536 32.7298 20.396 32.0361 19.842C31.3639 19.305 30.8848 18.2555 30.8848 16.1598C30.8848 7.90809 38.4026 1.105 47.8248 1.105C57.247 1.105 64.7648 7.90809 64.7648 16.1598Z" fill="#626161" stroke="#1E1E1E" stroke-width="1.21"/>
</svg>
