<?xml version="1.0" encoding="utf-8"?>
<!-- Generator: Adobe Adobe Illustrator 24.2.0, SVG Export Plug-In . SVG Version: 6.00 Build 0)  -->
<svg version="1.1" id="Layer_1" xmlns="http://www.w3.org/2000/svg" xmlns:xlink="http://www.w3.org/1999/xlink" x="0px" y="0px"
	 width="79.35px" height="42.73px" viewBox="0 0 79.35 42.73" style="enable-background:new 0 0 79.35 42.73;" xml:space="preserve"
	>
<style type="text/css">
	.st0{fill:#FFFFFF;}
</style>
<g>
	<path class="st0" d="M25.45,17.56c-3.18-1-6.04-1.04-8.71,0.06c-2.68,1.11-5.24,3.39-7.74,7.15l0,0c-2,3-3.19,7.23-3.87,10.75
		c-0.34,1.75-0.55,3.31-0.68,4.44c-0.06,0.56-0.1,1.01-0.13,1.32c-0.01,0.16-0.02,0.27-0.03,0.36c0,0.04,0,0.07-0.01,0.09l0,0.02
		l0,0.01l0,0l0,0l0,0l-0.03,0.47H3.79H1.15H0.7l-0.04-0.46c-0.28-3.2-0.92-15.33,5.39-25.64c3.17-5.17,8.08-9.86,15.63-12.73
		c1.39-0.53,2.87-0.99,4.44-1.39c0.41-0.16,2.44-0.57,2.96-0.64c3.33-0.6,7.03-0.92,11.15-0.87c4.04-0.04,7.61,0.21,10.86,0.79
		c0.61,0.08,1.28,0.22,1.9,0.32 M25.45,17.56c1.3,0.41,2.3,0.82,3.37,1.45c3.27,1.9,6.71,3.95,10.83,3.79
		c4.15,0.17,7.84-1.81,11.17-3.96c0.86-0.55,2.35-1.14,3.19-1.37c3.21-0.9,5.89-0.94,8.56,0.16c2.68,1.11,5.24,3.39,7.75,7.15
		c2,3,3.18,7.23,3.86,10.75c0.34,1.75,0.55,3.31,0.68,4.44c0.06,0.56,0.11,1.01,0.13,1.32c0.01,0.16,0.02,0.28,0.03,0.36
		c0,0.04,0.01,0.07,0.01,0.09l0,0.02l0,0.01l0,0v0l0.03,0.47h0.47h2.58h0.45l0.04-0.45c0.3-3.18,1.28-15.32-4.72-25.63
		c-3.01-5.17-7.77-9.87-15.22-12.74c-1.14-0.44-2.34-0.83-3.61-1.18c-0.6-0.29-1.29-0.49-2.07-0.61"/>
	<path d="M79.02,42.73h-4.43l-0.06-0.94l-0.01-0.12l-0.03-0.35c-0.03-0.3-0.07-0.75-0.13-1.31c-0.11-1.02-0.32-2.6-0.67-4.4
		c-0.61-3.14-1.76-7.52-3.79-10.57c-2.39-3.58-4.85-5.86-7.52-6.96c-2.46-1.01-5-1.06-8.24-0.14c-0.87,0.25-2.29,0.82-3.06,1.31
		c-3.41,2.2-7.17,4.21-11.46,4.04c-4.15,0.17-7.56-1.82-10.86-3.74l-0.19-0.11c-0.99-0.58-1.94-0.98-3.27-1.4l0,0
		c-3.15-0.99-5.88-0.97-8.37,0.05c-2.67,1.1-5.13,3.38-7.51,6.97c-2.04,3.05-3.19,7.43-3.79,10.57c-0.35,1.8-0.56,3.39-0.67,4.4
		c-0.06,0.56-0.1,1-0.13,1.31L4.8,41.68l-0.01,0.11l-0.06,0.94h-4.5l-0.08-0.91c-0.31-3.5-0.81-15.7,5.46-25.94
		c3.66-5.97,9-10.33,15.88-12.94c1.43-0.54,2.94-1.02,4.5-1.41c0.43-0.17,2.54-0.58,3.02-0.65c3.43-0.62,7.2-0.93,11.22-0.88
		c4.14-0.04,7.71,0.22,10.95,0.8c0.34,0.05,0.73,0.11,1.12,0.18c0.28,0.05,2.35,0.49,2.98,0.79c1.18,0.32,2.41,0.72,3.57,1.17
		c6.78,2.62,11.99,6.97,15.47,12.96c5.42,9.32,5.32,20.25,4.78,25.93L79.02,42.73z M75.53,41.73h2.58
		c0.53-5.57,0.63-16.26-4.65-25.33c-3.36-5.78-8.4-10-14.97-12.53c-1.13-0.44-2.33-0.83-3.56-1.17c-0.64-0.3-2.53-0.7-2.8-0.74
		c-0.38-0.07-0.76-0.13-1.11-0.18c-3.2-0.57-6.72-0.83-10.79-0.78c-3.96-0.04-7.68,0.25-11.07,0.87c-0.6,0.08-2.53,0.48-2.87,0.61
		c-1.58,0.4-3.05,0.86-4.45,1.39C15.19,6.41,10.01,10.62,6.47,16.4c-6.11,9.98-5.62,21.91-5.32,25.33l2.64,0l0.04-0.48
		c0.03-0.32,0.07-0.77,0.13-1.34c0.12-1.03,0.33-2.65,0.68-4.48c0.62-3.23,1.81-7.74,3.94-10.93c2.5-3.75,5.11-6.15,7.97-7.33
		c2.71-1.12,5.67-1.14,9.05-0.08l-0.16,0.5l0.16-0.5c1.4,0.44,2.41,0.87,3.47,1.49l0.2,0.11c3.18,1.85,6.47,3.78,10.36,3.61
		c4.06,0.18,7.65-1.77,10.92-3.88c0.95-0.61,2.52-1.21,3.33-1.44c3.47-0.98,6.21-0.92,8.89,0.18c2.86,1.18,5.47,3.58,7.97,7.33
		c2.12,3.19,3.31,7.71,3.94,10.94c0.35,1.83,0.57,3.44,0.68,4.48c0.06,0.57,0.11,1.02,0.13,1.34L75.53,41.73z"/>
</g>
</svg>
