<svg width="94" height="97" viewBox="0 0 94 97" fill="none" xmlns="http://www.w3.org/2000/svg">
<path d="M29 25.5C27.7301 24.5053 25.332 21.9309 25.332 19.0988C19.8044 35.8686 12.5351 72.5898 21.0449 96.5C15.9957 96.3444 5.06415 93.1734 1.73076 81.7343C-2.43597 67.4354 4.05781 17.175 19.985 7.13137C30.501 0.499996 36.0567 0.499994 46.9695 0.5C57.8824 0.499994 63.438 0.499997 73.9541 7.13138C89.8813 17.175 96.4428 67.4354 92.2761 81.7343C88.9427 93.1734 78.0111 96.3444 72.962 96.5C81.4718 72.5898 73.8597 35.8686 68.332 19.0988C68.332 21.9309 66.7598 25.2019 65.49 26.1966C64.2201 27.1913 53.4525 26.1966 47.5 26.1966C41.5475 26.1966 30.2699 26.4947 29 25.5Z" fill="#626161"/>
</svg>
