<svg width="79" height="36" viewBox="0 0 79 36" fill="none" xmlns="http://www.w3.org/2000/svg">
<path d="M77.6511 22.5369V22.5615L77.6535 22.586C78.0746 26.8459 78.0577 29.7751 77.6968 31.6803C77.3326 33.6027 76.6612 34.3002 75.9303 34.4648C75.5327 34.5543 75.0391 34.5104 74.4325 34.3098C73.8275 34.1097 73.143 33.7647 72.3823 33.2936C70.8589 32.3502 69.0998 30.9459 67.1559 29.3313C66.6671 28.9254 66.1672 28.5065 65.6573 28.0793C62.1367 25.1296 58.1401 21.7811 54.0742 19.543C49.5014 17.0259 44.6906 15.831 40.2988 18.3366C34.9523 15.8461 29.5096 16.861 24.4795 19.2217C19.5846 21.5189 15.0055 25.1256 11.1833 28.1361C11.0258 28.2602 10.8695 28.3832 10.7146 28.5051C8.74614 30.0542 7.00078 31.4102 5.5128 32.3357C4.76984 32.7977 4.10885 33.141 3.53109 33.3471C2.94982 33.5545 2.4914 33.609 2.13529 33.5413C1.51066 33.4224 0.926471 32.8492 0.653221 31.0713C0.383261 29.3147 0.459447 26.5894 0.964854 22.5997L0.968818 22.5684V22.5369C0.968818 16.1113 4.2324 10.6274 10.6082 6.72626C17.0027 2.81364 26.5265 0.5 38.9722 0.5C51.4175 0.5 61.113 2.81348 67.6789 6.72919C74.2288 10.6354 77.6511 16.1213 77.6511 22.5369Z" fill="white" stroke="black"/>
</svg>
