<svg width="110" height="70" viewBox="0 0 110 70" fill="none" xmlns="http://www.w3.org/2000/svg">
<path d="M32.48 57.1H50.78C50.78 57.1 47.68 40.5 38.58 36C29.58 31.5 17.28 32.6 10.78 41.2C26.08 39.7 32.48 57.1 32.48 57.1Z" fill="#23C865"/>
<path d="M50.38 57.1H68.68C68.68 57.1 59.48 35.8 59.48 23.7C59.48 11.6 65.58 6.60002 68.68 6.00002C60.28 0.700017 42.88 7.10002 41.78 22.8C40.38 42.2 50.38 57.1 50.38 57.1Z" fill="#BFBFBF"/>
<path d="M38.58 36C33.68 33.5 27.78 32.8 22.38 33.9C25.88 33.9 29.68 34.4 33.08 36.1C41.08 40.2 46.28 49 47.68 57.1H50.68C50.78 57.1 47.68 40.5 38.58 36Z" fill="#23C865"/>
<path d="M79.08 5.8C79.08 9 76.48 11.6 73.28 11.6C70.08 11.6 67.48 9 67.48 5.8C67.48 2.6 70.08 0 73.28 0C76.48 0 79.08 2.6 79.08 5.8Z" fill="#C4C4C4"/>
<path d="M75.48 3.5C75.48 4.3 74.78 5 73.98 5C73.18 5 72.48 4.3 72.48 3.5C72.48 2.7 73.18 2 73.98 2C74.78 2 75.48 2.6 75.48 3.5Z" fill="#DCDCDC"/>
<path d="M12.58 42.1C12.58 45.3 9.97997 47.9 6.77997 47.9C3.57997 47.9 0.97998 45.3 0.97998 42.1C0.97998 38.9 3.57997 36.3 6.77997 36.3C10.08 36.3 12.58 38.9 12.58 42.1Z" fill="#BFBFBF"/>
<path d="M9.07996 39.8C9.07996 40.6 8.37996 41.3 7.57996 41.3C6.77996 41.3 6.07996 40.6 6.07996 39.8C6.07996 39 6.77996 38.3 7.57996 38.3C8.37996 38.3 9.07996 39 9.07996 39.8Z" fill="#DCDCDC"/>
<path d="M65.38 57.1H83.68C83.68 57.1 82.6799 51.5 83.0799 46C83.3799 41.4 89.38 30.6 99.88 34.7C95.48 26.5 87.38 23.8 77.68 26.2C59.4799 30.7 65.38 57.1 65.38 57.1Z" fill="#23C865"/>
<path d="M109.446 36.6C109.446 39.8 106.846 42.4 103.646 42.4C100.446 42.4 97.8459 39.8 97.8459 36.6C97.8459 33.4 100.446 30.8 103.646 30.8C106.846 30.8 109.446 33.4 109.446 36.6Z" fill="#C4C4C4"/>
<path d="M105.846 34.3C105.846 35.1 105.146 35.8 104.346 35.8C103.546 35.8 102.846 35.1 102.846 34.3C102.846 33.5 103.546 32.8 104.346 32.8C105.146 32.8 105.846 33.4 105.846 34.3Z" fill="#DCDCDC"/>
<rect x="12.6459" y="55.3018" width="91" height="13.858" rx="6" fill="#A8A8A8"/>
</svg>
