<svg width="61" height="18" viewBox="0 0 61 18" fill="none" xmlns="http://www.w3.org/2000/svg">
<path d="M58.3612 8.86396C58.3612 8.94619 58.2763 9.50666 56.9131 10.39C55.6372 11.2167 53.6586 12.0372 51.0348 12.7563C45.8157 14.1868 38.4925 15.0965 30.3237 15.0965C22.155 15.0965 14.8318 14.1868 9.61268 12.7563C6.98887 12.0372 5.01022 11.2167 3.73434 10.39C2.37116 9.50666 2.28625 8.94619 2.28625 8.86396C2.28625 8.78173 2.37116 8.22126 3.73434 7.33794C5.01022 6.51119 6.98887 5.6907 9.61268 4.97158C14.8318 3.54116 22.155 2.63147 30.3237 2.63147C38.4925 2.63147 45.8157 3.54116 51.0348 4.97158C53.6586 5.6907 55.6372 6.51119 56.9131 7.33794C58.2763 8.22126 58.3612 8.78173 58.3612 8.86396Z" stroke="#23C865" stroke-width="4"/>
</svg>
