<svg width="62" height="42" viewBox="0 0 62 42" fill="none" xmlns="http://www.w3.org/2000/svg">
<path d="M31.2318 0.946075V41.7169H11.748C11.5977 41.1159 11.3974 40.4647 11.2471 39.7635C11.197 39.463 11.0968 39.1625 10.9967 38.9121C8.89301 30.9482 5.58726 18.3764 4.83596 15.6216C3.43352 16.0724 1.83073 15.5214 1.02934 14.1691C0.127774 12.6164 0.678731 10.6129 2.23143 9.71131C3.78413 8.80974 5.78761 9.36069 6.68918 10.9134C7.44048 12.2657 7.19005 13.9186 6.03804 14.9204C9.09335 17.9256 17.6582 26.3402 17.6582 26.3402C17.5581 25.6891 17.508 15.271 17.508 11.0136C16.0054 11.0637 14.6029 10.112 14.2022 8.60939C13.7514 6.85635 14.7532 5.1033 16.5062 4.65251C18.2593 4.20173 20.0123 5.20347 20.4631 6.95652C20.8638 8.45913 20.1626 10.0118 18.8102 10.663C20.964 14.3694 26.724 24.487 26.724 24.487C26.724 24.487 29.3786 11.5144 30.4805 7.35722C29.028 7.0567 27.9261 5.75443 27.9261 4.20173C27.9762 2.3986 29.4287 0.946075 31.2318 0.946075Z" fill="#23C865"/>
<path d="M61.4344 14.119C60.6831 15.4713 59.0803 16.0223 57.6277 15.5715C56.8764 18.3263 53.5707 30.8981 51.467 38.862C51.3669 39.1625 51.3168 39.463 51.2166 39.7135C51.0163 40.4147 50.866 41.0658 50.7157 41.6669H31.2319V0.895996C33.035 0.895996 34.4875 2.34852 34.4875 4.15165C34.4875 5.70435 33.3856 7.00662 31.9331 7.30714C33.035 11.4644 35.6896 24.4369 35.6896 24.4369C35.6896 24.4369 41.4496 14.3193 43.6034 10.6129C42.3011 9.91167 41.5498 8.40905 41.9505 6.90644C42.4013 5.15339 44.2044 4.15166 45.9074 4.60244C47.6604 5.05323 48.6622 6.85636 48.2114 8.55931C47.8107 10.0619 46.4082 11.0136 44.9056 10.9635C44.9056 15.271 44.8555 25.639 44.7554 26.2901C44.7554 26.2901 53.3203 17.8755 56.3756 14.8703C55.2737 13.8685 54.9731 12.2157 55.7244 10.8633C56.626 9.31062 58.6295 8.75966 60.1822 9.66123C61.785 10.6129 62.3359 12.5663 61.4344 14.119Z" fill="#23C865"/>
<path d="M31.2318 36.7083C32.117 36.7083 32.8346 35.9907 32.8346 35.1055C32.8346 34.2203 32.117 33.5027 31.2318 33.5027C30.3466 33.5027 29.629 34.2203 29.629 35.1055C29.629 35.9907 30.3466 36.7083 31.2318 36.7083Z" fill="white"/>
<path d="M45.0057 36.7083C44.1042 36.7083 43.403 35.957 43.403 35.1055C43.403 34.2039 44.1543 33.5027 45.0057 33.5027C45.9073 33.5027 46.6085 34.254 46.6085 35.1055C46.6085 36.007 45.9073 36.7083 45.0057 36.7083Z" fill="white"/>
<path d="M17.5079 36.7083C16.6064 36.7083 15.9052 35.957 15.9052 35.1055C15.9052 34.2039 16.6565 33.5027 17.5079 33.5027C18.4095 33.5027 19.1107 34.254 19.1107 35.1055C19.1107 36.007 18.4095 36.7083 17.5079 36.7083Z" fill="white"/>
</svg>
