<svg width="52" height="57" viewBox="0 0 52 57" fill="none" xmlns="http://www.w3.org/2000/svg">
<mask id="mask0_5580_4095" style="mask-type:alpha" maskUnits="userSpaceOnUse" x="8" y="8" width="34" height="41">
<path d="M26.2379 8.1543L41.548 46.485C41.548 46.485 31.4452 48.8396 24.8895 48.6282C18.4796 48.4216 8.75919 45.546 8.75919 45.546L26.2379 8.1543Z" fill="#23C865"/>
</mask>
<g mask="url(#mask0_5580_4095)">
<path d="M26.2379 8.1543L41.548 46.485C41.548 46.485 31.4452 48.8396 24.8895 48.6282C18.4796 48.4216 8.75919 45.546 8.75919 45.546L26.2379 8.1543Z" fill="#23C865"/>
<path d="M19.1161 23.0162C25.1161 26.0162 31.6161 28.0162 36.1161 27.5162" stroke="white" stroke-width="3"/>
<path d="M16.1161 29.5162C18.5509 30.7524 22.2335 32.2447 26.6161 33.5162C30.9987 34.7877 36.203 35.3439 37.1161 34.8141" stroke="black" stroke-width="3"/>
<path d="M12.6161 35.5162C15.6161 37.5162 19.1161 39.0162 26.1161 41.0162C33.1161 43.0162 38.8987 42.546 40.1161 42.0162" stroke="white" stroke-width="3"/>
</g>
</svg>
