<svg width="103" height="52" viewBox="0 0 103 52" fill="none" xmlns="http://www.w3.org/2000/svg">
<path d="M94.5446 24.085C94.5446 34.3234 75.433 46.1544 51.8847 46.1544C28.3365 46.1544 9.22485 34.3234 9.22485 24.085C9.22485 13.8467 28.3365 5.5422 51.8847 5.5422C75.433 5.42844 94.5446 13.7329 94.5446 24.085Z" fill="#393939"/>
<path d="M76.6274 35.8023L72.9871 6.56603C72.5321 3.267 69.4605 0.423004 66.1615 0.423004H37.6078C34.3088 0.423004 31.3511 3.15324 30.7823 6.56603L27.142 35.8023H76.6274Z" fill="#9C9C9C"/>
<path d="M76.5706 35.8023L72.9302 6.56607C72.7027 4.97344 71.9064 3.49456 70.7688 2.47072C70.0863 2.35696 69.2899 2.24321 68.3799 2.35697C63.4882 2.69825 59.3928 8.27247 51.8847 8.27247C44.3766 8.27247 40.2812 2.69825 35.3896 2.35697C34.4795 2.24321 33.6832 2.35696 33.0006 2.47072C31.863 3.60832 31.0667 4.97344 30.8392 6.56607L27.1989 35.8023H76.5706Z" fill="#9C9C9C"/>
<path d="M27.6539 32.617H76.1155L74.9779 22.8336H28.7915L27.6539 32.617Z" fill="#23C865"/>
<path d="M55.8664 9.06878C55.8664 6.90734 54.16 5.08719 51.8848 5.08719C49.7234 5.08719 47.9032 6.79358 47.9032 9.06878C47.9032 10.4339 48.5858 11.6852 49.7234 12.3678V14.7568H54.0462V12.3678C55.07 11.5715 55.8664 10.4339 55.8664 9.06878Z" fill="white"/>
<path d="M51.2021 8.84126C51.2021 9.41006 50.7471 9.75134 50.2921 9.75134C49.837 9.75134 49.382 9.2963 49.382 8.84126C49.382 8.27246 49.837 7.93118 50.2921 7.93118C50.7471 7.93118 51.2021 8.27246 51.2021 8.84126Z" fill="#9C9C9C"/>
<path d="M54.3874 8.84126C54.3874 9.41006 53.9324 9.75134 53.4773 9.75134C52.9085 9.75134 52.5673 9.2963 52.5673 8.84126C52.5673 8.27246 53.0223 7.93118 53.4773 7.93118C54.0461 7.93118 54.3874 8.27246 54.3874 8.84126Z" fill="#9C9C9C"/>
<path d="M51.8847 11.2302H51.2021L51.5434 10.6614L51.8847 10.0927L52.226 10.6614L52.5673 11.2302H51.8847Z" fill="#9C9C9C"/>
<path d="M53.2498 12.3679H50.5195V13.1642H53.2498V12.3679Z" fill="#9C9C9C"/>
<path d="M56.5489 15.8944C56.7764 15.7806 56.8901 15.4394 56.7764 15.0981C56.6626 14.7568 56.3214 14.643 55.9801 14.7568C55.6388 14.8706 55.4113 15.3256 55.1838 15.6669L48.0169 18.6246C47.6756 18.5109 47.2206 18.3971 46.8793 18.5109C46.538 18.6246 46.4243 18.9659 46.538 19.3072C46.6518 19.6485 46.9931 19.7622 47.2206 19.6485C46.9931 19.7622 46.8793 20.1035 46.9931 20.4448C47.1068 20.7861 47.4481 20.8998 47.7894 20.7861C48.1307 20.6723 48.3582 20.2173 48.5857 19.876L55.7526 16.9182C56.0938 17.032 56.5489 17.1458 56.8902 17.032C57.2314 16.9182 57.3452 16.577 57.2315 16.2357C57.1177 16.0082 56.7764 15.8944 56.5489 15.8944Z" fill="white"/>
<path d="M47.2206 15.8944C46.9931 15.7806 46.8793 15.4394 46.9931 15.0981C47.1068 14.7568 47.4481 14.643 47.7894 14.7568C48.1307 14.8706 48.3582 15.3256 48.5857 15.6669L55.7526 18.6246C56.0938 18.5109 56.5489 18.3971 56.8902 18.5109C57.2314 18.6246 57.3452 18.9659 57.2315 19.3072C57.1177 19.6485 56.7764 19.7622 56.5489 19.6485C56.7764 19.7622 56.8901 20.1035 56.7764 20.4448C56.6626 20.7861 56.3214 20.8998 55.9801 20.7861C55.6388 20.6723 55.4113 20.2173 55.1838 19.876L48.0169 16.9182C47.6756 17.032 47.2206 17.1458 46.8793 17.032C46.538 16.9182 46.4243 16.577 46.538 16.2357C46.6518 16.0082 46.9931 15.8944 47.2206 15.8944Z" fill="white"/>
<path d="M0.806641 31.8206C4.10567 21.5823 13.3202 14.1879 24.2411 14.1879C37.8923 14.1879 48.927 25.6776 48.927 39.8976C48.927 39.8976 48.2444 44.448 51.9985 44.448V51.1598C51.9985 51.1598 36.5272 47.9745 23.5586 42.9691C10.4762 37.9637 0.806641 31.8206 0.806641 31.8206Z" fill="#9C9C9C"/>
<path d="M102.963 31.8206C99.6637 21.5823 90.4492 14.1879 79.5282 14.1879C65.8771 14.1879 54.8424 25.6776 54.8424 39.8976C54.8424 39.8976 55.5249 44.448 51.7709 44.448V51.1598C51.7709 51.1598 67.2422 47.9745 80.2108 42.9691C93.2932 37.9637 102.963 31.8206 102.963 31.8206Z" fill="#9C9C9C"/>
<path d="M21.966 17.1456C36.6409 17.1456 47.1068 28.6354 47.1068 42.8553C47.1068 42.8553 47.9031 47.4057 51.8847 47.4057V44.448C48.1307 44.448 48.8132 39.8976 48.8132 39.8976C48.8132 25.6776 37.7785 14.1879 24.1274 14.1879C17.188 14.1879 11.045 17.1456 6.49463 21.9236C10.9313 18.852 16.278 17.1456 21.966 17.1456Z" fill="#626161"/>
<path d="M56.6626 42.8553C56.6626 28.6354 67.1284 17.1456 81.8034 17.1456C87.4914 17.1456 92.8381 18.852 97.161 21.9236C92.7243 17.1456 86.4676 14.1879 79.5282 14.1879C65.8771 14.1879 54.8424 25.6776 54.8424 39.8976C54.8424 39.8976 55.5249 44.448 51.7709 44.448V47.4057C55.8662 47.4057 56.6626 42.8553 56.6626 42.8553Z" fill="#626161"/>
</svg>
