<svg width="57" height="19" viewBox="0 0 57 19" fill="none" xmlns="http://www.w3.org/2000/svg">
<path d="M9.20306 9.93075C9.20306 9.93075 5.70307 5.83075 3.80307 2.93075C1.90307 0.0307527 1.80306 0.330747 1.20306 1.83075C0.403064 3.63075 0.403076 5.93075 0.403076 7.83075C0.403076 10.6307 0.703058 14.5307 2.10306 17.0307C3.50306 19.5307 6.60306 17.7308 8.10306 16.4308C10.1031 14.6308 10.8031 12.3308 9.20306 9.93075Z" fill="#23C865"/>
<path d="M1.80312 1.13074C1.80312 1.13074 0.0031237 5.13073 0.903124 11.2307C1.80312 17.2307 2.90311 18.2307 4.60311 18.0307C4.60311 18.0307 3.20311 17.6307 2.20311 12.9307C1.20311 8.33074 1.10312 2.73074 1.80312 1.13074Z" fill="#23C865"/>
<path d="M8.10306 9.53073C7.80306 9.23073 7.40305 8.73074 7.00305 8.13074C7.10305 8.33074 7.20307 8.63073 7.30307 8.83073C7.70307 9.83073 8.40307 10.7307 8.80307 11.7307C10.0031 14.2307 7.10306 16.8307 7.10306 16.8307C7.10306 16.8307 8.40308 16.7307 9.40308 14.3307C10.4031 11.9307 9.10306 10.5307 8.10306 9.53073Z" fill="#23C865"/>
<path d="M47.9028 9.93075C47.9028 9.93075 51.4028 5.83075 53.3028 2.93075C55.2028 0.0307527 55.3028 0.330747 55.9028 1.83075C56.7028 3.63075 56.7028 5.93075 56.7028 7.83075C56.7028 10.6307 56.4028 14.5307 55.0028 17.0307C53.6028 19.5307 50.5028 17.7308 49.0028 16.4308C47.0028 14.6308 46.3028 12.3308 47.9028 9.93075Z" fill="#23C865"/>
<path d="M55.3028 1.13074C55.3028 1.13074 57.1028 5.13073 56.2028 11.2307C55.3028 17.2307 54.2028 18.2307 52.5028 18.0307C52.5028 18.0307 53.9028 17.6307 54.9028 12.9307C55.9028 8.33074 56.0028 2.73074 55.3028 1.13074Z" fill="#23C865"/>
<path d="M49.0028 9.53073C49.3028 9.23073 49.7028 8.73074 50.1028 8.13074C50.0028 8.33074 49.9028 8.63073 49.8028 8.83073C49.0028 10.7307 47.8028 13.3307 48.9028 15.4307C49.2028 15.9307 49.6028 16.4307 50.0028 16.8307C50.0028 16.8307 48.7028 16.7307 47.7028 14.3307C46.7028 11.9307 48.0028 10.5307 49.0028 9.53073Z" fill="#23C865"/>
</svg>
