<svg width="135" height="59" viewBox="0 0 135 59" fill="none" xmlns="http://www.w3.org/2000/svg">
<path d="M67.6807 34.3812C44.1047 34.3812 22.6822 32.4543 6.587 29.3939H4.32007L9.08062 39.3684L23.929 45.7158L80.0355 48.0961L130.361 39.3684L131.155 29.3939H128.888C112.793 32.5676 91.2568 34.3812 67.6807 34.3812Z" fill="#23C865"/>
<path d="M133.875 32.7943C132.628 29.0539 130.248 29.5073 130.248 29.5073C130.134 33.5878 122.767 36.5348 120.047 37.2148C105.198 40.8419 87.2895 42.8822 68.134 42.8822C68.0207 42.8822 67.4539 42.8822 67.3406 42.8822C48.185 42.8822 30.3897 40.8419 15.4279 37.2148C12.7076 36.5348 5.22676 33.5878 5.11341 29.5073C5.11341 29.5073 2.73313 29.0539 1.48632 32.7943C-1.0073 40.0485 4.88672 45.1491 5.79349 45.8292C16.7881 53.8768 43.3111 58.864 67.3406 58.864C67.4539 58.864 68.0207 58.864 68.134 58.864C92.1634 58.864 118.573 53.8768 129.681 45.8292C130.475 45.1491 136.369 40.0485 133.875 32.7943Z" fill="black"/>
<path d="M68.134 58.8639C92.1634 58.8639 118.573 53.8767 129.681 45.8291C130.021 45.6024 131.155 44.5823 132.175 43.1088C117.326 50.2496 93.977 54.7835 67.794 54.7835C41.6109 54.7835 18.2616 50.1363 3.41321 43.1088C4.43333 44.5823 5.56679 45.4891 5.90683 45.8291C16.9014 53.8767 43.4245 58.8639 67.4539 58.8639C67.4539 58.8639 68.0206 58.8639 68.134 58.8639Z" fill="#8F8F8F"/>
<path d="M80.2621 7.97145C77.2018 3.66428 72.6679 0.94397 67.6807 0.94397C62.6934 0.94397 58.2729 3.66428 55.0992 7.97145C52.0389 12.2786 46.0315 40.2752 46.0315 40.2752H67.6807H89.3298C89.3298 40.1618 83.3225 12.2786 80.2621 7.97145Z" fill="#23C865"/>
<path d="M67.6807 49.3429C95.3372 49.3429 119.82 43.9023 134.442 35.628C134.328 34.7212 134.215 33.8144 133.875 32.7943C132.628 29.0539 130.248 29.5073 130.248 29.5073C130.135 33.5878 122.767 36.5348 120.047 37.2148C105.198 40.8419 87.2896 42.8822 68.1341 42.8822C68.0207 42.8822 67.454 42.8822 67.3407 42.8822C48.1851 42.8822 30.3897 40.8419 15.428 37.2148C12.7077 36.5348 5.22685 33.5878 5.1135 29.5073C5.1135 29.5073 2.73322 29.0539 1.48641 32.7943C1.14637 33.8144 1.03302 34.7212 0.919678 35.628C15.6547 43.9023 40.0242 49.3429 67.6807 49.3429Z" fill="#8F8F8F"/>
<path d="M71.0811 51.1564C71.0811 52.97 69.6076 54.4435 67.794 54.4435C65.9805 54.4435 64.507 52.97 64.507 51.1564C64.507 49.3429 65.9805 47.8694 67.794 47.8694C69.6076 47.8694 71.0811 49.3429 71.0811 51.1564Z" fill="white"/>
<path d="M68.134 43.5622H67.3406V48.8895H68.134V43.5622Z" fill="white"/>
<path d="M81.5089 51.1564C81.5089 52.97 80.0354 54.4435 78.2219 54.4435C76.4083 54.4435 74.9348 52.97 74.9348 51.1564C74.9348 49.3429 76.4083 47.8694 78.2219 47.8694C80.0354 47.8694 81.5089 49.3429 81.5089 51.1564Z" fill="white"/>
<path d="M78.5619 43.5622H77.7684V48.8895H78.5619V43.5622Z" fill="white"/>
<path d="M92.0502 50.4764C92.0502 52.2899 90.5767 53.7634 88.7631 53.7634C86.9496 53.7634 85.4761 52.2899 85.4761 50.4764C85.4761 48.6628 86.9496 47.1893 88.7631 47.1893C90.5767 47.1893 92.0502 48.6628 92.0502 50.4764Z" fill="white"/>
<path d="M89.1031 42.8821H88.3097V48.2094H89.1031V42.8821Z" fill="white"/>
<path d="M102.591 49.7962C102.591 51.6098 101.118 53.0833 99.3043 53.0833C97.4907 53.0833 96.0172 51.6098 96.0172 49.7962C96.0172 47.9827 97.4907 46.5092 99.3043 46.5092C101.118 46.3959 102.591 47.9827 102.591 49.7962Z" fill="white"/>
<path d="M99.6443 42.2021H98.8508V47.5293H99.6443V42.2021Z" fill="white"/>
<path d="M113.133 47.6427C113.133 49.4562 111.659 50.9297 109.846 50.9297C108.032 50.9297 106.558 49.4562 106.558 47.6427C106.558 45.8291 108.032 44.3557 109.846 44.3557C111.546 44.3557 113.133 45.8291 113.133 47.6427Z" fill="white"/>
<path d="M110.186 40.0485H109.392V45.3757H110.186V40.0485Z" fill="white"/>
<path d="M123.56 45.6024C123.56 47.416 122.087 48.8895 120.273 48.8895C118.46 48.8895 116.986 47.416 116.986 45.6024C116.986 43.7889 118.46 42.3154 120.273 42.3154C122.087 42.202 123.56 43.7889 123.56 45.6024Z" fill="white"/>
<path d="M120.613 38.0082H119.82V43.3355H120.613V38.0082Z" fill="white"/>
<path d="M133.422 41.4087C133.422 43.2222 131.948 44.6957 130.134 44.6957C128.321 44.6957 126.847 43.2222 126.847 41.4087C126.847 39.5951 128.321 38.1216 130.134 38.1216C131.948 38.1216 133.422 39.5951 133.422 41.4087Z" fill="white"/>
<path d="M130.474 33.8144H129.681V39.1417H130.474V33.8144Z" fill="white"/>
<path d="M8.74048 41.4087C8.74048 43.2222 7.26697 44.6957 5.45343 44.6957C3.63989 44.6957 2.16638 43.2222 2.16638 41.4087C2.16638 39.5951 3.63989 38.1216 5.45343 38.1216C7.15363 38.1216 8.74048 39.5951 8.74048 41.4087Z" fill="white"/>
<path d="M5.68015 33.8144H4.88672V39.1417H5.68015V33.8144Z" fill="white"/>
<path d="M18.4883 45.6024C18.4883 47.416 17.0148 48.8895 15.2012 48.8895C13.3877 48.8895 11.9142 47.416 11.9142 45.6024C11.9142 43.7889 13.3877 42.3154 15.2012 42.3154C17.0148 42.202 18.4883 43.7889 18.4883 45.6024Z" fill="white"/>
<path d="M15.5412 38.0082H14.7478V43.3355H15.5412V38.0082Z" fill="white"/>
<path d="M29.0295 47.6427C29.0295 49.4562 27.556 50.9297 25.7425 50.9297C23.9289 50.9297 22.4554 49.4562 22.4554 47.6427C22.4554 45.8291 23.9289 44.3557 25.7425 44.3557C27.556 44.3557 29.0295 45.8291 29.0295 47.6427Z" fill="white"/>
<path d="M26.0825 40.0485H25.2891V45.3757H26.0825V40.0485Z" fill="white"/>
<path d="M39.5708 49.7962C39.5708 51.6098 38.0973 53.0833 36.2838 53.0833C34.4702 53.0833 32.9967 51.6098 32.9967 49.7962C32.9967 47.9827 34.4702 46.5092 36.2838 46.5092C37.984 46.3959 39.5708 47.9827 39.5708 49.7962Z" fill="white"/>
<path d="M36.5105 42.2021H35.717V47.5293H36.5105V42.2021Z" fill="white"/>
<path d="M49.9986 50.4764C49.9986 52.2899 48.5251 53.7634 46.7116 53.7634C44.8981 53.7634 43.4246 52.2899 43.4246 50.4764C43.4246 48.6628 44.8981 47.1893 46.7116 47.1893C48.5251 47.1893 49.9986 48.6628 49.9986 50.4764Z" fill="white"/>
<path d="M47.0516 42.8821H46.2582V48.2094H47.0516V42.8821Z" fill="white"/>
<path d="M60.5398 51.1564C60.5398 52.97 59.0663 54.4435 57.2528 54.4435C55.4392 54.4435 53.9657 52.97 53.9657 51.1564C53.9657 49.3429 55.4392 47.8694 57.2528 47.8694C59.0663 47.8694 60.5398 49.3429 60.5398 51.1564Z" fill="white"/>
<path d="M57.5928 43.5622H56.7993V48.8895H57.5928V43.5622Z" fill="white"/>
<path d="M67.6806 46.2825C97.1507 46.2825 122.54 40.7286 133.875 32.9077V32.7943C132.628 29.0539 130.248 29.5073 130.248 29.5073C130.134 33.5878 122.767 36.5348 120.047 37.2148C105.198 40.8419 87.2895 42.8822 68.134 42.8822C68.0207 42.8822 67.4539 42.8822 67.3406 42.8822C48.185 42.8822 30.3897 40.8419 15.4279 37.2148C12.7076 36.5348 5.22676 33.5878 5.11342 29.5073C5.11342 29.5073 2.73314 29.0539 1.48633 32.7943V32.9077C12.9343 40.8419 38.2106 46.2825 67.6806 46.2825Z" fill="#1C8D1B"/>
<path d="M48.7084 28.4856H86.6459L87.9584 33.9291C87.9584 33.9291 75.5182 34.1745 67.5326 34.1731C59.6626 34.1717 47.3959 33.9291 47.3959 33.9291L48.7084 28.4856Z" fill="#79E093"/>
</svg>
