<svg width="89" height="40" viewBox="0 0 89 40" fill="none" xmlns="http://www.w3.org/2000/svg">
<path d="M29.267 9.37365C22.5497 7.83256 19.9212 10.8505 14.0801 11.4284C6.38931 12.1348 3.3714 5.77778 2.49523 3.59457C2.30053 3.14509 2.10582 2.50297 1.81377 1.79663C0.54819 1.15451 -0.522681 2.1177 1.91112 10.2726C5.22108 21.2529 5.90255 27.2888 15.3457 30.9489C24.7888 34.609 27.2226 33.3247 34.524 35.9574C35.3028 36.2785 36.3737 36.8564 37.7366 37.4985C39.0022 35.829 40.4625 33.2605 41.9228 29.3436C45.5248 19.6476 35.9843 10.9147 29.267 9.37365ZM24.8862 22.6013C15.6377 21.1887 11.2569 15.4738 11.2569 15.4738C11.2569 15.4738 21.5762 14.7675 29.3644 16.5654C37.1525 18.3633 38.5155 23.4361 38.5155 23.4361C38.5155 23.4361 34.1346 23.9498 24.8862 22.6013Z" fill="#23C865"/>
<path d="M59.651 9.37319C66.3682 7.83211 68.9967 10.8501 74.8379 11.428C82.5287 12.1343 85.5466 5.77732 86.4227 3.59411C86.6174 3.14463 86.8121 2.50251 87.1042 1.79618C88.3698 1.15406 89.4407 2.11724 87.0069 10.2722C83.6969 21.2524 83.0154 27.2883 73.5723 30.9484C64.1291 34.6085 61.6953 33.3243 54.3939 35.957C53.6151 36.278 52.5443 36.8559 51.1813 37.4981C49.9158 35.8285 48.4555 33.2601 46.9952 29.3431C43.3932 19.6471 52.9337 10.9143 59.651 9.37319ZM64.0318 22.6009C73.2802 21.1882 77.6611 15.4733 77.6611 15.4733C77.6611 15.4733 67.3418 14.767 59.5536 16.5649C51.7654 18.3629 50.4025 23.4356 50.4025 23.4356C50.4025 23.4356 54.7834 23.9493 64.0318 22.6009Z" fill="#23C865"/>
<path d="M74.8277 11.4279C72.658 11.2133 70.9315 10.6619 69.2741 10.1326C66.4697 9.23701 63.8629 8.40452 59.6408 9.37316C52.9235 10.9143 43.383 19.6471 47.1798 29.4073C48.64 33.3242 50.1003 35.8927 51.3659 37.5622C49.4189 38.4612 47.0824 39.4244 44.4539 39.4886C41.8254 39.4886 39.489 38.4612 37.5419 37.5622C38.7101 35.8927 40.1704 33.3242 41.7281 29.4073C45.5248 19.7113 35.8869 10.9785 29.1697 9.43737C24.988 8.47802 22.3909 9.31031 19.6169 10.1993C17.9348 10.7383 16.1877 11.2982 13.9827 11.4922C6.38929 12.1985 3.27403 5.8415 2.39786 3.65829C2.20316 3.27302 1.9111 2.56669 1.7164 1.86036C2.20316 2.053 2.68992 2.43827 2.98198 2.82354C4.24755 4.2362 5.31842 5.07096 8.23898 6.61204C10.2225 7.61507 13.4121 6.36732 16.9058 5.00063C18.5562 4.35498 20.2745 3.68278 21.9656 3.20881C29.1697 1.18967 35.0872 0.758928 43.5622 0.708084C52.6892 0.653327 59.0168 1.26994 66.8449 3.1446C68.7747 3.60676 70.7097 4.37303 72.5327 5.09495C75.7946 6.38669 78.698 7.53643 80.5715 6.54783C83.492 5.07096 84.5629 4.17199 85.8285 2.75932C85.934 2.67238 86.0394 2.57601 86.1468 2.47788C86.436 2.21365 86.7391 1.93661 87.0941 1.79614C86.9428 2.16197 86.8177 2.51057 86.7051 2.8241C86.6003 3.11594 86.5065 3.3774 86.4126 3.59408C85.5364 5.77729 82.5185 12.1343 74.8277 11.4279Z" fill="#C4C4C4"/>
<path d="M74.8277 11.4279C72.658 11.2133 70.9315 10.6619 69.2741 10.1326C66.4697 9.23701 63.8629 8.40452 59.6408 9.37316C52.9235 10.9143 43.383 19.6471 47.1798 29.4073C48.64 33.3242 50.1003 35.8927 51.3659 37.5622C49.4189 38.4612 47.0824 39.4244 44.4539 39.4886C41.8254 39.4886 39.489 38.4612 37.5419 37.5622C38.7101 35.8927 40.1704 33.3242 41.7281 29.4073C45.5248 19.7113 35.8869 10.9785 29.1697 9.43737C24.988 8.47802 22.3909 9.31031 19.6169 10.1993C17.9348 10.7383 16.1877 11.2982 13.9827 11.4922C6.38929 12.1985 3.27403 5.8415 2.39786 3.65829C2.20316 3.27302 1.9111 2.56669 1.7164 1.86036C2.20316 2.053 2.68992 2.43827 2.98198 2.82354C4.24755 4.2362 5.31842 5.07096 8.23898 6.61204C10.2225 7.61507 13.4121 6.36732 16.9058 5.00063C18.5562 4.35498 20.2745 3.68278 21.9656 3.20881C29.1697 1.18967 35.0872 0.758928 43.5622 0.708084C52.6892 0.653327 59.0168 1.26994 66.8449 3.1446C68.7747 3.60676 70.7097 4.37303 72.5327 5.09495C75.7946 6.38669 78.698 7.53643 80.5715 6.54783C83.492 5.07096 84.5629 4.17199 85.8285 2.75932C85.934 2.67238 86.0394 2.57601 86.1468 2.47788C86.436 2.21365 86.7391 1.93661 87.0941 1.79614C86.9428 2.16197 86.8177 2.51057 86.7051 2.8241C86.6003 3.11594 86.5065 3.3774 86.4126 3.59408C85.5364 5.77729 82.5185 12.1343 74.8277 11.4279Z" stroke="black"/>
</svg>
