<svg width="51" height="24" viewBox="0 0 51 24" fill="none" xmlns="http://www.w3.org/2000/svg">
<path d="M21.7312 10.1179C21.7312 10.1179 15.9905 5.19727 10.8462 3.4825C5.70189 1.69318 1.82503 0.947632 1.82503 0.947632C1.82503 0.947632 -0.11339 6.01737 0.110275 10.7889C0.259385 15.5604 1.2286 23.6123 1.2286 23.6123C1.2286 23.6123 6.89477 23.2396 12.3373 21.3757C17.7798 19.5118 21.8058 16.5296 21.8058 16.5296V10.1179H21.7312Z" fill="#23C865"/>
<path d="M29.1868 10.1179C29.1868 10.1179 34.9275 5.19727 40.0718 3.4825C45.2161 1.69318 49.0929 0.947632 49.0929 0.947632C49.0929 0.947632 51.0314 6.01737 50.8077 10.7889C50.6586 15.5604 49.6894 23.6123 49.6894 23.6123C49.6894 23.6123 44.0232 23.2396 38.5807 21.3757C33.1382 19.4373 29.1122 16.5296 29.1122 16.5296V10.1179H29.1868Z" fill="#23C865"/>
<path d="M22.9241 13.2493C22.9241 13.2493 18.7491 11.6091 13.232 10.5653C9.05691 9.74518 6.44749 16.3806 15.0959 15.3368C23.7442 14.293 22.9241 13.2493 22.9241 13.2493Z" fill="#1CA151"/>
<path d="M27.3974 13.2493C27.3974 13.2493 31.5725 11.6091 37.0895 10.5653C41.2646 9.74518 43.8741 16.3806 35.2257 15.3368C26.5027 14.293 27.3974 13.2493 27.3974 13.2493Z" fill="#1CA151"/>
<path d="M29.1867 10.1179H21.7312V16.3805H29.1867V10.1179Z" fill="#1CA151"/>
</svg>
