<svg width="44" height="42" viewBox="0 0 44 42" fill="none" xmlns="http://www.w3.org/2000/svg">
<mask id="mask0_5580_4309" style="mask-type:alpha" maskUnits="userSpaceOnUse" x="0" y="0" width="44" height="42">
<path d="M36.17 34.6562L34.9825 38.6562L24.8575 41.9688C19.295 39.8646 8.09498 35.6188 7.79498 35.4688C7.49498 35.3187 2.87832 19.0312 0.607483 10.9062L12.7325 0.78125L36.17 5.84375L41.3575 20.4688L43.17 32.1562L36.17 34.6562Z" fill="#C4C4C4"/>
</mask>
<g mask="url(#mask0_5580_4309)">
<path d="M34.6422 11.4426C34.327 11.4232 34.0525 11.4961 33.8202 11.5942C31.5426 6.94461 26.909 3.65421 21.4151 3.31701C13.2543 2.81614 6.13121 9.11545 5.63033 17.2762C5.14742 25.1444 11.454 32.2611 19.6079 32.7616C22.4882 32.9384 25.244 32.3001 27.6127 30.9941C27.6489 31.0568 27.6893 31.1175 27.7341 31.1759C27.0859 31.746 26.6383 32.4808 26.5887 33.2903C26.5431 34.0323 26.8062 34.8447 27.5021 35.4877C28.1923 36.1255 29.2673 36.5605 30.7905 36.654L35.6813 36.9542L35.7761 36.96L35.8664 36.9306L37.5835 36.3728L42.803 37.387L42.8351 37.3932L42.8678 37.3952L52.849 38.0078C54.3721 38.1013 55.4923 37.801 56.2553 37.2524C57.0246 36.6994 57.3851 35.9252 57.4306 35.1832C57.4808 34.3651 57.1203 33.4776 56.4281 32.8299C56.461 32.7845 56.4921 32.738 56.5213 32.6906C58.7864 34.3774 61.5233 35.5346 64.5112 35.718C72.6719 36.2189 79.7951 29.9195 80.296 21.7587C80.463 19.0374 79.8868 16.4516 78.7282 14.1866L79.7783 13.5379C80.5746 14.2121 81.5632 14.623 82.7333 14.6948C85.5042 14.8649 87.9661 12.6877 88.1361 9.9168C88.3062 7.14587 86.1291 4.68401 83.3581 4.51394C80.5872 4.34387 78.1254 6.52101 77.9553 9.29193C77.9225 9.82549 77.9615 10.3779 78.1377 10.9437L77.1868 11.5697C74.6816 8.40533 70.8087 6.24841 66.4366 5.98006C60.8406 5.63661 55.8312 8.43407 53.0042 12.7749C52.7716 12.6454 52.4836 12.5376 52.1093 12.5146C50.7837 12.4333 49.7982 13.4553 48.8924 15.1086C47.7947 17.0958 46.7563 19.9804 46.0099 22.6948C45.2675 25.3947 44.7895 28.0142 44.8608 29.4576L44.8609 29.4592C44.9124 30.4395 45.2329 31.2276 45.7591 31.8462C46.2796 32.4579 46.9762 32.8745 47.738 33.1632C49.2438 33.7338 51.1166 33.8435 52.7087 33.8915L53.0003 33.9094C53.8175 33.9596 54.3742 34.1987 54.7094 34.4633C55.0548 34.736 55.1372 35.0051 55.1288 35.1421C55.1258 35.1916 55.0855 35.3491 54.7471 35.5025C54.4095 35.6555 53.8413 35.7644 52.9899 35.7121L43.0362 35.1012L37.71 34.1794L37.6024 34.1608L37.4968 34.1887L35.7416 34.6535L30.9314 34.3583C30.08 34.306 29.5293 34.1285 29.213 33.9353C28.8959 33.7417 28.8752 33.5804 28.8782 33.531C28.8855 33.4117 29.0054 33.1524 29.4094 32.9141C29.7937 32.6875 30.3796 32.521 31.1415 32.5678L31.4409 32.5862L31.4833 32.5888C33.0511 32.685 34.9079 32.7991 36.4541 32.4342C37.2434 32.2479 37.9862 31.9301 38.5786 31.3942C39.1783 30.8518 39.5929 30.1136 39.764 29.1464L39.7643 29.1448C40.0116 27.7209 39.8575 25.0626 39.4509 22.2923C39.0421 19.507 38.3643 16.5171 37.5178 14.4106C36.8155 12.6451 35.8604 11.5173 34.6422 11.4426ZM81.4382 12.3599L81.7688 12.1272L81.5213 11.7266L80.4277 9.95629L80.1718 9.54209L79.7636 9.77949C79.7511 9.6273 79.7477 9.47101 79.758 9.30239C79.8698 7.48195 81.4336 6.09903 83.254 6.21076C85.0744 6.32249 86.4574 7.88627 86.3456 9.70671C86.2339 11.5271 84.6701 12.9101 82.8497 12.7984C82.3136 12.7655 81.8671 12.616 81.4382 12.3599ZM52.6606 31.2836C50.9483 31.1765 49.5602 31.0346 48.5899 30.6901C48.1025 30.5171 47.7607 30.3061 47.5388 30.0576C47.3259 29.8193 47.1961 29.5167 47.182 29.0965L47.1821 29.0965L47.1814 29.0843C47.1135 27.9167 47.5166 25.5578 48.2248 22.9869C48.9289 20.4307 49.9088 17.7581 50.9425 15.9733L50.9426 15.9733L50.9483 15.9629C51.3849 15.1659 51.6966 14.8275 51.8715 14.6893C51.8742 14.6872 51.8769 14.6851 51.8794 14.6831C51.2394 16.2035 50.7761 17.9132 50.664 19.7397C50.4377 23.4264 51.5951 26.9209 53.651 29.6798C53.095 30.0194 52.7029 30.5946 52.6606 31.2836ZM35.3728 15.0069L35.3733 15.0081C36.1349 16.909 36.7811 19.6869 37.1798 22.3112C37.5809 24.9507 37.7162 27.3372 37.5075 28.4865C37.4174 28.9349 37.2353 29.2361 36.9884 29.4524C36.7329 29.6761 36.3717 29.8404 35.8766 29.9464C34.8656 30.1627 33.466 30.1056 31.7 29.9972L31.6 29.991C31.6019 29.964 31.6035 29.9384 31.6049 29.9147C31.6054 29.9067 31.6058 29.8988 31.6063 29.8912C31.6401 29.3405 31.4249 28.7723 31.0581 28.3695C33.5627 25.8771 35.1648 22.5156 35.3989 18.7026C35.4948 17.1389 35.3247 15.6308 34.9968 14.1877C35.1087 14.3934 35.2351 14.6606 35.3728 15.0069ZM66.202 8.16982C73.1128 8.59398 78.3369 14.5012 77.9127 21.4121C77.4886 28.323 71.5813 33.547 64.6704 33.1229C57.7596 32.6987 52.5355 26.7914 52.9597 19.8806C53.3838 12.9697 59.2911 7.74565 66.202 8.16982ZM21.2865 5.41308C28.1973 5.83724 33.4214 11.7445 32.9972 18.6554C32.5731 25.5662 26.6658 30.7903 19.755 30.3661C12.8441 29.942 7.62003 24.0347 8.0442 17.1238C8.46836 10.213 14.3756 4.98892 21.2865 5.41308Z" fill="#23C865" stroke="#23C865"/>
</g>
</svg>
