<svg width="79" height="25" viewBox="0 0 79 25" fill="none" xmlns="http://www.w3.org/2000/svg">
<rect x="8.52148" y="3.33517" width="25.5" height="18.25" rx="2" fill="black" fill-opacity="0.95"/>
<rect x="44.3965" y="3.15628" width="26" height="18.6078" rx="2" fill="black" fill-opacity="0.95"/>
<path d="M16.6373 2.52264L20.7715 2.52264L33.084 22.0851L29.084 22.0851L16.6373 2.52264Z" fill="#626262" fill-opacity="0.5"/>
<path d="M52.8164 2.70734L56.9506 2.70734L69.2631 22.2698L65.2631 22.2698L52.8164 2.70734Z" fill="#626262" fill-opacity="0.5"/>
<path d="M22.209 3.14764L25.209 3.14764L34.7883 19.5058L33.6286 21.1603L22.209 3.14764Z" fill="#626262" fill-opacity="0.5"/>
<path d="M58.3881 3.33234L61.3881 3.33234L70.9674 19.6905L69.8077 21.345L58.3881 3.33234Z" fill="#626262" fill-opacity="0.5"/>
<path fill-rule="evenodd" clip-rule="evenodd" d="M8.0699 5.44334V11.2415L2.5886 7.97538C2.31385 7.81167 1.94264 7.87803 1.75948 8.1236C1.57631 8.36916 1.65055 8.70095 1.9253 8.86466L8.0699 12.526V19.5338C8.0699 21.2504 9.62683 22.642 11.5474 22.642H32.0953C34.0159 22.642 35.5728 21.2504 35.5728 19.5338V13.5574C35.7464 13.5573 35.9185 13.49 36.0366 13.3603C37.6858 11.5487 39.2334 11.2562 40.4598 11.4891C41.7545 11.7348 42.8524 12.596 43.4609 13.3387C43.5779 13.4815 43.7593 13.5573 43.9432 13.5574V19.5338C43.9432 21.2504 45.5002 22.642 47.4208 22.642H67.9686C69.8892 22.642 71.4462 21.2504 71.4462 19.5338V12.5262L77.5909 8.86477C77.8656 8.70105 77.9399 8.36927 77.7567 8.1237C77.5735 7.87813 77.2023 7.81177 76.9276 7.97548L71.4462 11.2417V5.44334C71.4462 3.72673 69.8892 2.33514 67.9686 2.33514H47.4208C45.5002 2.33514 43.9432 3.72673 43.9432 5.44334V12.1845C43.1849 11.4483 42.0615 10.7005 40.7083 10.4436C39.1044 10.1391 37.3073 10.5472 35.5728 12.2092V5.44334C35.5728 3.72673 34.0159 2.33514 32.0953 2.33514H11.5474C9.62683 2.33514 8.0699 3.72673 8.0699 5.44334ZM32.0953 3.40393H11.5474C10.2872 3.40393 9.26568 4.317 9.26568 5.44334V12.047C9.33915 12.1876 9.34255 12.3539 9.26568 12.5002V19.5338C9.26568 20.6602 10.2872 21.5732 11.5474 21.5732H32.0953C33.3555 21.5732 34.377 20.6602 34.377 19.5338V5.44334C34.377 4.317 33.3555 3.40393 32.0953 3.40393ZM67.9686 3.40393H47.4208C46.1606 3.40393 45.139 4.317 45.139 5.44334V19.5338C45.139 20.6602 46.1606 21.5732 47.4208 21.5732H67.9686C69.2288 21.5732 70.2504 20.6602 70.2504 19.5338V5.44334C70.2504 4.317 69.2288 3.40393 67.9686 3.40393Z" fill="#1E1E1E" stroke="black" stroke-width="2"/>
</svg>
