<svg width="77" height="24" viewBox="0 0 77 24" fill="none" xmlns="http://www.w3.org/2000/svg">
<path fill-rule="evenodd" clip-rule="evenodd" d="M6.47217 3.62782V10.1769L0.938487 6.48781C0.661114 6.30289 0.286354 6.37784 0.101439 6.65521C-0.0834762 6.93259 -0.00852478 7.30735 0.268849 7.49226L6.47217 11.6278V19.5432C6.47217 21.4822 8.04399 23.054 9.98293 23.054H30.7272C32.6661 23.054 34.2379 21.4822 34.2379 19.5432V12.7928C34.4132 12.7927 34.5869 12.7166 34.7061 12.5701C36.3711 10.5239 37.9335 10.1936 39.1717 10.4566C40.4787 10.7342 41.5871 11.7069 42.2014 12.5458C42.3195 12.7071 42.5027 12.7926 42.6884 12.7928V19.5432C42.6884 21.4822 44.2602 23.054 46.1991 23.054H66.9434C68.8823 23.054 70.4542 21.4822 70.4542 19.5432V11.628L76.6576 7.49238C76.935 7.30746 77.0099 6.9327 76.825 6.65533C76.6401 6.37796 76.2653 6.303 75.988 6.48792L70.4542 10.1771V3.62782C70.4542 1.68888 68.8823 0.117065 66.9434 0.117065H46.1991C44.2602 0.117065 42.6884 1.68888 42.6884 3.62782V11.2421C41.9228 10.4105 40.7887 9.56589 39.4225 9.27569C37.8033 8.93176 35.989 9.39273 34.2379 11.27V3.62782C34.2379 1.68888 32.6661 0.117065 30.7272 0.117065H9.98293C8.04399 0.117065 6.47217 1.68888 6.47217 3.62782ZM30.7272 1.32427H9.98293C8.71071 1.32427 7.67938 2.35561 7.67938 3.62782V11.0867C7.75355 11.2455 7.75699 11.4334 7.67938 11.5986V19.5432C7.67938 20.8155 8.71071 21.8468 9.98293 21.8468H30.7272C31.9994 21.8468 33.0307 20.8155 33.0307 19.5432V3.62782C33.0307 2.35561 31.9994 1.32427 30.7272 1.32427ZM66.9434 1.32427H46.1991C44.9269 1.32427 43.8956 2.35561 43.8956 3.62782V19.5432C43.8956 20.8155 44.9269 21.8468 46.1991 21.8468H66.9434C68.2156 21.8468 69.2469 20.8155 69.2469 19.5432V3.62782C69.2469 2.35561 68.2156 1.32427 66.9434 1.32427Z" fill="#1E1E1E"/>
</svg>
