<svg width="79" height="29" viewBox="0 0 79 29" fill="none" xmlns="http://www.w3.org/2000/svg">
<path d="M43.5788 16.8002C43.7927 17.0558 44.1734 17.0896 44.4291 16.8756C44.6847 16.6617 44.7185 16.281 44.5045 16.0253L43.5788 16.8002ZM33.942 16.0017C33.715 16.2458 33.7288 16.6277 33.9729 16.8548C34.2171 17.0818 34.599 17.0679 34.826 16.8238L33.942 16.0017ZM6.94388 12.4469C7.22125 12.6318 7.59601 12.5569 7.78092 12.2795C7.96584 12.0021 7.89089 11.6274 7.61352 11.4424L6.94388 12.4469ZM1.08454 7.0898C0.807171 6.90488 0.432412 6.97983 0.247497 7.25721C0.0625814 7.53458 0.137533 7.90934 0.414906 8.09425L1.08454 7.0898ZM71.1024 11.2491C70.8251 11.434 70.7501 11.8088 70.935 12.0861C71.1199 12.3635 71.4947 12.4385 71.7721 12.2536L71.1024 11.2491ZM78.0109 8.09437C78.2882 7.90945 78.3632 7.53469 78.1783 7.25732C77.9934 6.97995 77.6186 6.90499 77.3412 7.08991L78.0109 8.09437ZM44.5045 16.0253C43.6789 15.0389 42.1657 13.8475 40.2762 13.4963C38.3375 13.136 36.1015 13.6795 33.942 16.0017L34.826 16.8238C36.7329 14.7732 38.5633 14.4058 40.0556 14.6832C41.597 14.9697 42.8795 15.9647 43.5788 16.8002L44.5045 16.0253ZM34.0513 14.14C34.0513 21.2191 28.3153 26.9573 21.2402 26.9573V28.1645C28.9826 28.1645 35.2586 21.8853 35.2586 14.14H34.0513ZM21.2402 26.9573C14.165 26.9573 8.42904 21.2191 8.42904 14.14H7.22183C7.22183 21.8853 13.4978 28.1645 21.2402 28.1645V26.9573ZM8.42904 14.14C8.42904 7.06091 14.165 1.32266 21.2402 1.32266V0.115452C13.4978 0.115452 7.22183 6.39471 7.22183 14.14H8.42904ZM21.2402 1.32266C28.3153 1.32266 34.0513 7.06091 34.0513 14.14H35.2586C35.2586 6.39471 28.9826 0.115452 21.2402 0.115452V1.32266ZM70.2676 14.14C70.2676 21.2191 64.5315 26.9573 57.4564 26.9573V28.1645C65.1988 28.1645 71.4748 21.8853 71.4748 14.14H70.2676ZM57.4564 26.9573C50.3813 26.9573 44.6453 21.2191 44.6453 14.14H43.438C43.438 21.8853 49.714 28.1645 57.4564 28.1645V26.9573ZM44.6453 14.14C44.6453 7.06091 50.3813 1.32266 57.4564 1.32266V0.115452C49.714 0.115452 43.438 6.39471 43.438 14.14H44.6453ZM57.4564 1.32266C64.5315 1.32266 70.2676 7.06091 70.2676 14.14H71.4748C71.4748 6.39471 65.1988 0.115452 57.4564 0.115452V1.32266ZM7.61352 11.4424L1.08454 7.0898L0.414906 8.09425L6.94388 12.4469L7.61352 11.4424ZM71.7721 12.2536L78.0109 8.09437L77.3412 7.08991L71.1024 11.2491L71.7721 12.2536Z" fill="#1E1E1E"/>
</svg>
