<svg width="292" height="292" viewBox="0 0 292 292" fill="none" xmlns="http://www.w3.org/2000/svg">
<path d="M145.66 291.32C226.106 291.32 291.32 226.106 291.32 145.66C291.32 65.2142 226.106 0 145.66 0C65.2142 0 0 65.2142 0 145.66C0 226.106 65.2142 291.32 145.66 291.32Z" fill="#3259A5"/>
<path d="M195.9 155.16C191.45 178.74 170.76 196.57 145.89 196.57C117.77 196.57 94.9799 173.78 94.9799 145.66C94.9799 117.54 117.77 94.75 145.89 94.75C170.76 94.75 191.45 112.59 195.9 136.16H247.27C242.48 84.38 198.92 43.84 145.89 43.84C89.6498 43.84 44.0698 89.43 44.0698 145.66C44.0698 201.9 89.6598 247.48 145.89 247.48C198.92 247.48 242.48 206.94 247.27 155.16H195.9Z" fill="white"/>
</svg>
