<svg width="291" height="291" viewBox="0 0 291 291" fill="none" xmlns="http://www.w3.org/2000/svg">
<circle cx="145.5" cy="145.5" r="145.5" fill="white"/>
<path d="M91.8787 110.142C122.026 80.6193 170.893 80.6193 201.079 110.142L204.706 113.691C206.227 115.173 206.227 117.552 204.706 119.034L192.304 131.202C191.563 131.943 190.315 131.943 189.574 131.202L184.582 126.327C163.561 105.735 129.436 105.735 108.415 126.327L103.072 131.553C102.331 132.294 101.083 132.294 100.342 131.553L87.9007 119.385C86.3797 117.903 86.3797 115.524 87.9007 114.042L91.8787 110.142ZM226.741 135.258L237.778 146.061C239.299 147.543 239.299 149.922 237.778 151.404L187.975 200.193C186.454 201.675 184.036 201.675 182.515 200.193L147.142 165.561C146.752 165.21 146.167 165.21 145.777 165.561L110.443 200.193C108.922 201.675 106.504 201.675 104.983 200.193L55.1408 151.443C53.6198 149.961 53.6198 147.582 55.1408 146.1L66.1777 135.297C67.6987 133.815 70.1167 133.815 71.6377 135.297L107.011 169.929C107.401 170.28 107.986 170.28 108.376 169.929L143.71 135.297C145.231 133.815 147.649 133.815 149.17 135.297L184.543 169.929C184.933 170.28 185.518 170.28 185.908 169.929L221.281 135.297C222.763 133.776 225.22 133.776 226.741 135.258Z" fill="#3A99FB"/>
</svg>
