<svg width="119" height="93" viewBox="0 0 119 93" fill="none" xmlns="http://www.w3.org/2000/svg">
<rect x="6.21" y="42.67" width="105.27" height="25.41" rx="12.705" fill="white" stroke="#1E1E1E" stroke-width="2.42"/>
<rect x="21.94" y="11.21" width="75.02" height="79.86" rx="30.25" fill="white" stroke="#1E1E1E" stroke-width="2.42"/>
<path d="M100.725 14.1715C86.4457 -5.26229 68.2938 -2.29899 60.2308 8.67212C59.9414 9.07182 59.6382 9.60935 59.3487 10.1744C59.1558 9.85744 58.949 9.55421 58.7561 9.29234C50.7345 -1.76146 32.5136 -5.31742 18.1795 14.1852C11.3708 23.4611 6.409 25.3906 0 25.2115C3.23896 29.8011 6.91896 38.6773 11.2605 43.1705C17.2698 49.4003 27.9791 46.2991 32.8444 33.9773C39.3637 17.4518 48.2122 13.3996 59.459 13.3996C70.7057 13.3996 79.5405 17.4518 86.0736 33.9635C90.9389 46.2854 101.648 49.4003 107.657 43.1567C111.999 38.6497 115.679 29.7736 118.918 25.1977C112.495 25.3769 107.533 23.4473 100.725 14.1715Z" fill="#626160"/>
<path d="M31.8379 33.9157H57.7928V61.6815H63.8289" stroke="#1E1E1E" stroke-width="2.41441" stroke-linecap="round"/>
<path d="M70.4685 33.9157H88.5766" stroke="#1E1E1E" stroke-width="2.41441" stroke-linecap="round"/>
<ellipse cx="42.0991" cy="47.195" rx="4.22523" ry="6.03604" fill="#1E1E1E"/>
<circle cx="43.9099" cy="45.9879" r="1.20721" fill="white"/>
<ellipse cx="78.3153" cy="47.195" rx="4.22523" ry="6.03604" fill="#1E1E1E"/>
<circle cx="80.1261" cy="45.9879" r="1.20721" fill="white"/>
<path d="M54.5676 76.168C56.3784 78.18 61.2073 80.9968 66.0361 76.168" stroke="#1E1E1E" stroke-width="2.41441" stroke-linecap="round"/>
</svg>
