<svg width="119" height="93" viewBox="0 0 119 93" fill="none" xmlns="http://www.w3.org/2000/svg">
<rect x="6.21" y="42.67" width="105.27" height="25.41" rx="12.705" fill="white" stroke="#1E1E1E" stroke-width="2.42"/>
<rect x="21.94" y="11.21" width="75.02" height="79.86" rx="30.25" fill="white" stroke="#1E1E1E" stroke-width="2.42"/>
<path d="M100.725 14.1715C86.4457 -5.26229 68.2938 -2.29899 60.2308 8.67212C59.9414 9.07182 59.6382 9.60935 59.3487 10.1744C59.1558 9.85744 58.949 9.55421 58.7561 9.29234C50.7345 -1.76146 32.5136 -5.31742 18.1795 14.1852C11.3708 23.4611 6.409 25.3906 0 25.2115C3.23896 29.8011 6.91896 38.6773 11.2605 43.1705C17.2698 49.4003 27.9791 46.2991 32.8444 33.9773C39.3637 17.4518 48.2122 13.3996 59.459 13.3996C70.7057 13.3996 79.5405 17.4518 86.0736 33.9635C90.9389 46.2854 101.648 49.4003 107.657 43.1567C111.999 38.6497 115.679 29.7736 118.918 25.1977C112.495 25.3769 107.533 23.4473 100.725 14.1715Z" fill="#626160"/>
<path d="M31.0896 34H57.0446V61.7658H63.0806" stroke="#1E1E1E" stroke-width="2.41441" stroke-linecap="round"/>
<path d="M69.7202 34H87.8283" stroke="#1E1E1E" stroke-width="2.41441" stroke-linecap="round"/>
<path d="M45.5652 50.2289C45.5652 51.2129 45.2052 52.0589 44.4852 52.7669C43.7652 53.4629 42.7272 53.8949 41.3712 54.0629V56.0789H39.5712V54.1169C38.6832 54.0689 37.8372 53.9129 37.0332 53.6489C36.2292 53.3849 35.5812 53.0609 35.0892 52.6769L36.0792 50.4809C36.5352 50.8169 37.0692 51.0989 37.6812 51.3269C38.2932 51.5549 38.9232 51.6989 39.5712 51.7589V48.7529C38.7192 48.5489 37.9992 48.3209 37.4112 48.0689C36.8232 47.8169 36.3312 47.4509 35.9352 46.9709C35.5392 46.4789 35.3412 45.8309 35.3412 45.0269C35.3412 44.0309 35.7012 43.1789 36.4212 42.4709C37.1532 41.7509 38.2032 41.3129 39.5712 41.1569V39.1589H41.3712V41.1209C42.8472 41.2409 44.0652 41.6069 45.0252 42.2189L44.1252 44.4329C43.2252 43.9169 42.3072 43.6049 41.3712 43.4969V46.5569C42.2112 46.7489 42.9192 46.9709 43.4952 47.2229C44.0832 47.4629 44.5752 47.8289 44.9712 48.3209C45.3672 48.8009 45.5652 49.4369 45.5652 50.2289ZM38.2392 44.8829C38.2392 45.1829 38.3532 45.4289 38.5812 45.6209C38.8092 45.8129 39.1392 45.9749 39.5712 46.1069V43.5509C39.1152 43.6589 38.7792 43.8329 38.5632 44.0729C38.3472 44.3009 38.2392 44.5709 38.2392 44.8829ZM41.3712 51.6869C41.8032 51.5909 42.1272 51.4349 42.3432 51.2189C42.5592 51.0029 42.6672 50.7449 42.6672 50.4449C42.6672 50.1449 42.5532 49.8989 42.3252 49.7069C42.1092 49.5149 41.7912 49.3469 41.3712 49.2029V51.6869Z" fill="#23C865"/>
<path d="M84.0042 50.2289C84.0042 51.2129 83.6442 52.0589 82.9242 52.7669C82.2042 53.4629 81.1662 53.8949 79.8102 54.0629V56.0789H78.0102V54.1169C77.1222 54.0689 76.2762 53.9129 75.4722 53.6489C74.6682 53.3849 74.0202 53.0609 73.5282 52.6769L74.5182 50.4809C74.9742 50.8169 75.5082 51.0989 76.1202 51.3269C76.7322 51.5549 77.3622 51.6989 78.0102 51.7589V48.7529C77.1582 48.5489 76.4382 48.3209 75.8502 48.0689C75.2622 47.8169 74.7702 47.4509 74.3742 46.9709C73.9782 46.4789 73.7802 45.8309 73.7802 45.0269C73.7802 44.0309 74.1402 43.1789 74.8602 42.4709C75.5922 41.7509 76.6422 41.3129 78.0102 41.1569V39.1589H79.8102V41.1209C81.2862 41.2409 82.5042 41.6069 83.4642 42.2189L82.5642 44.4329C81.6642 43.9169 80.7462 43.6049 79.8102 43.4969V46.5569C80.6502 46.7489 81.3582 46.9709 81.9342 47.2229C82.5222 47.4629 83.0142 47.8289 83.4102 48.3209C83.8062 48.8009 84.0042 49.4369 84.0042 50.2289ZM76.6782 44.8829C76.6782 45.1829 76.7922 45.4289 77.0202 45.6209C77.2482 45.8129 77.5782 45.9749 78.0102 46.1069V43.5509C77.5542 43.6589 77.2182 43.8329 77.0022 44.0729C76.7862 44.3009 76.6782 44.5709 76.6782 44.8829ZM79.8102 51.6869C80.2422 51.5909 80.5662 51.4349 80.7822 51.2189C80.9982 51.0029 81.1062 50.7449 81.1062 50.4449C81.1062 50.1449 80.9922 49.8989 80.7642 49.7069C80.5482 49.5149 80.2302 49.3469 79.8102 49.2029V51.6869Z" fill="#23C865"/>
<path d="M59.37 82.6666C51.9747 82.6666 46.02 78.0749 46.02 72.3777C46.02 69.9968 47.0765 68.8914 49.2855 68.8914C50.342 68.8914 51.5905 69.1465 53.0312 69.4866C54.856 69.8268 57.065 70.3369 59.2739 70.3369C61.579 70.3369 63.6919 69.9118 65.5167 69.4866C66.9574 69.2315 68.2059 68.8914 69.2624 68.8914C71.4714 68.8914 72.5279 70.0818 72.5279 72.3777C72.72 78.0749 66.6693 82.6666 59.37 82.6666Z" fill="white"/>
<path d="M69.3585 69.5717C70.8952 69.5717 71.8556 70.1669 71.8556 72.3777C71.8556 77.6497 66.2851 81.9013 59.37 81.9013C52.4549 81.9013 46.8844 77.6497 46.8844 72.3777C46.8844 70.2519 47.8449 69.5717 49.3815 69.5717C51.6866 69.5717 55.3362 70.9322 59.4661 70.9322C63.4999 70.9322 67.1495 69.5717 69.3585 69.5717ZM69.3585 68.1261C68.206 68.1261 66.8614 68.3812 65.4207 68.7213C63.5959 69.0615 61.483 69.4866 59.37 69.4866C57.161 69.4866 55.1441 69.0615 53.3193 68.7213C51.7826 68.3812 50.5341 68.1261 49.3815 68.1261C47.8449 68.1261 45.2517 68.6363 45.2517 72.3777C45.2517 78.5 51.5905 83.4319 59.4661 83.4319C67.2455 83.4319 73.6804 78.5 73.6804 72.3777C73.4883 68.6363 70.8952 68.1261 69.3585 68.1261Z" fill="black"/>
<path d="M46.5961 71.4424C46.5961 71.6124 47.6526 72.4628 47.8447 72.6328C48.4209 73.143 48.9972 73.5682 49.6695 73.9083C50.1497 74.1634 50.726 74.4185 51.2062 74.5886C51.4943 74.6736 51.9745 74.8437 52.2626 75.0137C50.2457 75.1838 48.1328 74.8437 46.404 73.9933C46.0199 73.7383 46.5961 71.4424 46.5961 71.4424Z" fill="black"/>
<path d="M72.0478 71.4424C72.0478 71.6124 70.9913 72.4628 70.7992 72.6328C70.2229 73.143 69.6467 73.5682 68.9744 73.9083C68.4942 74.1634 67.9179 74.4185 67.4377 74.5886C67.1496 74.6736 66.6694 74.8437 66.3812 75.0137C68.3981 75.1838 70.5111 74.8437 72.2398 73.9933C72.624 73.7383 72.0478 71.4424 72.0478 71.4424Z" fill="black"/>
</svg>
