<svg width="120" height="93" viewBox="0 0 120 93" fill="none" xmlns="http://www.w3.org/2000/svg">
<rect x="7.04594" y="42.67" width="105.27" height="25.41" rx="12.705" fill="white" stroke="#1E1E1E" stroke-width="2.42"/>
<rect x="22.7759" y="11.21" width="75.02" height="79.86" rx="30.25" fill="white" stroke="#1E1E1E" stroke-width="2.42"/>
<path d="M101.561 14.1715C87.2817 -5.26229 69.1297 -2.29899 61.0668 8.67212C60.7773 9.07182 60.4741 9.60935 60.1847 10.1744C59.9917 9.85744 59.785 9.55421 59.592 9.29234C51.5704 -1.76146 33.3496 -5.31742 19.0154 14.1852C12.2067 23.4611 7.24494 25.3906 0.835938 25.2115C4.07489 29.8011 7.7549 38.6773 12.0965 43.1705C18.1058 49.4003 28.815 46.2991 33.6803 33.9773C40.1996 17.4518 49.0482 13.3996 60.2949 13.3996C71.5417 13.3996 80.3765 17.4518 86.9095 33.9635C91.7748 46.2854 102.484 49.4003 108.493 43.1567C112.835 38.6497 116.515 29.7736 119.754 25.1977C113.331 25.3769 108.369 23.4473 101.561 14.1715Z" fill="#626160"/>
<path d="M31.8116 34.5201L57.8266 32.0361V62.3501H63.8766" stroke="#1E1E1E" stroke-width="2.42" stroke-linecap="round"/>
<path d="M68.6915 31.0361L88.6817 34.5202" stroke="#1E1E1E" stroke-width="2.42" stroke-linecap="round"/>
<path d="M51.8175 41.8643C52.7353 43.3175 52.5824 45.0767 51.5115 45.6886C50.4407 46.3005 48.911 45.6121 47.9932 44.0824C47.0753 42.6291 47.2283 40.8699 48.2991 40.2581C49.3699 39.6462 50.9761 40.3345 51.8175 41.8643Z" fill="white"/>
<path d="M84.2291 41.8643C85.147 43.3175 84.994 45.0767 83.9232 45.6886C82.8524 46.3005 81.3226 45.6121 80.4048 44.0824C79.487 42.6291 79.6399 40.8699 80.7107 40.2581C81.7815 39.6462 83.3878 40.3345 84.2291 41.8643Z" fill="white"/>
<path d="M46.5396 43.7C46.7691 44.2354 46.6926 44.8473 46.3102 45.0003C45.9277 45.1532 45.4688 44.8473 45.1629 44.3119C44.9334 43.7765 45.0099 43.1646 45.3923 43.0116C45.7748 42.8586 46.3102 43.1646 46.5396 43.7Z" fill="white"/>
<path d="M78.9513 43.7C79.1807 44.2354 79.1042 44.8473 78.7218 45.0003C78.3394 45.1532 77.8805 44.8473 77.5745 44.3119C77.345 43.7765 77.4215 43.1646 77.804 43.0116C78.1864 42.8586 78.7218 43.1646 78.9513 43.7Z" fill="white"/>
<mask id="path-10-inside-1_5580_3854" fill="white">
<path d="M47.8442 69.0997C47.8442 72.4452 49.1732 75.6536 51.5388 78.0192C53.9044 80.3848 57.1129 81.7138 60.4583 81.7138C63.8038 81.7138 67.0122 80.3848 69.3778 78.0192C71.7434 75.6536 73.0724 72.4452 73.0724 69.0997L60.4583 69.0997L47.8442 69.0997Z"/>
</mask>
<path d="M47.8442 69.0997C47.8442 72.4452 49.1732 75.6536 51.5388 78.0192C53.9044 80.3848 57.1129 81.7138 60.4583 81.7138C63.8038 81.7138 67.0122 80.3848 69.3778 78.0192C71.7434 75.6536 73.0724 72.4452 73.0724 69.0997L60.4583 69.0997L47.8442 69.0997Z" stroke="black" stroke-width="4.84" mask="url(#path-10-inside-1_5580_3854)"/>
<path d="M51.0621 46.9785L44.0386 53.2877L37.1427 47.1646C37.1421 47.1641 37.1415 47.1636 37.141 47.1631C35.7494 45.9139 35.5955 43.7459 36.8452 42.2891C37.5464 41.5446 38.4673 41.1259 39.4016 41.1259C40.2751 41.1259 41.0402 41.4084 41.734 42.0011L43.3468 43.4278L44.0138 44.0179L44.6769 43.4234L46.4826 41.8045L46.488 41.7996L46.4934 41.7947C47.0986 41.236 47.9066 40.9391 48.8039 40.9391C49.7648 40.9391 50.7324 41.3778 51.3483 42.0884L51.3595 42.1014L51.3712 42.1139C51.9755 42.7647 52.2759 43.6734 52.2262 44.6188C52.1766 45.5601 51.7851 46.398 51.1057 46.9415L51.0834 46.9594L51.0621 46.9785Z" stroke="black" stroke-width="2"/>
<mask id="path-12-inside-2_5580_3854" fill="white">
<path d="M48.7415 40.4995C49.8 40.4995 50.9208 40.9354 51.668 41.8071C53.1001 43.426 52.9756 45.9167 51.3567 47.3488L44.0093 53.9491L36.7864 47.4733C35.1674 46.0412 35.0429 43.5506 36.475 41.9316C37.2222 41.0599 38.343 40.624 39.4015 40.624C40.3355 40.624 41.2695 40.9354 42.0167 41.6203L43.947 43.3638L46.064 41.4958C46.8735 40.8108 47.8075 40.4995 48.7415 40.4995ZM48.7415 39.441C47.4962 39.441 46.3754 39.8768 45.4414 40.6863L44.0093 41.9939L42.7639 40.8731C41.8299 40.0636 40.7091 39.6278 39.4638 39.6278C38.0317 39.6278 36.7241 40.2504 35.7901 41.309C33.9844 43.3638 34.1712 46.4771 36.1637 48.2828L43.3866 54.6963C43.5734 54.8831 43.8225 54.9453 44.0715 54.9453C44.3206 54.9453 44.5697 54.8831 44.7565 54.6963L52.1039 48.096C53.1002 47.2243 53.6605 45.979 53.7228 44.6714C53.7851 43.3638 53.3492 42.0562 52.4775 41.1222C51.4812 40.0636 50.1114 39.441 48.7415 39.441Z"/>
</mask>
<path d="M51.668 41.8071L50.1495 43.1087L50.1597 43.1205L50.17 43.1323L51.668 41.8071ZM51.3567 47.3488L50.0315 45.8508L50.0258 45.8559L50.0202 45.861L51.3567 47.3488ZM44.0093 53.9491L42.6742 55.4382L44.0106 56.6363L45.3458 55.4369L44.0093 53.9491ZM36.7864 47.4733L38.1215 45.9842L38.1115 45.9754L36.7864 47.4733ZM36.475 41.9316L37.973 43.2568L37.9834 43.2451L37.9935 43.2332L36.475 41.9316ZM42.0167 41.6203L40.6653 43.0946L40.6707 43.0996L40.6762 43.1045L42.0167 41.6203ZM43.947 43.3638L42.6064 44.848L43.9314 46.0447L45.2702 44.8634L43.947 43.3638ZM46.064 41.4958L44.7722 39.969L44.7563 39.9824L44.7408 39.9961L46.064 41.4958ZM45.4414 40.6863L44.1315 39.1749L44.112 39.1919L44.0928 39.2093L45.4414 40.6863ZM44.0093 41.9939L42.6713 43.4805L44.0189 44.6933L45.3578 43.4709L44.0093 41.9939ZM42.7639 40.8731L44.1019 39.3865L44.0879 39.374L44.0738 39.3617L42.7639 40.8731ZM35.7901 41.309L34.2904 39.9857L34.2878 39.9887L35.7901 41.309ZM36.1637 48.2828L34.8206 49.7648L34.8282 49.7716L34.8358 49.7783L36.1637 48.2828ZM43.3866 54.6963L44.8008 53.282L44.7589 53.2401L44.7145 53.2007L43.3866 54.6963ZM44.7565 54.6963L43.4199 53.2084L43.3801 53.2442L43.3422 53.282L44.7565 54.6963ZM52.1039 48.096L50.7869 46.5909L50.7771 46.5995L50.7674 46.6082L52.1039 48.096ZM52.4775 41.1222L53.9396 39.7575L53.9339 39.7514L52.4775 41.1222ZM48.7415 42.4995C49.2895 42.4995 49.8275 42.733 50.1495 43.1087L53.1865 40.5055C52.0141 39.1377 50.3106 38.4995 48.7415 38.4995V42.4995ZM50.17 43.1323C50.8877 43.9435 50.8036 45.1678 50.0315 45.8508L52.6818 48.8468C55.1476 46.6655 55.3126 42.9085 53.166 40.482L50.17 43.1323ZM50.0202 45.861L42.6727 52.4612L45.3458 55.4369L52.6932 48.8367L50.0202 45.861ZM45.3443 52.4599L38.1214 45.9842L35.4513 48.9625L42.6742 55.4382L45.3443 52.4599ZM38.1115 45.9754C37.3394 45.2924 37.2553 44.0681 37.973 43.2568L34.977 40.6065C32.8304 43.0331 32.9954 46.7901 35.4612 48.9713L38.1115 45.9754ZM37.9935 43.2332C38.3155 42.8576 38.8535 42.624 39.4015 42.624V38.624C37.8325 38.624 36.1289 39.2622 34.9565 40.6301L37.9935 43.2332ZM39.4015 42.624C39.8878 42.624 40.324 42.7818 40.6653 43.0946L43.3682 40.146C42.2151 39.089 40.7833 38.624 39.4015 38.624V42.624ZM40.6762 43.1045L42.6064 44.848L45.2876 41.8796L43.3573 40.1361L40.6762 43.1045ZM45.2702 44.8634L47.3873 42.9954L44.7408 39.9961L42.6237 41.8641L45.2702 44.8634ZM47.3559 43.0225C47.7962 42.65 48.2699 42.4995 48.7415 42.4995V38.4995C47.3451 38.4995 45.9508 38.9717 44.7722 39.969L47.3559 43.0225ZM48.7415 37.441C46.9971 37.441 45.4154 38.0623 44.1315 39.1749L46.7512 42.1977C47.3354 41.6914 47.9953 41.441 48.7415 41.441V37.441ZM44.0928 39.2093L42.6607 40.5169L45.3578 43.4709L46.7899 42.1633L44.0928 39.2093ZM45.3472 40.5073L44.1019 39.3865L41.426 42.3597L42.6713 43.4805L45.3472 40.5073ZM44.0738 39.3617C42.7899 38.2491 41.2082 37.6278 39.4638 37.6278V41.6278C40.21 41.6278 40.8699 41.8782 41.4541 42.3845L44.0738 39.3617ZM39.4638 37.6278C37.4309 37.6278 35.5859 38.5175 34.2904 39.9857L37.2898 42.6322C37.8623 41.9834 38.6324 41.6278 39.4638 41.6278V37.6278ZM34.2878 39.9887C31.7639 42.8607 32.0149 47.2221 34.8206 49.7648L37.5067 46.8008C36.3274 45.7321 36.2048 43.8668 37.2924 42.6292L34.2878 39.9887ZM34.8358 49.7783L42.0587 56.1918L44.7145 53.2007L37.4916 46.7873L34.8358 49.7783ZM41.9724 56.1105C42.6665 56.8046 43.5142 56.9453 44.0715 56.9453V52.9453C44.1307 52.9453 44.4802 52.9615 44.8008 53.282L41.9724 56.1105ZM44.0715 56.9453C44.6288 56.9453 45.4765 56.8046 46.1707 56.1105L43.3422 53.282C43.6628 52.9615 44.0123 52.9453 44.0715 52.9453V56.9453ZM46.093 56.1841L53.4404 49.5839L50.7674 46.6082L43.4199 53.2084L46.093 56.1841ZM53.4209 49.6012C54.8545 48.3468 55.6343 46.5784 55.7205 44.7665L51.7251 44.5762C51.6868 45.3795 51.3458 46.1018 50.7869 46.5909L53.4209 49.6012ZM55.7205 44.7665C55.8059 42.9744 55.2151 41.1241 53.9396 39.7575L51.0154 42.4868C51.4834 42.9882 51.7643 43.7531 51.7251 44.5762L55.7205 44.7665ZM53.9339 39.7514C52.5922 38.3259 50.7085 37.441 48.7415 37.441V41.441C49.5142 41.441 50.3703 41.8014 51.0211 42.4929L53.9339 39.7514Z" fill="black" mask="url(#path-12-inside-2_5580_3854)"/>
<path d="M83.3162 46.9785L76.2926 53.2877L69.4019 47.1692C68.6968 46.5113 68.2799 45.6896 68.2334 44.8056C68.185 43.886 68.4681 43.0241 69.0992 42.2891C69.8004 41.5446 70.7213 41.1259 71.6557 41.1259C72.5291 41.1259 73.2942 41.4084 73.9881 42.0011L75.6008 43.4278L76.2678 44.0179L76.9309 43.4234L78.7367 41.8044L78.7421 41.7996L78.7474 41.7947C79.3526 41.236 80.1606 40.9391 81.0579 40.9391C82.0188 40.9391 82.9864 41.3777 83.6023 42.0884L83.6136 42.1014L83.6252 42.1139C84.2295 42.7647 84.53 43.6734 84.4802 44.6188C84.4307 45.5601 84.0391 46.398 83.3597 46.9415L83.3374 46.9594L83.3162 46.9785Z" stroke="black" stroke-width="2"/>
<mask id="path-15-inside-3_5580_3854" fill="white">
<path d="M81.0579 40.4995C82.1165 40.4995 83.2373 40.9354 83.9845 41.8071C85.4166 43.426 85.2921 45.9167 83.6731 47.3488L76.3257 53.949L69.1028 47.5356C67.4839 46.1035 67.3593 43.6128 68.7915 41.9939C69.5386 41.1222 70.6595 40.6863 71.718 40.6863C72.652 40.6863 73.586 40.9976 74.3332 41.6826L76.2634 43.426L78.3805 41.558C79.1899 40.8108 80.1239 40.4995 81.0579 40.4995ZM81.0579 39.441C79.8126 39.441 78.6918 39.8768 77.7578 40.6863L76.3257 41.9939L75.0804 40.8731C74.1464 40.0636 73.0256 39.6278 71.7802 39.6278C70.3481 39.6278 69.0405 40.2504 68.1065 41.309C67.2348 42.3052 66.7989 43.5505 66.8612 44.8581C66.9235 46.1657 67.5461 47.4111 68.4801 48.2828L75.703 54.6962C75.8898 54.883 76.1389 54.9453 76.388 54.9453C76.637 54.9453 76.8861 54.883 77.0729 54.6962L84.4203 48.096C85.4166 47.2243 85.977 45.9789 86.0393 44.6713C86.1015 43.3637 85.6657 42.0562 84.7939 41.1222C83.7977 40.0636 82.4278 39.441 81.0579 39.441Z"/>
</mask>
<path d="M83.9845 41.8071L82.4659 43.1087L82.4761 43.1205L82.4865 43.1322L83.9845 41.8071ZM83.6731 47.3488L82.348 45.8508L82.3423 45.8559L82.3366 45.861L83.6731 47.3488ZM76.3257 53.949L74.9978 55.4446L76.3334 56.6305L77.6622 55.4369L76.3257 53.949ZM69.1028 47.5356L70.4307 46.0401L70.4279 46.0376L69.1028 47.5356ZM68.7915 41.9939L70.2894 43.319L70.2998 43.3073L70.31 43.2955L68.7915 41.9939ZM74.3332 41.6826L72.9817 43.1569L72.9871 43.1618L72.9926 43.1668L74.3332 41.6826ZM76.2634 43.426L74.9228 44.9102L76.2478 46.107L77.5867 44.9257L76.2634 43.426ZM78.3805 41.558L79.7037 43.0577L79.7206 43.0429L79.737 43.0276L78.3805 41.558ZM77.7578 40.6863L76.448 39.1749L76.4284 39.1919L76.4093 39.2093L77.7578 40.6863ZM76.3257 41.9939L74.9878 43.4805L76.3354 44.6933L77.6742 43.4709L76.3257 41.9939ZM75.0804 40.8731L76.4183 39.3865L76.4044 39.374L76.3902 39.3617L75.0804 40.8731ZM68.1065 41.309L66.6068 39.9857L66.6014 39.9919L68.1065 41.309ZM68.4801 48.2828L67.1155 49.7449L67.1336 49.7618L67.1522 49.7783L68.4801 48.2828ZM75.703 54.6962L77.1172 53.282L77.0753 53.2401L77.031 53.2007L75.703 54.6962ZM77.0729 54.6962L75.7364 53.2084L75.6965 53.2442L75.6587 53.282L77.0729 54.6962ZM84.4203 48.096L83.1033 46.5908L83.0935 46.5994L83.0838 46.6082L84.4203 48.096ZM84.7939 41.1222L86.2561 39.7575L86.2503 39.7514L84.7939 41.1222ZM81.0579 42.4995C81.6059 42.4995 82.144 42.733 82.4659 43.1087L85.503 40.5055C84.3306 39.1377 82.627 38.4995 81.0579 38.4995V42.4995ZM82.4865 43.1322C83.2041 43.9435 83.1201 45.1678 82.348 45.8508L84.9983 48.8468C87.4641 46.6655 87.629 42.9085 85.4825 40.4819L82.4865 43.1322ZM82.3366 45.861L74.9892 52.4612L77.6622 55.4369L85.0097 48.8366L82.3366 45.861ZM77.6536 52.4535L70.4307 46.0401L67.7749 49.0311L74.9978 55.4446L77.6536 52.4535ZM70.4279 46.0376C69.6559 45.3546 69.5718 44.1303 70.2894 43.319L67.2935 40.6687C65.1469 43.0953 65.3119 46.8523 67.7776 49.0336L70.4279 46.0376ZM70.31 43.2955C70.6319 42.9198 71.17 42.6863 71.718 42.6863V38.6863C70.1489 38.6863 68.4454 39.3245 67.2729 40.6923L70.31 43.2955ZM71.718 42.6863C72.2042 42.6863 72.6404 42.844 72.9817 43.1569L75.6846 40.2082C74.5315 39.1512 73.0997 38.6863 71.718 38.6863V42.6863ZM72.9926 43.1668L74.9228 44.9102L77.604 41.9418L75.6737 40.1984L72.9926 43.1668ZM77.5867 44.9257L79.7037 43.0577L77.0572 40.0583L74.9402 41.9263L77.5867 44.9257ZM79.737 43.0276C80.156 42.6409 80.5972 42.4995 81.0579 42.4995V38.4995C79.6507 38.4995 78.2239 38.9807 77.0239 40.0884L79.737 43.0276ZM81.0579 37.441C79.3135 37.441 77.7318 38.0622 76.448 39.1749L79.0677 42.1977C79.6518 41.6914 80.3117 41.441 81.0579 41.441V37.441ZM76.4093 39.2093L74.9772 40.5169L77.6742 43.4709L79.1064 42.1633L76.4093 39.2093ZM77.6636 40.5073L76.4183 39.3865L73.7424 42.3597L74.9878 43.4805L77.6636 40.5073ZM76.3902 39.3617C75.1064 38.249 73.5247 37.6278 71.7802 37.6278V41.6278C72.5265 41.6278 73.1864 41.8782 73.7705 42.3845L76.3902 39.3617ZM71.7802 37.6278C69.7474 37.6278 67.9023 38.5175 66.6069 39.9857L69.6062 42.6322C70.1787 41.9834 70.9489 41.6278 71.7802 41.6278V37.6278ZM66.6014 39.9919C65.3921 41.374 64.7764 43.1243 64.8635 44.9533L68.8589 44.763C68.8215 43.9768 69.0775 43.2365 69.6117 42.626L66.6014 39.9919ZM64.8635 44.9533C64.9524 46.8206 65.8299 48.545 67.1155 49.7449L69.8448 46.8207C69.2624 46.2771 68.8945 45.5109 68.8589 44.763L64.8635 44.9533ZM67.1522 49.7783L74.3751 56.1918L77.031 53.2007L69.808 46.7873L67.1522 49.7783ZM74.2888 56.1105C74.983 56.8046 75.8306 56.9453 76.388 56.9453V52.9453C76.4472 52.9453 76.7967 52.9614 77.1172 53.282L74.2888 56.1105ZM76.388 56.9453C76.9453 56.9453 77.7929 56.8046 78.4871 56.1105L75.6587 53.282C75.9792 52.9615 76.3288 52.9453 76.388 52.9453V56.9453ZM78.4094 56.1841L85.7569 49.5838L83.0838 46.6082L75.7364 53.2084L78.4094 56.1841ZM85.7373 49.6011C87.1709 48.3468 87.9507 46.5784 88.037 44.7665L84.0415 44.5762C84.0033 45.3795 83.6622 46.1018 83.1033 46.5908L85.7373 49.6011ZM88.037 44.7665C88.1223 42.9744 87.5315 41.1241 86.256 39.7575L83.3318 42.4868C83.7998 42.9882 84.0807 43.7531 84.0415 44.5762L88.037 44.7665ZM86.2503 39.7514C84.9086 38.3258 83.0249 37.441 81.0579 37.441V41.441C81.8307 41.441 82.6867 41.8014 83.3375 42.4929L86.2503 39.7514Z" fill="black" mask="url(#path-15-inside-3_5580_3854)"/>
</svg>
