<svg width="119" height="93" viewBox="0 0 119 93" fill="none" xmlns="http://www.w3.org/2000/svg">
<rect x="6.21" y="42.67" width="105.27" height="25.41" rx="12.705" fill="white" stroke="#1E1E1E" stroke-width="2.42"/>
<rect x="21.94" y="11.21" width="75.02" height="79.86" rx="30.25" fill="white" stroke="#1E1E1E" stroke-width="2.42"/>
<path d="M100.725 14.1715C86.4457 -5.26229 68.2938 -2.29899 60.2308 8.67212C59.9414 9.07182 59.6382 9.60935 59.3487 10.1744C59.1558 9.85744 58.949 9.55421 58.7561 9.29234C50.7345 -1.76146 32.5136 -5.31742 18.1795 14.1852C11.3708 23.4611 6.409 25.3906 0 25.2115C3.23896 29.8011 6.91896 38.6773 11.2605 43.1705C17.2698 49.4003 27.9791 46.2991 32.8444 33.9773C39.3637 17.4518 48.2122 13.3996 59.459 13.3996C70.7057 13.3996 79.5405 17.4518 86.0736 33.9635C90.9389 46.2854 101.648 49.4003 107.657 43.1567C111.999 38.6497 115.679 29.7736 118.918 25.1977C112.495 25.3769 107.533 23.4473 100.725 14.1715Z" fill="#626160"/>
<path d="M31.0239 35.0793L57.0389 33.5953V62.9093H63.0889" stroke="#1E1E1E" stroke-width="2.42" stroke-linecap="round"/>
<path d="M69.4038 33.5953L87.894 35.0793" stroke="#1E1E1E" stroke-width="2.42" stroke-linecap="round"/>
<path d="M58.7578 84.5147C51.3624 84.5147 45.4078 79.923 45.4078 74.2258C45.4078 71.8449 46.4643 70.7395 48.6732 70.7395C49.7297 70.7395 50.9783 70.9946 52.4189 71.3347C54.2437 71.6748 56.4527 72.185 58.6617 72.185C60.9667 72.185 63.0797 71.7599 64.9045 71.3347C66.3451 71.0796 67.5937 70.7395 68.6502 70.7395C70.8592 70.7395 71.9156 71.9299 71.9156 74.2258C72.1077 79.923 66.057 84.5147 58.7578 84.5147Z" fill="white"/>
<path d="M68.7462 71.4197C70.2829 71.4197 71.2433 72.015 71.2433 74.2258C71.2433 79.4978 65.6728 83.7494 58.7577 83.7494C51.8426 83.7494 46.2721 79.4978 46.2721 74.2258C46.2721 72.1 47.2326 71.4197 48.7692 71.4197C51.0743 71.4197 54.7239 72.7802 58.8537 72.7802C62.8876 72.7802 66.5372 71.4197 68.7462 71.4197ZM68.7462 69.9742C67.5937 69.9742 66.2491 70.2293 64.8084 70.5694C62.9836 70.9095 60.8707 71.3347 58.7577 71.3347C56.5487 71.3347 54.5318 70.9095 52.707 70.5694C51.1703 70.2293 49.9218 69.9742 48.7692 69.9742C47.2326 69.9742 44.6394 70.4844 44.6394 74.2258C44.6394 80.3481 50.9782 85.28 58.8537 85.28C66.6332 85.28 73.0681 80.3481 73.0681 74.2258C72.876 70.4844 70.2829 69.9742 68.7462 69.9742Z" fill="black"/>
<path d="M45.9838 73.2905C45.9838 73.4605 47.0403 74.3108 47.2324 74.4809C47.8086 74.9911 48.3849 75.4163 49.0572 75.7564C49.5374 76.0115 50.1137 76.2666 50.5939 76.4367C50.882 76.5217 51.3622 76.6918 51.6503 76.8618C49.6334 77.0319 47.5205 76.6918 45.7917 75.8414C45.4076 75.5863 45.9838 73.2905 45.9838 73.2905Z" fill="black"/>
<path d="M71.4355 73.2905C71.4355 73.4605 70.379 74.3108 70.1869 74.4809C69.6107 74.9911 69.0344 75.4163 68.3621 75.7564C67.8819 76.0115 67.3057 76.2666 66.8254 76.4367C66.5373 76.5217 66.0571 76.6918 65.769 76.8618C67.7859 77.0319 69.8988 76.6918 71.6276 75.8414C72.0118 75.5863 71.4355 73.2905 71.4355 73.2905Z" fill="black"/>
<path d="M54.0516 77.457C54.0516 77.457 54.1476 77.457 54.2437 77.372C54.3397 77.372 54.5318 77.287 54.8199 77.287C55.012 77.287 55.3001 77.287 55.5883 77.2019C55.8764 77.2019 56.1645 77.2019 56.4526 77.2019C56.6447 77.2019 56.7408 77.2019 56.9329 77.2019C57.1249 77.2019 57.221 77.2019 57.4131 77.2019C57.7012 77.2019 57.9893 77.2019 58.1814 77.287C58.2775 77.287 58.3735 77.287 58.4696 77.287C58.5656 77.287 58.6616 77.287 58.7577 77.287C58.8537 77.287 58.9498 77.287 58.9498 77.287C58.9498 77.287 58.8537 77.287 58.7577 77.372C58.6616 77.372 58.6616 77.457 58.5656 77.457C58.4696 77.457 58.3735 77.5421 58.2775 77.5421C58.0854 77.6271 57.7973 77.6271 57.5091 77.7121C57.221 77.7121 56.9329 77.7121 56.5487 77.7121C56.2606 77.7121 55.8764 77.7121 55.5883 77.6271C55.3001 77.6271 55.012 77.5421 54.8199 77.457C54.6278 77.372 54.4358 77.372 54.2437 77.287C54.0516 77.5421 54.0516 77.457 54.0516 77.457Z" fill="black"/>
<path d="M71.9199 48.3893C71.9199 46.0982 74.3257 44.2366 77.2975 44.2366C80.2693 44.2366 82.675 46.0982 82.675 48.3893" stroke="black" stroke-width="2.48" stroke-miterlimit="10" stroke-linecap="round" stroke-linejoin="round"/>
<path d="M37.9768 48.3893C37.9768 46.0982 40.1626 44.2366 42.8627 44.2366C45.5628 44.2366 47.7485 46.0982 47.7485 48.3893" stroke="black" stroke-width="2.48" stroke-miterlimit="10" stroke-linecap="round" stroke-linejoin="round"/>
</svg>
