<svg width="119" height="98" viewBox="0 0 119 98" fill="none" xmlns="http://www.w3.org/2000/svg">
<rect x="6.21" y="42.67" width="105.27" height="25.41" rx="12.705" fill="white" stroke="#1E1E1E" stroke-width="2.42"/>
<rect x="21.94" y="11.21" width="75.02" height="79.86" rx="30.25" fill="white" stroke="#1E1E1E" stroke-width="2.42"/>
<path d="M100.725 14.1715C86.4457 -5.26229 68.2938 -2.29899 60.2308 8.67212C59.9414 9.07182 59.6382 9.60935 59.3487 10.1744C59.1558 9.85744 58.949 9.55421 58.7561 9.29234C50.7345 -1.76146 32.5136 -5.31742 18.1795 14.1852C11.3708 23.4611 6.409 25.3906 0 25.2115C3.23896 29.8011 6.91896 38.6773 11.2605 43.1705C17.2698 49.4003 27.9791 46.2991 32.8444 33.9773C39.3637 17.4518 48.2122 13.3996 59.459 13.3996C70.7057 13.3996 79.5405 17.4518 86.0736 33.9635C90.9389 46.2854 101.648 49.4003 107.657 43.1567C111.999 38.6497 115.679 29.7736 118.918 25.1977C112.495 25.3769 107.533 23.4473 100.725 14.1715Z" fill="#626160"/>
<path d="M71.4383 67.9416C68.39 62.2947 61.6327 60.5559 59.1591 63.2295C56.6854 60.5559 50.1249 62.2943 47.0766 67.9413C45.5274 70.8147 38.906 63.2669 37.082 63.217C37.6067 64.5412 43.0054 71.6249 44.4671 72.6493C45.8788 73.6363 48.9771 73.6863 50.5887 70.2756C52.8625 65.4657 55.8983 65.4532 59.1716 65.4532C62.4448 65.4532 65.4806 65.4657 67.7544 70.2756C69.366 73.6863 72.4643 73.6488 73.876 72.6493C75.3252 71.6249 81.5328 64.5287 82.0575 63.217C80.196 63.2669 72.9875 70.815 71.4383 67.9416Z" fill="#626161"/>
<path d="M75.6423 77.1605C75.6423 84.3922 68.6023 97.8091 59.2875 97.8091C49.9728 97.8091 41.9106 84.3922 41.9106 77.1605C41.9106 69.9288 49.9728 77.6643 59.2875 77.6643C68.6023 77.6643 75.6423 69.9288 75.6423 77.1605Z" fill="#626161"/>
</svg>
