<svg width="120" height="93" viewBox="0 0 120 93" fill="none" xmlns="http://www.w3.org/2000/svg">
<rect x="7.04594" y="42.67" width="105.27" height="25.41" rx="12.705" fill="white" stroke="#1E1E1E" stroke-width="2.42"/>
<rect x="22.7759" y="11.21" width="75.02" height="79.86" rx="30.25" fill="white" stroke="#1E1E1E" stroke-width="2.42"/>
<path d="M101.561 14.1715C87.2817 -5.26229 69.1297 -2.29899 61.0668 8.67212C60.7773 9.07182 60.4741 9.60935 60.1847 10.1744C59.9917 9.85744 59.785 9.55421 59.592 9.29234C51.5704 -1.76146 33.3496 -5.31742 19.0154 14.1852C12.2067 23.4611 7.24494 25.3906 0.835938 25.2115C4.07489 29.8011 7.7549 38.6773 12.0965 43.1705C18.1058 49.4003 28.815 46.2991 33.6803 33.9773C40.1996 17.4518 49.0482 13.3996 60.2949 13.3996C71.5417 13.3996 80.3765 17.4518 86.9095 33.9635C91.7748 46.2854 102.484 49.4003 108.493 43.1567C112.835 38.6497 116.515 29.7736 119.754 25.1977C113.331 25.3769 108.369 23.4473 101.561 14.1715Z" fill="#626160"/>
<ellipse cx="85.6641" cy="62.5" rx="7.5" ry="3.5" fill="#C4C4C4"/>
<ellipse cx="34.6641" cy="62.5" rx="7.5" ry="3.5" fill="#C4C4C4"/>
</svg>
