<svg width="119" height="95" viewBox="0 0 119 95" fill="none" xmlns="http://www.w3.org/2000/svg">
<g clip-path="url(#clip0_5599_4398)">
<path d="M18.915 44.67H98.775C105.792 44.67 111.48 50.358 111.48 57.375C111.48 64.392 105.792 70.08 98.775 70.08H18.915C11.898 70.08 6.21002 64.392 6.21002 57.375C6.21002 50.358 11.898 44.67 18.915 44.67Z" fill="white" stroke="#1E1E1E" stroke-width="2.42"/>
<path d="M52.19 13.21H66.71C83.416 13.21 96.96 26.753 96.96 43.46V62.82C96.96 79.526 83.416 93.07 66.71 93.07H52.19C35.483 93.07 21.94 79.526 21.94 62.82V43.46C21.94 26.753 35.483 13.21 52.19 13.21Z" fill="white" stroke="#1E1E1E" stroke-width="2.42"/>
<path d="M100.725 16.171C86.445 -3.26201 68.294 -0.299006 60.23 10.672C59.941 11.072 59.638 11.61 59.348 12.174C59.155 11.857 58.949 11.554 58.755 11.292C50.734 0.237994 32.514 -3.31701 18.18 16.185C11.371 25.461 6.409 27.391 0 27.211C3.239 31.801 6.919 40.677 11.261 45.17C17.27 51.4 27.979 48.299 32.844 35.977C39.364 19.451 48.212 15.399 59.459 15.399C70.705 15.399 79.541 19.451 86.074 35.963C90.939 48.285 101.648 51.4 107.657 45.156C111.999 40.649 115.679 31.773 118.918 27.197C112.495 27.377 107.533 25.447 100.725 16.171Z" fill="white" stroke="black" stroke-miterlimit="10"/>
</g>
<defs>
<clipPath id="clip0_5599_4398">
<rect width="119" height="95" fill="white"/>
</clipPath>
</defs>
</svg>
