<svg width="120" height="93" viewBox="0 0 120 93" fill="none" xmlns="http://www.w3.org/2000/svg">
<rect x="7.12797" y="42.67" width="105.27" height="25.41" rx="12.705" fill="white" stroke="#1E1E1E" stroke-width="2.42"/>
<rect x="22.8579" y="11.21" width="75.02" height="79.86" rx="30.25" fill="white" stroke="#1E1E1E" stroke-width="2.42"/>
<path d="M101.643 14.1715C87.3637 -5.26229 69.2117 -2.29899 61.1488 8.67212C60.8594 9.07182 60.5561 9.60935 60.2667 10.1744C60.0737 9.85744 59.867 9.55421 59.674 9.29234C51.6525 -1.76146 33.4316 -5.31742 19.0975 14.1852C12.2888 23.4611 7.32697 25.3906 0.917969 25.2115C4.15693 29.8011 7.83693 38.6773 12.1785 43.1705C18.1878 49.4003 28.897 46.2991 33.7624 33.9773C40.2816 17.4518 49.1302 13.3996 60.377 13.3996C71.6237 13.3996 80.4585 17.4518 86.9915 33.9635C91.8569 46.2854 102.566 49.4003 108.575 43.1567C112.917 38.6497 116.597 29.7736 119.836 25.1977C113.413 25.3769 108.451 23.4473 101.643 14.1715Z" fill="black"/>
</svg>
