<svg width="109" height="93" viewBox="0 0 109 93" fill="none" xmlns="http://www.w3.org/2000/svg">
<rect x="1.96391" y="42.67" width="105.27" height="25.41" rx="12.705" fill="white" stroke="#1E1E1E" stroke-width="2.42"/>
<rect x="17.6939" y="11.21" width="75.02" height="79.86" rx="30.25" fill="white" stroke="#1E1E1E" stroke-width="2.42"/>
<path d="M55.5886 0C13.8602 0 16.7742 38.2477 17.2042 43.4595H19.9869C19.9869 43.4595 21.0139 31.9598 24.9073 25.1881C28.2991 19.3113 32.6463 18.6341 39.3463 20.8107C44.5533 22.5036 48.6975 24.0273 55.6483 24.1361C62.599 24.0273 66.7313 22.5036 71.9503 20.8107C78.6502 18.6341 82.9974 19.3113 86.3773 25.1881C90.2826 31.9598 91.3097 43.4595 91.3097 43.4595H94.0327C94.4029 38.3082 98.0216 0 55.5886 0Z" fill="#626160"/>
</svg>
