<svg width="120" height="93" viewBox="0 0 120 93" fill="none" xmlns="http://www.w3.org/2000/svg">
<rect x="6.96391" y="42.67" width="105.27" height="25.41" rx="12.705" fill="white" stroke="#1E1E1E" stroke-width="2.42"/>
<rect x="22.6939" y="11.21" width="75.02" height="79.86" rx="30.25" fill="white" stroke="#1E1E1E" stroke-width="2.42"/>
<path d="M101.479 14.1715C87.1996 -5.26229 69.0477 -2.29899 60.9847 8.67212C60.6953 9.07182 60.3921 9.60935 60.1026 10.1744C59.9097 9.85744 59.7029 9.55421 59.51 9.29234C51.4884 -1.76146 33.2675 -5.31742 18.9334 14.1852C12.1247 23.4611 7.16291 25.3906 0.753906 25.2115C3.99286 29.8011 7.67287 38.6773 12.0145 43.1705C18.0238 49.4003 28.733 46.2991 33.5983 33.9773C40.1176 17.4518 48.9661 13.3996 60.2129 13.3996C71.4597 13.3996 80.2944 17.4518 86.8275 33.9635C91.6928 46.2854 102.402 49.4003 108.411 43.1567C112.753 38.6497 116.433 29.7736 119.672 25.1977C113.249 25.3769 108.287 23.4473 101.479 14.1715Z" fill="#333333"/>
</svg>
