<svg width="109" height="88" viewBox="0 0 109 88" fill="none" xmlns="http://www.w3.org/2000/svg">
<rect x="2.12797" y="37.67" width="105.27" height="25.41" rx="12.705" fill="white" stroke="#1E1E1E" stroke-width="2.42"/>
<rect x="17.8579" y="6.21" width="75.02" height="79.86" rx="30.25" fill="white" stroke="#1E1E1E" stroke-width="2.42"/>
<path d="M68.9279 1.10571C79.8881 2.78612 68.8714 21.9885 55.5027 21.2842C48.5479 20.9135 46.8608 17.738 41.606 16.0823C35.0891 14.0313 29.667 15.8723 24.5926 23.4959C20.4712 29.6739 19.8015 40.7325 19.8015 40.7325H17.1612C16.6074 34.3815 14.6419 -7.25926 68.9279 1.10571Z" fill="#626160"/>
<path d="M43.5765 1.10552C32.7116 3.42224 42.4303 21.9885 55.7967 21.2842C62.77 20.9135 64.4585 17.738 69.7174 16.0823C76.2395 14.0313 81.666 15.8723 86.7445 23.4959C90.8563 29.6739 91.5394 40.7325 91.5394 40.7325H94.1173C94.7231 34.3815 97.9575 -7.25945 43.5765 1.10552Z" fill="#626160"/>
</svg>
