<svg width="119" height="137" viewBox="0 0 119 137" fill="none" xmlns="http://www.w3.org/2000/svg">
<rect x="6.29203" y="87.3869" width="105.27" height="25.41" rx="12.705" fill="white" stroke="#1E1E1E" stroke-width="2.42"/>
<rect x="22.022" y="55.9269" width="75.02" height="79.86" rx="30.25" fill="white" stroke="#1E1E1E" stroke-width="2.42"/>
<path d="M100.807 58.8884C86.5277 39.4546 68.3758 42.4179 60.3129 53.389C60.0234 53.7887 59.7202 54.3263 59.4308 54.8914C59.2378 54.5744 59.0311 54.2711 58.8381 54.0093C50.8165 42.9555 32.5956 39.3995 18.2615 58.9022C11.4528 68.178 6.49103 70.1076 0.0820312 69.9284C3.32099 74.5181 7.001 83.3942 11.3426 87.8874C17.3519 94.1172 28.0611 91.0161 32.9264 78.6942C39.4457 62.1687 48.2943 58.1165 59.541 58.1165C70.7878 58.1165 79.6226 62.1687 86.1556 78.6805C91.0209 91.0023 101.73 94.1172 107.739 87.8736C112.081 83.3666 115.761 74.4905 119 69.9146C112.577 70.0938 107.615 68.1642 100.807 58.8884Z" fill="#626160"/>
<path d="M34.48 57.1H52.78C52.78 57.1 49.68 40.5 40.58 36C31.58 31.5 19.28 32.6 12.78 41.2C28.08 39.7 34.48 57.1 34.48 57.1Z" fill="#23C865"/>
<path d="M52.38 57.1H70.68C70.68 57.1 61.48 35.8 61.48 23.7C61.48 11.6 67.58 6.60002 70.68 6.00002C62.28 0.700017 44.88 7.10002 43.78 22.8C42.38 42.2 52.38 57.1 52.38 57.1Z" fill="#BFBFBF"/>
<path d="M40.58 36C35.68 33.5 29.78 32.8 24.38 33.9C27.88 33.9 31.68 34.4 35.08 36.1C43.08 40.2 48.28 49 49.68 57.1H52.68C52.78 57.1 49.68 40.5 40.58 36Z" fill="#23C865"/>
<path d="M81.08 5.8C81.08 9 78.48 11.6 75.28 11.6C72.08 11.6 69.48 9 69.48 5.8C69.48 2.6 72.08 0 75.28 0C78.48 0 81.08 2.6 81.08 5.8Z" fill="#C4C4C4"/>
<path d="M77.48 3.5C77.48 4.3 76.78 5 75.98 5C75.18 5 74.48 4.3 74.48 3.5C74.48 2.7 75.18 2 75.98 2C76.78 2 77.48 2.6 77.48 3.5Z" fill="#DCDCDC"/>
<path d="M14.58 42.1C14.58 45.3 11.98 47.9 8.77997 47.9C5.57997 47.9 2.97998 45.3 2.97998 42.1C2.97998 38.9 5.57997 36.3 8.77997 36.3C12.08 36.3 14.58 38.9 14.58 42.1Z" fill="#BFBFBF"/>
<path d="M11.08 39.8C11.08 40.6 10.38 41.3 9.57996 41.3C8.77996 41.3 8.07996 40.6 8.07996 39.8C8.07996 39 8.77996 38.3 9.57996 38.3C10.38 38.3 11.08 39 11.08 39.8Z" fill="#DCDCDC"/>
<path d="M67.38 57.1H85.68C85.68 57.1 84.6799 51.5 85.0799 46C85.3799 41.4 91.38 30.6 101.88 34.7C97.48 26.5 89.38 23.8 79.68 26.2C61.4799 30.7 67.38 57.1 67.38 57.1Z" fill="#23C865"/>
<path d="M111.446 36.6C111.446 39.8 108.846 42.4 105.646 42.4C102.446 42.4 99.8459 39.8 99.8459 36.6C99.8459 33.4 102.446 30.8 105.646 30.8C108.846 30.8 111.446 33.4 111.446 36.6Z" fill="#C4C4C4"/>
<path d="M107.846 34.3C107.846 35.1 107.146 35.8 106.346 35.8C105.546 35.8 104.846 35.1 104.846 34.3C104.846 33.5 105.546 32.8 106.346 32.8C107.146 32.8 107.846 33.4 107.846 34.3Z" fill="#DCDCDC"/>
<rect x="14.6459" y="55.3018" width="91" height="13.858" rx="6" fill="#A8A8A8"/>
</svg>
