<svg width="120" height="116" viewBox="0 0 120 116" fill="none" xmlns="http://www.w3.org/2000/svg">
<rect x="6.96391" y="66.3869" width="105.27" height="25.41" rx="12.705" fill="white" stroke="#1E1E1E" stroke-width="2.42"/>
<rect x="22.6939" y="34.9269" width="75.02" height="79.86" rx="30.25" fill="white" stroke="#1E1E1E" stroke-width="2.42"/>
<path d="M101.479 37.8884C87.1996 18.4546 69.0477 21.4179 60.9847 32.389C60.6953 32.7887 60.3921 33.3263 60.1026 33.8914C59.9097 33.5744 59.7029 33.2711 59.51 33.0093C51.4884 21.9555 33.2675 18.3995 18.9334 37.9022C12.1247 47.178 7.16291 49.1076 0.753906 48.9284C3.99286 53.5181 7.67287 62.3942 12.0145 66.8874C18.0238 73.1172 28.733 70.0161 33.5983 57.6942C40.1176 41.1687 48.9661 37.1165 60.2129 37.1165C71.4597 37.1165 80.2944 41.1687 86.8275 57.6805C91.6928 70.0023 102.402 73.1172 108.411 66.8736C112.753 62.3666 116.433 53.4905 119.672 48.9146C113.249 49.0938 108.287 47.1642 101.479 37.8884Z" fill="#626160"/>
<path d="M102.545 24.085C102.545 34.3234 83.433 46.1544 59.8847 46.1544C36.3365 46.1544 17.2249 34.3234 17.2249 24.085C17.2249 13.8467 36.3365 5.5422 59.8847 5.5422C83.433 5.42844 102.545 13.7329 102.545 24.085Z" fill="#393939"/>
<path d="M84.6274 35.8023L80.9871 6.56603C80.5321 3.267 77.4605 0.423004 74.1615 0.423004H45.6078C42.3088 0.423004 39.3511 3.15324 38.7823 6.56603L35.142 35.8023H84.6274Z" fill="#9C9C9C"/>
<path d="M84.5706 35.8023L80.9302 6.56607C80.7027 4.97344 79.9064 3.49456 78.7688 2.47072C78.0863 2.35696 77.2899 2.24321 76.3799 2.35697C71.4882 2.69825 67.3928 8.27247 59.8847 8.27247C52.3766 8.27247 48.2812 2.69825 43.3896 2.35697C42.4795 2.24321 41.6832 2.35696 41.0006 2.47072C39.863 3.60832 39.0667 4.97344 38.8392 6.56607L35.1989 35.8023H84.5706Z" fill="#9C9C9C"/>
<path d="M35.6539 32.617H84.1155L82.9779 22.8336H36.7915L35.6539 32.617Z" fill="#23C865"/>
<path d="M63.8664 9.06878C63.8664 6.90734 62.16 5.08719 59.8848 5.08719C57.7234 5.08719 55.9032 6.79358 55.9032 9.06878C55.9032 10.4339 56.5858 11.6852 57.7234 12.3678V14.7568H62.0462V12.3678C63.07 11.5715 63.8664 10.4339 63.8664 9.06878Z" fill="white"/>
<path d="M59.2021 8.84126C59.2021 9.41006 58.7471 9.75134 58.2921 9.75134C57.837 9.75134 57.382 9.2963 57.382 8.84126C57.382 8.27246 57.837 7.93118 58.2921 7.93118C58.7471 7.93118 59.2021 8.27246 59.2021 8.84126Z" fill="#9C9C9C"/>
<path d="M62.3874 8.84126C62.3874 9.41006 61.9324 9.75134 61.4773 9.75134C60.9085 9.75134 60.5673 9.2963 60.5673 8.84126C60.5673 8.27246 61.0223 7.93118 61.4773 7.93118C62.0461 7.93118 62.3874 8.27246 62.3874 8.84126Z" fill="#9C9C9C"/>
<path d="M59.8847 11.2302H59.2021L59.5434 10.6614L59.8847 10.0927L60.226 10.6614L60.5673 11.2302H59.8847Z" fill="#9C9C9C"/>
<path d="M61.2498 12.3679H58.5195V13.1642H61.2498V12.3679Z" fill="#9C9C9C"/>
<path d="M64.5489 15.8944C64.7764 15.7806 64.8901 15.4394 64.7764 15.0981C64.6626 14.7568 64.3214 14.643 63.9801 14.7568C63.6388 14.8706 63.4113 15.3256 63.1838 15.6669L56.0169 18.6246C55.6756 18.5109 55.2206 18.3971 54.8793 18.5109C54.538 18.6246 54.4243 18.9659 54.538 19.3072C54.6518 19.6485 54.9931 19.7622 55.2206 19.6485C54.9931 19.7622 54.8793 20.1035 54.9931 20.4448C55.1068 20.7861 55.4481 20.8998 55.7894 20.7861C56.1307 20.6723 56.3582 20.2173 56.5857 19.876L63.7526 16.9182C64.0938 17.032 64.5489 17.1458 64.8902 17.032C65.2314 16.9182 65.3452 16.577 65.2315 16.2357C65.1177 16.0082 64.7764 15.8944 64.5489 15.8944Z" fill="white"/>
<path d="M55.2206 15.8944C54.9931 15.7806 54.8793 15.4394 54.9931 15.0981C55.1068 14.7568 55.4481 14.643 55.7894 14.7568C56.1307 14.8706 56.3582 15.3256 56.5857 15.6669L63.7526 18.6246C64.0938 18.5109 64.5489 18.3971 64.8902 18.5109C65.2314 18.6246 65.3452 18.9659 65.2315 19.3072C65.1177 19.6485 64.7764 19.7622 64.5489 19.6485C64.7764 19.7622 64.8901 20.1035 64.7764 20.4448C64.6626 20.7861 64.3214 20.8998 63.9801 20.7861C63.6388 20.6723 63.4113 20.2173 63.1838 19.876L56.0169 16.9182C55.6756 17.032 55.2206 17.1458 54.8793 17.032C54.538 16.9182 54.4243 16.577 54.538 16.2357C54.6518 16.0082 54.9931 15.8944 55.2206 15.8944Z" fill="white"/>
<path d="M8.80664 31.8206C12.1057 21.5823 21.3202 14.1879 32.2411 14.1879C45.8923 14.1879 56.927 25.6776 56.927 39.8976C56.927 39.8976 56.2444 44.448 59.9985 44.448V51.1598C59.9985 51.1598 44.5272 47.9745 31.5586 42.9691C18.4762 37.9637 8.80664 31.8206 8.80664 31.8206Z" fill="#9C9C9C"/>
<path d="M110.963 31.8206C107.664 21.5823 98.4492 14.1879 87.5282 14.1879C73.8771 14.1879 62.8424 25.6776 62.8424 39.8976C62.8424 39.8976 63.5249 44.448 59.7709 44.448V51.1598C59.7709 51.1598 75.2422 47.9745 88.2108 42.9691C101.293 37.9637 110.963 31.8206 110.963 31.8206Z" fill="#9C9C9C"/>
<path d="M29.966 17.1456C44.6409 17.1456 55.1068 28.6354 55.1068 42.8553C55.1068 42.8553 55.9031 47.4057 59.8847 47.4057V44.448C56.1307 44.448 56.8132 39.8976 56.8132 39.8976C56.8132 25.6776 45.7785 14.1879 32.1274 14.1879C25.188 14.1879 19.045 17.1456 14.4946 21.9236C18.9313 18.852 24.278 17.1456 29.966 17.1456Z" fill="#626161"/>
<path d="M64.6626 42.8553C64.6626 28.6354 75.1284 17.1456 89.8034 17.1456C95.4914 17.1456 100.838 18.852 105.161 21.9236C100.724 17.1456 94.4676 14.1879 87.5282 14.1879C73.8771 14.1879 62.8424 25.6776 62.8424 39.8976C62.8424 39.8976 63.5249 44.448 59.7709 44.448V47.4057C63.8662 47.4057 64.6626 42.8553 64.6626 42.8553Z" fill="#626161"/>
</svg>
