<svg width="120" height="129" viewBox="0 0 120 129" fill="none" xmlns="http://www.w3.org/2000/svg">
<rect x="6.37406" y="79.3869" width="105.27" height="25.41" rx="12.705" fill="white" stroke="#1E1E1E" stroke-width="2.42"/>
<rect x="22.104" y="47.9269" width="75.02" height="79.86" rx="30.25" fill="white" stroke="#1E1E1E" stroke-width="2.42"/>
<path d="M100.889 50.8884C86.6098 31.4546 68.4578 34.4179 60.3949 45.389C60.1054 45.7887 59.8022 46.3263 59.5128 46.8914C59.3198 46.5744 59.1131 46.2711 58.9201 46.0093C50.8985 34.9555 32.6777 31.3995 18.3436 50.9022C11.5349 60.178 6.57306 62.1076 0.164062 61.9284C3.40302 66.5181 7.08303 75.3942 11.4246 79.8874C17.4339 86.1172 28.1431 83.0161 33.0085 70.6942C39.5277 54.1687 48.3763 50.1165 59.6231 50.1165C70.8698 50.1165 79.7046 54.1687 86.2376 70.6805C91.103 83.0023 101.812 86.1172 107.822 79.8736C112.163 75.3666 115.843 66.4905 119.082 61.9146C112.659 62.0938 107.697 60.1642 100.889 50.8884Z" fill="#626160"/>
<mask id="mask0_5580_4226" style="mask-type:alpha" maskUnits="userSpaceOnUse" x="43" y="8" width="34" height="41">
<path d="M61.2379 8.1543L76.548 46.485C76.548 46.485 66.4452 48.8396 59.8895 48.6282C53.4796 48.4216 43.7592 45.546 43.7592 45.546L61.2379 8.1543Z" fill="#23C865"/>
</mask>
<g mask="url(#mask0_5580_4226)">
<path d="M61.2379 8.1543L76.548 46.485C76.548 46.485 66.4452 48.8396 59.8895 48.6282C53.4796 48.4216 43.7592 45.546 43.7592 45.546L61.2379 8.1543Z" fill="#23C865"/>
<path d="M54.1161 23.0162C60.1161 26.0162 66.6161 28.0162 71.1161 27.5162" stroke="white" stroke-width="3"/>
<path d="M51.1161 29.5162C53.5509 30.7524 57.2335 32.2447 61.6161 33.5162C65.9987 34.7877 71.203 35.3439 72.1161 34.8141" stroke="black" stroke-width="3"/>
<path d="M47.6161 35.5162C50.6161 37.5162 54.1161 39.0162 61.1161 41.0162C68.1161 43.0162 73.8987 42.546 75.1161 42.0162" stroke="white" stroke-width="3"/>
</g>
</svg>
