<svg width="120" height="115" viewBox="0 0 120 115" fill="none" xmlns="http://www.w3.org/2000/svg">
<rect x="6.79984" y="65.3869" width="105.27" height="25.41" rx="12.705" fill="white" stroke="#1E1E1E" stroke-width="2.42"/>
<rect x="22.5298" y="33.9269" width="75.02" height="79.86" rx="30.25" fill="white" stroke="#1E1E1E" stroke-width="2.42"/>
<path d="M101.315 36.8884C87.0356 17.4546 68.8836 20.4179 60.8207 31.389C60.5312 31.7887 60.228 32.3263 59.9386 32.8914C59.7456 32.5744 59.5389 32.2711 59.3459 32.0093C51.3243 20.9555 33.1035 17.3995 18.7694 36.9022C11.9607 46.178 6.99885 48.1076 0.589844 47.9284C3.8288 52.5181 7.50881 61.3942 11.8504 65.8874C17.8597 72.1172 28.5689 69.0161 33.4342 56.6942C39.9535 40.1687 48.8021 36.1165 60.0488 36.1165C71.2956 36.1165 80.1304 40.1687 86.6634 56.6805C91.5287 69.0023 102.238 72.1172 108.247 65.8736C112.589 61.3666 116.269 52.4905 119.508 47.9146C113.085 48.0938 108.123 46.1642 101.315 36.8884Z" fill="#626160"/>
<path d="M88.3612 8.86396C88.3612 8.94619 88.2763 9.50666 86.9131 10.39C85.6372 11.2167 83.6586 12.0372 81.0348 12.7563C75.8157 14.1868 68.4925 15.0965 60.3237 15.0965C52.155 15.0965 44.8318 14.1868 39.6127 12.7563C36.9889 12.0372 35.0102 11.2167 33.7343 10.39C32.3712 9.50666 32.2863 8.94619 32.2863 8.86396C32.2863 8.78173 32.3712 8.22126 33.7343 7.33794C35.0102 6.51119 36.9889 5.6907 39.6127 4.97158C44.8318 3.54116 52.155 2.63147 60.3237 2.63147C68.4925 2.63147 75.8157 3.54116 81.0348 4.97158C83.6586 5.6907 85.6372 6.51119 86.9131 7.33794C88.2763 8.22126 88.3612 8.78173 88.3612 8.86396Z" stroke="#23C865" stroke-width="4"/>
</svg>
