<svg width="119" height="125" viewBox="0 0 119 125" fill="none" xmlns="http://www.w3.org/2000/svg">
<rect x="6.21" y="75.3869" width="105.27" height="25.41" rx="12.705" fill="white" stroke="#1E1E1E" stroke-width="2.42"/>
<rect x="21.94" y="43.9269" width="75.02" height="79.86" rx="30.25" fill="white" stroke="#1E1E1E" stroke-width="2.42"/>
<path d="M100.725 46.8884C86.4457 27.4546 68.2938 30.4179 60.2308 41.389C59.9414 41.7887 59.6382 42.3263 59.3487 42.8914C59.1558 42.5744 58.949 42.2711 58.7561 42.0093C50.7345 30.9555 32.5136 27.3995 18.1795 46.9022C11.3708 56.178 6.409 58.1076 0 57.9284C3.23896 62.5181 6.91896 71.3942 11.2605 75.8874C17.2698 82.1172 27.9791 79.0161 32.8444 66.6942C39.3637 50.1687 48.2122 46.1165 59.459 46.1165C70.7057 46.1165 79.5405 50.1687 86.0736 66.6805C90.9389 79.0023 101.648 82.1172 107.657 75.8736C111.999 71.3666 115.679 62.4905 118.918 57.9146C112.495 58.0938 107.533 56.1642 100.725 46.8884Z" fill="#626160"/>
<path d="M59.2318 0.946075V41.7169H39.748C39.5977 41.1159 39.3974 40.4647 39.2471 39.7635C39.197 39.463 39.0968 39.1625 38.9967 38.9121C36.893 30.9482 33.5873 18.3764 32.836 15.6216C31.4335 16.0724 29.8307 15.5214 29.0293 14.1691C28.1278 12.6164 28.6787 10.6129 30.2314 9.71131C31.7841 8.80974 33.7876 9.36069 34.6892 10.9134C35.4405 12.2657 35.19 13.9186 34.038 14.9204C37.0934 17.9256 45.6582 26.3402 45.6582 26.3402C45.5581 25.6891 45.508 15.271 45.508 11.0136C44.0054 11.0637 42.6029 10.112 42.2022 8.60939C41.7514 6.85635 42.7532 5.1033 44.5062 4.65251C46.2593 4.20173 48.0123 5.20347 48.4631 6.95652C48.8638 8.45913 48.1626 10.0118 46.8102 10.663C48.964 14.3694 54.724 24.487 54.724 24.487C54.724 24.487 57.3786 11.5144 58.4805 7.35722C57.028 7.0567 55.9261 5.75443 55.9261 4.20173C55.9762 2.3986 57.4287 0.946075 59.2318 0.946075Z" fill="#23C865"/>
<path d="M89.4344 14.119C88.6831 15.4713 87.0803 16.0223 85.6277 15.5715C84.8764 18.3263 81.5707 30.8981 79.467 38.862C79.3669 39.1625 79.3168 39.463 79.2166 39.7135C79.0163 40.4147 78.866 41.0658 78.7157 41.6669H59.2319V0.895996C61.035 0.895996 62.4875 2.34852 62.4875 4.15165C62.4875 5.70435 61.3856 7.00662 59.9331 7.30714C61.035 11.4644 63.6896 24.4369 63.6896 24.4369C63.6896 24.4369 69.4496 14.3193 71.6034 10.6129C70.3011 9.91167 69.5498 8.40905 69.9505 6.90644C70.4013 5.15339 72.2044 4.15166 73.9074 4.60244C75.6604 5.05323 76.6622 6.85636 76.2114 8.55931C75.8107 10.0619 74.4082 11.0136 72.9056 10.9635C72.9056 15.271 72.8555 25.639 72.7554 26.2901C72.7554 26.2901 81.3203 17.8755 84.3756 14.8703C83.2737 13.8685 82.9731 12.2157 83.7244 10.8633C84.626 9.31062 86.6295 8.75966 88.1822 9.66123C89.785 10.6129 90.3359 12.5663 89.4344 14.119Z" fill="#23C865"/>
<path d="M59.2318 36.7083C60.117 36.7083 60.8346 35.9907 60.8346 35.1055C60.8346 34.2203 60.117 33.5027 59.2318 33.5027C58.3466 33.5027 57.629 34.2203 57.629 35.1055C57.629 35.9907 58.3466 36.7083 59.2318 36.7083Z" fill="white"/>
<path d="M73.0057 36.7083C72.1042 36.7083 71.403 35.957 71.403 35.1055C71.403 34.2039 72.1543 33.5027 73.0057 33.5027C73.9073 33.5027 74.6085 34.254 74.6085 35.1055C74.6085 36.007 73.9073 36.7083 73.0057 36.7083Z" fill="white"/>
<path d="M45.5079 36.7083C44.6064 36.7083 43.9052 35.957 43.9052 35.1055C43.9052 34.2039 44.6565 33.5027 45.5079 33.5027C46.4095 33.5027 47.1107 34.254 47.1107 35.1055C47.1107 36.007 46.4095 36.7083 45.5079 36.7083Z" fill="white"/>
</svg>
