<svg width="120" height="99" viewBox="0 0 120 99" fill="none" xmlns="http://www.w3.org/2000/svg">
<rect x="6.88188" y="49.3869" width="105.27" height="25.41" rx="12.705" fill="white" stroke="#1E1E1E" stroke-width="2.42"/>
<rect x="22.6119" y="17.9269" width="75.02" height="79.86" rx="30.25" fill="white" stroke="#1E1E1E" stroke-width="2.42"/>
<path d="M101.397 20.8884C87.1176 1.45462 68.9656 4.41793 60.9027 15.389C60.6133 15.7887 60.31 16.3263 60.0206 16.8914C59.8276 16.5744 59.6209 16.2711 59.4279 16.0093C51.4064 4.95545 33.1855 1.39949 18.8514 20.9022C12.0427 30.178 7.08088 32.1076 0.671875 31.9284C3.91083 36.5181 7.59084 45.3942 11.9324 49.8874C17.9417 56.1172 28.651 53.0161 33.5163 40.6942C40.0355 24.1687 48.8841 20.1165 60.1309 20.1165C71.3776 20.1165 80.2124 24.1687 86.7455 40.6805C91.6108 53.0023 102.32 56.1172 108.329 49.8736C112.671 45.3666 116.351 36.4905 119.59 31.9146C113.167 32.0938 108.205 30.1642 101.397 20.8884Z" fill="#626160"/>
<path d="M41.2031 9.93075C41.2031 9.93075 37.7031 5.83075 35.8031 2.93075C33.9031 0.0307527 33.8031 0.330747 33.2031 1.83075C32.4031 3.63075 32.4031 5.93075 32.4031 7.83075C32.4031 10.6307 32.7031 14.5307 34.1031 17.0307C35.5031 19.5307 38.6031 17.7308 40.1031 16.4308C42.1031 14.6308 42.8031 12.3308 41.2031 9.93075Z" fill="#23C865"/>
<path d="M33.8031 1.13074C33.8031 1.13074 32.0031 5.13073 32.9031 11.2307C33.8031 17.2307 34.9031 18.2307 36.6031 18.0307C36.6031 18.0307 35.2031 17.6307 34.2031 12.9307C33.2031 8.33074 33.1031 2.73074 33.8031 1.13074Z" fill="#23C865"/>
<path d="M40.1031 9.53073C39.8031 9.23073 39.4031 8.73074 39.0031 8.13074C39.1031 8.33074 39.2031 8.63073 39.3031 8.83073C39.7031 9.83073 40.4031 10.7307 40.8031 11.7307C42.0031 14.2307 39.1031 16.8307 39.1031 16.8307C39.1031 16.8307 40.4031 16.7307 41.4031 14.3307C42.4031 11.9307 41.1031 10.5307 40.1031 9.53073Z" fill="#23C865"/>
<path d="M79.9028 9.93075C79.9028 9.93075 83.4028 5.83075 85.3028 2.93075C87.2028 0.0307527 87.3028 0.330747 87.9028 1.83075C88.7028 3.63075 88.7028 5.93075 88.7028 7.83075C88.7028 10.6307 88.4028 14.5307 87.0028 17.0307C85.6028 19.5307 82.5028 17.7308 81.0028 16.4308C79.0028 14.6308 78.3028 12.3308 79.9028 9.93075Z" fill="#23C865"/>
<path d="M87.3028 1.13074C87.3028 1.13074 89.1028 5.13073 88.2028 11.2307C87.3028 17.2307 86.2028 18.2307 84.5028 18.0307C84.5028 18.0307 85.9028 17.6307 86.9028 12.9307C87.9028 8.33074 88.0028 2.73074 87.3028 1.13074Z" fill="#23C865"/>
<path d="M81.0028 9.53073C81.3028 9.23073 81.7028 8.73074 82.1028 8.13074C82.0028 8.33074 81.9028 8.63073 81.8028 8.83073C81.0028 10.7307 79.8028 13.3307 80.9028 15.4307C81.2028 15.9307 81.6028 16.4307 82.0028 16.8307C82.0028 16.8307 80.7028 16.7307 79.7028 14.3307C78.7028 11.9307 80.0028 10.5307 81.0028 9.53073Z" fill="#23C865"/>
</svg>
