<svg width="120" height="128" viewBox="0 0 120 128" fill="none" xmlns="http://www.w3.org/2000/svg">
<rect x="6.45609" y="78.3869" width="105.27" height="25.41" rx="12.705" fill="white" stroke="#1E1E1E" stroke-width="2.42"/>
<rect x="22.1861" y="46.9269" width="75.02" height="79.86" rx="30.25" fill="white" stroke="#1E1E1E" stroke-width="2.42"/>
<path d="M100.971 49.8884C86.6918 30.4546 68.5399 33.4179 60.4769 44.389C60.1875 44.7887 59.8843 45.3263 59.5948 45.8914C59.4019 45.5744 59.1951 45.2711 59.0022 45.0093C50.9806 33.9555 32.7597 30.3995 18.4256 49.9022C11.6169 59.178 6.6551 61.1076 0.246094 60.9284C3.48505 65.5181 7.16506 74.3942 11.5066 78.8874C17.5159 85.1172 28.2252 82.0161 33.0905 69.6942C39.6098 53.1687 48.4583 49.1165 59.7051 49.1165C70.9518 49.1165 79.7866 53.1687 86.3197 69.6805C91.185 82.0023 101.894 85.1172 107.904 78.8736C112.245 74.3666 115.925 65.4905 119.164 60.9146C112.741 61.0938 107.779 59.1642 100.971 49.8884Z" fill="#626160"/>
<path d="M30.8887 10.9029C32.1149 5.33351 37.6872 1.86702 43.225 3.2286L55.7596 6.31049C57.2962 6.68828 58.8997 6.70161 60.4423 6.34942L75.1253 2.99718C80.5779 1.75231 86.01 5.15275 87.2727 10.6012L94.9111 43.5611C96.3856 49.9238 91.5542 56.0029 85.0229 56.0029H33.5875C27.1021 56.0029 22.2802 50.004 23.6746 43.6702L30.8887 10.9029Z" fill="#23C865"/>
<path d="M24.892 37.6136H93.642L95.392 45.6136H23.017L24.892 37.6136Z" fill="white"/>
<rect x="13.877" y="45.6136" width="91" height="15.5462" rx="6" fill="#23C865"/>
</svg>
