<svg width="119" height="93" viewBox="0 0 119 93" fill="none" xmlns="http://www.w3.org/2000/svg">
<rect x="6.21" y="42.67" width="105.27" height="25.41" rx="12.705" fill="white" stroke="#1E1E1E" stroke-width="2.42"/>
<rect x="21.94" y="11.21" width="75.02" height="79.86" rx="30.25" fill="white" stroke="#1E1E1E" stroke-width="2.42"/>
<path d="M100.725 14.1715C86.4457 -5.26229 68.2938 -2.29899 60.2308 8.67212C59.9414 9.07182 59.6382 9.60935 59.3487 10.1744C59.1558 9.85744 58.949 9.55421 58.7561 9.29234C50.7345 -1.76146 32.5136 -5.31742 18.1795 14.1852C11.3708 23.4611 6.409 25.3906 0 25.2115C3.23896 29.8011 6.91896 38.6773 11.2605 43.1705C17.2698 49.4003 27.9791 46.2991 32.8444 33.9773C39.3637 17.4518 48.2122 13.3996 59.459 13.3996C70.7057 13.3996 79.5405 17.4518 86.0736 33.9635C90.9389 46.2854 101.648 49.4003 107.657 43.1567C111.999 38.6497 115.679 29.7736 118.918 25.1977C112.495 25.3769 107.533 23.4473 100.725 14.1715Z" fill="#626160"/>
<rect x="28.5215" y="41.3352" width="25.5" height="18.25" rx="2" fill="black" fill-opacity="0.95"/>
<rect x="64.3965" y="41.1563" width="26" height="18.6078" rx="2" fill="black" fill-opacity="0.95"/>
<path d="M36.6373 40.5226L40.7715 40.5226L53.084 60.0851L49.084 60.0851L36.6373 40.5226Z" fill="#626262" fill-opacity="0.5"/>
<path d="M72.8164 40.7073L76.9506 40.7073L89.2631 60.2698L85.2631 60.2698L72.8164 40.7073Z" fill="#626262" fill-opacity="0.5"/>
<path d="M42.209 41.1476L45.209 41.1476L54.7883 57.5058L53.6286 59.1603L42.209 41.1476Z" fill="#626262" fill-opacity="0.5"/>
<path d="M78.3881 41.3323L81.3881 41.3323L90.9674 57.6905L89.8077 59.345L78.3881 41.3323Z" fill="#626262" fill-opacity="0.5"/>
<path fill-rule="evenodd" clip-rule="evenodd" d="M28.0699 43.4433V49.2415L22.5886 45.9754C22.3139 45.8117 21.9426 45.878 21.7595 46.1236C21.5763 46.3692 21.6506 46.701 21.9253 46.8647L28.0699 50.526V57.5338C28.0699 59.2504 29.6268 60.642 31.5474 60.642H52.0953C54.0159 60.642 55.5728 59.2504 55.5728 57.5338V51.5574C55.7464 51.5573 55.9185 51.49 56.0366 51.3603C57.6858 49.5487 59.2334 49.2562 60.4598 49.4891C61.7545 49.7348 62.8524 50.596 63.4609 51.3387C63.5779 51.4815 63.7593 51.5573 63.9432 51.5574V57.5338C63.9432 59.2504 65.5002 60.642 67.4208 60.642H87.9686C89.8892 60.642 91.4462 59.2504 91.4462 57.5338V50.5262L97.5909 46.8648C97.8656 46.7011 97.9399 46.3693 97.7567 46.1237C97.5735 45.8781 97.2023 45.8118 96.9276 45.9755L91.4462 49.2417V43.4433C91.4462 41.7267 89.8892 40.3351 87.9686 40.3351H67.4208C65.5002 40.3351 63.9432 41.7267 63.9432 43.4433V50.1845C63.1849 49.4483 62.0615 48.7005 60.7083 48.4436C59.1044 48.1391 57.3073 48.5472 55.5728 50.2092V43.4433C55.5728 41.7267 54.0159 40.3351 52.0953 40.3351H31.5474C29.6268 40.3351 28.0699 41.7267 28.0699 43.4433ZM52.0953 41.4039H31.5474C30.2872 41.4039 29.2657 42.317 29.2657 43.4433V50.047C29.3391 50.1876 29.3426 50.3539 29.2657 50.5002V57.5338C29.2657 58.6602 30.2872 59.5732 31.5474 59.5732H52.0953C53.3555 59.5732 54.377 58.6602 54.377 57.5338V43.4433C54.377 42.317 53.3555 41.4039 52.0953 41.4039ZM87.9686 41.4039H67.4208C66.1606 41.4039 65.139 42.317 65.139 43.4433V57.5338C65.139 58.6602 66.1606 59.5732 67.4208 59.5732H87.9686C89.2288 59.5732 90.2504 58.6602 90.2504 57.5338V43.4433C90.2504 42.317 89.2288 41.4039 87.9686 41.4039Z" fill="#1E1E1E" stroke="black" stroke-width="2"/>
</svg>
