<svg width="119" height="104" viewBox="0 0 119 104" fill="none" xmlns="http://www.w3.org/2000/svg">
<rect x="6.21" y="42.67" width="105.27" height="25.41" rx="12.705" fill="white" stroke="#1E1E1E" stroke-width="2.42"/>
<rect x="21.94" y="11.21" width="75.02" height="79.86" rx="30.25" fill="white" stroke="#1E1E1E" stroke-width="2.42"/>
<path d="M100.725 14.1715C86.4457 -5.26229 68.2938 -2.29899 60.2308 8.67212C59.9414 9.07182 59.6382 9.60935 59.3487 10.1744C59.1558 9.85744 58.949 9.55421 58.7561 9.29234C50.7345 -1.76146 32.5136 -5.31742 18.1795 14.1852C11.3708 23.4611 6.409 25.3906 0 25.2115C3.23896 29.8011 6.91896 38.6773 11.2605 43.1705C17.2698 49.4003 27.9791 46.2991 32.8444 33.9773C39.3637 17.4518 48.2122 13.3996 59.459 13.3996C70.7057 13.3996 79.5405 17.4518 86.0736 33.9635C90.9389 46.2854 101.648 49.4003 107.657 43.1567C111.999 38.6497 115.679 29.7736 118.918 25.1977C112.495 25.3769 107.533 23.4473 100.725 14.1715Z" fill="#626160"/>
<path d="M55.7312 90.1179C55.7312 90.1179 49.9905 85.1973 44.8462 83.4825C39.7019 81.6932 35.825 80.9476 35.825 80.9476C35.825 80.9476 33.8866 86.0174 34.1103 90.7889C34.2594 95.5604 35.2286 103.612 35.2286 103.612C35.2286 103.612 40.8948 103.24 46.3373 101.376C51.7798 99.5118 55.8058 96.5296 55.8058 96.5296V90.1179H55.7312Z" fill="#23C865"/>
<path d="M63.1868 90.1179C63.1868 90.1179 68.9275 85.1973 74.0718 83.4825C79.2161 81.6932 83.0929 80.9476 83.0929 80.9476C83.0929 80.9476 85.0314 86.0174 84.8077 90.7889C84.6586 95.5604 83.6894 103.612 83.6894 103.612C83.6894 103.612 78.0232 103.24 72.5807 101.376C67.1382 99.4373 63.1122 96.5296 63.1122 96.5296V90.1179H63.1868Z" fill="#23C865"/>
<path d="M56.9241 93.2493C56.9241 93.2493 52.7491 91.6091 47.232 90.5653C43.0569 89.7452 40.4475 96.3806 49.0959 95.3368C57.7442 94.293 56.9241 93.2493 56.9241 93.2493Z" fill="#1CA151"/>
<path d="M61.3974 93.2493C61.3974 93.2493 65.5725 91.6091 71.0895 90.5653C75.2646 89.7452 77.8741 96.3806 69.2257 95.3368C60.5027 94.293 61.3974 93.2493 61.3974 93.2493Z" fill="#1CA151"/>
<path d="M63.1867 90.1179H55.7312V96.3805H63.1867V90.1179Z" fill="#1CA151"/>
</svg>
