<svg width="119" height="93" viewBox="0 0 119 93" fill="none" xmlns="http://www.w3.org/2000/svg">
<rect x="6.21" y="42.67" width="105.27" height="25.41" rx="12.705" fill="white" stroke="#1E1E1E" stroke-width="2.42"/>
<rect x="21.94" y="11.21" width="75.02" height="79.86" rx="30.25" fill="white" stroke="#1E1E1E" stroke-width="2.42"/>
<path d="M100.725 14.1715C86.4457 -5.26229 68.2938 -2.29899 60.2308 8.67212C59.9414 9.07182 59.6382 9.60935 59.3487 10.1744C59.1558 9.85744 58.949 9.55421 58.7561 9.29234C50.7345 -1.76146 32.5136 -5.31742 18.1795 14.1852C11.3708 23.4611 6.409 25.3906 0 25.2115C3.23896 29.8011 6.91896 38.6773 11.2605 43.1705C17.2698 49.4003 27.9791 46.2991 32.8444 33.9773C39.3637 17.4518 48.2122 13.3996 59.459 13.3996C70.7057 13.3996 79.5405 17.4518 86.0736 33.9635C90.9389 46.2854 101.648 49.4003 107.657 43.1567C111.999 38.6497 115.679 29.7736 118.918 25.1977C112.495 25.3769 107.533 23.4473 100.725 14.1715Z" fill="#626160"/>
<path d="M44.267 40.3737C37.5497 38.8326 34.9212 41.8505 29.0801 42.4284C21.3893 43.1348 18.3714 36.7778 17.4952 34.5946C17.3005 34.1451 17.1058 33.503 16.8138 32.7966C15.5482 32.1545 14.4773 33.1177 16.9111 41.2726C20.2211 52.2529 20.9025 58.2888 30.3457 61.9489C39.7888 65.609 42.2226 64.3247 49.524 66.9574C50.3028 67.2785 51.3737 67.8564 52.7366 68.4985C54.0022 66.829 55.4625 64.2605 56.9228 60.3436C60.5248 50.6476 50.9843 41.9147 44.267 40.3737ZM39.8862 53.6013C30.6377 52.1887 26.2569 46.4738 26.2569 46.4738C26.2569 46.4738 36.5762 45.7675 44.3644 47.5654C52.1525 49.3633 53.5155 54.4361 53.5155 54.4361C53.5155 54.4361 49.1346 54.9498 39.8862 53.6013Z" fill="#23C865"/>
<path d="M74.651 40.3732C81.3682 38.8321 83.9967 41.8501 89.8379 42.428C97.5287 43.1343 100.547 36.7773 101.423 34.5941C101.617 34.1446 101.812 33.5025 102.104 32.7962C103.37 32.1541 104.441 33.1172 102.007 41.2722C98.6969 52.2524 98.0154 58.2883 88.5723 61.9484C79.1291 65.6085 76.6953 64.3243 69.3939 66.957C68.6151 67.278 67.5443 67.8559 66.1813 68.4981C64.9158 66.8285 63.4555 64.2601 61.9952 60.3431C58.3932 50.6471 67.9337 41.9143 74.651 40.3732ZM79.0318 53.6009C88.2802 52.1882 92.6611 46.4733 92.6611 46.4733C92.6611 46.4733 82.3418 45.767 74.5536 47.5649C66.7654 49.3629 65.4025 54.4356 65.4025 54.4356C65.4025 54.4356 69.7834 54.9493 79.0318 53.6009Z" fill="#23C865"/>
<path d="M89.8277 42.4279C87.658 42.2133 85.9315 41.6619 84.2741 41.1326C81.4697 40.237 78.8629 39.4045 74.6408 40.3732C67.9235 41.9143 58.383 50.6471 62.1798 60.4073C63.64 64.3242 65.1003 66.8927 66.3659 68.5622C64.4189 69.4612 62.0824 70.4244 59.4539 70.4886C56.8254 70.4886 54.489 69.4612 52.5419 68.5622C53.7101 66.8927 55.1704 64.3242 56.7281 60.4073C60.5248 50.7113 50.8869 41.9785 44.1697 40.4374C39.988 39.478 37.3909 40.3103 34.6169 41.1993C32.9348 41.7383 31.1877 42.2982 28.9827 42.4922C21.3893 43.1985 18.274 36.8415 17.3979 34.6583C17.2032 34.273 16.9111 33.5667 16.7164 32.8604C17.2032 33.053 17.6899 33.4383 17.982 33.8235C19.2476 35.2362 20.3184 36.071 23.239 37.612C25.2225 38.6151 28.4121 37.3673 31.9058 36.0006C33.5562 35.355 35.2745 34.6828 36.9656 34.2088C44.1697 32.1897 50.0872 31.7589 58.5622 31.7081C67.6892 31.6533 74.0168 32.2699 81.8449 34.1446C83.7747 34.6068 85.7097 35.373 87.5327 36.0949C90.7946 37.3867 93.698 38.5364 95.5715 37.5478C98.492 36.071 99.5629 35.172 100.828 33.7593C100.934 33.6724 101.039 33.576 101.147 33.4779C101.436 33.2136 101.739 32.9366 102.094 32.7961C101.943 33.162 101.818 33.5106 101.705 33.8241C101.6 34.1159 101.506 34.3774 101.413 34.5941C100.536 36.7773 97.5185 43.1343 89.8277 42.4279Z" fill="#C4C4C4"/>
<path d="M89.8277 42.4279C87.658 42.2133 85.9315 41.6619 84.2741 41.1326C81.4697 40.237 78.8629 39.4045 74.6408 40.3732C67.9235 41.9143 58.383 50.6471 62.1798 60.4073C63.64 64.3242 65.1003 66.8927 66.3659 68.5622C64.4189 69.4612 62.0824 70.4244 59.4539 70.4886C56.8254 70.4886 54.489 69.4612 52.5419 68.5622C53.7101 66.8927 55.1704 64.3242 56.7281 60.4073C60.5248 50.7113 50.8869 41.9785 44.1697 40.4374C39.988 39.478 37.3909 40.3103 34.6169 41.1993C32.9348 41.7383 31.1877 42.2982 28.9827 42.4922C21.3893 43.1985 18.274 36.8415 17.3979 34.6583C17.2032 34.273 16.9111 33.5667 16.7164 32.8604C17.2032 33.053 17.6899 33.4383 17.982 33.8235C19.2476 35.2362 20.3184 36.071 23.239 37.612C25.2225 38.6151 28.4121 37.3673 31.9058 36.0006C33.5562 35.355 35.2745 34.6828 36.9656 34.2088C44.1697 32.1897 50.0872 31.7589 58.5622 31.7081C67.6892 31.6533 74.0168 32.2699 81.8449 34.1446C83.7747 34.6068 85.7097 35.373 87.5327 36.0949C90.7946 37.3867 93.698 38.5364 95.5715 37.5478C98.492 36.071 99.5629 35.172 100.828 33.7593C100.934 33.6724 101.039 33.576 101.147 33.4779C101.436 33.2136 101.739 32.9366 102.094 32.7961C101.943 33.162 101.818 33.5106 101.705 33.8241C101.6 34.1159 101.506 34.3774 101.413 34.5941C100.536 36.7773 97.5185 43.1343 89.8277 42.4279Z" stroke="black"/>
</svg>
