<svg width="119" height="93" viewBox="0 0 119 93" fill="none" xmlns="http://www.w3.org/2000/svg">
<rect x="6.21" y="42.67" width="105.27" height="25.41" rx="12.705" fill="white" stroke="#1E1E1E" stroke-width="2.42"/>
<rect x="21.94" y="11.21" width="75.02" height="79.86" rx="30.25" fill="white" stroke="#1E1E1E" stroke-width="2.42"/>
<path d="M100.725 14.1715C86.4457 -5.26229 68.2938 -2.29899 60.2308 8.67212C59.9414 9.07182 59.6382 9.60935 59.3487 10.1744C59.1558 9.85744 58.949 9.55421 58.7561 9.29234C50.7345 -1.76146 32.5136 -5.31742 18.1795 14.1852C11.3708 23.4611 6.409 25.3906 0 25.2115C3.23896 29.8011 6.91896 38.6773 11.2605 43.1705C17.2698 49.4003 27.9791 46.2991 32.8444 33.9773C39.3637 17.4518 48.2122 13.3996 59.459 13.3996C70.7057 13.3996 79.5405 17.4518 86.0736 33.9635C90.9389 46.2854 101.648 49.4003 107.657 43.1567C111.999 38.6497 115.679 29.7736 118.918 25.1977C112.495 25.3769 107.533 23.4473 100.725 14.1715Z" fill="#626160"/>
<path d="M64.5788 54.8002C64.7927 55.0558 65.1734 55.0896 65.4291 54.8756C65.6847 54.6617 65.7185 54.281 65.5045 54.0253L64.5788 54.8002ZM54.942 54.0017C54.715 54.2458 54.7288 54.6277 54.9729 54.8548C55.2171 55.0818 55.599 55.0679 55.826 54.8238L54.942 54.0017ZM27.9439 50.4469C28.2213 50.6318 28.596 50.5569 28.7809 50.2795C28.9658 50.0021 28.8909 49.6274 28.6135 49.4424L27.9439 50.4469ZM22.0845 45.0898C21.8072 44.9049 21.4324 44.9798 21.2475 45.2572C21.0626 45.5346 21.1375 45.9093 21.4149 46.0943L22.0845 45.0898ZM92.1024 49.2491C91.8251 49.434 91.7501 49.8088 91.935 50.0861C92.1199 50.3635 92.4947 50.4385 92.7721 50.2536L92.1024 49.2491ZM99.0109 46.0944C99.2882 45.9095 99.3632 45.5347 99.1783 45.2573C98.9934 44.9799 98.6186 44.905 98.3412 45.0899L99.0109 46.0944ZM65.5045 54.0253C64.6789 53.0389 63.1657 51.8475 61.2762 51.4963C59.3375 51.136 57.1015 51.6795 54.942 54.0017L55.826 54.8238C57.7329 52.7732 59.5633 52.4058 61.0556 52.6832C62.597 52.9697 63.8795 53.9647 64.5788 54.8002L65.5045 54.0253ZM55.0513 52.14C55.0513 59.2191 49.3153 64.9573 42.2402 64.9573V66.1645C49.9826 66.1645 56.2586 59.8853 56.2586 52.14H55.0513ZM42.2402 64.9573C35.165 64.9573 29.429 59.2191 29.429 52.14H28.2218C28.2218 59.8853 34.4978 66.1645 42.2402 66.1645V64.9573ZM29.429 52.14C29.429 45.0609 35.165 39.3227 42.2402 39.3227V38.1155C34.4978 38.1155 28.2218 44.3947 28.2218 52.14H29.429ZM42.2402 39.3227C49.3153 39.3227 55.0513 45.0609 55.0513 52.14H56.2586C56.2586 44.3947 49.9826 38.1155 42.2402 38.1155V39.3227ZM91.2676 52.14C91.2676 59.2191 85.5315 64.9573 78.4564 64.9573V66.1645C86.1988 66.1645 92.4748 59.8853 92.4748 52.14H91.2676ZM78.4564 64.9573C71.3813 64.9573 65.6453 59.2191 65.6453 52.14H64.438C64.438 59.8853 70.714 66.1645 78.4564 66.1645V64.9573ZM65.6453 52.14C65.6453 45.0609 71.3813 39.3227 78.4564 39.3227V38.1155C70.714 38.1155 64.438 44.3947 64.438 52.14H65.6453ZM78.4564 39.3227C85.5315 39.3227 91.2676 45.0609 91.2676 52.14H92.4748C92.4748 44.3947 86.1988 38.1155 78.4564 38.1155V39.3227ZM28.6135 49.4424L22.0845 45.0898L21.4149 46.0943L27.9439 50.4469L28.6135 49.4424ZM92.7721 50.2536L99.0109 46.0944L98.3412 45.0899L92.1024 49.2491L92.7721 50.2536Z" fill="#1E1E1E"/>
</svg>
