<svg width="119" height="93" viewBox="0 0 119 93" fill="none" xmlns="http://www.w3.org/2000/svg">
<rect x="6.21" y="42.67" width="105.27" height="25.41" rx="12.705" fill="white" stroke="#1E1E1E" stroke-width="2.42"/>
<rect x="21.94" y="11.21" width="75.02" height="79.86" rx="30.25" fill="white" stroke="#1E1E1E" stroke-width="2.42"/>
<path d="M100.725 14.1715C86.4457 -5.26229 68.2938 -2.29899 60.2308 8.67212C59.9414 9.07182 59.6382 9.60935 59.3487 10.1744C59.1558 9.85744 58.949 9.55421 58.7561 9.29234C50.7345 -1.76146 32.5136 -5.31742 18.1795 14.1852C11.3708 23.4611 6.409 25.3906 0 25.2115C3.23896 29.8011 6.91896 38.6773 11.2605 43.1705C17.2698 49.4003 27.9791 46.2991 32.8444 33.9773C39.3637 17.4518 48.2122 13.3996 59.459 13.3996C70.7057 13.3996 79.5405 17.4518 86.0736 33.9635C90.9389 46.2854 101.648 49.4003 107.657 43.1567C111.999 38.6497 115.679 29.7736 118.918 25.1977C112.495 25.3769 107.533 23.4473 100.725 14.1715Z" fill="#626160"/>
<mask id="mask0_5580_4313" style="mask-type:alpha" maskUnits="userSpaceOnUse" x="59" y="32" width="44" height="42">
<path d="M95.17 66.6562L93.9825 70.6562L83.8575 73.9688C78.295 71.8646 67.095 67.6188 66.795 67.4688C66.495 67.3187 61.8783 51.0312 59.6075 42.9062L71.7325 32.7812L95.17 37.8438L100.357 52.4688L102.17 64.1562L95.17 66.6562Z" fill="#C4C4C4"/>
</mask>
<g mask="url(#mask0_5580_4313)">
<path d="M93.6422 43.4426C93.327 43.4232 93.0525 43.4961 92.8202 43.5942C90.5426 38.9446 85.909 35.6542 80.4151 35.317C72.2543 34.8161 65.1312 41.1155 64.6303 49.2762C64.1474 57.1444 70.454 64.2611 78.6079 64.7616C81.4882 64.9384 84.244 64.3001 86.6127 62.9941C86.6489 63.0568 86.6893 63.1175 86.7341 63.1759C86.0859 63.746 85.6383 64.4808 85.5887 65.2903C85.5431 66.0323 85.8062 66.8447 86.5021 67.4877C87.1923 68.1255 88.2673 68.5605 89.7905 68.654L94.6813 68.9542L94.7761 68.96L94.8664 68.9306L96.5835 68.3728L101.803 69.387L101.835 69.3932L101.868 69.3952L111.849 70.0078C113.372 70.1013 114.492 69.801 115.255 69.2524C116.025 68.6994 116.385 67.9252 116.431 67.1832C116.481 66.3651 116.12 65.4776 115.428 64.8299C115.461 64.7845 115.492 64.738 115.521 64.6906C117.786 66.3774 120.523 67.5346 123.511 67.718C131.672 68.2189 138.795 61.9195 139.296 53.7587C139.463 51.0374 138.887 48.4516 137.728 46.1866L138.778 45.5379C139.575 46.2121 140.563 46.623 141.733 46.6948C144.504 46.8649 146.966 44.6877 147.136 41.9168C147.306 39.1459 145.129 36.684 142.358 36.5139C139.587 36.3439 137.125 38.521 136.955 41.2919C136.923 41.8255 136.962 42.3779 137.138 42.9437L136.187 43.5697C133.682 40.4053 129.809 38.2484 125.437 37.9801C119.841 37.6366 114.831 40.4341 112.004 44.7749C111.772 44.6454 111.484 44.5376 111.109 44.5146C109.784 44.4333 108.798 45.4553 107.892 47.1086C106.795 49.0958 105.756 51.9804 105.01 54.6948C104.268 57.3947 103.79 60.0142 103.861 61.4576L103.861 61.4592C103.912 62.4395 104.233 63.2276 104.759 63.8462C105.28 64.4579 105.976 64.8745 106.738 65.1632C108.244 65.7338 110.117 65.8435 111.709 65.8915L112 65.9094C112.817 65.9596 113.374 66.1987 113.709 66.4633C114.055 66.736 114.137 67.0051 114.129 67.1421C114.126 67.1916 114.086 67.3491 113.747 67.5025C113.41 67.6555 112.841 67.7644 111.99 67.7121L102.036 67.1012L96.71 66.1794L96.6024 66.1608L96.4968 66.1887L94.7416 66.6535L89.9314 66.3583C89.08 66.306 88.5293 66.1285 88.213 65.9353C87.8959 65.7417 87.8752 65.5804 87.8782 65.531C87.8855 65.4117 88.0054 65.1524 88.4094 64.9141C88.7937 64.6875 89.3796 64.521 90.1415 64.5678L90.4409 64.5862L90.4833 64.5888C92.0511 64.685 93.9079 64.7991 95.4541 64.4342C96.2434 64.2479 96.9862 63.9301 97.5786 63.3942C98.1783 62.8518 98.5929 62.1136 98.764 61.1464L98.7643 61.1448C99.0116 59.7209 98.8575 57.0626 98.4509 54.2923C98.0421 51.507 97.3643 48.5171 96.5178 46.4106C95.8155 44.6451 94.8604 43.5173 93.6422 43.4426ZM140.438 44.3599L140.769 44.1272L140.521 43.7266L139.428 41.9563L139.172 41.5421L138.764 41.7795C138.751 41.6273 138.748 41.471 138.758 41.3024C138.87 39.482 140.434 38.099 142.254 38.2108C144.074 38.3225 145.457 39.8863 145.346 41.7067C145.234 43.5271 143.67 44.9101 141.85 44.7984C141.314 44.7655 140.867 44.616 140.438 44.3599ZM111.661 63.2836C109.948 63.1765 108.56 63.0346 107.59 62.6901C107.103 62.5171 106.761 62.3061 106.539 62.0576C106.326 61.8193 106.196 61.5167 106.182 61.0965L106.182 61.0965L106.181 61.0843C106.113 59.9167 106.517 57.5578 107.225 54.9869C107.929 52.4307 108.909 49.7581 109.942 47.9733L109.943 47.9733L109.948 47.9629C110.385 47.1659 110.697 46.8275 110.872 46.6893C110.874 46.6872 110.877 46.6851 110.879 46.6831C110.239 48.2035 109.776 49.9132 109.664 51.7397C109.438 55.4264 110.595 58.9209 112.651 61.6798C112.095 62.0194 111.703 62.5946 111.661 63.2836ZM94.3728 47.0069L94.3733 47.0081C95.1349 48.909 95.7811 51.6869 96.1798 54.3112C96.5809 56.9507 96.7162 59.3372 96.5075 60.4865C96.4174 60.9349 96.2353 61.2361 95.9884 61.4524C95.7329 61.6761 95.3717 61.8404 94.8766 61.9464C93.8656 62.1627 92.466 62.1056 90.7 61.9972L90.6 61.991C90.6019 61.964 90.6035 61.9384 90.6049 61.9147C90.6054 61.9067 90.6058 61.8988 90.6063 61.8912C90.6401 61.3405 90.4249 60.7723 90.0581 60.3695C92.5627 57.8771 94.1648 54.5156 94.3989 50.7026C94.4948 49.1389 94.3247 47.6308 93.9968 46.1877C94.1087 46.3934 94.2351 46.6606 94.3728 47.0069ZM125.202 40.1698C132.113 40.594 137.337 46.5012 136.913 53.4121C136.489 60.323 130.581 65.547 123.67 65.1229C116.76 64.6987 111.536 58.7914 111.96 51.8806C112.384 44.9697 118.291 39.7457 125.202 40.1698ZM80.2865 37.4131C87.1973 37.8372 92.4214 43.7445 91.9972 50.6554C91.5731 57.5662 85.6658 62.7903 78.755 62.3661C71.8441 61.942 66.62 56.0347 67.0442 49.1238C67.4684 42.213 73.3756 36.9889 80.2865 37.4131Z" fill="#23C865" stroke="#23C865"/>
</g>
</svg>
